<svg xmlns="http://www.w3.org/2000/svg" viewBox="0 0 176.42 176.42"><defs><style>.a{fill:#fbbf48;}.b{fill:#1d1d1b;}</style></defs><title>clock</title><circle class="a" cx="88.21" cy="88.21" r="88.21"/><path class="b" d="M292.49,98.81c0,.48.05.3.06.38C292.51,98.38,292.48,98.83,292.49,98.81Z" transform="translate(-152.55 -10.97)"/><polygon class="b" points="139.19 79.96 139.23 80.09 139.01 78.95 139.19 79.96"/><path class="b" d="M290.21,83.69c0,.72.65,2.61.92,3.9l0,.22.23.56C291,86.81,290.45,84.8,290.21,83.69Z" transform="translate(-152.55 -10.97)"/><path class="b" d="M289.29,79.8c0,.26-.32-.8.27.9l0-.17Z" transform="translate(-152.55 -10.97)"/><path class="b" d="M289.52,80.53c.24.75-.1-.51,0,0Z" transform="translate(-152.55 -10.97)"/><path class="b" d="M288.22,77.13l.47.93c0-.22-.39-1.08-.22-.78C288,76.31,288.05,76.54,288.22,77.13Z" transform="translate(-152.55 -10.97)"/><path class="b" d="M287.68,76.3l.24.47A1,1,0,0,0,287.68,76.3Z" transform="translate(-152.55 -10.97)"/><path class="b" d="M288.44,77.8l-.52-1c0,.16,0,.2.23.48C288.06,77.19,288.21,77.37,288.44,77.8Z" transform="translate(-152.55 -10.97)"/><path class="b" d="M288.66,78.4c.21.55.4,1.27,0,.32.36.92.5,1.32.52,1.24A6.47,6.47,0,0,0,288.66,78.4Z" transform="translate(-152.55 -10.97)"/><path class="b" d="M289.94,83.38a6.33,6.33,0,0,1,.19.75l.2.63c-.05-.16-.13-.52-.2-.84A1.87,1.87,0,0,0,289.94,83.38Z" transform="translate(-152.55 -10.97)"/><path class="b" d="M285.55,71.18c-.09,0,0,.4,0,.51l.43.65A4.26,4.26,0,0,1,285.55,71.18Z" transform="translate(-152.55 -10.97)"/><path class="b" d="M285.54,71.69l-.65-1C285.38,71.65,285.51,71.79,285.54,71.69Z" transform="translate(-152.55 -10.97)"/><polygon class="b" points="134.82 65.26 135.74 66.91 134.67 64.94 134.82 65.26"/><polygon class="b" points="130.72 56.38 131.23 56.83 130.37 56 130.72 56.38"/><path class="b" d="M281.59,64.92c.43.28-.2-.72.2-.37a9.9,9.9,0,0,0-1.55-1.47A8.27,8.27,0,0,1,281.59,64.92Z" transform="translate(-152.55 -10.97)"/><path class="b" d="M279.44,62.4c.24.23.51.44.8.68A5.75,5.75,0,0,0,279.44,62.4Z" transform="translate(-152.55 -10.97)"/><path class="b" d="M283.91,69a2.09,2.09,0,0,0-.33-.88l.08.5Z" transform="translate(-152.55 -10.97)"/><path class="b" d="M283.66,68.67v0l-.54-.82Z" transform="translate(-152.55 -10.97)"/><path class="b" d="M284,69.13l-.06-.1A.13.13,0,0,0,284,69.13Z" transform="translate(-152.55 -10.97)"/><path class="b" d="M286.2,73.47c-.4-.54-1.19-1.7-.64-.45C285.89,73.38,285.58,72.66,286.2,73.47Z" transform="translate(-152.55 -10.97)"/><path class="b" d="M284.08,69.73c.22.35.38.73.58,1.09,0,0,0-.29.19,0C284.59,70.44,284.37,70.07,284.08,69.73Z" transform="translate(-152.55 -10.97)"/><polygon class="b" points="131.14 58.3 131.53 58.76 131.29 58.38 131.14 58.3"/><path class="b" d="M280.6,64.22a10.9,10.9,0,0,1-1.24-1.28c.42.59.86,1.17,1.3,1.7C280.78,64.66,281.08,64.81,280.6,64.22Z" transform="translate(-152.55 -10.97)"/><path class="b" d="M282.13,66.36l-.07-.09C282.08,66.34,282.11,66.39,282.13,66.36Z" transform="translate(-152.55 -10.97)"/><polygon class="b" points="122.31 47.26 122.35 47.38 122.4 47.36 122.31 47.26"/><path class="b" d="M280.7,64.76a3,3,0,0,0,.8.82c-.27-.28-.55-.6-.84-.94C280.61,64.63,280.58,64.64,280.7,64.76Z" transform="translate(-152.55 -10.97)"/><path class="b" d="M278.16,61.11c.16.23.34.5.51.79C278.57,61.62,278.28,61.12,278.16,61.11Z" transform="translate(-152.55 -10.97)"/><path class="b" d="M282,66.08l.05.06C282,66,282,66,282,66.08Z" transform="translate(-152.55 -10.97)"/><path class="b" d="M282,66.08a5.88,5.88,0,0,0-.51-.5c.2.26.39.49.56.69A.9.9,0,0,1,282,66.08Z" transform="translate(-152.55 -10.97)"/><path class="b" d="M272,58.68c.24-.17,1.58.35,2.2,1.43,1,.61,1.07-.59.68-1.75-.12.08-.16.12-1.23-.48.27.35,1.75,2.09.84,1.59a6.44,6.44,0,0,1-1-.89,3.94,3.94,0,0,0-.42-.65c.28.7-1.95-.79-2-.1l1.22.66C272.25,58.58,271.76,58.39,272,58.68Z" transform="translate(-152.55 -10.97)"/><path class="b" d="M276.54,60l.38.33a8.36,8.36,0,0,1-1-1.52c-.69-.5-.88-.53-1-.5l1.74,1.78Z" transform="translate(-152.55 -10.97)"/><path class="b" d="M278.5,62c-.43-.13-1.41-.84-1.1-.11,1,1,.86.58,1.53,1.15-1.58-1.76.55.42-.44-1,.33.33.61.64.87.94-.25-.35-.48-.7-.69-1l0,.06h0c.05.1.05.14,0,0l0,0a.25.25,0,0,1-.15,0c-.4-.58,0-.14.15,0h0a22.53,22.53,0,0,0-1.77-1.61C277.24,60.75,277.73,61.15,278.5,62Z" transform="translate(-152.55 -10.97)"/><path class="b" d="M284.6,72.14c0-.07,0-.07,0-.08S284.46,71.9,284.6,72.14Z" transform="translate(-152.55 -10.97)"/><path class="b" d="M284.21,71.26a3,3,0,0,1,.5.7c.2.44-.07,0-.11.1.21.25.7.93.25,0l-.11-.13A8.13,8.13,0,0,1,284,70,3.52,3.52,0,0,0,284.21,71.26Z" transform="translate(-152.55 -10.97)"/><path class="b" d="M281.45,66.54a16.32,16.32,0,0,0-1.32-1.44l.48.89.07-.12C281.34,66.76,281.28,66.5,281.45,66.54Z" transform="translate(-152.55 -10.97)"/><path class="b" d="M274.8,58l.41-.07A9.55,9.55,0,0,0,274,57.5Z" transform="translate(-152.55 -10.97)"/><polygon class="b" points="120.21 45.36 120.48 45.17 119.83 44.88 120.21 45.36"/><path class="b" d="M197.12,125l.31.46C197.29,125.27,197.19,125.13,197.12,125Z" transform="translate(-152.55 -10.97)"/><path class="b" d="M195.23,121.46l-.09-.07C195.25,121.55,195.3,121.61,195.23,121.46Z" transform="translate(-152.55 -10.97)"/><path class="b" d="M212.37,53.29c-.93.14-2.08.19-1.74.51l.46.22A3.88,3.88,0,0,1,212.37,53.29Z" transform="translate(-152.55 -10.97)"/><path class="b" d="M190.34,89.07l.13-.22-.15-.6A7.78,7.78,0,0,0,190.34,89.07Z" transform="translate(-152.55 -10.97)"/><path class="b" d="M191.45,89.87l-.37,1A8.34,8.34,0,0,0,191.45,89.87Z" transform="translate(-152.55 -10.97)"/><path class="b" d="M212.3,140.71a4,4,0,0,0,.64.2C212.08,140.38,212.42,140.68,212.3,140.71Z" transform="translate(-152.55 -10.97)"/><path class="b" d="M248.44,45.81a8.92,8.92,0,0,0-1.81-.57C247.5,45.64,248.15,46.14,248.44,45.81Z" transform="translate(-152.55 -10.97)"/><path class="b" d="M195.05,124.35c.2.29.31.41.33.38C195.17,124.44,195,124.27,195.05,124.35Z" transform="translate(-152.55 -10.97)"/><path class="b" d="M244.47,45.08l.39.13a6.23,6.23,0,0,1,1.77,0A2.86,2.86,0,0,0,244.47,45.08Z" transform="translate(-152.55 -10.97)"/><path class="b" d="M282.56,127.38l.12-.14S282.62,127.28,282.56,127.38Z" transform="translate(-152.55 -10.97)"/><path class="b" d="M292,106.07l-.13,1Z" transform="translate(-152.55 -10.97)"/><path class="b" d="M264.05,50.44c.5.23.09,0,0,0Z" transform="translate(-152.55 -10.97)"/><path class="b" d="M265.7,53.07a.32.32,0,0,0-.28.07A.41.41,0,0,1,265.7,53.07Z" transform="translate(-152.55 -10.97)"/><path class="b" d="M239,47.84H239C239.11,47.93,239.08,47.91,239,47.84Z" transform="translate(-152.55 -10.97)"/><path class="b" d="M264.71,51a4.86,4.86,0,0,0-.58-.43A6.54,6.54,0,0,0,264.71,51Z" transform="translate(-152.55 -10.97)"/><path class="b" d="M264.69,50.77l.42.26C265.2,51,265.17,50.93,264.69,50.77Z" transform="translate(-152.55 -10.97)"/><path class="b" d="M263.34,50.1a6.57,6.57,0,0,1,.79.46c-.09-.08-.12-.12-.08-.12Z" transform="translate(-152.55 -10.97)"/><path class="b" d="M247.37,149l.11,0C248,148.82,247.75,148.88,247.37,149Z" transform="translate(-152.55 -10.97)"/><path class="b" d="M204.43,65.47a.13.13,0,0,0,0,0l-.06,0Z" transform="translate(-152.55 -10.97)"/><path class="b" d="M203.41,67a2.09,2.09,0,0,1,1-1.56l-1.28-.33Z" transform="translate(-152.55 -10.97)"/><path class="b" d="M202.85,132.81l-.81-1.05c1.23,1,2,1.91,1.25.9-.11,0-.39-.17-.74-.52a9.18,9.18,0,0,1-1.19-1.31c-.78-1-1.55-2-1.77-2l-.45-.74.33.42c-.86-1.46-1-.85-2.08-2.75-.36-.67-.58-1.16-.27-.74l-1-1.4c-.23-.44-.12-.36.13.06-.44-.74-.77-1.54-1.16-2.31h0c-.22-.3-.68-1-.89-1.37-.23-.62.18.28.16.11-.23-.42-.49-.83-.7-1.26,0-.3.06-.18.22.13a10.57,10.57,0,0,1,.64,1.23,2.87,2.87,0,0,0-.48-1.38,11.56,11.56,0,0,1-.85-2.46l.5,1.25a29.07,29.07,0,0,0-.78-3.36c0,.36.57,3-.05,1.59a10.13,10.13,0,0,0-.63-1.74c.17-.06-.06-.84-.3-1.83h.25a6.93,6.93,0,0,0-.68-1.54c-.25-1.2-.11-1.49,0-1.81-.19-2-.16,1.41-.5-.89a18.46,18.46,0,0,0-.26-2.23c-.12-.73-.33-1.48-.41-2.46.08-1.15.19.18.27-.23l-.27-1c0-.25.08-.17.12-.13-.12-.85-.32-.06-.46-1.4-.17-.18-.11-.88.06-1.73a6.75,6.75,0,0,0,.25-2.7c.13-.4.21.21.37.1l-.22-3.86.54-1.54c-.51,1.11-.63-.42-.74-1.81-.22.39-.41.72-.51,1a15.58,15.58,0,0,1,.16-2.16c.14-.24.24,0,.33.39v-.41c.35-.7.51-.25.62.32l-.46.69c.18.57.38,1.1.65,1a3.19,3.19,0,0,1,0-.7c0,.15.1.25.15.2s0-.3,0-.66l.62-.35-.16-.15,1.05-2.54c0-.5,0-1,0-1.5l.1-1.56a16.33,16.33,0,0,1,.74-3.86c.05.88.57.43,1,.66-.83.58-.66,2.32-1.35,3.77.35-.77.5-.52.5-.29l.59-2.83c.35.22.49-.45,1-1-1,.17.46-2.13.74-3.29.29.07.42.45-.27,1.68,1.28-1.08,0-2.3,1.28-3.34-.17.3-.31.43-.26.62.21-.81,1.44-2.4,1.41-1.87l-.18.3c.32-.48.72-1.08,1.12-1.74s.92-1.28,1.32-1.91c.84-1.25,1.4-2.42,1.24-2.78a3.93,3.93,0,0,1,.57,1c.21-1.57.51-3.16.81-4.85.25.74,2.37.86,1.36,2.52a6.92,6.92,0,0,0,1.62-1.71c-.35.17-1.39-.08-1.06-.48a14.86,14.86,0,0,0,2.75-1c-.52.25-.79-1-.1-1.55,0,.22.77.78.6,1.08a19.76,19.76,0,0,1,1-2.24c-.32.48.51.78,1.09.74-.31,0,1.53-1.09,1.93-1.52l-.89.34c2-1.34,1.12-2.7,3.3-4-.14.36.12,1.62,1.25,1.11a13.22,13.22,0,0,1,.72-2.36,7.3,7.3,0,0,1,2.06-2.79l.54.12a14.11,14.11,0,0,1,1.46-1.08c-.37.58-1,1.72-1.7,2.79s-1.41,2.14-1.94,2.81c.95-.17.42.24,1.64-.37.58.08-.45.74-.8.93l2.93-1.14c-.21-.29.27-.71.75-1.12s1-.69.87-1a28.83,28.83,0,0,0-2.88,2c-.21-.28,0-.94.6-1.65a4.75,4.75,0,0,1,1.1-1,6.14,6.14,0,0,1,1.53-.71c.65.07,0,1.33.17,1.53a4.85,4.85,0,0,1,2.12-1.07l-.78.68a3,3,0,0,0,1.5-.84,2.22,2.22,0,0,1,1.83-.46c.52-.08,1.73.52,1.71.08-1-.59-1.83-3-1.39-3.75.1,0,.86,0,1.67,0a7,7,0,0,1,2,.37c1,.51-1,1.72-.19,2.15,0-.2.42-.51.61-.62.58.09-.12.64,1,.37.08-.75,2.43-.31.47-.7a3.13,3.13,0,0,1,1.23-.19c.35,0,.72,0,1.41,0-.49-.44,1.13-1.67,2.36-1.94-.06.19.22.42.36.52.62,0,1.17,0,1.68,0s1,.13,1.44.2c.93.13,1.83.26,3,.32.2.18,1.28.46.78.73a3,3,0,0,1,1.36-.19c1.27.82-1.56-.13-.62.76.13-.4,1.86-.31,2.9-.41-.2-.67-2.3-.47-3.31-.36.08-.88,1.95-1.54,4.5-1.54,1,0,1.17.28,1.15.42s-.25.26-.07.24a6.5,6.5,0,0,0,3.39.26,3.4,3.4,0,0,1,2.84.64c1,.94-.29,1-.17,1.49a6.42,6.42,0,0,1-1.79-.75,7,7,0,0,0-1.45-.61l1.21.58a4.73,4.73,0,0,1-2.11-.38c.86.62,5.87,1.81,8.21,3.44.52.05,1.37.27,1.09-.09l-.83-.32c-.57-.74,1.75.22.81-.45.61.13,1.26.26,1.95.47a8.6,8.6,0,0,1,1.05.4,7.58,7.58,0,0,1,1,.7v.65c.05-.16-.78-.88-1.27-1,.73.17,1.84,2,2.86,1.81l-.82-1c1.16.43,2.81.72,3.88,1.87-.26-.85-.3-.18-.84-1.34.39,1.14-3.28-2.21-2.43-.68a3.42,3.42,0,0,0-1.07-1.3,10.28,10.28,0,0,1-1.38-1.33c0,.19.3.56-.81-.12a1.19,1.19,0,0,1-.33,0l-.07,0,.05,0c-.06,0-.07,0,0,0a1.64,1.64,0,0,1,.46.56c-.77.09-2.58-.84-3.29-.93-.65-.43.37-.07.08-.44a6.36,6.36,0,0,0-1.07-.1c.07-.44-1.64-1.41.15-1l-1.52-.62a7.12,7.12,0,0,0-2.88-1.25c-.72-.31-2,0-1.28-.21l-2.55-.39v-.12a17.56,17.56,0,0,0-3.9-.51,18.11,18.11,0,0,1-4.12-.85,12.27,12.27,0,0,1-3.18-.05l-.27-.43c-1.1.07-3.34-.31-3.8.12a2.56,2.56,0,0,0-1.41-.44,7.69,7.69,0,0,0-1,0c-.34,0-.69.1-1,.16-1.43.27-2.93.67-3.91.73l0,.55a19.62,19.62,0,0,0-4.07,1.36l.23.43c-1.27.65-3.55.79-5.65,1.62.08-.22.63-.38,1.05-.41a5.07,5.07,0,0,0-2.05.41A10.73,10.73,0,0,0,218,50.36c-.58.41-1.13.82-1.7,1.15a8.39,8.39,0,0,1-1.76.75,2.68,2.68,0,0,1-1.25.77l.11-.1-.21.12-.84.24a4.41,4.41,0,0,0,.73-.16,12.21,12.21,0,0,0-1.49,1.13l-.52-.24-.13.09c-.67.22-.33.48.18.59a3,3,0,0,0-.58.77c-.88-.3-1.28,1.3-2.36,1.1a6.85,6.85,0,0,1-1.3,1.5c-.55.67-1,1.38-.91,1.81-.08-.07-.26,0,0-.22a4.9,4.9,0,0,0-1.58,1.52l-.64-.2-.34.84-.28.88c-.92.5-1.35.69-1-.37C201,64.61,201,64,200.17,66l-.22-.31c-.42.6-.74,1.84-1.23,2a6.91,6.91,0,0,0-1.45,1.45,22.14,22.14,0,0,0-1.74,2.67c-1.31,2-2.36,4.43-3.51,6.24.61-.18.28.21-.06.73s-.71,1.18-.41,1.39c-.28.15-.59.67-.54,0-.48,2.13-1.43,3-1.17,4.61-.25.19-.18-.53-.35-.35a1.64,1.64,0,0,1-.15.91c-.16.18-.09-.36-.1-.72-.45,2.19.09,2.55.6,2.83a4.27,4.27,0,0,0-.47,1.27,3.15,3.15,0,0,0,.14,1.15c-.23.35-.49,1-.37-.4-.13.75-.87,4.6-.44,4.72a3.88,3.88,0,0,0,0,1.27c-.08,1.7-.12,1.85-.14,3.52l.08-.46c.37.66.1,1.39.24,2.73l0,0a10,10,0,0,0,.06,2.2,4.08,4.08,0,0,1,.06.64,13.2,13.2,0,0,0,.08,1.53l.2-.19c.51.22.15,2.7.63,4.41,0-.21,0-.43,0-.65.27.92.11,2.73.31,3.69,0,.22-.15-.3-.25-.58.47,2.52.32.25.88,2.06,0,.37-.46-.33-.07.89a19.52,19.52,0,0,0,1,2.12c.23.48.46,1,.67,1.5.1.25.19.5.27.74s.2.45.27.66c-.09-.38-.18-.76.27,0,.63,1.18,1.28,3.44,2.13,4.35.07.16.09.23.08.24.59.85,1.84,2.8,2.27,3.25.14,1.06,4,5,3.69,5.17l2.13,2.34-.09,0A10.45,10.45,0,0,0,205,137a12,12,0,0,0,1,.72c.32.34,0,.15,0,.14a15.9,15.9,0,0,0,4.51,3.5l.1.31c.29.17,1.08.9,2.21,1.65.55.4,1.16.82,1.8,1.24a8.71,8.71,0,0,0,2,1.08s-.11,0-.33,0a20.78,20.78,0,0,1,2.35,1.19,26.76,26.76,0,0,0,2.36,1.32c1.54.75,2.9,1.34,3.63,1a16.93,16.93,0,0,0,2.15.37c-2.67-.83.53-.38-.52-.86,1.07.19,2.63,1.06,1.32.77l-.19-.11c-.63.45,3.29,1.16,3.14,1.52a58.79,58.79,0,0,0,16.12,1.4c-.22-.18-.44-.36-.66-.57.6,0,1.2-.14,1.8-.2s.71.41-.59.57a2.74,2.74,0,0,0,2.13-.76c2.57-.11-.86.89-.09.79l1.06-.2-.26,0c.41-.19.62-.36.92-.51a9.1,9.1,0,0,1,1.44-.46c1-.12.59.27,1,.2,0,0,.15,0,.59-.13l2.26-.53-1-.27c.92-.48,2.08-.53.9-.81.87.23,2.9-.47,4.83-1.18s3.61-1.83,4.11-1.9a8.93,8.93,0,0,1,.86-.66c.28-.23.57-.45.88-.66.61-.43,1.28-.83,2-1.27-.42.15-.91-.18.37-.9.06.59.73.38,1.49-.12a7.39,7.39,0,0,1,2.36-1.24c-.57.15.25-.54,1-1.19s1.3-1.39.49-1c.95-.79.29.22,1.12-.27,1.95-2.25,4.75-4.52,6.76-7.61,0-.1-.49.31-.15-.41.49-.43,1-.88,1.44-1.33a2.58,2.58,0,0,0,.26-.75,3.14,3.14,0,0,1,.65-1c-.15.12-.36.31-.15-.12a42.69,42.69,0,0,0,4.71-9.7,47.08,47.08,0,0,0,1.59-5.19c.22-.88.44-1.75.67-2.63s.3-1.77.47-2.65c-.17,1-.09.31,0-.42-.08.47,0,0-.1.07.16-1,.37-2,.48-3-.05-.55.14-3.21.1-3.52l0,1c0-1.26-.25,1.75-.35,1.55,0,.35,0,.76,0,1.21s-.16.93-.26,1.44c-.19,1-.41,2.15-.51,3.3-.11.49,0-.44-.05-.18a11.07,11.07,0,0,1-.57,2.53l0-.15a27.74,27.74,0,0,1-1.35,4.29l-.83,2a18.89,18.89,0,0,1-1.15,2.41l.26-.22a11.5,11.5,0,0,1-.77,1.27c-.27,1,1.16-2.19.93-1.28a30.28,30.28,0,0,0-1.8,3.17,9.68,9.68,0,0,1-2,2.71c-.75,1.12.4-.21-.34.91l-.3.23-.05.37c-.5.74-1,.94-1.07.91.14-.15.36-.48.5-.66a35,35,0,0,0-2.3,2.77l.89-.94c-.57.72-1.13,1.5-1.8,2.23s-1.4,1.41-2.1,2.13l-1.05,1.07-1.1,1c-.72.65-1.39,1.3-2,1.95l.31-.05a5.6,5.6,0,0,1-1.13,1,6.94,6.94,0,0,1-.8.49,13.4,13.4,0,0,0-2.21,1.47l.06-.09a5.31,5.31,0,0,1-1.72,1.36c.53-.55-1.42.34-.71-.34-2.32,1.74-1.06,1-2.43,2.51l-.55-.09a4.15,4.15,0,0,1-1.75,1.41c1-.77-1.06-.05,0-1a7.77,7.77,0,0,0-1.92.68c-.54.24-1,.46-1.42.69a2.82,2.82,0,0,1-2.31.53c-1,1.35,2.67-.43,2,0,.73.05-.88,1-1.83,1.3s-2-.66-4.33,0c.24,0,.23-.13.47-.18a3.53,3.53,0,0,0-1.33.37,5.38,5.38,0,0,1-.71.24,2.83,2.83,0,0,1-.82,0c-.53.64-1.45.2-1.52.92l2.22-.51c-1.22.38-2.32,1.38-4.5,1.32a5,5,0,0,1,1.18-.62c-.64-.12-1.17.36-1.84.18.12-.64,2.72-.57,4-1.3-.7-.19-2.48.92-1.91.05a2.12,2.12,0,0,1-1.71.69,4.53,4.53,0,0,0-2.28.36l.08-.41a4.88,4.88,0,0,1-1.28.33l.86-.59c-1.33.53-2.58-.14-3.86,0,1.34,0,1.49.14,1.45.29s-.28.37.29.48c-3.37.48-1.9-1-5.6-.93.5,0,1.87.26,1.06.43a5.63,5.63,0,0,1-2-.56c-2.45-.2.33.41-.74.51-.78-.53-1.23,0-2.35,0l.05-.35c-.34-.06-.62-.11-.84-.13a2.76,2.76,0,0,0-.5-.06.62.62,0,0,0-.44.13c-.19.13-.34.25-1.56-.16l1.16-.2-1.33-.18.36-.29a8.71,8.71,0,0,1-1.68-.17,7,7,0,0,1-1.57-.51c.25.3-.34.46-1.55.05-.76-.43.55-.1-1.17-.63a2.05,2.05,0,0,1,1.6.38c.1-.06.44,0,.54-.11a14.82,14.82,0,0,0-2.81-.93,4.1,4.1,0,0,1,.64.27c-.43-.08-.87-.14-1.3-.24l-1.26-.36c-.33-.25,0-.19.32-.13-.49-.19-.87-.23-1.59-.52.27-.1.31-.3,1.35,0l-2.36-.78c-.12-.13-1.05-.71-.73-.64-1.13-.75-3.13-1.3-4.6-2.38a3.34,3.34,0,0,1-.6-.32l-2-1.53-1.06-.77c-.35-.29-.73-.58-1.14-.88l-.72-.94c-1.23-1,1,1.25-1.08-.44-1.46-1.21-.4-.6-.82-1.11a18,18,0,0,1-3-3.05C202.19,132.07,202.47,132.42,202.85,132.81Zm-9.93-16.9a5.15,5.15,0,0,1,.51,1.33A2.73,2.73,0,0,1,192.92,115.91ZM191.7,86.38a2.11,2.11,0,0,1-.39,1.16A4.8,4.8,0,0,1,191.7,86.38Zm66.61-38h-.05C257.48,47.86,257.75,48,258.31,48.35Zm1.68.87c.2,0,.21-.06.16-.15a1.92,1.92,0,0,1-1-.28C259.24,49,259.43,49.12,260,49.22Zm-6.48,101.61-.38,0C253.89,150.49,253.69,150.65,253.51,150.83Z" transform="translate(-152.55 -10.97)"/><path class="b" d="M191.32,89.77a.27.27,0,0,1-.2.12C191.15,90.05,191.21,90.06,191.32,89.77Z" transform="translate(-152.55 -10.97)"/><path class="b" d="M212.18,140.67l0,0h.07Z" transform="translate(-152.55 -10.97)"/><path class="b" d="M232.23,50.59a1.66,1.66,0,0,1-.72-.16C231.51,50.56,231.69,50.64,232.23,50.59Z" transform="translate(-152.55 -10.97)"/><path class="b" d="M269.11,53.2l-1.06-.57a3.21,3.21,0,0,1,.83.71C268.91,53.25,268.79,53,269.11,53.2Z" transform="translate(-152.55 -10.97)"/><path class="b" d="M275.68,61.45c.15.08.27.24.42.32l.07-.15C275.64,61.14,275.18,60.9,275.68,61.45Z" transform="translate(-152.55 -10.97)"/><path class="b" d="M269.3,55c-.13.36.6.58,1.27,1.06l-.11-.08C270.92,55.71,270.14,55.29,269.3,55Z" transform="translate(-152.55 -10.97)"/><path class="b" d="M270.73,56.15a5.59,5.59,0,0,1,.6.46C271.52,56.52,271.11,56.39,270.73,56.15Z" transform="translate(-152.55 -10.97)"/><path class="b" d="M262.28,49.89c.32.28.43-.34.57-.09.3-.12-.36-.29-.84-.33-.23,0-.43,0-.43.07S261.77,49.7,262.28,49.89Z" transform="translate(-152.55 -10.97)"/><polygon class="b" points="116.68 45.31 116.67 44.8 116.09 44.85 116.68 45.31"/><path class="b" d="M263.86,52.82l1.1.68c0-.08.19,0,.39,0C264.64,53.15,263.89,52.68,263.86,52.82Z" transform="translate(-152.55 -10.97)"/><path class="b" d="M265.35,53.51a5,5,0,0,0,.93.47A5,5,0,0,0,265.35,53.51Z" transform="translate(-152.55 -10.97)"/><polygon class="b" points="115.1 44.5 114.83 44.23 114.06 43.73 115.1 44.5"/><path class="b" d="M250.73,48.18l-1.43-.07c-.17.16.19.32.72.33C250.38,48.37,250.91,48.38,250.73,48.18Z" transform="translate(-152.55 -10.97)"/><path class="b" d="M254.52,50.55c-.34-.2-.33-.31-.49-.53l-.21.6Z" transform="translate(-152.55 -10.97)"/><path class="b" d="M250.57,49.74c-.17.16-2,.22-.33.43C250.41,50,251.79,50.11,250.57,49.74Z" transform="translate(-152.55 -10.97)"/><polygon class="b" points="77.24 38.2 77.58 38.11 77.31 37.05 77.24 38.2"/><path class="b" d="M214.09,58.37c1.49-.59,0-.73,1.38-1.2.2-.4-1.14.39-.92,0C213.85,57.9,213.34,58,214.09,58.37Z" transform="translate(-152.55 -10.97)"/><path class="b" d="M214.55,57.19c.11-.12.22-.24.34-.39A1.67,1.67,0,0,0,214.55,57.19Z" transform="translate(-152.55 -10.97)"/><polygon class="b" points="139.81 91.18 139.88 90.1 139.81 90.79 139.81 91.18"/><path class="b" d="M292.39,100.08l.08-.25,0-.64C292.43,99.43,292.41,99.9,292.39,100.08Z" transform="translate(-152.55 -10.97)"/><path class="b" d="M192.56,113l-.08-.06a3,3,0,0,0,.12.9Z" transform="translate(-152.55 -10.97)"/><polygon class="b" points="45.41 115.09 45.29 114.88 45.38 115.37 45.41 115.09"/><path class="b" d="M205.68,135.16a11.34,11.34,0,0,1-1.13-1.06C205.28,134.87,205.62,135.41,205.68,135.16Z" transform="translate(-152.55 -10.97)"/><path class="b" d="M240.78,99.14l0,0C240.8,99.08,240.78,99.14,240.78,99.14Z" transform="translate(-152.55 -10.97)"/><polygon class="b" points="88.4 87.16 88.42 87.18 88.39 87.03 88.4 87.16"/><path class="b" d="M241.11,97.2c-.17.09,0,.34-.11.5l0,0,.09.08A2.24,2.24,0,0,1,241.11,97.2Z" transform="translate(-152.55 -10.97)"/><path class="b" d="M241.6,96.7c-.09,0,0-.11-.06.12l0,0Z" transform="translate(-152.55 -10.97)"/><path class="b" d="M241.56,96.8c0,.09.08-.07,0,0Z" transform="translate(-152.55 -10.97)"/><path class="b" d="M241.65,96.34l0,.13c.05,0,.1-.14.12-.1C241.82,96.24,241.76,96.26,241.65,96.34Z" transform="translate(-152.55 -10.97)"/><path class="b" d="M241.52,96.22l0,.06S241.58,96.25,241.52,96.22Z" transform="translate(-152.55 -10.97)"/><path class="b" d="M241.57,96.43l0-.15s-.11,0,0,.07C241.49,96.34,241.54,96.37,241.57,96.43Z" transform="translate(-152.55 -10.97)"/><path class="b" d="M241.52,96.51c-.07.07-.11.16-.15,0C241.34,96.79,241.48,96.76,241.52,96.51Z" transform="translate(-152.55 -10.97)"/><path class="b" d="M241,97.15l-.06.1.05.08S241,97.14,241,97.15Z" transform="translate(-152.55 -10.97)"/><path class="b" d="M242,95.53a1.14,1.14,0,0,0-.24,0l0,.1C241.85,95.63,241.91,95.54,242,95.53Z" transform="translate(-152.55 -10.97)"/><path class="b" d="M241.76,95.58l-.07-.14C241.66,95.57,241.7,95.59,241.76,95.58Z" transform="translate(-152.55 -10.97)"/><path class="b" d="M241.27,96.19c0,.08.09.16.13.24,0-.1-.07-.19-.12-.29Z" transform="translate(-152.55 -10.97)"/><polygon class="b" points="89.6 84.01 89.73 84.09 89.54 83.94 89.6 84.01"/><path class="b" d="M242.22,94.62c.11.06.24-.08.31,0,0-.1-.09-.18-.17-.26C242.4,94.42,242.35,94.51,242.22,94.62Z" transform="translate(-152.55 -10.97)"/><path class="b" d="M242.23,94.21a1.58,1.58,0,0,0,.13.13A.32.32,0,0,0,242.23,94.21Z" transform="translate(-152.55 -10.97)"/><path class="b" d="M241.78,95.19a.37.37,0,0,0,.2-.11l-.19.06Z" transform="translate(-152.55 -10.97)"/><path class="b" d="M241.78,95.14h0l0-.12Z" transform="translate(-152.55 -10.97)"/><path class="b" d="M241.77,95.21v0S241.75,95.2,241.77,95.21Z" transform="translate(-152.55 -10.97)"/><path class="b" d="M241.46,95.81c-.06-.08-.14-.26-.29-.09C241.27,95.78,241.36,95.69,241.46,95.81Z" transform="translate(-152.55 -10.97)"/><path class="b" d="M241.54,95.28l-.06.15s.11,0,.15,0Z" transform="translate(-152.55 -10.97)"/><polygon class="b" points="88.95 84.23 88.99 84.3 89.02 84.25 88.95 84.23"/><path class="b" d="M242,94.47a.26.26,0,0,1-.07-.22.77.77,0,0,0-.1.26C241.88,94.53,242,94.57,242,94.47Z" transform="translate(-152.55 -10.97)"/><path class="b" d="M241.87,94.8v0S241.84,94.8,241.87,94.8Z" transform="translate(-152.55 -10.97)"/><polygon class="b" points="89.51 82.47 89.47 82.49 89.51 82.49 89.51 82.47"/><path class="b" d="M241.78,94.53c-.05.06,0,.1,0,.14a.43.43,0,0,1,0-.16S241.77,94.51,241.78,94.53Z" transform="translate(-152.55 -10.97)"/><path class="b" d="M242.19,94l-.14.11C242.12,94.07,242.24,94,242.19,94Z" transform="translate(-152.55 -10.97)"/><path class="b" d="M241.92,94.76h0S242,94.75,241.92,94.76Z" transform="translate(-152.55 -10.97)"/><path class="b" d="M241.92,94.76a.45.45,0,0,0-.1-.09.36.36,0,0,0,0,.11Z" transform="translate(-152.55 -10.97)"/><path class="b" d="M240.6,93.2c.22,0,.41.18.18.33.16.15.83.06,1.24-.07a.28.28,0,0,1-.28-.16c-.13.06-.3.34-.48.21s.08-.16.21-.26c-.28.08-.38-.26-.79-.22l.14.18C240.76,93.21,240.66,93.15,240.6,93.2Z" transform="translate(-152.55 -10.97)"/><path class="b" d="M242,93.75v.06a.86.86,0,0,1,.32-.21.27.27,0,0,0-.23-.13l-.08.3Z" transform="translate(-152.55 -10.97)"/><path class="b" d="M241.92,94.09c-.2,0-.27-.2-.51-.11,0,.18.16.13.23.24,0-.3.11.08.26-.13a.47.47,0,0,1,0,.16l.13-.15h0s0,0,0,0h-.08c.06-.08.06,0,.08,0h0l-.06-.3A.5.5,0,0,0,241.92,94.09Z" transform="translate(-152.55 -10.97)"/><path class="b" d="M240.84,95.56h0S240.85,95.53,240.84,95.56Z" transform="translate(-152.55 -10.97)"/><path class="b" d="M240.94,95.44s.09,0,.07.11-.08,0-.13,0,.1.15.19,0l0,0c.06-.12.29-.27.31-.25A1.3,1.3,0,0,0,240.94,95.44Z" transform="translate(-152.55 -10.97)"/><path class="b" d="M241.34,94.76l-.07-.25-.18.13h.1C241.14,94.77,241.26,94.74,241.34,94.76Z" transform="translate(-152.55 -10.97)"/><polygon class="b" points="89.63 82.45 89.87 82.48 89.55 82.34 89.63 82.45"/><polygon class="b" points="89.66 82.13 89.88 82.14 89.76 82.06 89.66 82.13"/><path class="b" d="M238.6,75.07l-.11-.07A.23.23,0,0,0,238.6,75.07Z" transform="translate(-152.55 -10.97)"/><path class="b" d="M238.56,75.6h.19C238.64,75.58,238.56,75.57,238.56,75.6Z" transform="translate(-152.55 -10.97)"/><path class="b" d="M243.13,85.27c.35-.1.88-.21.47-.2l-.4,0C243.27,85.17,243.22,85.22,243.13,85.27Z" transform="translate(-152.55 -10.97)"/><path class="b" d="M240.79,79.89l-.13,0,.41.07Z" transform="translate(-152.55 -10.97)"/><path class="b" d="M239,79.8l.28-.13A1,1,0,0,0,239,79.8Z" transform="translate(-152.55 -10.97)"/><path class="b" d="M238.33,72.22l-.4-.09C237.92,72.26,238.13,72.21,238.33,72.22Z" transform="translate(-152.55 -10.97)"/><path class="b" d="M242.59,89.84a.54.54,0,0,0,.23-.23C242.61,89.72,242.33,89.81,242.59,89.84Z" transform="translate(-152.55 -10.97)"/><path class="b" d="M243.1,75.31a.48.48,0,0,0-.26-.07A.37.37,0,0,0,243.1,75.31Z" transform="translate(-152.55 -10.97)"/><path class="b" d="M242.85,89.35l-.08.05a.23.23,0,0,1,0,.21C243,89.53,243.07,89.44,242.85,89.35Z" transform="translate(-152.55 -10.97)"/><path class="b" d="M240,61.88l0,0S240,61.87,240,61.88Z" transform="translate(-152.55 -10.97)"/><path class="b" d="M241.22,58.88l0,.12A.49.49,0,0,0,241.22,58.88Z" transform="translate(-152.55 -10.97)"/><path class="b" d="M242.55,91.82c0,.07,0,0,0,0Z" transform="translate(-152.55 -10.97)"/><path class="b" d="M241.43,92.14l-.13,0A.31.31,0,0,1,241.43,92.14Z" transform="translate(-152.55 -10.97)"/><path class="b" d="M240.78,88.66Z" transform="translate(-152.55 -10.97)"/><path class="b" d="M242.4,91.92a.27.27,0,0,0,.1-.08Z" transform="translate(-152.55 -10.97)"/><path class="b" d="M242.54,91.91l0,.06S242.57,92,242.54,91.91Z" transform="translate(-152.55 -10.97)"/><path class="b" d="M242.55,91.73a.27.27,0,0,1-.05.11.06.06,0,0,1,.05,0Z" transform="translate(-152.55 -10.97)"/><path class="b" d="M240,67.43l0,0C239.89,67.34,239.91,67.37,240,67.43Z" transform="translate(-152.55 -10.97)"/><path class="b" d="M238.94,83.48h0Z" transform="translate(-152.55 -10.97)"/><path class="b" d="M238.62,83.24c.52.11.46.16.36.24l1.19-.07Z" transform="translate(-152.55 -10.97)"/><path class="b" d="M238.54,73.82l-.39.17c-.6-.21-.37-.36-.91-.2,1.3,0,.09.66,1.4.7l-.28.11s-.07,0-.05-.07c-.64.21.94.17.75.45a.47.47,0,0,1-.46.09l.32.22c0,.07-.26,0-.23,0l.1.33h0c.2,0,.53.16.66.21-.19.09-.14,0-.31,0l.32.19c-.35.07-.68-.09-.62-.21-1.35.16.33.15-.46.52l-.17-.18c-.77.11-.49.25-1,.44.25,0,1.21-.38,1.54-.18-.1.06-.15.13.12.24-.48,0-.37.1-.34.24l-.64,0c.18.15.51.14.79.22-.06.16-.56.19-1,.23-.11.25.79-.17.91.13-.25.21,0,.36.39.62-.23.14-.4,0-.58,0l.51.14s-.17,0-.25,0c.2.11.64,0,.81.19.71,0-1,.35-.23.57a4.7,4.7,0,0,1-.64,0,3.58,3.58,0,0,0,1.09.5l-.42.21a2.5,2.5,0,0,1,1.51.22l.53-.13.34.28a1.7,1.7,0,0,1-.59-.05l.15.05a1.85,1.85,0,0,1-1,0l.4-.1a5.46,5.46,0,0,0-1.19-.12.31.31,0,0,1,.17.09l-.26,0c-.07,0,.07,0,.23.09l-.71.06h.28l-.44.36c.72.25,1.77.48,2,.89a6.83,6.83,0,0,0-1.45,0c.65-.1-.28-.31-.15-.52-.07.11-.36.08-.46.05l.59.38c-.5,0-.37.08-.58.17,1-.06.66.29,1,.44-.33,0-.67,0-.59-.22-.74.2,1.15.28.53.47,0,0,0-.07-.13-.09.3.11.07.37-.22.31v0c-.11.3,0,.92.83,1L239,83.07l2.74.55a11.78,11.78,0,0,1-2.75-.13c-.1.07-.21.16,0,.31a3.54,3.54,0,0,1,1.07,0,5.26,5.26,0,0,0-1.06.35c.14-.07,1.23,0,1.19.13s-1.06,0-1.17,0l1.06.3a3.47,3.47,0,0,0-1.19,0c.21,0,0,.25.1.33l.24-.12c-.15.32,1.47.33,1.41.65-.21,0-1.31-.11-1.43.06a12.74,12.74,0,0,1,2.89.63l-.29.06.32.22c-.75-.14-2.38-.54-3-.75-.23.12-.35,0-.31.21a.39.39,0,0,1-.45-.15l-.14.42c.6,0,.62.33,1.11.32l-.64-.47c.6,0,1.71.28,1.6.58a7.33,7.33,0,0,1-1.25-.06c.21,0,.41.29.26.32l-.32-.13c-.2.16.79.27.25.47,0,.07-.72.2-.38.22a17.61,17.61,0,0,1,3.15,0,6,6,0,0,1-.95.44c-.5.11-1.2-.18-1.63-.09a1.43,1.43,0,0,1,.41.1c-.13.07-.48,0-.4.12.57,0,0,.32.48.08.17.16-.11.16-.08.35a2.65,2.65,0,0,1,1.37.32,2.06,2.06,0,0,0-.4,0c-.05.32-.29.49-.29.79-.13,0-.27.16-.5.1.1,0,.27.08.29.18-.44.17-.08-.21-.61-.08.3,0,.43.24.61.37.45,0,.08-.3-.11-.43a2.28,2.28,0,0,1,1.56.55c.14.24-.4.1-.31.14-.12.47,1,.4.55.79-.38.15-.73,0-1,0-.13-.2.24-.31.24-.44l-.19.16c-.12-.06-.21-.2-.1-.27-.34.13-.08.78-.37,1.14.12.06.24.17.38.12l-.05-.11c.29-.1.38.21.51.07.19.15.47.32.3.54l-.38,0c.11,0,.24-.13.13-.2.15.09-.52.33-.05.43l.27-.15c.17.15.52.34.38.53.36-.08,0,0,.39-.17-.53.11.11-.49-.47-.3.51-.14.24-.24.7-.42-.12,0-.25.07-.16-.09l-.11,0h0s0,0,0,0a.5.5,0,0,1-.2.08c-.28-.08-.25-.33-.39-.41.07-.1.14,0,.29,0l-.22-.13c.29,0,.53-.25.67,0l0-.2c.19-.11.29-.27.17-.37.08-.1-.31-.24-.08-.16l-.15-.31h.08c.09-.3-.48-.63.18-1-.08-.11-.17-.21-.06-.39l.31,0c-.09-.13.36-.4,0-.46.86-.13.27-.64.45-.87l-.43,0c0-.16-.06-.31-.22-.51h-.38c-.31-.18.31-.45.29-.72.15,0,.1.09,0,.14.92-.32-.61-.69.07-1-.14-.07-.09-.12,0-.17h0v0l.22-.1a.69.69,0,0,0-.22.09.39.39,0,0,0-.15-.23l.44,0s0,0,0,0c.17-.09-.2-.07-.54,0a1.27,1.27,0,0,0-.26-.11c.72-.07-.24-.23.54-.31-.37-.06-.26-.43-1.06-.48.1,0,.15,0,.16,0,.09-.1.19-.19,0-.28l.58,0-.78-.21a1.34,1.34,0,0,1,1-.05c-.67-.3-.25-.24-.93-.5h.38c0-.09-.52-.24-.2-.29.74-.2.13-1,.83-1.53-1.15.1.52-.24-.37-.26.27,0,.43-.11.66,0-.26-.27.45-.4-.31-.59.28,0,.41.06.57,0-.06,0-.24-.09-.07-.12a.53.53,0,0,1,.34.09c0-.28-.88-.31-1.68-.33.38-.14.33-.21-.19-.31.26-.05.53-.13.63,0,0-.09.38-.58-.25-.59.16,0,0-.13,0-.16,0-.21.1-.23,0-.44l-.11.06c-.77-.09-.17-.18-.26-.35h.08c.56-.39-.26-.17.37-.55h-.48c-1,0,.61-.33.22-.56l-.28.08c-.35-.12,1.4-.33,1.53-.45s.14,0,.21.08c.6-.31-.63,0-.78-.28.34,0,.86.06.92-.1.27-.08-1.09-.47-.46-.69a1,1,0,0,1-.7,0c-.1-.17,1-.45.15-.61l.2,0c-.21-.13-.35-.42-.79-.5,1.6-.11-.79-.81.68-.8l-.09-.4.15,0c.09-.26-.26-.35-.61-.44a.47.47,0,0,1,.31,0c.28-.37.21-.41-.5-.73l.45,0c-.26-.08.69-.53.15-.9a.79.79,0,0,1,.2,0c-.53-.41,1.14-1-.44-1.13l-.39-.28c-.11.35-.67,0-.93.09-.08-.14.47-.35.55-.18l-.08,0c.8.07.27-.43.81-.42-.07-.69.3-1.36.26-2l-.55.07,0-.23c.13-.06.42-.08.41.08.3-.08-.28-.27-.39-.27.19-.32.63.13.64,0l0-.13-.06,0c-.23-.11-.46-.12-.45-.32s.32-.06.33-.1.05,0,0-.08v-.28l-.39.11c-.21-.13,0-.27-.44-.14.68-.19.16-1.06.36-1.17a.53.53,0,0,1-.27-.57c-.06,0-.45.08-.41-.1.79.07.32-.34.83-.49-.33.13-.14-.53-.6-.32,0-.16.26,0,.41-.13-.29-.37.06-.81-.1-1.27-.07,0-.18.07-.3,0l.33-.24c0-.09-.42-.08-.2-.25-.05,0-.14.06-.16,0a3.52,3.52,0,0,0-.12-1.36,7.15,7.15,0,0,1-.12-1.38c0,.13,0,.05-.06,0,0,.06-.05,0-.08,0a2.41,2.41,0,0,0,0-.38,2.25,2.25,0,0,1-.11-.45l0,.12c0-.16-.06.23-.13.2.06.18-.21.48-.12.77,0,.06,0-.06-.08,0s.05.16,0,.33v0a4.69,4.69,0,0,1-.36,1.19l.14,0c0,.11-.09.13-.13.19.2.13.07-.32.28-.2-.32.15-.1.8-.51.89,0,.18.21-.05.18.13l-.12,0,.14,0a.34.34,0,0,1-.3.17s0-.08,0-.11c-.17.15,0,.42-.09.47l.11-.16c0,.47-.26,1.05,0,1.51l.12,0c.19.36-.16.28-.1.67h0a.27.27,0,0,1,.15.28c-.14-.1-.32.18-.48.05.22.39.18.19.67.45l-.23.05c.2.09.31.1.36.29-.19-.16-.37.12-.62-.06-.58.4.48.6-.34.78.68.19.42-.34.56-.24.23-.08.5.16.43.28s-.92.22-.94.54c0,0-.05,0,0-.06-.2.12.23.23-.1.38.45.09,0,.19.54.22l-.11-.3c.13.17.81.34.46.61a1.13,1.13,0,0,1-.35-.16c-.18.08.1.15-.08.24-.6,0-.1-.36-.53-.55-.26.09.39.35-.24.25.8.14-.14.32.47.54h-.36c.05,0,.21.1.2.17L239,68c.38.18-.4.34-.2.51,0-.36.46-.08.75-.23.46.45-1,.25-.89.75-.05-.07.26-.25.42-.15a.9.9,0,0,1-.46.27c0,.33.41,0,.63.1-.48.1.18.16.33.3h-.4c-.3.37.83.1.5.44l-.56-.15.13.18-.46,0c.33.19.24.25.09.43.29,0,.75,0,.75.2-.25.11-.39-.07-.35.17-.26-.06-.58-.12-.19-.22-.13,0-.26-.05-.39-.06-.3.12-.1.3-.1.39a.17.17,0,0,1,.11-.09l.56.34a.56.56,0,0,1-.41,0c0,.07.23.12.27.22-.35,0-.72,0-.87-.17l.36.33c-.15,0-.43.16-.56.12-.23.18.65.44.36.68a.31.31,0,0,1,.18.09c-.1.22-.56.41-.08.68l-.67.15c.14.2.85-.2,1.08.14s-.57.09-.76.18c.32.12,1,.33.44.55C238.48,74,238.58,73.89,238.54,73.82Zm.2,2.55c-.1-.05-.4-.15-.12-.18C239.16,76.25,238.9,76.29,238.74,76.37Zm1.12,3.89c-.16,0-.08-.09.11-.16C240,80.15,240,80.2,239.86,80.26Zm2.54,10.82h0C242.53,91,242.48,91,242.4,91.08Zm-.17.23a.2.2,0,0,0,.13,0c-.08,0-.07-.07,0-.13S242.17,91.24,242.23,91.31Zm.11-24.59-.08,0C242.15,66.66,242.24,66.69,242.34,66.72Z" transform="translate(-152.55 -10.97)"/><path class="b" d="M239.21,79.82a1.1,1.1,0,0,1,.26,0A.39.39,0,0,0,239.21,79.82Z" transform="translate(-152.55 -10.97)"/><polygon class="b" points="85.85 61.26 85.86 61.25 85.78 61.24 85.85 61.26"/><path class="b" d="M239.2,87.74a.41.41,0,0,1,.2-.09C239.3,87.65,239.22,87.67,239.2,87.74Z" transform="translate(-152.55 -10.97)"/><path class="b" d="M242.56,92.52l-.05-.15c0,.08-.07.1-.12.14S242.56,92.48,242.56,92.52Z" transform="translate(-152.55 -10.97)"/><path class="b" d="M240.78,93.78s0,0,0,.07h.11C240.92,93.75,240.83,93.69,240.78,93.78Z" transform="translate(-152.55 -10.97)"/><path class="b" d="M241.59,92.65c-.24,0-.16.1-.13.21v0C241.78,92.87,241.69,92.76,241.59,92.65Z" transform="translate(-152.55 -10.97)"/><path class="b" d="M241.47,92.88a.18.18,0,0,1,0,.1C241.59,93,241.5,92.94,241.47,92.88Z" transform="translate(-152.55 -10.97)"/><path class="b" d="M242.37,91.6c-.08.05.33,0,.22.06C242.92,91.71,242.23,91.33,242.37,91.6Z" transform="translate(-152.55 -10.97)"/><polygon class="b" points="88.25 81.75 88.55 81.72 88.31 81.66 88.25 81.75"/><path class="b" d="M241,91.92l-.09.16a.12.12,0,0,1,.11,0C241.07,92,241.14,91.92,241,91.92Z" transform="translate(-152.55 -10.97)"/><path class="b" d="M241.06,92.13a.12.12,0,0,0,0,.13A.24.24,0,0,0,241.06,92.13Z" transform="translate(-152.55 -10.97)"/><polygon class="b" points="88.17 81.53 88.23 81.48 88.25 81.37 88.17 81.53"/><path class="b" d="M241.16,90.16l-.1-.18c-.13,0-.2,0-.15.09S241,90.18,241.16,90.16Z" transform="translate(-152.55 -10.97)"/><path class="b" d="M240.18,90.69a.86.86,0,0,1,.27-.08H240Z" transform="translate(-152.55 -10.97)"/><path class="b" d="M240.06,90.17c-.13,0-.38-.26-.34,0C239.85,90.15,240,90.33,240.06,90.17Z" transform="translate(-152.55 -10.97)"/><polygon class="b" points="88.06 76.5 88.07 76.54 88.93 76.54 88.06 76.5"/><path class="b" d="M238.37,85.08c-.21.21.58,0,.31.24.23.05.22-.15.42-.1C238.86,85.09,239,85,238.37,85.08Z" transform="translate(-152.55 -10.97)"/><path class="b" d="M239.1,85.22l.14.07A.59.59,0,0,0,239.1,85.22Z" transform="translate(-152.55 -10.97)"/><polygon class="b" points="88.59 47.4 88.56 47.27 88.57 47.35 88.59 47.4"/><path class="b" d="M241.05,58.11v0a.24.24,0,0,1,0-.08Z" transform="translate(-152.55 -10.97)"/><path class="b" d="M237.43,76.75h.16c.17,0,.18-.05.21-.12Z" transform="translate(-152.55 -10.97)"/><polygon class="b" points="85.44 63.92 85.42 63.95 86 63.9 85.44 63.92"/><path class="b" d="M237.37,73.34c0,.06.09.14.06.2C237.34,73.4,238.07,73.33,237.37,73.34Z" transform="translate(-152.55 -10.97)"/><path class="b" d="M240.78,99.21l0,0C240.8,99.25,240.78,99.21,240.78,99.21Z" transform="translate(-152.55 -10.97)"/><path class="b" d="M241.25,99.67h0l.09,0Z" transform="translate(-152.55 -10.97)"/><path class="b" d="M241.7,100.09c0-.17-.18-.12-.23-.24v0l-.08,0C241.49,100,241.65,100,241.7,100.09Z" transform="translate(-152.55 -10.97)"/><path class="b" d="M241.74,100.67c0-.08.07,0,0-.08v0Z" transform="translate(-152.55 -10.97)"/><path class="b" d="M241.7,100.61s0,.09,0,0Z" transform="translate(-152.55 -10.97)"/><path class="b" d="M241.91,100.83h-.09c0,.06,0,.14,0,.14S241.9,100.94,241.91,100.83Z" transform="translate(-152.55 -10.97)"/><path class="b" d="M242,100.76h0S242,100.79,242,100.76Z" transform="translate(-152.55 -10.97)"/><path class="b" d="M241.9,100.73l.1,0s0-.1,0,0S242,100.73,241.9,100.73Z" transform="translate(-152.55 -10.97)"/><path class="b" d="M241.88,100.66c0-.08,0-.14.06-.14C241.81,100.42,241.77,100.55,241.88,100.66Z" transform="translate(-152.55 -10.97)"/><path class="b" d="M241.81,100l0-.08-.07,0S241.79,100,241.81,100Z" transform="translate(-152.55 -10.97)"/><path class="b" d="M242.2,101.37a1.77,1.77,0,0,0,.08-.22h-.07A.38.38,0,0,1,242.2,101.37Z" transform="translate(-152.55 -10.97)"/><path class="b" d="M242.28,101.15h.12C242.34,101.06,242.31,101.09,242.28,101.15Z" transform="translate(-152.55 -10.97)"/><path class="b" d="M242.18,100.55l-.19,0a.75.75,0,0,0,.21,0Z" transform="translate(-152.55 -10.97)"/><polygon class="b" points="89.88 90.7 89.77 90.78 89.94 90.67 89.88 90.7"/><path class="b" d="M242.6,101.85c-.09.07-.08.23-.14.27s.14,0,.22-.07S242.59,102,242.6,101.85Z" transform="translate(-152.55 -10.97)"/><path class="b" d="M242.81,102a.36.36,0,0,0-.13.06A.28.28,0,0,0,242.81,102Z" transform="translate(-152.55 -10.97)"/><path class="b" d="M242.49,101.28a.42.42,0,0,0,0,.21l.06-.18Z" transform="translate(-152.55 -10.97)"/><path class="b" d="M242.52,101.3h0l0,.07Z" transform="translate(-152.55 -10.97)"/><path class="b" d="M242.49,101.27h0S242.5,101.26,242.49,101.27Z" transform="translate(-152.55 -10.97)"/><path class="b" d="M242.3,100.82c.08,0,.21,0,.19-.22C242.41,100.66,242.42,100.77,242.3,100.82Z" transform="translate(-152.55 -10.97)"/><path class="b" d="M242.56,101.06l-.06-.11s0,.11-.08.13Z" transform="translate(-152.55 -10.97)"/><polygon class="b" points="90.07 90.07 90.01 90.08 90.03 90.12 90.07 90.07"/><path class="b" d="M242.79,101.69a.13.13,0,0,1,.15,0,.39.39,0,0,0-.09-.17S242.74,101.65,242.79,101.69Z" transform="translate(-152.55 -10.97)"/><path class="b" d="M242.67,101.49h0S242.68,101.46,242.67,101.49Z" transform="translate(-152.55 -10.97)"/><polygon class="b" points="90.76 91.1 90.78 91.06 90.76 91.09 90.76 91.1"/><path class="b" d="M242.86,101.49c0-.06-.06,0-.1,0a.2.2,0,0,1,.09,0S242.87,101.49,242.86,101.49Z" transform="translate(-152.55 -10.97)"/><path class="b" d="M243,102v-.16C243,101.93,242.92,102.06,243,102Z" transform="translate(-152.55 -10.97)"/><path class="b" d="M242.66,101.54h0S242.65,101.57,242.66,101.54Z" transform="translate(-152.55 -10.97)"/><path class="b" d="M242.66,101.54a.27.27,0,0,0,.1-.06h-.08Z" transform="translate(-152.55 -10.97)"/><path class="b" d="M244.17,100.87c-.12.19-.3.3-.28.06a3.25,3.25,0,0,0-.56,1.1.39.39,0,0,1,.22-.19c0-.13,0-.37.13-.49s0,.13,0,.26c.09-.26.33-.25.5-.62l-.16.07C244.08,101,244.17,100.94,244.17,100.87Z" transform="translate(-152.55 -10.97)"/><path class="b" d="M243.2,101.89h0a.8.8,0,0,1,0,.34.44.44,0,0,0,.19-.15l-.13-.17Z" transform="translate(-152.55 -10.97)"/><path class="b" d="M243,101.75c.12-.16.24-.17.31-.41-.1-.06-.15.1-.25.13.17.08-.09.06-.05.26a.12.12,0,0,1-.1,0,.78.78,0,0,1,0,.16h0s0,0,0,0h0l.05-.07c0,.08,0,.06-.05.07v0h0l.19,0S243.1,101.8,243,101.75Z" transform="translate(-152.55 -10.97)"/><path class="b" d="M242.74,100.36s0,0,0,0S242.76,100.38,242.74,100.36Z" transform="translate(-152.55 -10.97)"/><path class="b" d="M242.76,100.49s-.07.06-.1,0,0-.07.07-.11-.14,0-.11.16h0a.54.54,0,0,1,0,.34A2.07,2.07,0,0,0,242.76,100.49Z" transform="translate(-152.55 -10.97)"/><path class="b" d="M243,101h.17v-.19l0,.09C243,100.86,243,101,243,101Z" transform="translate(-152.55 -10.97)"/><polygon class="b" points="90.72 91.21 90.58 91.41 90.82 91.18 90.72 91.21"/><polygon class="b" points="90.88 91.34 90.77 91.52 90.87 91.45 90.88 91.34"/><path class="b" d="M255.21,104.66l.09-.07Z" transform="translate(-152.55 -10.97)"/><path class="b" d="M254.94,104.46l-.1.17C254.9,104.54,255,104.48,254.94,104.46Z" transform="translate(-152.55 -10.97)"/><path class="b" d="M247.34,105.5c-.11.34-.31.84-.12.48l.18-.36C247.33,105.65,247.32,105.59,247.34,105.5Z" transform="translate(-152.55 -10.97)"/><path class="b" d="M251.47,105.1l0-.12-.24.34Z" transform="translate(-152.55 -10.97)"/><path class="b" d="M252.39,103.57l-.06.28A1.4,1.4,0,0,0,252.39,103.57Z" transform="translate(-152.55 -10.97)"/><path class="b" d="M256.93,105.3l.24-.32C257.1,104.93,257,105.13,256.93,105.3Z" transform="translate(-152.55 -10.97)"/><path class="b" d="M245.07,103.64a.48.48,0,0,0,0,.26C245.12,103.69,245.21,103.41,245.07,103.64Z" transform="translate(-152.55 -10.97)"/><path class="b" d="M252.89,108.52a.72.72,0,0,0,.16-.21A.58.58,0,0,0,252.89,108.52Z" transform="translate(-152.55 -10.97)"/><path class="b" d="M245.21,104v-.09c-.06,0-.11,0-.14,0C245.05,104.06,245.05,104.18,245.21,104Z" transform="translate(-152.55 -10.97)"/><path class="b" d="M261.83,110v0S261.84,110,261.83,110Z" transform="translate(-152.55 -10.97)"/><path class="b" d="M262.93,111.9h0Z" transform="translate(-152.55 -10.97)"/><path class="b" d="M244,103c-.05,0,0,0,0,0Z" transform="translate(-152.55 -10.97)"/><path class="b" d="M244.35,101.92a.49.49,0,0,0,.08-.1Z" transform="translate(-152.55 -10.97)"/><path class="b" d="M246.6,102.41h0C246.62,102.35,246.62,102.36,246.6,102.41Z" transform="translate(-152.55 -10.97)"/><path class="b" d="M244,102.84a.2.2,0,0,0,0,.11Z" transform="translate(-152.55 -10.97)"/><path class="b" d="M243.94,103v0S243.89,103,243.94,103Z" transform="translate(-152.55 -10.97)"/><path class="b" d="M244,103s0,0,0-.07a.1.1,0,0,1,0,0Z" transform="translate(-152.55 -10.97)"/><path class="b" d="M258.78,108.21v0C258.87,108.15,258.85,108.16,258.78,108.21Z" transform="translate(-152.55 -10.97)"/><path class="b" d="M250.37,102.39v0h0Z" transform="translate(-152.55 -10.97)"/><path class="b" d="M250.66,102.19c-.31.42-.31.35-.3.23l-.55,1.07Z" transform="translate(-152.55 -10.97)"/><path class="b" d="M255.93,105l.1-.38c.41-.47.38-.22.55-.74-.65,1.12-.41-.13-1.06,1l.07-.28s0,0,.06,0c.2-.63-.55.77-.61.51a.66.66,0,0,1,.17-.43l-.28.22s.1-.24.12-.2l-.23,0,0,0-.44.51c0-.19.09-.11.16-.26l-.26.22c.13-.32.38-.57.42-.48.57-1.22-.25.24-.06-.56l.17-.09c.32-.7.11-.51.24-1a5,5,0,0,1-.65,1.4c0-.11,0-.17-.19,0,.23-.42.12-.35,0-.37l.32-.55a3.92,3.92,0,0,0-.51.62c0-.11.17-.55.35-.92-.09-.17-.29.75-.51.75,0-.28-.21-.1-.54.15,0-.23.21-.33.27-.5l-.32.4a.73.73,0,0,1,.11-.22c-.16.14-.32.55-.5.65-.37.6.31-1-.2-.38a5,5,0,0,1,.32-.55,4.51,4.51,0,0,0-.81.79l.09-.43a3.73,3.73,0,0,1-.86,1.25l-.19.51-.32.21a2.52,2.52,0,0,1,.31-.5l-.1.11a2.88,2.88,0,0,1,.48-.82l-.14.37a8.51,8.51,0,0,0,.65-1,.36.36,0,0,1-.13.12,2.43,2.43,0,0,0,.14-.22c0-.06-.06.05-.16.18l.31-.64-.14.24,0-.49c-.5.54-1.14,1.39-1.5,1.52a12.8,12.8,0,0,0,.73-1.26c-.26.6.31-.15.36,0,0-.09.13-.34.2-.42l-.5.4c.25-.43.14-.35.18-.56-.44.88-.48.49-.71.71.16-.29.34-.57.41-.45.25-.7-.72.93-.52.32,0,0,0,.06.11-.08-.2.22-.23-.06-.06-.29h0c-.11-.19-.51-.27-.94.43l.6-1-1.65,2.23a17.42,17.42,0,0,1,1.42-2.36c0-.11,0-.23-.2-.06a4.89,4.89,0,0,1-.49.94,8,8,0,0,0,.33-1c0,.15-.61,1.07-.66,1s.52-.92.6-1l-.68.84a6.37,6.37,0,0,0,.55-1c-.08.18-.14-.08-.23,0l-.05.25c-.11-.23-.9,1.18-1.05,1a5.16,5.16,0,0,0,.67-1.26,19.7,19.7,0,0,1-1.77,2.33l.12-.28-.28.22c.44-.62,1.45-1.92,1.89-2.43,0-.24.16-.31,0-.34a.5.5,0,0,1,.3-.34l-.16-.25c-.29.52-.49.44-.72.87l.57-.42c-.28.53-1,1.41-1.1,1.23a10.25,10.25,0,0,1,.64-1.08c-.12.17-.36.27-.3.14l.22-.24c0-.23-.53.6-.38.07,0-.06.24-.7.07-.41a27.15,27.15,0,0,1-1.52,2.77,7.46,7.46,0,0,1,.22-1c.18-.47.69-1,.84-1.4a1.74,1.74,0,0,1-.25.33c0-.14.25-.41.13-.39-.3.49-.17-.13-.28.4-.17.09,0-.15-.16-.18a4,4,0,0,1-.84,1.1,2.79,2.79,0,0,0,.17-.37c-.15-.14-.13-.4-.29-.49a1.08,1.08,0,0,1,.18-.46c-.07.07-.18.21-.24.19.12-.43.16,0,.34-.5-.15.25-.34.29-.5.41-.2.41.12.17.29,0a3.14,3.14,0,0,1-1.06,1.2c-.21,0,.13-.39.07-.33-.2-.24-.72.77-.7.25a4.44,4.44,0,0,1,.46-.88c.18-.06,0,.3.13.34V102c.1-.09.22-.13.2,0,.1-.34-.39-.31-.45-.67-.09.09-.21.16-.25.29h.09c-.09.28-.31.26-.29.42-.18.12-.41.31-.45.1l.17-.34c-.05.09,0,.24,0,.16-.13.11.07-.55-.22-.16l0,.27c-.17.11-.45.35-.48.17-.13.34,0,0-.1.4.19-.49.21.24.4-.32-.18.49,0,.28-.12.74.06-.11.09-.24.14-.11l.07-.08h0v0h0a.83.83,0,0,1,.06-.21c.18-.22.3-.11.42-.21,0,.09-.09.11-.14.26l.18-.16c-.13.26-.12.54-.31.59l.09.1c0,.2,0,.34.13.27,0,.1.28-.2.12,0l.25,0,0,.07c.13.17.59-.23.46.45.1,0,.2-.08.24.08l-.13.28c.12,0,0,.43.23.18-.34.79.23.43.27.66l.21-.37c.07.09.21,0,.4,0l.18-.33c.25-.22.1.4.26.47-.09.12-.1.06-.08,0-.28.9.68-.32.51.36.11-.1.11,0,.09.07h0v0l0,.22c0-.1,0-.18.06-.22a.29.29,0,0,0,.2-.06l-.2.4h0c0,.17.14-.16.28-.47.05-.05.12-.11.19-.19-.32.65.23-.14-.1.57.22-.31.37-.1.79-.78-.05.09-.07.14-.09.13s0,.22.17.05l-.27.52.5-.61a2.18,2.18,0,0,1-.47.9c.5-.5.26-.14.73-.66l-.19.33c.06,0,.39-.38.26-.09-.25.7.5.42.45,1.19.51-1-.13.53.32-.24a2,2,0,0,1-.31.58c.27-.15,0,.51.47-.09-.11.25-.22.33-.29.48,0,0,.16-.18.1,0a.89.89,0,0,1-.22.27c.17.05.6-.68,1-1.36-.11.37-.05.35.26-.08-.1.24-.19.51-.33.53,0,.07.13.52.45,0-.06.15.05.08.1,0,.1.11.08.16.23.17l0-.11c.42-.64.18-.09.32-.12l0,.07c-.06.6.22-.18.12.49l.23-.42c.52-.89-.11.63.2.35l.09-.26c.24-.27-.5,1.32-.49,1.47s-.09.11-.15.16c-.11.62.33-.53.54-.59-.14.31-.45.73-.39.83-.09.26.79-.81.6-.19a1.78,1.78,0,0,1,.35-.61c.14,0-.21,1,.27.32a.75.75,0,0,1-.08.18,2.17,2.17,0,0,0,.66-.53c-.72,1.43.83-.44.11.84l.27,0-.08.13c.1.15.32-.13.54-.4a.87.87,0,0,1-.15.27c.07.36.13.31.65-.22l-.2.41c.17-.2,0,.77.43.4a1,1,0,0,1-.13.17c.49-.34,0,1.29.85,0l.34-.26c-.14-.2.36-.57.41-.83.12,0,0,.51-.17.53l0-.08c-.43.68.1.37-.16.84.41.15.6.68,1,.84l.23-.5.12.08c0,.13-.17.39-.25.34-.1.28.29-.17.35-.27.08.27-.38.52-.33.56h.1v-.06c.17-.17.29-.37.39-.3s-.12.3-.1.33,0,0,0,0l.15.09.12-.37c.18-.14.15.08.3-.34-.23.65.5.46.47.67.24-.19.33-.13.45-.06s.17-.42.25-.32c-.42.66,0,.38-.13.87.09-.33.37,0,.47-.43.07.09-.12.23-.13.4.35-.14.43.29.76.29,0-.06.05-.18.16-.25l0,.36c.07,0,.24-.34.23-.1,0-.05,0-.13.08-.14a1.42,1.42,0,0,0,.81.32,3.16,3.16,0,0,1,.83.31c-.07,0,0,0,0,0s0,0,0-.07a1,1,0,0,0,.21.11c.07,0,.27,0,.3,0l-.07,0c.1,0-.11-.11-.06-.17-.12,0-.15-.33-.36-.34,0-.06.05,0,.05-.06s-.12,0-.18-.11h0a2.2,2.2,0,0,1-.48-.68l-.05.14c-.05-.07,0-.12,0-.18-.17.14.14.16,0,.31.08-.32-.39-.33-.25-.71-.08-.09-.07.19-.16.12l0-.12-.1.1c0-.06,0-.22.05-.31s.05,0,.07,0c0-.19-.21-.16-.21-.22l0,.15c-.28-.11-.45-.56-.83-.48l0,.12c-.28,0-.07-.23-.32-.3l0,0c-.1.08-.19.1-.24,0,.13-.09.06-.34.21-.43-.32.07-.19.1-.57.45L260,109c-.15.15-.21.24-.34.23.18-.12.12-.36.34-.53.06-.63-.57.24-.27-.53-.44.54,0,.47-.14.56s-.33.39-.37.29.33-.87.16-1c0,0,0,0,.06,0,0-.21-.24.13-.17-.2-.26.36-.08-.1-.38.4h.22c-.16.07-.58.61-.57.22a2.17,2.17,0,0,1,.27-.26c0-.18-.14.05-.1-.14.31-.51.25,0,.56-.29.08-.25-.38.23,0-.29-.46.66-.11-.22-.53.24l.19-.31c-.05,0-.17.16-.2.13l.3-.37c-.29.28,0-.45-.19-.33.18.14-.18.42-.24.72-.47.27.35-.95,0-1,.06,0,0,.3-.13.41a1.24,1.24,0,0,1,.08-.48c-.21-.06-.17.37-.36.52.17-.46-.18.11-.33.19l.2-.35c-.07-.37-.47.7-.49.3l.35-.44-.16.06.25-.39c-.27.23-.26.13-.29-.06-.12.28-.38.65-.47.61.06-.26.23-.33.07-.36.16-.21.35-.48.22-.1l.22-.32c.08-.3-.12-.18-.16-.21a.27.27,0,0,1,0,.12l-.46.39a.81.81,0,0,1,.22-.35c-.06,0-.18.17-.25.16a2.63,2.63,0,0,1,.51-.7l-.35.22a3.26,3.26,0,0,1,.2-.53c0-.26-.56.44-.55.11a.44.44,0,0,1-.14.13c-.07-.15.05-.62-.34-.28l.25-.63c-.18.06-.3.8-.61.9s.23-.53.28-.72c-.23.25-.68.77-.53.22C255.89,104.9,255.87,105,255.93,105Zm-1.51-.6c.07-.07.28-.31.16,0C254.28,104.8,254.38,104.56,254.42,104.39Zm-2.71-.21c.1-.13.09,0,0,.14C251.71,104.34,251.68,104.31,251.71,104.18Zm-7.24-1.09h0C244.47,103.24,244.47,103.18,244.47,103.09Zm-.05-.22a.35.35,0,0,0-.07.12c.05-.07.08,0,.1,0S244.49,102.84,244.42,102.87Zm13.6,7.61,0-.09C258.15,110.33,258.09,110.4,258,110.48Z" transform="translate(-152.55 -10.97)"/><path class="b" d="M252.28,103.74a1.34,1.34,0,0,1-.12.24A.68.68,0,0,0,252.28,103.74Z" transform="translate(-152.55 -10.97)"/><polygon class="b" points="104.33 94.39 104.33 94.39 104.37 94.33 104.33 94.39"/><path class="b" d="M247.88,101.31a.54.54,0,0,1,0,.21C247.89,101.43,247.91,101.35,247.88,101.31Z" transform="translate(-152.55 -10.97)"/><path class="b" d="M243.59,102.79h.11s0-.09,0-.14S243.61,102.81,243.59,102.79Z" transform="translate(-152.55 -10.97)"/><path class="b" d="M243.76,100.85s0,0-.06,0l0,.1C243.71,101,243.79,100.92,243.76,100.85Z" transform="translate(-152.55 -10.97)"/><path class="b" d="M244,101.91c.11-.22,0-.18-.05-.18h0C243.77,102,243.88,102,244,101.91Z" transform="translate(-152.55 -10.97)"/><path class="b" d="M243.92,101.73s0,0,0,0S243.88,101.73,243.92,101.73Z" transform="translate(-152.55 -10.97)"/><path class="b" d="M244.2,102.9c0-.08-.18.28-.14.18C243.86,103.35,244.41,102.87,244.2,102.9Z" transform="translate(-152.55 -10.97)"/><polygon class="b" points="91.78 90.22 91.65 90.49 91.8 90.3 91.78 90.22"/><path class="b" d="M244.66,101.65l0-.13s-.05.07-.08.08S244.62,101.73,244.66,101.65Z" transform="translate(-152.55 -10.97)"/><path class="b" d="M244.54,101.6a.08.08,0,0,0-.1,0A.11.11,0,0,0,244.54,101.6Z" transform="translate(-152.55 -10.97)"/><polygon class="b" points="91.94 90.21 91.94 90.28 91.99 90.34 91.94 90.21"/><path class="b" d="M245.58,102.29l.15,0c.08-.11.09-.19,0-.17S245.63,102.18,245.58,102.29Z" transform="translate(-152.55 -10.97)"/><path class="b" d="M245.76,101.28a.87.87,0,0,1-.08.25l.21-.38Z" transform="translate(-152.55 -10.97)"/><path class="b" d="M246.11,101.33c.08-.11.33-.25.19-.28S246.07,101.19,246.11,101.33Z" transform="translate(-152.55 -10.97)"/><polygon class="b" points="94.79 91.66 94.76 91.65 94.34 92.4 94.79 91.66"/><path class="b" d="M249.76,101.41c0-.25-.31.49-.28.2-.14.17,0,.23-.15.39C249.52,101.83,249.49,102,249.76,101.41Z" transform="translate(-152.55 -10.97)"/><path class="b" d="M249.33,102l-.1.1Z" transform="translate(-152.55 -10.97)"/><polygon class="b" points="110.69 101 110.78 101.02 110.73 101 110.69 101"/><path class="b" d="M263.43,112h.08Z" transform="translate(-152.55 -10.97)"/><path class="b" d="M254.85,103.14l-.08.13c-.08.15-.06.17,0,.22Z" transform="translate(-152.55 -10.97)"/><polygon class="b" points="103.05 93.21 103.04 93.19 102.79 93.71 103.05 93.21"/><path class="b" d="M256.77,104.12s-.12,0-.14,0S256.44,104.73,256.77,104.12Z" transform="translate(-152.55 -10.97)"/></svg>