<svg xmlns="http://www.w3.org/2000/svg" viewBox="0 0 176.42 176.42"><defs><style>.a{fill:#fbbf48;}.b{fill:#1d1d1b;}.c{fill:none;stroke:#1d1d1b;stroke-miterlimit:10;}</style></defs><title>lightbulb</title><circle class="a" cx="88.21" cy="88.21" r="88.21"/><path class="b" d="M259.56,139.67c-.22,0,0,.41-.05.49C259.85,140,259.52,139.57,259.56,139.67Z" transform="translate(-152.31 -10.97)"/><path class="b" d="M262.74,137.43l0,.18a6.8,6.8,0,0,0,.3-.67C263,137.11,262.85,137.27,262.74,137.43Z" transform="translate(-152.31 -10.97)"/><path class="b" d="M264.61,133.05c-.32.16.07.68.15,1.37a1.91,1.91,0,0,1-.57,1.71H264a5.79,5.79,0,0,1,.13.68,3.41,3.41,0,0,0,.88-1.92,2.92,2.92,0,0,0-.15-1.21l-.17-.45A.34.34,0,0,1,264.61,133.05Z" transform="translate(-152.31 -10.97)"/><path class="b" d="M265.71,132.14c-.32.06-.36,0,0,.06l.06,0Z" transform="translate(-152.31 -10.97)"/><path class="b" d="M265.75,132.18c.08,0,.24-.08,0,0Z" transform="translate(-152.31 -10.97)"/><path class="b" d="M265.22,132l.45,0a3.15,3.15,0,0,1,.41,0A5.14,5.14,0,0,0,265.22,132Z" transform="translate(-152.31 -10.97)"/><path class="b" d="M264.28,132l.24,0C264.62,132,264.64,132,264.28,132Z" transform="translate(-152.31 -10.97)"/><path class="b" d="M265,132.08l-.49-.05c-.16,0-.5,0,.2,0C264.39,132.06,264.73,132.07,265,132.08Z" transform="translate(-152.31 -10.97)"/><path class="b" d="M264.93,132.13c-.14.05-.13.13-.63.07C264.77,132.37,265.29,132.22,264.93,132.13Z" transform="translate(-152.31 -10.97)"/><path class="b" d="M263.87,133.28l0,.33a1.29,1.29,0,0,1,.38.3,1.72,1.72,0,0,1-.19-.49C264,133.3,264,133.23,263.87,133.28Z" transform="translate(-152.31 -10.97)"/><path class="b" d="M266,131.84c-.17,0-.48-.08-.72-.11l.12.08A2.14,2.14,0,0,1,266,131.84Z" transform="translate(-152.31 -10.97)"/><path class="b" d="M265.3,131.73a.75.75,0,0,1-.15-.16C265,131.66,265.09,131.69,265.3,131.73Z" transform="translate(-152.31 -10.97)"/><polygon class="b" points="110.65 121.03 111.88 121.16 110.75 121.02 110.7 121 110.64 121.02 110.65 121.03"/><path class="b" d="M266.73,130a4.89,4.89,0,0,1,.1,1.14,4.42,4.42,0,0,0-.28-2A3.8,3.8,0,0,1,266.73,130Z" transform="translate(-152.31 -10.97)"/><path class="b" d="M265.34,126.38c.53.13-.09-.77.38-.56a2.58,2.58,0,0,0-.87-.49,4.42,4.42,0,0,0-.76-.12,1.8,1.8,0,0,1,.63.35A3.31,3.31,0,0,1,265.34,126.38Z" transform="translate(-152.31 -10.97)"/><path class="b" d="M263.38,125.18c.21,0,.43,0,.71,0A1.41,1.41,0,0,0,263.38,125.18Z" transform="translate(-152.31 -10.97)"/><path class="b" d="M265.44,131.38l.21.07a.38.38,0,0,0,.15,0s.06,0,.12-.11a1.67,1.67,0,0,0,.15-.24,2.38,2.38,0,0,1-.31.17.58.58,0,0,1-.15.06l-.11,0Z" transform="translate(-152.31 -10.97)"/><path class="b" d="M265.48,131.31h0s.08-.14.13-.25l.14-.31a3.09,3.09,0,0,0,.13-.45,3.42,3.42,0,0,1-.12.42l-.14.32A1.41,1.41,0,0,1,265.48,131.31Z" transform="translate(-152.31 -10.97)"/><path class="b" d="M265.43,131.39h0S265.38,131.37,265.43,131.39Z" transform="translate(-152.31 -10.97)"/><path class="b" d="M264.15,131.76c-.22-.08-.16-.33-1-.2C263.45,131.66,263.88,131.61,264.15,131.76Z" transform="translate(-152.31 -10.97)"/><path class="b" d="M264.87,131.26l-.3.14c.12,0,.33,0,.4.12A.88.88,0,0,1,264.87,131.26Z" transform="translate(-152.31 -10.97)"/><polygon class="b" points="112.51 120.14 112.56 120.29 112.65 120.23 112.51 120.14"/><path class="b" d="M264.27,126.21a3.73,3.73,0,0,1-1-.39l1,.83C264.37,126.6,264.7,126.55,264.27,126.21Z" transform="translate(-152.31 -10.97)"/><path class="b" d="M265.64,128l-.08-.11C265.56,128,265.58,128.09,265.64,128Z" transform="translate(-152.31 -10.97)"/><path class="b" d="M260.31,124.6l0,.09,0-.07Z" transform="translate(-152.31 -10.97)"/><path class="b" d="M264.24,126.77a1.83,1.83,0,0,0,.73.52,8,8,0,0,0-.74-.64C264.17,126.68,264.14,126.7,264.24,126.77Z" transform="translate(-152.31 -10.97)"/><path class="b" d="M262.41,124.92a4.18,4.18,0,0,0,.34.42C262.68,125.16,262.51,124.84,262.41,124.92Z" transform="translate(-152.31 -10.97)"/><path class="b" d="M265.57,127.69l.06.07C265.61,127.53,265.58,127.58,265.57,127.69Z" transform="translate(-152.31 -10.97)"/><path class="b" d="M265.57,127.69a1.43,1.43,0,0,0-.6-.4,4.66,4.66,0,0,1,.59.64A1,1,0,0,1,265.57,127.69Z" transform="translate(-152.31 -10.97)"/><path class="b" d="M258.73,127a.64.64,0,0,1,1.15,0c.55-.13.7-1.46.45-2.3-.06.16-.12.31-.7.38.13.25,1,.83.45,1-.72,0-.5-.3-.77-.6.13.54-1,.46-1.07,1.21l.63-.1C258.85,126.73,258.6,126.85,258.73,127Z" transform="translate(-152.31 -10.97)"/><path class="b" d="M261.34,125.07l.24.05a2.24,2.24,0,0,1-.59-.79c-.44.06-.56.17-.62.29.35.14.7.27,1.07.43Z" transform="translate(-152.31 -10.97)"/><path class="b" d="M262.6,125.56c-.37.3-1,.23-.83.8.63.26.58-.13,1.07-.08-1.12-.46.41-.07-.25-.68a2.17,2.17,0,0,1,.65.22l-.49-.48v0h0c0,.07,0,.11,0,.05h0a.46.46,0,0,1-.12.12c-.28-.22,0-.12.12-.12l0-.05h0a9.24,9.24,0,0,0-1.18-.25A5.55,5.55,0,0,0,262.6,125.56Z" transform="translate(-152.31 -10.97)"/><path class="b" d="M262.45,131.16h.14S262.56,131.1,262.45,131.16Z" transform="translate(-152.31 -10.97)"/><path class="b" d="M263.05,131c0,.06.16.13-.05.23s-.24-.05-.41-.08c0,.1,0,.28.56.14l0,0a3.23,3.23,0,0,1,1.26-.15A4.57,4.57,0,0,0,263.05,131Z" transform="translate(-152.31 -10.97)"/><path class="b" d="M264.42,128.36a3.14,3.14,0,0,0-1-.78c.05.22.1.41.13.63l.15-.17C264.08,128.6,264.21,128.36,264.42,128.36Z" transform="translate(-152.31 -10.97)"/><polygon class="b" points="107.97 113.4 108.22 113 107.53 113.46 107.97 113.4"/><polygon class="b" points="106.83 113.13 106.97 112.76 106.62 112.91 106.83 113.13"/><path class="b" d="M223.27,139.67l-.38.23A1.14,1.14,0,0,0,223.27,139.67Z" transform="translate(-152.31 -10.97)"/><path class="b" d="M227.45,138.42l-.45-.07A.53.53,0,0,0,227.45,138.42Z" transform="translate(-152.31 -10.97)"/><path class="b" d="M232.38,122.54c-.39-.34-.84-.88-.76-.44l.15.42A.71.71,0,0,1,232.38,122.54Z" transform="translate(-152.31 -10.97)"/><path class="b" d="M218.48,130.8l.11-.13-.41,0h-.28C218.06,130.72,218.22,130.77,218.48,130.8Z" transform="translate(-152.31 -10.97)"/><path class="b" d="M221.65,130.25a3.6,3.6,0,0,1,.37.47C222,130.61,221.91,130.46,221.65,130.25Z" transform="translate(-152.31 -10.97)"/><path class="b" d="M224.05,140.79l.35-.38C224,140.33,224.13,140.58,224.05,140.79Z" transform="translate(-152.31 -10.97)"/><path class="b" d="M247.92,122.6a1.9,1.9,0,0,0-.76-.31C247.52,122.56,247.79,123,247.92,122.6Z" transform="translate(-152.31 -10.97)"/><path class="b" d="M216.79,137.74a.54.54,0,0,0,.25.1C217,137.79,216.94,137.76,216.79,137.74Z" transform="translate(-152.31 -10.97)"/><path class="b" d="M246.27,122.24l.16.11a1.6,1.6,0,0,1,.73-.06A.62.62,0,0,0,246.27,122.24Z" transform="translate(-152.31 -10.97)"/><path class="b" d="M257,141.15s.06,0,.08,0S257.08,141.12,257,141.15Z" transform="translate(-152.31 -10.97)"/><path class="b" d="M262.31,136.61a2.51,2.51,0,0,1,.46.19A1,1,0,0,0,262.31,136.61Z" transform="translate(-152.31 -10.97)"/><path class="b" d="M254.74,123c.23,0,0,0,0,0Z" transform="translate(-152.31 -10.97)"/><path class="b" d="M255.57,124.88a.3.3,0,0,0-.13.19A.37.37,0,0,1,255.57,124.88Z" transform="translate(-152.31 -10.97)"/><path class="b" d="M243.89,124.84h0C243.93,124.93,243.92,124.91,243.89,124.84Z" transform="translate(-152.31 -10.97)"/><path class="b" d="M255.05,123.25a1.39,1.39,0,0,0-.27-.17A1.28,1.28,0,0,0,255.05,123.25Z" transform="translate(-152.31 -10.97)"/><path class="b" d="M255,123l.2.08C255.28,123.05,255.26,123,255,123Z" transform="translate(-152.31 -10.97)"/><path class="b" d="M254.41,123a1.58,1.58,0,0,1,.37.11s-.06-.07,0-.08Z" transform="translate(-152.31 -10.97)"/><path class="b" d="M239.29,143.84l.05,0C239.56,143.7,239.46,143.73,239.29,143.84Z" transform="translate(-152.31 -10.97)"/><path class="b" d="M227.07,127.68l0,0h0Z" transform="translate(-152.31 -10.97)"/><path class="b" d="M226.35,128.13c.24-.59.44-.56.7-.48l-.45-1.2Z" transform="translate(-152.31 -10.97)"/><path class="b" d="M219.92,139.65l0-.22a.24.24,0,0,1,.06-.08l0,0-.14.13.25-.24.05-.07.12-.09a.51.51,0,0,1,.18-.09c.09,0,.13-.13.21-.4a1.5,1.5,0,0,1-.41.46s0,0,0,0l-.17.19c-.1.12-.27.26-.38.37a4.2,4.2,0,0,1-.65.51,1.65,1.65,0,0,1-.44.19h0a1.75,1.75,0,0,1,.3.1c.09,0,.12.08.25.14l.15.11h0l.57.41h.27l-.19.05-.71-.48-.19-.12.21.13.79.57h.1l.18,0a.87.87,0,0,0,.31-.17.53.53,0,0,0,.16-.42.67.67,0,0,1,.08-.47c.1-.15.32-.3.86-.45.81-.17,1.72-.25,1.49,0,.38-.24.7-.46,1-.67.51-.13,1,0,.4.13l2.25-.8.09,0c-.24-.16-.53-.43-.7-.53,1.13-.12.21.1.88.08a.52.52,0,0,0,0-.35,3.69,3.69,0,0,1,1.48.08c.15.08-.11.24-.63.36a8.84,8.84,0,0,0,2.8-.25c.1-.1-.27-.2.19-.36-.41-.11-.66-.22-.69-.43l1.89.36c1-.13.9-.27.53-.47a4.67,4.67,0,0,1-1.26-.75c-.12.1,0,.44-.49.63a4.93,4.93,0,0,1-2.55.11c0-.12-.52-.31-2-.47,1.34-.12.16-.34-1-.65l1.55-.2a19.85,19.85,0,0,0-3.49-.24c-1.07-.41-.57-.76-.33-1.08-1.09-.38-.91-.14-.91.08s-.16.43-1.28.08c-.28-.17-.58-.32-.84-.46a.61.61,0,0,0-.23-.1l-.17,0-.49.37a2.58,2.58,0,0,1-.34.19c-.39.22-.52,0,0,.25h0l.41.22h.37a.53.53,0,0,1,.17,0c.09,0,.1,0,.09.1s-.24.1.1.17c.13,0,.13-.2.19-.3s.08-.22.11-.33a.39.39,0,0,1,.42.07c.46-.43-.75-.34,0-.89-.44-.21.39-.31,1.55-.52s2.64-.53,2.2-.8a9.51,9.51,0,0,1,1.62.08c.15-.22.2-.33.05-.36a33.43,33.43,0,0,0-3.93-.67,1.76,1.76,0,0,0-.26-.6c0,.27-.67.3-1.4.27s-1.55-.12-2.14-.19a2.93,2.93,0,0,0-.28.39,6.08,6.08,0,0,1-.95-.37c0-.1.28-.13.65-.13l-.26-.06c0-.3.46-.39,1.15-.37a1.12,1.12,0,0,1-.2.41,10.53,10.53,0,0,0,2.35-.21,3.74,3.74,0,0,1-.75-.16,1.12,1.12,0,0,0,.51-.06c.05-.05-.33-.08-.78-.12a4.26,4.26,0,0,0,.58-.52l-.44.1-.35-.33c-.07-.05-.11-.12-.23-.12l-.07,0h0l-.37.2h0l-.09,0c-.23.11-.33.08-.25.09s0,0,.2.06l.17.08c.05,0,.14.11.07,0a1.46,1.46,0,0,1-.19-.26c0-.11,0-.23,0-.35a1.9,1.9,0,0,1,.81-1.5c-.07.61.31.8.55,1.37-.58-.47-.68.67-.93.74.17-.06.31.2.37.3a1.81,1.81,0,0,1,.34-.92c.21.46.36.25.68.33-.61-.84.49-.93.84-1.36.13.31.14.67-.41.78.81.51.38-1.38,1.19-1-.13,0-.22,0-.23.21.23-.39,1.1-.37,1,0l-.13,0c.93-.15,2.83-.63,2.83-1.49a9.34,9.34,0,0,1,0,1.21c.38-1,.81-2.08,1.26-3.11,0,.75.8,2.38.07,2.91a1,1,0,0,0,1-.18c-.16-.08-.54-1-.33-1.09.7.72.47.37,1.29,1-.26-.13-.14-1.3.25-1.31,0,.18.16,1.12,0,1.25l.8-1.22c-.21.23.07,1,.31,1.24-.12-.2.8-.06,1-.19l-.42-.22c1.06.07.9-1.68,2-1.7-.12.24-.21,1.45.33,1.55.2-.59.91-2.84,1.86-3.33l.2.32.72-.4a24.93,24.93,0,0,1-2.24,3.52c.42.23.14.38.73.31.22.3-.3.49-.47.52l1.38.12c-.1-.67,1-.72,1-1.28l-1.47.77a1.92,1.92,0,0,1,1.78-1.87c.26.26-.15,1.2-.12,1.43.12-.24.92-.48,1-.31l-.4.37c.54.23.87-.92,1.54-.29.22,0,.68.86.72.46a7.57,7.57,0,0,1-.24-3.71,6.86,6.86,0,0,1,1.49,1.1c.38.61-.57,1.44-.25,2a.94.94,0,0,1,.31-.48c.24.16-.1.57.42.49.09-.68,1.06.07.25-.57.51-.19.54.14,1.14.12-.19-.44.57-1.49,1.09-1.67a1,1,0,0,0,.13.51c1.05.1,1.6.43,2.58.49.08.17.54.4.32.68.15-.11.29-.34.6-.33.54.62-.68,0-.28.78.06-.39.81-.49,1.25-.71-.08-.62-1-.19-1.42,0a2.48,2.48,0,0,1,1.93-2c.84-.14.31.57.46.46,1.53.29,1.47-1.34,2.7-.59.45.6-.1,1.07,0,1.46-.68.13-1-.45-1.43-.48l.53.31a.9.9,0,0,1-.92.07c.38.51,2.58.37,3.68,1,.23-.15.62-.28.49-.52l-.39,0c-.28-.48.8-.48.36-.76a2,2,0,0,1,1.88-.22v.62c0-.18-.39-.44-.63-.29.36-.22.93,1,1.41.3l-.41-.52c.56-.2,1.35-.7,2-.35-.16-.66-.16,0-.47-.77.21.94-1.66-.39-1.21.65-.31-.9-.74-.5-1.24-1.3,0,.2.16.42-.37.23l-.15.15,0,0,0,0s0,0,0,0a.82.82,0,0,1,.23.35c-.35.41-1.2.26-1.52.46-.3-.14.17-.21,0-.45l-.48.3c0-.45-.75-.86,0-1l-.68-.11a1.39,1.39,0,0,0-1.27-.31c-.31-.13-.87.41-.55.08l-1.09.18v-.11c-1-.16-2.21.56-3.36-.31a2.34,2.34,0,0,1-1.32.06L245,122c-.46.11-1.35-.44-1.56,0-.47-1.06-2.21-.27-3-.45l0,.51a5.06,5.06,0,0,0-1.76.33l.05.45c-.57.38-1.51-.29-2.44-.21.06-.17.3-.14.47,0-1.16-1-2.3.84-3.34.17a.52.52,0,0,1-.61,0l.06,0a.4.4,0,0,0-.11,0,3.1,3.1,0,0,0-.36-.21,1.28,1.28,0,0,0,.31.22,2.64,2.64,0,0,0-.76.23l-.16-.47-.07,0c-.3-.15-.21.25,0,.6a1.24,1.24,0,0,0-.36.32c-.3-.75-.72.33-1.12-.46-.15.42-1.41.46-1.45,1.33,0-.11-.12-.15,0-.18a.88.88,0,0,0-.91.17l-.22-.59-.58.91c-.47-.3-.68-.49-.33-1-.9.88-.79.4-1.52,1.26l0-.4c-.3.08-.69.68-.94.41-.41-.3-1.28-.15-2.27.1a23.6,23.6,0,0,1-3.2.7c.42.45.15.43-.19.41s-.79,0-.59.43c-.25-.18-.62-.14-.42-.54a5.17,5.17,0,0,1-.68.54c-.24.17-.48.35-.68.52a2.47,2.47,0,0,0-.57.8,1.94,1.94,0,0,0-.08,1.23c-.33.28-.29-.65-.5-.42a5.26,5.26,0,0,1,0,1.25c-.13.33-.31-.42-.31-.95a2.73,2.73,0,0,0,.32,1.85,1.58,1.58,0,0,0,.37.42c.13.11.17,0,.27,0,.32-.09.71-.25,1.09-.39-.14.39,0,.4.76.41a.67.67,0,0,1-.77.11c.15.17.42.54,1.44.52-.13,0,0,.05.14.08,0,0,0,0,0,0a3.09,3.09,0,0,0-.94.39l.25,0c.8.22-.18.23-.39.49l-.07,0c-.64.21-.57.3-.6.43a1.35,1.35,0,0,1-.15.41,2.91,2.91,0,0,0-.29,1.37,3.62,3.62,0,0,1,.43-.24.42.42,0,0,1,.45.27,1.67,1.67,0,0,1,.07.3.61.61,0,0,1,0,.31c0,.36-.08.65.34.71a1.13,1.13,0,0,0,.12-.21c.31,0,.15.28-.18.48s-.83.36-.85.4a1.42,1.42,0,0,1-.36,0c-.53.25.87-.12,1.45,0a9.34,9.34,0,0,0-1.31.17c-.13,0,.09,0,.45,0s.85.05,1.13.09c0,0-.15.06-.57.08a5.36,5.36,0,0,1,1.26.05,8.19,8.19,0,0,1-1.12.14c-.41,0-.61.07-.21.23a1.42,1.42,0,0,1-.31,0c.08.13-.23.46,0,.82a1.53,1.53,0,0,0-.5-.12h-.15s0,0-.05,0l-.12.15a2.41,2.41,0,0,0-.25,2.11,4,4,0,0,0,.93,1.33.5.5,0,0,1,0,.76,7.07,7.07,0,0,0,1.53.89l-.11.12a1.47,1.47,0,0,0,1.76.07c.17.17,0,.25-.07.32a2.1,2.1,0,0,0,2.58.23v.51c.34-.21,1.67,1.19,3,.82a.31.31,0,0,1-.17.2c1.47-.32,3.17,1.86,3.9.12l1-.34c-1.16-.26.26-.76-.2-1.11.47-.06,1.14.66.56.7l-.08-.1c-.3.92,1.43.47,1.34,1.1,2.33.14,4.59.76,6.77.84l-.24-.74.76.05c.2.18.25.58-.28.54.27.42.92-.34.93-.5,1.07.31-.42.86-.1.87l.45-.05-.1-.08c.37-.3.39-.61,1-.58.41.14.21.45.38.47,0,.06,0,.08.25,0l1,.05-.39-.57c.42-.29.9,0,.44-.63.67,1,3.58.23,4,.51a2.81,2.81,0,0,1,1.89-.49c-.2-.11-.35-.74.27-.72-.11,1.36,1.19.48,1.8,1.39-.52-.59,1.77-.36,1-1.18.53.05.09.5.52.76,1.18-.67,2.81,0,4.34-.52,0-.18-.32-.39,0-.71.33.23.66.47,1,.69.3-.16.06-1.05.76-.59-.12-.13-.29-.32-.1-.42a8.62,8.62,0,0,0,4.72-1.54,7.55,7.55,0,0,0,1.24-1,4.16,4.16,0,0,0,.32-.39c.1-.16.21-.31.3-.49a2.94,2.94,0,0,0,.27-1.35,3.9,3.9,0,0,0-.89-2.17c-.37-.5-.73-.91-1.07-1.33.3.57,0,.4-.38.23.18.19-.21.38-.28.62a13.46,13.46,0,0,0-1.05-1.2c-.47.51-1.43-.45-1.75.12h.44c-.74.55.23,1.82-.2,2.7.4-.31.65.12.88.52s.43.76,1.05.46c0,.24-.28.17-.35.4.34-.27.63-.11.51,0l-.09.05c.56-.33.64-.15.35-.25-.07,0-.1-.06-.25-.12l-.14-.09h0l-.15,0c-.26.08-.71.18-1.42.33l.29.39a.9.9,0,0,1-.62-.1c-.08.82.85-.3.85.55-.4-.35-.92-.13-1.49,0s-1.15.28-1.43-.21c-.52.13.29.49-.24.62l-.21-.25,0,.4a.73.73,0,0,1-.7-.54c.09,0,.23-.12.31-.16-.52-.24-1.24.39-1.43.31l.55.07c-1.41.58-3.31.47-4.71,1.24l.14.21c-1.09.54-.94-.14-2.17.17l0-.06a1.25,1.25,0,0,1-.9.39c.3-.28-.63-.46-.24-.78-1.2.53-.58.39-1.35,1.27l-.21-.35c-.26.35-.28.52-.9.65.5-.34-.43-.54.12-1-1.34-.74-1.93.9-2.57-.26-.58,1,1.16.53.83.76.3.33-.48.78-.9.69s-.76-1.29-1.81-1.26c.11,0,.12-.08.22-.07-.4-.26-.77.36-1.26-.07-.28.62-.63,0-.71.76l1-.18c-.55.2-1.08,1.13-2,.66a1.58,1.58,0,0,1,.54-.47c-.27-.24-.52.14-.79-.1.09-.79,1.19-.16,1.78-.76-.28-.34-1.11.57-.81-.29-.44,1.09-1.05-.15-1.78.66l.06-.47c-.11.07-.36.29-.56.27l.39-.6c-.59.51-1.09-.5-1.65-.23,1.15,0,.23.58.71.94-1.47.58-.77-1.26-2.37-1.13.22,0,.79.34.44.54a1.87,1.87,0,0,1-.86-.59c-1,0,.13.5-.33.76-.32-.6-.54.2-1,.35l0-.48c-1.17-.41-.4,1-1.46.5l.52-.62-.58.12.17-.54c-.65.35-.83.22-1.41,0a.65.65,0,0,1-.71.81c-.33-.33.26-.42-.5-.45.21-.28.44-.63.71-.15,0-.15.2-.28.26-.43-.35-.37-1-.2-1.23-.23a.55.55,0,0,1,.28.15l-1.18.51c-.14-.21,0-.33.17-.45-.22,0-.4.21-.73.2.14-.37.19-.77.66-.88l-1.07.26c0-.18-.44-.55-.28-.67-.5-.32-1.49.49-2.14,0a.43.43,0,0,1-.31.14c-.65-.25-1.07-.86-1.95-.6-.06-.26-.11-.53-.15-.8-.58,0,.21,1-.78.93-.7-.05,0-.64-.08-.91a2.42,2.42,0,0,1-.75.28c-.25,0-.42-.11-.28-.27s.1,0,.11,0A.2.2,0,0,0,219.92,139.65Zm8.53-2.81c.66.09,2.46.28,1.7.36C227.85,137.12,228.54,137,228.45,136.84Zm-9.88-7.25c.07,0,.1,0,.08,0s.07,0,.1.09a.36.36,0,0,1,.06.19,2.29,2.29,0,0,0-.31-.18S218.52,129.62,218.57,129.59ZM252.14,123l0,0C251.77,122.83,251.89,122.92,252.14,123Zm.76.3a.14.14,0,0,0,.06-.19c-.07.11-.24.1-.44,0C252.56,123.32,252.65,123.42,252.9,123.34Zm-11.21,23.74-.15-.12C241.88,146.82,241.78,146.94,241.69,147.08Z" transform="translate(-152.31 -10.97)"/><path class="b" d="M221.25,130.3a.64.64,0,0,1-.31.16C221.18,130.48,221.35,130.45,221.25,130.3Z" transform="translate(-152.31 -10.97)"/><path class="b" d="M224,140.85h0a.25.25,0,0,0,0-.07Z" transform="translate(-152.31 -10.97)"/><path class="b" d="M240.85,126.69a.64.64,0,0,1-.3-.25C240.54,126.56,240.61,126.66,240.85,126.69Z" transform="translate(-152.31 -10.97)"/><path class="b" d="M257.2,123.23l-.54,0a.6.6,0,0,1,.43.24C257.1,123.38,257,123.2,257.2,123.23Z" transform="translate(-152.31 -10.97)"/><path class="b" d="M260.66,127.28c.09,0,.14,0,.23,0l.07-.22C260.66,127,260.4,127.08,260.66,127.28Z" transform="translate(-152.31 -10.97)"/><path class="b" d="M257.33,124.89c-.05.41.29.34.65.35l-.06,0C258.15,124.69,257.74,124.79,257.33,124.89Z" transform="translate(-152.31 -10.97)"/><path class="b" d="M258.06,125.24a.88.88,0,0,1,.32.07C258.48,125.1,258.26,125.23,258.06,125.24Z" transform="translate(-152.31 -10.97)"/><path class="b" d="M253.92,123.21c.15.13.18-.49.25-.32C254.43,122.4,253,123.36,253.92,123.21Z" transform="translate(-152.31 -10.97)"/><polygon class="b" points="105 115.29 105 114.77 104.72 115.13 105 115.29"/><path class="b" d="M254.73,125.38l.51.23c0-.08.09-.12.18-.14C255.09,125.39,254.74,125.23,254.73,125.38Z" transform="translate(-152.31 -10.97)"/><path class="b" d="M255.42,125.47a.69.69,0,0,0,.45,0A1.68,1.68,0,0,0,255.42,125.47Z" transform="translate(-152.31 -10.97)"/><polygon class="b" points="104.25 115.28 104.11 115.15 103.74 115.03 104.25 115.28"/><path class="b" d="M248.88,124.59l-.61.09c-.07.17.08.28.31.23S249,124.76,248.88,124.59Z" transform="translate(-152.31 -10.97)"/><path class="b" d="M250.54,126.12c-.15-.12-.15-.24-.22-.41l-.08.62Z" transform="translate(-152.31 -10.97)"/><path class="b" d="M248.82,126.1c-.08.17-.89.43-.15.45C248.75,126.38,249.34,126.29,248.82,126.1Z" transform="translate(-152.31 -10.97)"/><polygon class="b" points="87.63 114.02 87.78 114.01 87.75 113 87.63 114.02"/><path class="b" d="M232.26,127.76c.7.18.11-.64.75-.39.14-.25-.52-.21-.38-.43C232.24,127.23,232,127.11,232.26,127.76Z" transform="translate(-152.31 -10.97)"/><path class="b" d="M232.63,126.94a1,1,0,0,0,.2-.17A1.47,1.47,0,0,0,232.63,126.94Z" transform="translate(-152.31 -10.97)"/><polygon class="b" points="108.41 124.43 107.99 124.08 108.2 124.5 108.41 124.43"/><path class="b" d="M259.58,135.84l.07-.65-.44.48C259.32,135.67,259.54,135.68,259.58,135.84Z" transform="translate(-152.31 -10.97)"/><path class="b" d="M229,135.63l-.49,0c-.21.11.05.2.57.38A1,1,0,0,0,229,135.63Z" transform="translate(-152.31 -10.97)"/><polygon class="b" points="70.54 129.46 70.84 129.38 69.52 129.23 70.54 129.46"/><path class="b" d="M221.33,139c-.13-.08-.3,0-.42-.11C221.2,138.89,221.08,139.67,221.33,139Z" transform="translate(-152.31 -10.97)"/><path class="b" d="M274.06,81.91c0,.34.08.22.1.27C274.12,81.61,274,81.92,274.06,81.91Z" transform="translate(-152.31 -10.97)"/><polygon class="b" points="121.13 65.41 121.18 65.5 120.97 64.7 121.13 65.41"/><path class="b" d="M272.35,71.28a3.25,3.25,0,0,0,.26,1.23A12,12,0,0,1,273,74l0,.17.26.36C273,73.46,272.57,72.05,272.35,71.28Z" transform="translate(-152.31 -10.97)"/><path class="b" d="M272.23,68.29c-.08.23-.29-.55.16.66v-.14C272.37,68.7,272.3,68.55,272.23,68.29Z" transform="translate(-152.31 -10.97)"/><path class="b" d="M272.39,68.81c.14.56,0-.41,0,0Z" transform="translate(-152.31 -10.97)"/><path class="b" d="M271.49,66.34l.36.66c0-.19-.14-.86,0-.65C271.55,65.63,271.5,65.84,271.49,66.34Z" transform="translate(-152.31 -10.97)"/><path class="b" d="M271,65.81l.19.34C271.17,66.07,271.15,66,271,65.81Z" transform="translate(-152.31 -10.97)"/><path class="b" d="M271.55,66.87l-.39-.72c0,.14-.15.21.17.34C271.19,66.48,271.35,66.58,271.55,66.87Z" transform="translate(-152.31 -10.97)"/><path class="b" d="M271.64,67.34c.06.44.2,1-.18.32C272,69,272.16,68.68,271.64,67.34Z" transform="translate(-152.31 -10.97)"/><path class="b" d="M272,71.12l.1.54.23.41C272.19,71.87,272.06,71.06,272,71.12Z" transform="translate(-152.31 -10.97)"/><path class="b" d="M269.91,61.76c-.13,0-.16.43-.26.57a4.7,4.7,0,0,1,.35.43C270,62.44,269.77,61.91,269.91,61.76Z" transform="translate(-152.31 -10.97)"/><path class="b" d="M269.65,62.33l-.6-.61C269.4,62.39,269.55,62.45,269.65,62.33Z" transform="translate(-152.31 -10.97)"/><path class="b" d="M270.47,65.93q.4.54.78,1.11a11.08,11.08,0,0,0-.9-1.33Z" transform="translate(-152.31 -10.97)"/><path class="b" d="M268.39,58.79a4,4,0,0,1,.52.21,5.83,5.83,0,0,0-.87-.42Z" transform="translate(-152.31 -10.97)"/><path class="b" d="M267.14,56.94c.45.1.14-.83.5-.63a2.46,2.46,0,0,0-.62-.59,4.73,4.73,0,0,0-.74-.32A2.24,2.24,0,0,1,267.14,56.94Z" transform="translate(-152.31 -10.97)"/><path class="b" d="M265.51,55.08a7.17,7.17,0,0,0,.77.32A1.85,1.85,0,0,0,265.51,55.08Z" transform="translate(-152.31 -10.97)"/><path class="b" d="M268.4,60.41a1.15,1.15,0,0,0,0-.85l-.16.56Z" transform="translate(-152.31 -10.97)"/><path class="b" d="M268.24,60.14v0c-.18-.32-.29-.56-.35-.65A6.87,6.87,0,0,1,268.24,60.14Z" transform="translate(-152.31 -10.97)"/><path class="b" d="M268.44,60.49l0-.08C268.39,60.47,268.39,60.49,268.44,60.49Z" transform="translate(-152.31 -10.97)"/><path class="b" d="M269.76,63.86c-.36-.35-1-1.11-.79-.1C269.32,64,269.21,63.36,269.76,63.86Z" transform="translate(-152.31 -10.97)"/><path class="b" d="M268.25,61.15l.38.81c.08-.07.11-.29.32-.14Z" transform="translate(-152.31 -10.97)"/><polygon class="b" points="115.62 49.89 115.94 50.18 115.8 49.88 115.62 49.89"/><path class="b" d="M266.17,56.68a3.17,3.17,0,0,1-1-.82c.26.49.6.9.88,1.34C266.17,57.14,266.5,57.14,266.17,56.68Z" transform="translate(-152.31 -10.97)"/><path class="b" d="M267.17,58.39l-.07-.06C267.11,58.4,267.12,58.45,267.17,58.39Z" transform="translate(-152.31 -10.97)"/><polygon class="b" points="109.45 41.38 109.44 41.52 109.52 41.45 109.45 41.38"/><path class="b" d="M266,57.33a.88.88,0,0,0,.62.57,5.37,5.37,0,0,1-.61-.7C265.94,57.22,265.91,57.25,266,57.33Z" transform="translate(-152.31 -10.97)"/><path class="b" d="M264.46,54.2a6.16,6.16,0,0,0,.24.77C264.69,54.68,264.61,54.14,264.46,54.2Z" transform="translate(-152.31 -10.97)"/><path class="b" d="M267.13,58.14l0,0C267.18,58,267.15,58,267.13,58.14Z" transform="translate(-152.31 -10.97)"/><path class="b" d="M267.13,58.14a1.8,1.8,0,0,0-.51-.24,3.1,3.1,0,0,0,.48.43A.63.63,0,0,1,267.13,58.14Z" transform="translate(-152.31 -10.97)"/><path class="b" d="M258.27,55a.93.93,0,0,1,.94-.28,1.21,1.21,0,0,1,.84.89c.9.12,1.64-1.66,1.7-3.11-.17.2-.31.38-1.19.08.05.51,1.05,1.91.17,1.86-1.07-.46-.59-.78-.87-1.38,0,.9-1.82.15-2.23,1.3l1,.15C258.58,54.66,258.13,54.72,258.27,55Z" transform="translate(-152.31 -10.97)"/><path class="b" d="M263,53.73l.32.21a3.78,3.78,0,0,1-.47-1.53c-.64-.22-.86-.12-1,0l1.31,1.34Z" transform="translate(-152.31 -10.97)"/><path class="b" d="M264.44,55.18c-.57.2-1.33-.24-1.37.63.76.72.83.17,1.42.47-1.26-1.19.54.15-.08-1a4.47,4.47,0,0,1,.72.62c-.16-.29-.3-.59-.43-.89V55h0c0,.11,0,.16,0,.06s0,0,0,0a.54.54,0,0,1-.2.1c-.26-.48.05-.17.2-.1l.07,0h0a16,16,0,0,0-1.4-1.09A9.94,9.94,0,0,0,264.44,55.18Z" transform="translate(-152.31 -10.97)"/><path class="b" d="M267.89,63.43a.1.1,0,0,1,0-.09C267.83,63.28,267.79,63.27,267.89,63.43Z" transform="translate(-152.31 -10.97)"/><path class="b" d="M267.68,62.76a.78.78,0,0,1,.48.4c.11.34-.14.1-.23.18.23.13.66.54.41-.17l-.11-.07c-.27-.61-.35-1.63-.24-1.57A2.75,2.75,0,0,0,267.68,62.76Z" transform="translate(-152.31 -10.97)"/><path class="b" d="M266.05,59.12,265,58.19l.14.85.16-.21C265.73,59.51,265.84,59.17,266.05,59.12Z" transform="translate(-152.31 -10.97)"/><path class="b" d="M261.83,52l.54-.42c-.4.06-.8.12-1.2.2Z" transform="translate(-152.31 -10.97)"/><polygon class="b" points="107.96 39.79 108.36 39.3 107.74 39.3 107.96 39.79"/><path class="b" d="M219.05,107.13l.25.31A2.9,2.9,0,0,0,219.05,107.13Z" transform="translate(-152.31 -10.97)"/><path class="b" d="M217.69,104.61h-.14C217.67,104.69,217.74,104.72,217.69,104.61Z" transform="translate(-152.31 -10.97)"/><path class="b" d="M214.93,54c-1-.09-2.33-.37-1.64.21l.75.48A1.22,1.22,0,0,1,214.93,54Z" transform="translate(-152.31 -10.97)"/><path class="b" d="M207.66,84l.18-.18-.59-.36Z" transform="translate(-152.31 -10.97)"/><path class="b" d="M210.11,84.26c-.15.25-.26.49-.38.73A3.42,3.42,0,0,0,210.11,84.26Z" transform="translate(-152.31 -10.97)"/><path class="b" d="M227.57,120.25l.59.2C227.72,119.86,227.76,120.21,227.57,120.25Z" transform="translate(-152.31 -10.97)"/><path class="b" d="M241.27,44.18a2.78,2.78,0,0,0-1.44-.59C240.55,44.08,241.07,44.93,241.27,44.18Z" transform="translate(-152.31 -10.97)"/><path class="b" d="M216,107.57c.17.18.27.24.32.21C216.18,107.59,216.06,107.49,216,107.57Z" transform="translate(-152.31 -10.97)"/><path class="b" d="M238.16,43.64c.11.09.21.13.32.21a2.72,2.72,0,0,1,1.35-.26C239.32,43.21,238.69,43,238.16,43.64Z" transform="translate(-152.31 -10.97)"/><path class="b" d="M264.23,100.6l.12-.08S264.27,100.53,264.23,100.6Z" transform="translate(-152.31 -10.97)"/><path class="b" d="M273.67,87l-.08.69C273.61,87.58,273.64,87.38,273.67,87Z" transform="translate(-152.31 -10.97)"/><path class="b" d="M253.55,46.3c.42.13.1-.06,0,0Z" transform="translate(-152.31 -10.97)"/><path class="b" d="M254.21,50.06a.54.54,0,0,0-.29.29A.78.78,0,0,1,254.21,50.06Z" transform="translate(-152.31 -10.97)"/><path class="b" d="M234.86,49.77h0C235,49.94,234.94,49.91,234.86,49.77Z" transform="translate(-152.31 -10.97)"/><path class="b" d="M254,46.91a2.46,2.46,0,0,0-.41-.45A2.27,2.27,0,0,0,254,46.91Z" transform="translate(-152.31 -10.97)"/><path class="b" d="M254.07,46.52l.31.23C254.48,46.64,254.47,46.54,254.07,46.52Z" transform="translate(-152.31 -10.97)"/><path class="b" d="M253,46.1a2.45,2.45,0,0,1,.61.36c-.06-.09-.08-.14,0-.16Z" transform="translate(-152.31 -10.97)"/><path class="b" d="M249.36,122.78s0,0,0,.08C249.63,122.56,249.53,122.6,249.36,122.78Z" transform="translate(-152.31 -10.97)"/><path class="b" d="M215.44,67.09a.43.43,0,0,1,0,0l-.05,0Z" transform="translate(-152.31 -10.97)"/><path class="b" d="M215.31,68.37c-.59-.9-.32-1.1.07-1.3-.74-.29-1.48-.58-2.23-.85C213.87,67,214.59,67.68,215.31,68.37Z" transform="translate(-152.31 -10.97)"/><path class="b" d="M222.55,113l-.28-.92c.92.77,1.25,1.52,1.08.61-.81.32-2-3.07-2.72-2.78l-.16-.62c.08.16.14.16.22.32-.26-1.24-1-.48-1.62-1.88-.21-.5-.29-.89,0-.62l-.76-.95c-.16-.31,0-.31.16,0l-.93-1.57h0a9.61,9.61,0,0,1-.93-.78c-.11-.47.19.16.23,0l-.67-.79c0-.48.6.15.9.78.34-1.28-.6-.62-1.07-2.7l.54.79c.18-.82-.32-1.39-.48-2.55-.07.34.2,2.39-.5,1.52a2.24,2.24,0,0,0-.68-1.12c.31-.18,0-.66-.36-1.3l.45-.2c-.47-.64-.66-.46-1.07-.75a1.42,1.42,0,0,1,.16-1.55c-.51-1.32-.17,1.21-1-.24a6.68,6.68,0,0,0-1.79-2.85c-.16-.85.4-.07.43-.42l-.53-.29.16.36-.19-.14c0-.17.14-.17.22-.17-.33-.49-.63.17-1-.66-.38,0-.25-.55-.1-1.19s.32-1.35-.22-1.81c.18-.31.47,0,.75-.1a8.56,8.56,0,0,0-1.56-2.33c.15-.38.31-.76.49-1.13-.59.85-1.41-.07-2.07-1a6.43,6.43,0,0,0-.69.76l-.56-1.49c.14-.19.46,0,.84.19a3.53,3.53,0,0,0-.23-.27c.31-.55.85-.27,1.36.08l-.54.55a2.39,2.39,0,0,0,1.63.52.86.86,0,0,1-.23-.45c.15.09.27.14.36.09s-.09-.19-.32-.41l1-.35-.4-.07a12.34,12.34,0,0,1,.79-1.79c-.44-.64-1.05-1.28-1.59-2a5.27,5.27,0,0,1-1-2.8c.75.68,1.34.34,2.33.54-.58.19-.54.61-.42,1.09a3.11,3.11,0,0,1,.17,1.54.43.43,0,0,1,.75-.22c-.24-.64-.36-1.28-.57-2,.8.17.69-.29,1.13-.7-.84,0-1-.36-1.07-.87a5.54,5.54,0,0,0,.06-1.56c.57.1,1.08.42.67,1.27,1.54-.66-1.54-1.77-.21-2.49-.05.23-.17.33.09.5-.39-.68.54-1.78.9-1.32l-.08.21a7.9,7.9,0,0,0,.58-1.23c.17-.47.3-1,.45-1.46.26-1,.25-1.91-.39-2.38a20.38,20.38,0,0,1,1.82,1.27,40.65,40.65,0,0,1-3.18-5.09c1,.93,4.29,1.93,4.28,3.36a1.23,1.23,0,0,0,.78-1.29c-.3.07-2-.59-1.92-1a14,14,0,0,0,2.84-.16c-.47.1-2-1.53-1.55-2,.2.28,1.75,1.31,1.8,1.61-.28-.8-.56-1.66-.76-2.48,0,.53,1.38,1.24,2.06,1.44-.42-.19.87-.83,1-1.25l-.79.07c.67-.45.37-1.29.13-2.14s-.53-1.77.16-2.32c.15.51,1.56,2.5,2.35,2.2a22.86,22.86,0,0,1-1.22-3.36,6.74,6.74,0,0,1-.15-3.92l.65.37.67-1.35c.14,1,.23,2.54.43,4.12s.38,3,.42,3.87c.82.08.63.53,1.3,0,.63.34.21,1,0,1.19l1.82-.74c-.89-1.13.52-1.9-.15-2.89a18.47,18.47,0,0,0-1.06,2.37,4.25,4.25,0,0,1-.77-2.5,2.21,2.21,0,0,1,1.11-2.12c.62.29,1,2.33,1.3,2.71-.09-.5.72-1.52,1-1.23a8.7,8.7,0,0,0-.18.94c.92.12.33-2.24,1.8-1.43.35-.07,1.61,1.28,1.34.5-1.11-1.36-3.29-5.89-3.36-7.24a10.76,10.76,0,0,1,3.24,1.35c1,1,.16,3.22,1,4.09a2.14,2.14,0,0,1,.09-1.14c.45.2.25,1.21.92.78-.31-1.44,1.58-.28,0-1.28.65-.6.89.08,1.75-.21a3.21,3.21,0,0,1-.05-2.07,3.16,3.16,0,0,1,1-1.84,2.33,2.33,0,0,0,.42,1,10,10,0,0,1,2.2.12,8.44,8.44,0,0,0,2.08.23c.16.34.92.72.61,1.35.21-.26.41-.78.89-.81.45.63.18.67-.1.74s-.59.23-.25,1c.05-.88,1.19-1.12,1.9-1.62-.15-1.25-1.6-.37-2.24.24a4.43,4.43,0,0,1,.8-2.6A4.75,4.75,0,0,1,243,46.65c1.49-.33.53,1.16.8.93a2.57,2.57,0,0,0,2.57-.84,2.25,2.25,0,0,1,1-.57,1.37,1.37,0,0,1,1.25.51c.63,1.29-.45,2.08-.42,2.89-1.15.08-1.54-1-2.32-1.12l.84.66c-.42.29-1.18.46-1.53.08.28.57,1.33.69,2.5,1s2.51.63,3.26,1.41c.43-.21,1.11-.34,1-.82l-.63-.08c-.28-1,1.5-.64.87-1.3,1-.21,2.3-.7,3.22.36l-.26,1.1c.12-.29-.44-1-.89-.82.68-.19,1,2.19,2.15,1.18l-.43-1.08c.51,0,1.14-.15,1.75-.15a2,2,0,0,1,1.54.69c.08-1.18-.27,0-.35-1.58-.09,1.66-2.51-1.67-2.26.39-.1-1.73-1-1.32-1.49-3-.11.36.09.82-.75.24a1.66,1.66,0,0,1-.32.22l-.05-.06,0,.07c-.06,0-.07,0,0,0a1.52,1.52,0,0,1,.25.74c-.76.59-2.15,0-2.77.24-.46-.39.36-.34.2-.85a9.41,9.41,0,0,0-.93.41c.19-.85-1.08-1.86.39-1.93l-1.2-.42c-.59-.68-1.55-1.25-2.25-1-.56-.32-1.65.7-1,.1l-2,.2v-.24a10.39,10.39,0,0,0-3,.25,4.37,4.37,0,0,1-3.22-.69,4.18,4.18,0,0,1-2.41.4l-.32-.79c-.79.39-2.71-.47-2.92.45-.68-1-1.77-.87-2.86-.48a13.22,13.22,0,0,0-1.58.69,4.21,4.21,0,0,1-1.34.5l.31,1.05a6.48,6.48,0,0,0-2.78,1.9l.47.84c-.31.59-1,.73-1.78.85a5.34,5.34,0,0,0-2.37.79c-.09-.36.33-.52.69-.49-1.39-.36-2.18.53-2.74,1.56s-1,2.05-2.23,2a.84.84,0,0,1-.81.76.22.22,0,0,0,.05-.12l-.15.13a7.11,7.11,0,0,0-.78.08,2,2,0,0,0,.71,0,4.58,4.58,0,0,0-.77,1.24l-.83-.54a1.05,1.05,0,0,0-.07.11c-.63.11,0,.61.72.94a2.29,2.29,0,0,0-.06.9c-1.38-.76-.5,1.36-2.07.69.18.4-.14,1-.34,1.64a2,2,0,0,0,.33,2c-.18-.12-.34-.06-.2-.29-.47.34-.94.69-.86,1.35l-1.09-.46c.18.63.44,1.28.66,1.9-1,.24-1.46.33-1.84-.79a5.78,5.78,0,0,1,0,1.86,3.16,3.16,0,0,0,.18,1.65l-.61-.4c-.2.52.31,1.7-.36,1.74-.91.24-1.44,1.66-2,3.3-.33.81-.47,1.74-.76,2.6-.14.43-.29.86-.46,1.27s-.29.8-.48,1.17c1.93-.29-1,1.33.44,1.66-.45.12-.73.54-1.06,0a7.06,7.06,0,0,1-.09,2,1.69,1.69,0,0,0,.54,1.6c-.4.17-.6-.36-.84-.21.09.14.37.53.13.69s-.34-.24-.53-.51c.12,1.7,1.44,1.82,2.55,1.91-.48.81-.35,1.22.4,1.74-.32.3-.63.8-.87-.18a10.9,10.9,0,0,0,.12,1.92c.13.78.39,1.47.78,1.43-.16.21.12.76.24.89a12,12,0,0,0,.66,2.45v-.35c1,.23.46.9.89,1.77H208a4.81,4.81,0,0,0,.17,1v.06l.08.15c.37.68.49.19,1,1.8l.33-.32c.92-.31.5,1.86,1.47,2.71l0-.49c.59.43,0,2.15.29,2.75,0,.15-.22-.14-.38-.28.57,1.69.55-.06,1.36,1-.09.33-.73.07-.29.82.1.45,2.06,1.75,2.31,3,0-.31,0-.62.45-.17.53.77.77,2.46,1.64,2.92,0,.13,0,.18,0,.21a15.57,15.57,0,0,0,1.8,2.11c-.52,1.06,2.63,3.58,1.81,4l1.1,1.89h-.12a3.89,3.89,0,0,0,1.49,1.88c.09.32-.1.17-.16.17a6.46,6.46,0,0,0,2.18,3.3l-.26.35a5.81,5.81,0,0,1,.71,1.79,13.92,13.92,0,0,0,.78,1.86,4.77,4.77,0,0,0,1.3,1.66s-.11.07-.28,0a4.93,4.93,0,0,1,.39.4c.07.06.12.17.21.2l.31,0a11.32,11.32,0,0,1,1.29,0l1.39.09s.06.1.06.06h.08l.12,0,.22,0,.45.08c1.16.23,2.11.35,2.45-.76l1.42-.55c-1.9-.16.23-1-.57-1.38.75-.19,2,.65,1.06.79l-.15-.12c-.28,1.24,2.37.46,2.35,1.37a31.74,31.74,0,0,1,5.45.7l2.63.56,1.28.25.64.11.32,0,.39.05a6.09,6.09,0,0,1-.37-1.32l1.57.24c.46.36.74,1.12-.61.89a1.13,1.13,0,0,0,1.38.12c.45-.22.73-.6.71-.75,1.27.44,1.21.82.79,1.09s-1.12.42-.68.5l1.14.06-.3-.2a6.54,6.54,0,0,0,.78-.64.91.91,0,0,1,.48-.17c.2-.06.57.14.71-.3.64-.55.71.39.95.1.05.09.15,0,.35-.51.44-.66.91-1.31,1.34-2a8.21,8.21,0,0,1-1.21,0c.14-1.27,1.06-1.75-.3-1.74.51,0,1-.38,1.61-1l.36-.45c.1-.13.2-.26.3-.41s.37-.58.54-.89c.68-1.22,1.19-2.48,1.57-2.64a4.35,4.35,0,0,1,.91-3c-.3.16-1.31-.22-.71-1,1.7,1.41,1.69-1.18,3.31-1.2-1.15.19,1-2.75-.6-2.35.52-.69.65.31,1.31,0a7.36,7.36,0,0,1,1.31-3.06,15.79,15.79,0,0,0,1.67-3.25c-.13-.13-.55.12-.55-.5.44-.25.87-.52,1.28-.79.11-.5-.61-.87.22-1.43-.16,0-.41.13-.31-.2a38.88,38.88,0,0,0,2.73-5.39c.43-.92.86-1.85,1.32-2.76l.7-1.36.36-.67.18-.33.09-.17.05-.08,0,0,0,0v0h0l-.33-.19.22.11.12.06h0v0l0-.05.05-.11.33-1.39.3-1.34c-.18.67-.12.21-.05-.3-.07.33-.1,0-.17,0q.22-1,.39-2.07c-.07-.4.11-2.26,0-2.48v.66c-.13-.88-.37,1.22-.59,1.06.11,1-.59,2.51-.69,4.1-.14.34,0-.3-.11-.13a4.37,4.37,0,0,1-.32,1.5v.06s-.15-.06.29.19l-.3-.16h0v0h0l.31.17-.29-.17s0,0,0,0v0s-.17-.07.31.21l-.32-.18h0l0,0,0,0-.06.09-.12.2-.23.36-.44.66c-.28.42-.56.79-.84,1.18-.57.77-1.2,1.55-2.11,2.68l.35,0a3.47,3.47,0,0,1-.76.76c-.05.8,1-1.42,1-.67a7.54,7.54,0,0,0-1.7,2c-.63.86-1.24,1.69-1.79,1.69-.59.77.55,0,0,.77l-.37.08.14.36a1.08,1.08,0,0,1-1.11.47,3.25,3.25,0,0,0,.3-.51c-.79.48-1.33,1.87-1.59,2l.72-.64c-1.32,2.24-3.7,4.53-4.43,7h.38c-.55,1.9-1.18,1.1-2.11,3l0-.11a2.19,2.19,0,0,1-.42,1.56c-.08-.66-1.27.42-1.3-.4-.52,2.11-.08,1.14.41,3l-.71,0a1.84,1.84,0,0,1,.1,1.86c0-1-1.2.08-1.34-1.11a2.4,2.4,0,0,0-1.42,2.17c-.09.7-.27,1.35-1.15.93.66.77.93.7,1.14.41s.53-1,.55-.62c.77-.12.72,1.45.35,1.82-.16.25-.72.11-1.23,0s-1-.35-1.2,0c.05-.06,0-.2,0-.26-.21-.08-.19.19-.21.46s-.1.14-.18.14a.77.77,0,0,1-.39-.31c.08.55-.08.52-.19.53s-.2.06-.12.76l.93-.22c-.2.16-.33.64-.66,1a1,1,0,0,1-1.44,0,3.61,3.61,0,0,1,.65-.8c-.32-.43-.48.23-1-.22a.76.76,0,0,1,.44-.63.79.79,0,0,1,.44-.12c.3,0,.7,0,.76-.48-.18-.32-.3-.08-.44,0s-.24.13-.2-.62c0,.48-.11.7-.21.78a.2.2,0,0,1-.16,0,2.08,2.08,0,0,0-.24-.08,1.46,1.46,0,0,0-1.74.38l.13-.82c-.21.13-.64.51-1,.48l.72-1c-1.06.88-1.93-.76-2.93-.23,2-.1.43.93,1.26,1.49-2.51,1.08-1.37-2-4.19-1.42.38-.15,1.42.33.82.72a3.49,3.49,0,0,1-1.56-.69c-1.85.35.29.71-.5,1.23-.63-.8-.9.44-1.69.77l0-.69c-2.1-.19-.51,1.46-2.39,1.14l.75-1-1,.36.17-.75a3.18,3.18,0,0,1-2.43.59c.27.38-.07,1.09-1,1.24-.66-.24.3-.6-1-.3.26-.38.55-.9,1.16-.48,0-.19.26-.41.31-.61-.71-.26-1.71.27-2.18.37a1.27,1.27,0,0,1,.52,0l-.91.56-.22.14a.65.65,0,0,0-.12.11l-.22.2c-.13-.18,0-.35.09-.52-.14.08-.28.33-.56.41a5,5,0,0,1,.51-1.12,3.18,3.18,0,0,1-.26.27l-.17.14-.15,0c.05-.23.06-.57.18-.66s-.2-.07-.45-.12h-.05l-.09-.08-.2-.18a4,4,0,0,1-.35-.36,3,3,0,0,1-.56-.82,1.19,1.19,0,0,1-.42-.31,10.88,10.88,0,0,0-2.07-3.13l0-.93c-.71-.9.08,1.24-1.08-.27-.84-1.06.07-.62-.07-1.08a4.73,4.73,0,0,1-1.87-2.43A8.61,8.61,0,0,1,222.55,113Zm-7-12.11c.19.2.62.58.54.85C215.65,101.68,215.69,101.38,215.58,100.91ZM209,82c.2.19.1.48-.17.83A1,1,0,0,1,209,82Zm40-36.53s0,0,0,0C248.32,44.93,248.52,45.14,248.94,45.45Zm1.27.82a.31.31,0,0,0,.17-.36c-.16.2-.47.12-.8,0C249.62,46.13,249.75,46.35,250.21,46.27ZM255,127.91l-.32.09C254.92,127.06,254.93,127.47,255,127.91Z" transform="translate(-152.31 -10.97)"/><path class="b" d="M209.83,84.23a.87.87,0,0,1-.36.13C209.58,84.46,209.7,84.45,209.83,84.23Z" transform="translate(-152.31 -10.97)"/><path class="b" d="M227.47,120.21l0,0a.21.21,0,0,0,.08,0Z" transform="translate(-152.31 -10.97)"/><path class="b" d="M231.34,54.87a1.13,1.13,0,0,1-.58-.36A.47.47,0,0,0,231.34,54.87Z" transform="translate(-152.31 -10.97)"/><path class="b" d="M257.63,48l-.89-.29a1.22,1.22,0,0,1,.59.69C257.4,48.25,257.38,47.9,257.63,48Z" transform="translate(-152.31 -10.97)"/><path class="b" d="M261.15,56.44c.14,0,.2.14.35.14l.17-.26C261.25,56,260.81,56,261.15,56.44Z" transform="translate(-152.31 -10.97)"/><path class="b" d="M257.07,50.93c-.26.64.3.7.86.94l-.09-.06C258.45,51.1,257.78,51,257.07,50.93Z" transform="translate(-152.31 -10.97)"/><path class="b" d="M258.05,51.92a1.79,1.79,0,0,1,.47.3C258.77,51.94,258.37,52,258.05,51.92Z" transform="translate(-152.31 -10.97)"/><path class="b" d="M252.06,46.34c.22.31.49-.87.55-.5.32-.4-.26-.33-.68-.12S251.21,46.27,252.06,46.34Z" transform="translate(-152.31 -10.97)"/><path class="b" d="M256.4,53.17l.23-.85-.61.47C256.14,52.92,256.28,53,256.4,53.17Z" transform="translate(-152.31 -10.97)"/><path class="b" d="M252.6,50.69l.76.56c0-.15.2-.19.35-.2C253.2,50.82,252.68,50.42,252.6,50.69Z" transform="translate(-152.31 -10.97)"/><path class="b" d="M253.71,51.05a1,1,0,0,0,.73.2A2,2,0,0,0,253.71,51.05Z" transform="translate(-152.31 -10.97)"/><polygon class="b" points="102.87 41.89 102.71 41.61 102.17 41.28 102.87 41.89"/><path class="b" d="M243,48.28l-1,.24c-.11.35.15.58.52.46S243.16,48.63,243,48.28Z" transform="translate(-152.31 -10.97)"/><path class="b" d="M245.61,51.4c-.22-.24-.2-.47-.29-.82l-.22,1.24Z" transform="translate(-152.31 -10.97)"/><path class="b" d="M242.9,51.41c-.12.35-1.37,1-.23.93C242.78,52,243.72,51.73,242.9,51.41Z" transform="translate(-152.31 -10.97)"/><polygon class="b" points="76.47 40.94 76.69 40.84 75.88 38.8 76.47 40.94"/><path class="b" d="M221.41,62.25c1.09-.26-.68-1.08.42-1.2-.14-.52-.9.1-1-.36C220.71,61.46,220.27,61.45,221.41,62.25Z" transform="translate(-152.31 -10.97)"/><path class="b" d="M220.83,60.69a2,2,0,0,0,0-.44A1,1,0,0,0,220.83,60.69Z" transform="translate(-152.31 -10.97)"/><polygon class="b" points="121.69 73.3 121.76 72.54 121.67 73.03 121.69 73.3"/><path class="b" d="M273.9,82.81l.13-.18-.1-.45A4.16,4.16,0,0,1,273.9,82.81Z" transform="translate(-152.31 -10.97)"/><path class="b" d="M215.49,98.56h-.12c-.07.17,0,.33.13.66Z" transform="translate(-152.31 -10.97)"/><polygon class="b" points="67.53 96.79 67.45 96.63 67.31 97.1 67.53 96.79"/><path class="b" d="M224.63,114.82c-.18-.3-.47-.6-.65-.9C224.45,114.52,224.27,115.14,224.63,114.82Z" transform="translate(-152.31 -10.97)"/><path class="b" d="M241,144.9s0,0,0,0S241,144.91,241,144.9Z" transform="translate(-152.31 -10.97)"/><polygon class="b" points="88.59 133.83 88.59 133.79 88.57 133.86 88.59 133.83"/><path class="b" d="M240.78,144.6c0,.28,0,0,.06.15v-.1S240.8,144.7,240.78,144.6Z" transform="translate(-152.31 -10.97)"/><path class="b" d="M240.72,143.81c0,.14,0,.06,0,.09v0A.28.28,0,0,0,240.72,143.81Z" transform="translate(-152.31 -10.97)"/><path class="b" d="M240.73,143.86s0-.13,0,0Z" transform="translate(-152.31 -10.97)"/><path class="b" d="M240.68,143.77v-.08a1.36,1.36,0,0,1,0-.18S240.67,143.62,240.68,143.77Z" transform="translate(-152.31 -10.97)"/><path class="b" d="M240.66,144v0S240.66,143.91,240.66,144Z" transform="translate(-152.31 -10.97)"/><path class="b" d="M240.69,143.89l0,.07c0,.06,0,.18,0,0C240.67,144,240.68,144,240.69,143.89Z" transform="translate(-152.31 -10.97)"/><path class="b" d="M240.7,144a1,1,0,0,1,0,.24S240.73,144,240.7,144Z" transform="translate(-152.31 -10.97)"/><path class="b" d="M240.78,144.87v0S240.77,144.79,240.78,144.87Z" transform="translate(-152.31 -10.97)"/><path class="b" d="M240.57,143.35v.28C240.59,143.56,240.58,143.48,240.57,143.35Z" transform="translate(-152.31 -10.97)"/><path class="b" d="M240.58,143.7l0,.11C240.58,143.86,240.58,143.79,240.58,143.7Z" transform="translate(-152.31 -10.97)"/><polygon class="b" points="88.35 133.42 88.38 133.19 88.34 133.42 88.35 133.42"/><polygon class="b" points="88.2 132.21 88.21 132.02 88.19 132.3 88.2 132.21"/><path class="b" d="M240.46,143.11v-.44a1.2,1.2,0,0,0,0,.26C240.44,142.87,240.45,142.92,240.46,143.11Z" transform="translate(-152.31 -10.97)"/><path class="b" d="M240.42,143.11v-.18S240.42,143,240.42,143.11Z" transform="translate(-152.31 -10.97)"/><path class="b" d="M240.53,143.72c0-.06,0-.21,0-.29v.29Z" transform="translate(-152.31 -10.97)"/><path class="b" d="M240.53,143.71h0l0,0Z" transform="translate(-152.31 -10.97)"/><path class="b" d="M240.54,143.72h0S240.53,143.75,240.54,143.72Z" transform="translate(-152.31 -10.97)"/><path class="b" d="M240.61,144.13a2,2,0,0,0,0,.45C240.61,144.43,240.59,144.3,240.61,144.13Z" transform="translate(-152.31 -10.97)"/><path class="b" d="M240.54,144.05l0,.08v-.22Z" transform="translate(-152.31 -10.97)"/><polygon class="b" points="88.23 133.14 88.23 133.08 88.23 133.05 88.23 133.14"/><path class="b" d="M240.45,143.45c0,.1,0,.1,0,.1a.5.5,0,0,0,0,.14A1.83,1.83,0,0,0,240.45,143.45Z" transform="translate(-152.31 -10.97)"/><path class="b" d="M240.49,143.6h0S240.49,143.64,240.49,143.6Z" transform="translate(-152.31 -10.97)"/><path class="b" d="M240.32,143.37v0Z" transform="translate(-152.31 -10.97)"/><path class="b" d="M240.45,143.75c0,.06,0,0,0-.07s0,0,0,0Z" transform="translate(-152.31 -10.97)"/><path class="b" d="M240.39,143.19v.19C240.4,143.28,240.39,143.11,240.39,143.19Z" transform="translate(-152.31 -10.97)"/><path class="b" d="M240.48,143.53h0Z" transform="translate(-152.31 -10.97)"/><path class="b" d="M240.48,143.53v.15s0,0,0-.07Z" transform="translate(-152.31 -10.97)"/><path class="b" d="M240.29,145.44c0-.31,0-.58,0-.26,0-.22,0-1.17,0-1.75,0,.13,0,.25,0,.4a6.66,6.66,0,0,1,0,.68c0,.14,0-.12,0-.29,0,.38,0,.54,0,1.11l0-.19C240.29,145.22,240.28,145.36,240.29,145.44Z" transform="translate(-152.31 -10.97)"/><path class="b" d="M240.36,143.52v0c0-.07,0-.19,0-.44,0,.11,0,.22,0,.32l0,.1Z" transform="translate(-152.31 -10.97)"/><path class="b" d="M240.4,143.56c0,.29,0,.39,0,.74,0,0,0-.24,0-.35s0-.15,0-.36c0,0,0,0,0,0l0-.17v0h0v0h0v.11a.36.36,0,0,1,0-.11v0h0l0,.1C240.37,143.56,240.38,143.56,240.4,143.56Z" transform="translate(-152.31 -10.97)"/><path class="b" d="M240.58,145.08v0Z" transform="translate(-152.31 -10.97)"/><path class="b" d="M240.56,144.93s0-.13,0-.1a1.2,1.2,0,0,1,0,.19,1.36,1.36,0,0,0,0-.29v0a2.59,2.59,0,0,1,0-.45Z" transform="translate(-152.31 -10.97)"/><path class="b" d="M240.48,144.37l0,.11,0,.25v-.14C240.48,144.66,240.48,144.48,240.48,144.37Z" transform="translate(-152.31 -10.97)"/><polygon class="b" points="88.01 132.23 88.02 131.9 88 132.35 88.01 132.23"/><polygon class="b" points="87.97 132.22 87.98 131.91 87.97 132.08 87.97 132.22"/><path class="b" d="M241.43,145.42l.07,0Z" transform="translate(-152.31 -10.97)"/><path class="b" d="M241.44,145.34l-.12.07Z" transform="translate(-152.31 -10.97)"/><path class="b" d="M237.12,146.45c-.32.2-.82.51-.42.28l.38-.23C237,146.53,237,146.51,237.12,146.45Z" transform="translate(-152.31 -10.97)"/><path class="b" d="M239.75,145.71l.09-.06-.31.16Z" transform="translate(-152.31 -10.97)"/><path class="b" d="M241.05,145l-.2.13Z" transform="translate(-152.31 -10.97)"/><path class="b" d="M241.69,145.68l.23-.12A1.21,1.21,0,0,0,241.69,145.68Z" transform="translate(-152.31 -10.97)"/><path class="b" d="M239.9,142.88a1.4,1.4,0,0,0,0-.28C239.88,142.85,239.89,143.22,239.9,142.88Z" transform="translate(-152.31 -10.97)"/><path class="b" d="M238.58,147l.17-.09Z" transform="translate(-152.31 -10.97)"/><path class="b" d="M239.84,142.57v.11c0-.07,0-.12,0-.08C239.87,142.41,239.86,142.29,239.84,142.57Z" transform="translate(-152.31 -10.97)"/><path class="b" d="M240.23,145.25h0Z" transform="translate(-152.31 -10.97)"/><path class="b" d="M241.2,145.38s0,0,0,0Z" transform="translate(-152.31 -10.97)"/><path class="b" d="M240.13,142.81s0,0,0,0Z" transform="translate(-152.31 -10.97)"/><path class="b" d="M240.16,144.31v0Z" transform="translate(-152.31 -10.97)"/><path class="b" d="M239.73,145.22Z" transform="translate(-152.31 -10.97)"/><path class="b" d="M240.14,143v0Z" transform="translate(-152.31 -10.97)"/><path class="b" d="M240.14,142.82v.05C240.15,142.81,240.15,142.77,240.14,142.82Z" transform="translate(-152.31 -10.97)"/><path class="b" d="M240.12,142.82a.12.12,0,0,1,0,.05v-.06Z" transform="translate(-152.31 -10.97)"/><path class="b" d="M239.91,145.86h0C239.86,145.82,239.87,145.83,239.91,145.86Z" transform="translate(-152.31 -10.97)"/><path class="b" d="M241.16,144.38h0Z" transform="translate(-152.31 -10.97)"/><path class="b" d="M241.43,144.26c-.45.24-.39.2-.3.14l-1.06.62Z" transform="translate(-152.31 -10.97)"/><path class="b" d="M241.51,145.55l.23-.15a3.38,3.38,0,0,0,.57-.3c-.8.46-.07,0-.88.41l.17-.12s0,0,0,0c.39-.26-.59.31-.48.21a1.7,1.7,0,0,1,.28-.18l-.21.09s.16-.1.15-.08h-.05l-.43.22a2.19,2.19,0,0,1,.19-.11l-.21.09c.22-.13.44-.24.41-.2.86-.52-.22.1.28-.24l.12,0c.49-.3.31-.22.63-.42-.17.1-.79.5-1,.6.07-.05.1-.08-.08,0,.32-.18.24-.15.22-.16l.42-.24c-.12.05-.34.18-.53.27,0,0,.37-.23.65-.4.07-.08-.53.33-.61.33.16-.12,0,0-.28.07.15-.1.27-.15.39-.22l-.35.18.17-.1c-.13.06-.43.25-.56.3-.49.27.71-.46.15-.17l.45-.26c-.38.17-.27.12-.78.38l.29-.2c-.34.22-.75.43-1.1.61l-.38.23-.27.12.43-.25-.11.06c.17-.11.44-.26.7-.4l-.28.18.87-.49-.13.06.2-.1c.05,0-.06,0-.18.09l.52-.31-.21.12.33-.25c-.53.27-1.33.7-1.58.79l1.13-.65c-.5.31.22-.08.12,0l.35-.21-.45.21a3.16,3.16,0,0,0,.45-.29,2.52,2.52,0,0,1-.76.38c.26-.16.53-.31.47-.24.59-.37-.93.49-.43.18,0,0,0,0,.11,0-.24.12-.06,0,.18-.15h0c.1-.09,0-.13-.71.28l1-.57-2.44,1.33c.62-.36,2.11-1.24,2.46-1.4.08-.06.19-.14,0,0l-1,.56,1-.61c-.13.09-1.13.65-1.1.62l1.09-.62-1,.53,1.11-.65c-.19.11,0-.05-.08,0l-.23.15c.15-.13-1.42.77-1.38.7.21-.11,1.28-.72,1.4-.81h0l-1.61,2.7v-.24l0-.41,0-1c0-.7,0-1.38.08-1.62V144l0-.4c0,.91-.13,2.8-.16,3.54,0,.27,0,.4,0,.38a2.4,2.4,0,0,1,0,.5l0,.21c0-.7.06-.69.07-1.28l-.08.72a15.11,15.11,0,0,1,.11-1.86l0,1.48c0-.24,0-.46,0-.29l0,.38c0,.26.05-.93.06-.27,0,.05,0,.89,0,.48,0-.79,0-3.25.06-3.85l0,1.15-.05,2,0-.5a4.78,4.78,0,0,0,0,.5,3.05,3.05,0,0,0,0-.59c0-.21,0,.14,0,.1,0-.45.05-1.53.07-1.72v.51c0,.06.05.37.09.36,0,.17,0,.35,0,.64,0-.12,0-.34,0-.36,0,.56,0,.1,0,.77,0-.38,0-.54.06-.78,0-.58,0-.1-.06.14,0-.82,0-1.67.09-2,0-.18,0,.52,0,.41.06.15.07-1.34.11-.75s0,1,0,1.32c0,.18,0-.32-.05-.3l0,.23c0,.16,0,.29,0,.15,0,.44.1.09.14.47,0-.16,0-.32,0-.5l0,.06c0-.38,0-.51,0-.69s0-.64.06-.41v.51c0-.15,0-.32,0-.16,0-.22,0,.7.05.05V144c0-.25,0-.74.06-.56,0-.5,0,.06,0-.53,0,.72-.06-.11,0,.67,0-.7,0-.32-.05-.94,0,.17,0,.34,0,.23V143h0v0h0v.27c0,.38,0,.34-.05.55,0-.1,0-.2,0-.4l0,.3a8,8,0,0,1,0-.89l0-.05c0-.24,0-.35,0-.19,0-.11,0,.43,0,.11l0,.22v-.1c0-.1-.08.65-.11-.17,0,.09,0,.22,0,.08v-.39c0,.12,0-.43-.05,0,0-1.08-.07-.29-.1-.48v.52s0,.1-.06.31v.47c0,.38,0-.34-.08-.3,0-.17,0-.13,0,0,0-1.06-.1.77-.12,0a1,1,0,0,0,0,.11l-3.1,2.09,1.15,1.19-.08.07h0l-.2.13.2-.13a.62.62,0,0,0,.18-.07l-.42.25h0l.53-.3.27-.14c-.68.4.25-.12-.47.31.37-.2.32-.12,1.06-.54l-.15.08c-.07.06-.15.11.07,0l-.53.31.73-.39c-.31.2-.48.3-.9.53l.9-.45-.34.19s.48-.24.22-.08c-.6.37,0,.13-.46.48.88-.52-.37.25.32-.15a4.52,4.52,0,0,1-.51.3c.24-.1-.27.21.33-.1l-.43.24c.05,0,.19-.1.07,0l-.27.15a13.88,13.88,0,0,0,1.29-.7c-.26.17-.22.16.17-.05a2.46,2.46,0,0,1-.46.25s-.21.21.24,0c-.11.07,0,0,0,0s-.05.06,0,.06l.06,0c.55-.3.14-.05.22-.07l-.06,0c-.34.25.2-.09-.2.19l.32-.19c.7-.39-.38.27-.09.14l.17-.11c.24-.13-.9.56-1,.62l-.15.07c-.36.25.42-.23.54-.27-.22.13-.57.32-.59.35s.76-.37.37-.11a4.57,4.57,0,0,1,.45-.26c.08,0-.56.39,0,.11l-.12.07c.14-.06.26-.09.54-.23-1,.58.55-.21-.36.31H239l-.09.05s.19-.06.41-.17a1.86,1.86,0,0,1-.19.11c-.13.13-.08.1.37-.11l-.27.16c.12-.06-.16.14-.13.17l1.65,1.61.47-1.61s0,0-.09-.09l.11.07c-.28-.22.69.26-.2-.28l-.21-.16a4.32,4.32,0,0,1-.53-.29c0-.05.28.11.32.15l0,0c.45.27.18,0,.48.22,0-.11.23-.06.24-.15l-.3-.16,0,0a.88.88,0,0,1,.22.13c.17.09-.14-.12-.2-.15.12,0,.33.21.34.2l0,0,0,0c-.12-.08-.25-.15-.23-.17l.18.09s0,0,0,0l0,0-.21-.11c-.11-.08,0,0-.23-.15.37.18.15-.07.26,0-.14-.11-.13-.13-.11-.15s-.25-.13-.21-.13c.41.25.19.06.47.2-.19-.09,0-.1-.3-.22,0,0,.14.08.23.12-.14-.14.09-.07,0-.16l-.17-.1.21.08s-.23-.14-.1-.09l-.09-.05c.17,0-.07-.31.15-.31,0,0,0,0,0,0s-.06,0-.09,0h.08c-.07,0,0-.06-.07-.1v0c-.06-.06-.17-.07-.28-.13.09.07-.2-.06-.09.05l-.06,0s0,0,0,0h0s-.13,0-.26,0l.1,0-.09,0c.12.09.05,0,.18.08-.2-.1-.08.06-.33-.07,0,0,.12.07.1.08l-.07,0,.08,0a.83.83,0,0,1-.18-.08s0,0,0,0,0,0-.07,0l.07,0c0,.07-.18,0-.07.17l.07,0c.08.09-.1,0-.09,0h0c.06,0,.09.07.07.08s-.18-.08-.26-.14c.09.1.09.07.33.25l-.13-.07c.11.08.16.11.18.15s-.2-.1-.33-.2c-.33-.14.22.21-.23,0,.36.23.25.09.32.15s.26.17.21.16-.5-.26-.54-.24,0,0,0,0,.11.1-.07,0c.23.14,0,0,.27.18l0-.06c.06.06.42.29.21.21l-.18-.13c-.1-.05.05,0-.06,0-.32-.19,0-.07-.25-.22s.19.15-.15,0c.43.26-.1,0,.22.2l-.2-.12s.12.08.1.09l-.24-.16c.2.14-.25-.1-.15,0s.26.13.43.21-.57-.29-.54-.21a.93.93,0,0,1,.24.12,1.05,1.05,0,0,1-.27-.12s.23.13.34.22c-.28-.15.09.07.16.13l-.22-.13c-.2-.06.46.28.24.21l-.3-.2.06.06-.25-.15c.17.12.11.1,0,.07a2,2,0,0,1,.42.27c-.16-.08-.22-.14-.22-.1s-.32-.2-.09-.08l-.22-.14c-.18-.09-.08,0-.08,0l.06,0,.3.22a1.16,1.16,0,0,1-.23-.14s.12.09.13.11c-.2-.12-.41-.24-.48-.3l.18.15c-.09,0-.27-.13-.34-.18s0,0,0,0h3.38c-.08,0-.36.16-.23.06l-.11,0c.05-.06.32-.25,0-.11l.4-.25c-.08,0-.5.32-.65.35s.34-.21.46-.29c-.2.1-.63.32-.3.09C241.54,145.52,241.48,145.56,241.51,145.55Zm-.21-.24c.06,0,.27-.13.08,0C241,145.49,241.2,145.38,241.3,145.31Zm-.89,0c.12-.06.06,0-.07.06S240.32,145.33,240.41,145.27Zm-.37-2.22v0C240,142.89,240,143,240,143.05Zm0,.21v-.18c0,.11,0,.11,0,.07C240.06,143.27,240.06,143.35,240.07,143.26Zm1.16,3.26,0,0C241.13,146.45,241.17,146.48,241.23,146.52Z" transform="translate(-152.31 -10.97)"/><path class="b" d="M240.9,145.05l-.19.11Z" transform="translate(-152.31 -10.97)"/><polygon class="b" points="89.33 134.74 89.33 134.74 89.38 134.71 89.33 134.74"/><path class="b" d="M239.58,147.18v-.26A1.5,1.5,0,0,0,239.58,147.18Z" transform="translate(-152.31 -10.97)"/><path class="b" d="M240.22,142.76l0,.07a.54.54,0,0,1,0,.16A1.11,1.11,0,0,1,240.22,142.76Z" transform="translate(-152.31 -10.97)"/><path class="b" d="M240.36,145.19s0,0,0-.05V145A.62.62,0,0,0,240.36,145.19Z" transform="translate(-152.31 -10.97)"/><path class="b" d="M240.22,144.08c0,.32,0,.22,0,.17h0C240.25,143.8,240.24,143.93,240.22,144.08Z" transform="translate(-152.31 -10.97)"/><path class="b" d="M240.25,144.24s0,0,0,0C240.27,144.06,240.26,144.2,240.25,144.24Z" transform="translate(-152.31 -10.97)"/><path class="b" d="M240.1,143.06c0,.1,0-.44,0-.29C240.12,142.32,240.07,143.26,240.1,143.06Z" transform="translate(-152.31 -10.97)"/><polygon class="b" points="87.92 134.19 87.92 133.78 87.91 134.11 87.92 134.19"/><path class="b" d="M240.13,144.84l0,.12a.49.49,0,0,1,0-.14S240.13,144.71,240.13,144.84Z" transform="translate(-152.31 -10.97)"/><path class="b" d="M240.16,144.82s0,0,0-.07A.17.17,0,0,0,240.16,144.82Z" transform="translate(-152.31 -10.97)"/><polygon class="b" points="87.89 134.31 87.89 134.22 87.87 134.19 87.89 134.31"/><path class="b" d="M239.92,144.71l0,.14c0,.16,0,.26,0,.2A3.11,3.11,0,0,0,239.92,144.71Z" transform="translate(-152.31 -10.97)"/><path class="b" d="M240,146v0Z" transform="translate(-152.31 -10.97)"/><path class="b" d="M239.9,146.15a3.54,3.54,0,0,0,0,.43A2.13,2.13,0,0,0,239.9,146.15Z" transform="translate(-152.31 -10.97)"/><polygon class="b" points="87.27 134.46 87.27 134.45 87.29 133.4 87.27 134.46"/><path class="b" d="M241.76,143.81c.22-.16-.56.31-.29.13-.22.12-.22.15-.41.25A5.85,5.85,0,0,0,241.76,143.81Z" transform="translate(-152.31 -10.97)"/><path class="b" d="M241.06,144.19l-.14.07Z" transform="translate(-152.31 -10.97)"/><polygon class="b" points="88.94 134.37 88.96 134.36 88.93 134.36 88.94 134.37"/><path class="b" d="M241.17,145.26l.06,0,0,0S241.19,145.26,241.17,145.26Z" transform="translate(-152.31 -10.97)"/><path class="b" d="M242.15,144.77l-.11.06c-.11.06-.11.07-.13.09Z" transform="translate(-152.31 -10.97)"/><polygon class="b" points="89.51 134.26 89.52 134.25 89.16 134.46 89.51 134.26"/><path class="b" d="M242.24,145.21s-.06,0-.05,0S241.81,145.45,242.24,145.21Z" transform="translate(-152.31 -10.97)"/><path class="b" d="M209.11,93.35s0,0,0,0S209.13,93.34,209.11,93.35Z" transform="translate(-152.31 -10.97)"/><polygon class="b" points="56.86 82.99 56.82 82.99 56.93 83.04 56.86 82.99"/><path class="b" d="M209.16,94.56c.28-.17,0-.2.05-.35l0,0-.18,0C209.09,94.32,209.24,94.43,209.16,94.56Z" transform="translate(-152.31 -10.97)"/><path class="b" d="M208.46,95.16c.14-.07.1,0,.06-.1l0,0A.14.14,0,0,1,208.46,95.16Z" transform="translate(-152.31 -10.97)"/><path class="b" d="M208.48,95.09c0-.07-.11.09,0,0Z" transform="translate(-152.31 -10.97)"/><path class="b" d="M208.51,95.38l-.11,0c-.09,0-.12.14-.18.14S208.36,95.49,208.51,95.38Z" transform="translate(-152.31 -10.97)"/><path class="b" d="M208.76,95.35l0,0S208.66,95.37,208.76,95.35Z" transform="translate(-152.31 -10.97)"/><path class="b" d="M208.61,95.28l.1,0c.06,0,.18-.09,0,0C208.78,95.27,208.68,95.29,208.61,95.28Z" transform="translate(-152.31 -10.97)"/><path class="b" d="M208.67,95.2c.08-.08.13-.16.24-.12C208.87,94.93,208.64,95.05,208.67,95.2Z" transform="translate(-152.31 -10.97)"/><path class="b" d="M209.47,94.47l.07-.09-.11,0C209.49,94.37,209.38,94.51,209.47,94.47Z" transform="translate(-152.31 -10.97)"/><path class="b" d="M208.23,96c.09,0,.24-.14.36-.19l-.1,0A.86.86,0,0,1,208.23,96Z" transform="translate(-152.31 -10.97)"/><path class="b" d="M208.59,95.85l.15,0C208.76,95.79,208.68,95.8,208.59,95.85Z" transform="translate(-152.31 -10.97)"/><path class="b" d="M209.18,95.2l-.29,0a1.36,1.36,0,0,0,.29.06Z" transform="translate(-152.31 -10.97)"/><polygon class="b" points="55.88 85.46 55.66 85.5 55.99 85.45 55.88 85.46"/><path class="b" d="M208.21,96.67c-.2,0-.34.21-.46.22s.2,0,.35,0C208,96.89,208,96.82,208.21,96.67Z" transform="translate(-152.31 -10.97)"/><path class="b" d="M208.33,96.89a1.06,1.06,0,0,0-.23,0A1.16,1.16,0,0,0,208.33,96.89Z" transform="translate(-152.31 -10.97)"/><path class="b" d="M208.7,96.06a.92.92,0,0,0-.28.2l.27-.16Z" transform="translate(-152.31 -10.97)"/><path class="b" d="M208.7,96.09h0v.09Z" transform="translate(-152.31 -10.97)"/><path class="b" d="M208.7,96.05h0S208.73,96,208.7,96.05Z" transform="translate(-152.31 -10.97)"/><path class="b" d="M209,95.53a.57.57,0,0,0,.5-.16C209.3,95.41,209.19,95.52,209,95.53Z" transform="translate(-152.31 -10.97)"/><path class="b" d="M209,95.86l0-.12a.65.65,0,0,1-.23.09Z" transform="translate(-152.31 -10.97)"/><polygon class="b" points="56.8 84.9 56.71 84.89 56.7 84.94 56.8 84.9"/><path class="b" d="M208.6,96.59c.13,0,.15,0,.17.07a.29.29,0,0,0,.07-.21C208.75,96.48,208.59,96.53,208.6,96.59Z" transform="translate(-152.31 -10.97)"/><path class="b" d="M208.68,96.34h0S208.72,96.31,208.68,96.34Z" transform="translate(-152.31 -10.97)"/><path class="b" d="M208.84,97.17l.06,0-.06,0Z" transform="translate(-152.31 -10.97)"/><path class="b" d="M208.9,96.42c0-.07,0-.07-.11,0a.09.09,0,0,1,.05.08Z" transform="translate(-152.31 -10.97)"/><path class="b" d="M208.48,97a1.29,1.29,0,0,0,.17-.15C208.55,96.89,208.4,97,208.48,97Z" transform="translate(-152.31 -10.97)"/><path class="b" d="M208.61,96.39h0C208.54,96.43,208.57,96.41,208.61,96.39Z" transform="translate(-152.31 -10.97)"/><path class="b" d="M208.61,96.39l.18,0a.17.17,0,0,0-.1,0Z" transform="translate(-152.31 -10.97)"/><path class="b" d="M211,96.31c-.31.15-.63.18-.35,0a8,8,0,0,0-1.73.88.84.84,0,0,1,.44-.11c.17-.11.34-.38.63-.43s-.08.14-.22.27c.36-.22.6-.12,1.16-.42h-.24A1.09,1.09,0,0,0,211,96.31Z" transform="translate(-152.31 -10.97)"/><path class="b" d="M208.9,96.94l0,0a2.28,2.28,0,0,1-.38.32.77.77,0,0,0,.36-.08V97Z" transform="translate(-152.31 -10.97)"/><path class="b" d="M208.83,96.74a2.72,2.72,0,0,0,.79-.29c-.05-.1-.28,0-.42,0,.11.14-.18,0-.33.23a.16.16,0,0,1-.1-.06,1.33,1.33,0,0,1-.12.16h0s.06,0,0,0h0l.12-.05c-.06.09-.08.05-.12.05l0,0h0l.2.11C208.9,96.86,208.88,96.81,208.83,96.74Z" transform="translate(-152.31 -10.97)"/><path class="b" d="M210,95.23a.09.09,0,0,1-.06,0S210,95.26,210,95.23Z" transform="translate(-152.31 -10.97)"/><path class="b" d="M209.91,95.37s-.14,0-.13,0,.12,0,.2-.09a.37.37,0,0,0-.3.13h0a1.31,1.31,0,0,1-.41.34A6,6,0,0,0,209.91,95.37Z" transform="translate(-152.31 -10.97)"/><path class="b" d="M209.49,96l.18.08.23-.19-.15.07C209.79,95.86,209.61,96,209.49,96Z" transform="translate(-152.31 -10.97)"/><polygon class="b" points="56.37 86.3 56.02 86.44 56.52 86.3 56.37 86.3"/><polygon class="b" points="56.44 86.49 56.13 86.63 56.32 86.59 56.44 86.49"/><path class="b" d="M213.7,102.22l0,0Z" transform="translate(-152.31 -10.97)"/><path class="b" d="M213.81,102.5l.06,0S213.81,102.49,213.81,102.5Z" transform="translate(-152.31 -10.97)"/><path class="b" d="M210.88,101.86c-.27.26-.69.63-.32.38l.34-.26C210.81,102,210.82,101.93,210.88,101.86Z" transform="translate(-152.31 -10.97)"/><path class="b" d="M214.88,102.94l.06-.07-.25.15Z" transform="translate(-152.31 -10.97)"/><path class="b" d="M215.85,102.21l-.12.2A1.32,1.32,0,0,0,215.85,102.21Z" transform="translate(-152.31 -10.97)"/><path class="b" d="M212.51,101l-.21.07C212.39,101.09,212.43,101,212.51,101Z" transform="translate(-152.31 -10.97)"/><path class="b" d="M209.42,99.4c-.13.14-.18.22-.18.27C209.44,99.47,209.76,99.23,209.42,99.4Z" transform="translate(-152.31 -10.97)"/><path class="b" d="M215,101.61a.16.16,0,0,0-.1,0A.11.11,0,0,0,215,101.61Z" transform="translate(-152.31 -10.97)"/><path class="b" d="M209.3,99.82l.09-.08c-.09,0-.16,0-.15-.07C209.09,99.81,209,99.92,209.3,99.82Z" transform="translate(-152.31 -10.97)"/><path class="b" d="M209,96l0,0S209,96,209,96Z" transform="translate(-152.31 -10.97)"/><path class="b" d="M210.06,93.42l.08,0Z" transform="translate(-152.31 -10.97)"/><path class="b" d="M208.74,98.35s0,0,0,0Z" transform="translate(-152.31 -10.97)"/><path class="b" d="M210.13,97.43l.18-.08Z" transform="translate(-152.31 -10.97)"/><path class="b" d="M212,98.75Z" transform="translate(-152.31 -10.97)"/><path class="b" d="M208.89,98.21a.31.31,0,0,0-.09.11Z" transform="translate(-152.31 -10.97)"/><path class="b" d="M208.72,98.3l0,0C208.69,98.27,208.65,98.3,208.72,98.3Z" transform="translate(-152.31 -10.97)"/><path class="b" d="M208.77,98.4s0-.05,0-.08l-.06,0Z" transform="translate(-152.31 -10.97)"/><path class="b" d="M211.09,98.57l0,0C211,98.59,211,98.6,211.09,98.57Z" transform="translate(-152.31 -10.97)"/><path class="b" d="M215.09,100.22h0Z" transform="translate(-152.31 -10.97)"/><path class="b" d="M215.4,100.17c-.43.24-.4.17-.33.07l-.93.72Z" transform="translate(-152.31 -10.97)"/><path class="b" d="M213.3,101.61l-.05.14c-.24,0-.24-.1-.33.06.38-.21.27.29.62.1l0,.1s0,0,0,0c-.11.21.3-.06.32.11s0,.14-.09.13l.14.06s-.06.07-.06,0l.1.16h0a1,1,0,0,1,.24,0c0,.08-.05,0-.09,0l.13,0c-.08.1-.22.08-.23,0-.35.32.14,0,0,.37l-.08-.07c-.21.2-.11.23-.24.44.08-.08.32-.45.46-.4,0,0,0,.11.08.12-.15.09-.1.13-.08.2l-.21.12c.07,0,.18,0,.29,0s-.17.24-.32.35.27-.28.35-.12,0,.22.23.28c-.08.14-.17.08-.24.16l.23,0s-.07.06-.1.07.28-.15.39-.1.1,0,0,.06l1.19-.84c.07-.15.28-.47,0-.35.07-.1.18-.13.29-.23a1.37,1.37,0,0,0-.63.15l.16-.28a1.76,1.76,0,0,1-.85.53l-.23.29-.3,0a1.81,1.81,0,0,1,.34-.24l-.1,0a1.84,1.84,0,0,1,.53-.41l-.18.22a4.5,4.5,0,0,0,.66-.45l-.11,0,.15-.11s0,0-.15.06l.37-.34-.16.11.19-.4a4.86,4.86,0,0,1-1.51.54,8.71,8.71,0,0,0,1-.71c-.39.38.25,0,.21.2,0-.09.2-.22.27-.25l-.45.09c.32-.25.22-.23.34-.39-.63.54-.5.19-.75.27.23-.18.47-.33.46-.2.46-.49-.86.47-.49,0,0,0,0,.06.12,0-.24.1-.15-.15.08-.27v0c0-.21-.23-.46-.88,0l.91-.62-2.34,1.29a19.21,19.21,0,0,1,2.25-1.51c.06-.09.13-.2-.11-.14a5.91,5.91,0,0,1-.85.64c.58-.53.3-.3.79-.79a4.1,4.1,0,0,1-1,.63c.14-.08.9-.62,1-.67l-1,.48a6.83,6.83,0,0,0,1-.73c-.17.14,0-.13-.15-.11l-.19.21c.07-.26-1.39.72-1.45.53a6.69,6.69,0,0,0,1.32-.92,22.45,22.45,0,0,1-3,1.51l.27-.21-.41.1c.83-.42,2.54-1.26,3.19-1.56.19-.2.33-.23.26-.31.25-.2.43-.21.45-.19l.09-.33c-.59.39-.67.22-1.16.55l.72-.17c-.57.39-1.74,1-1.72.73.22-.19,1.08-.64,1.28-.77-.22.11-.47.1-.33,0l.35-.14c.19-.23-.87.37-.34-.09,0-.06.74-.59.37-.37-.67.48-2.82,1.83-3.38,2.11a9.73,9.73,0,0,1,.88-.84c.52-.39,1.37-.71,1.82-1a2.9,2.9,0,0,1-.47.22c.12-.12.53-.3.41-.33-.64.37,0-.18-.55.29-.23,0,.08-.16,0-.23a7,7,0,0,1-1.66.76c.16-.09.36-.23.45-.29s.2-.44.12-.59a2.51,2.51,0,0,1,.57-.39c-.12,0-.34.14-.39.1.49-.38.15,0,.76-.38a2.37,2.37,0,0,1-.84.23c-.55.33,0,.21.25.15a6.3,6.3,0,0,1-2.09.79c-.25,0,.47-.33.35-.29,0-.32-1.41.49-.95,0a10,10,0,0,1,1.27-.7c.23,0-.22.32-.17.38l.19-.2c.17-.06.33,0,.21.06.4-.3-.13-.45.16-.83a1.54,1.54,0,0,0-.53.19l.09,0c-.35.25-.56.15-.7.31-.3,0-.73.15-.56-.07l.5-.28c-.15.08-.28.23-.11.19-.24.06.61-.52-.07-.25l-.31.25c-.28,0-.84.19-.7,0-.47.29.06,0-.49.36.69-.42,0,.32.76-.17-.66.42-.25.29-.82.7.17-.09.32-.21.26-.06l.15-.06v0l0,0s0,0,0,0l.24-.18c.4-.15.44,0,.67,0-.07.1-.21.08-.39.21l.34-.09c-.39.21-.6.49-.87.47l0,.13c-.2.19-.27.34-.08.31-.07.11.49-.09.16,0l.31,0-.1.06c0,.22.82,0,.17.62.13,0,.28,0,.21.15l-.35.23c.16,0-.25.44.15.25-.93.65,0,.49-.1.71l.47-.28c0,.11.22.11.48.09l.4-.25c.39-.12-.13.4,0,.51-.16.09-.15,0-.07-.06-.77.74.91-.08.39.48.17-.06.14,0,.07.09h0s0,0,0,0l-.16.18.17-.17a.36.36,0,0,0,.24,0l-.39.29h0c-.11.14.22-.09.5-.32a1.53,1.53,0,0,0,.29-.11c-.61.47.3,0-.33.46.35-.2.42,0,1.11-.42-.08.07-.11.11-.14.09s-.08.19.14.1l-.46.35.72-.35a2.19,2.19,0,0,1-.79.6c.68-.26.31,0,.95-.31l-.3.21s.5-.19.28,0c-.46.49.33.52.13,1.07.69-.61-.22.35.37-.08a1.61,1.61,0,0,1-.41.33c.3,0,0,.35.5.06-.14.14-.26.17-.34.25s.18-.08.11,0a.89.89,0,0,1-.25.14c.19,0,.68-.31,1.12-.66-.14.22-.07.22.25,0-.12.13-.21.27-.35.25,0,.06.12.36.43.11-.07.08,0,.07.08,0s.08.12.2.18l0-.06c.2-.13.22-.12.23-.08l.31,3.4.44-3.93s0-.09,0-.12h0c.09-.32-.18,0-.06-.34l-.19.12c-.42.22.12-.29-.12-.3l-.08.09c-.16,0,.38-.44.36-.51s.07,0,.11,0c0-.25-.24.1-.39,0,.1-.08.31-.14.26-.22s-.53,0-.42-.22c-.05.07-.11.14-.21.12s.11-.37-.16-.32l0,0c-.1,0-.22-.15-.36-.12.39-.31-.45-.29,0-.52l-.12-.2,0,0c0-.15-.15-.14-.28-.13,0,0,.07,0,.1-.06,0-.26,0-.28-.32-.31l.16-.11c-.13,0,.23-.49,0-.59a.24.24,0,0,1,.1,0c-.15,0,0-.29.06-.48s.1-.32-.4-.09l-.28,0c0,.25-.44.23-.58.4-.1,0,.22-.36.31-.3l0,0c.54-.27.11-.36.5-.58-.14-.38.14-1,0-1.37l-.54.36,0-.14c.12-.11.43-.3.44-.2.3-.23-.33,0-.46.08.15-.3.69-.31.68-.37l-.07,0-.06.06c-.26.07-.51.21-.53.09s.33-.23.34-.27.06,0,0,0l0-.17-.41.32c-.26.06-.06-.15-.53.21.73-.55-.05-.68.15-.88-.38.1-.43,0-.46-.11-.07.08-.55.37-.55.25,1-.54.32-.42,1-.88-.41.32-.31-.18-.87.29,0-.12.35-.21.52-.39-.5,0-.08-.5-.42-.61a1.68,1.68,0,0,1-.45.24l.43-.41c-.1,0-.64.31-.35,0-.08.06-.19.15-.25.14.07-.34-.26-.45-.5-.62a1,1,0,0,1-.5-.64c0,.1-.08.08-.13,0s-.12.07-.17.11a.56.56,0,0,0-.05-.23c-.15,0-.26-.12-.36-.09l.08,0c-.17,0-.16.24-.37.35.09,0,.06.11,0,.23s-.11.25.07.24c-.05.08-.09,0-.15.08.12,0,.16,0,.11.16h0c.06.28-.07.49-.17.9l.23-.15a.58.58,0,0,1-.15.21c.37-.13,0-.21.38-.36-.45.37.12.47-.46.88,0,.11.3-.21.32-.11l-.16.13.22-.1c0,.09-.23.25-.38.34,0,0,0,0-.06,0-.19.21.11.22.05.29l.09-.17c.23.19.06.68.57.69l.15-.11c.37,0-.12.26.1.39h0c.18,0,.29,0,.3,0-.22.06-.34.32-.58.38.41,0,.3,0,1-.28l-.27.19c.28-.1.42-.18.54-.12-.28.06-.4.31-.77.41-.52.57.79,0-.08.57.85-.36.35-.43.55-.48s.64-.26.59-.15-1,.7-.85.85c0,0-.06,0-.07,0-.17.18.35,0,.07.22.5-.24,0,.11.65-.23l-.23-.06c.21,0,1-.35.72,0a2.93,2.93,0,0,1-.43.13c-.15.14.17,0,0,.15-.61.34-.26-.09-.78.09-.23.19.56-.09-.13.25.88-.42,0,.2.73-.06l-.36.19c.07,0,.26-.08.28,0l-.5.21c.46-.15-.19.33.1.28-.17-.14.38-.27.56-.48.63-.06-.77.62-.35.71-.08,0,.06-.21.26-.25a.72.72,0,0,1-.21.31c.24.08.3-.21.56-.26-.32.25.22,0,.4,0l-.3.17c0,.25.66-.31.59,0l-.46.17h.19l-.33.17c.33-.07.3,0,.32.1.16-.12.48-.26.55-.19-.09.13-.26.11-.11.18-.18.07-.4.16-.23,0l-.27.11c-.1.15.13.13.18.16a0,0,0,0,1,0-.06l.5-.06a.5.5,0,0,1-.24.12c.06,0,.19,0,.26,0a1.36,1.36,0,0,1-.53.19h.37c-.06,0-.1.17-.18.19s.55,0,.56.13a.24.24,0,0,1,.12,0c.06.11,0,.27.29.29l-.14.18c.14.06.18-.23.39-.13s-.13.14-.15.21c.15,0,.41,0,.33.18C213.33,101.68,213.33,101.63,213.3,101.61Zm.73,1.29s-.15,0-.07-.08S214.06,102.82,214,102.9Zm1.24-.55c.1,0,.07,0,0,.13S215.22,102.44,215.27,102.35Zm-6.07-3.71h0C209.08,98.78,209.14,98.73,209.2,98.64Zm.14-.24a.76.76,0,0,0-.18.09c.11,0,.13,0,.11,0S209.45,98.39,209.34,98.4Zm4.06-1.64-.09.08C213.17,96.85,213.28,96.81,213.4,96.76Z" transform="translate(-152.31 -10.97)"/><path class="b" d="M215.74,102.3l-.14.12A.39.39,0,0,0,215.74,102.3Z" transform="translate(-152.31 -10.97)"/><polygon class="b" points="60.24 90 60.23 90 60.2 90.02 60.24 90"/><path class="b" d="M214,98.15a1.2,1.2,0,0,1-.2.18C213.92,98.27,214,98.2,214,98.15Z" transform="translate(-152.31 -10.97)"/><path class="b" d="M208.47,98l.12,0s.06-.1.12-.15C208.62,97.94,208.49,98,208.47,98Z" transform="translate(-152.31 -10.97)"/><path class="b" d="M210.58,96.13c-.05,0,0,0-.06,0l-.17.07S210.53,96.21,210.58,96.13Z" transform="translate(-152.31 -10.97)"/><path class="b" d="M209.75,97.27c.33-.17.2-.16.12-.19s0,0,0,0C209.41,97.29,209.58,97.28,209.75,97.27Z" transform="translate(-152.31 -10.97)"/><path class="b" d="M209.85,97.07a0,0,0,0,1,0,0C209.65,97.1,209.8,97.06,209.85,97.07Z" transform="translate(-152.31 -10.97)"/><path class="b" d="M209.06,98.35c.08-.08-.45.21-.31.12C208.29,98.66,209.34,98.39,209.06,98.35Z" transform="translate(-152.31 -10.97)"/><polygon class="b" points="58.5 85.73 58.11 85.95 58.45 85.82 58.5 85.73"/><path class="b" d="M210.71,97.28l.08-.15a.32.32,0,0,1-.15.05C210.65,97.24,210.59,97.34,210.71,97.28Z" transform="translate(-152.31 -10.97)"/><path class="b" d="M210.64,97.18s0-.06-.11,0A.13.13,0,0,0,210.64,97.18Z" transform="translate(-152.31 -10.97)"/><polygon class="b" points="58.68 85.78 58.61 85.85 58.61 85.93 58.68 85.78"/><path class="b" d="M211.08,98.26l.18,0c.16-.07.24-.15.16-.15A.91.91,0,0,0,211.08,98.26Z" transform="translate(-152.31 -10.97)"/><path class="b" d="M212.16,97.32a2.83,2.83,0,0,1-.32.22l.56-.3Z" transform="translate(-152.31 -10.97)"/><path class="b" d="M212.45,97.5c.16-.08.53-.13.42-.21S212.53,97.35,212.45,97.5Z" transform="translate(-152.31 -10.97)"/><polygon class="b" points="60.22 88.26 60.2 88.25 59.26 88.82 60.22 88.26"/><path class="b" d="M215.28,99c.17-.24-.53.33-.32.06-.21.11-.17.22-.36.31C214.84,99.33,214.74,99.44,215.28,99Z" transform="translate(-152.31 -10.97)"/><path class="b" d="M214.6,99.41l-.15,0Z" transform="translate(-152.31 -10.97)"/><path class="b" d="M209.85,93.2l-.08,0s0,0,0,0Z" transform="translate(-152.31 -10.97)"/><path class="b" d="M209.57,93.19l.05,0h-.11S209.57,93.17,209.57,93.19Z" transform="translate(-152.31 -10.97)"/><path class="b" d="M213.66,103.37l.06,0a.11.11,0,0,0,.05-.11Z" transform="translate(-152.31 -10.97)"/><polygon class="b" points="61.18 91.25 61.18 91.27 61.32 91.15 61.18 91.25"/><path class="b" d="M212.77,101.59s.08,0,.1.08S213,101.47,212.77,101.59Z" transform="translate(-152.31 -10.97)"/><path class="b" d="M272.22,90.58s0,0,0,0S272.23,90.59,272.22,90.58Z" transform="translate(-152.31 -10.97)"/><path class="b" d="M271.66,91.23l0,0a.77.77,0,0,0,0,.15Z" transform="translate(-152.31 -10.97)"/><path class="b" d="M271.08,91.81c.31.09.16-.24.35-.29h.07l-.12-.14C271.26,91.52,271.24,91.76,271.08,91.81Z" transform="translate(-152.31 -10.97)"/><path class="b" d="M270.11,91.73c.14.06,0,.12.12,0h0Z" transform="translate(-152.31 -10.97)"/><path class="b" d="M270.19,91.69c.06-.06-.15,0,0,0Z" transform="translate(-152.31 -10.97)"/><path class="b" d="M269.92,92l0-.13c-.09,0-.2,0-.22,0C269.63,91.91,269.74,91.94,269.92,92Z" transform="translate(-152.31 -10.97)"/><path class="b" d="M270.08,92.19v-.07S270,92.11,270.08,92.19Z" transform="translate(-152.31 -10.97)"/><path class="b" d="M270.07,92v.14c.07,0,.18.08,0-.06C270.18,92.13,270.1,92.05,270.07,92Z" transform="translate(-152.31 -10.97)"/><path class="b" d="M270.18,92c.12,0,.23,0,.25.11C270.55,91.9,270.32,91.8,270.18,92Z" transform="translate(-152.31 -10.97)"/><path class="b" d="M271.33,92l.13,0,0-.11S271.24,92,271.33,92Z" transform="translate(-152.31 -10.97)"/><path class="b" d="M269.14,92.31c.08,0,.26.11.37.16l0-.11A.63.63,0,0,1,269.14,92.31Z" transform="translate(-152.31 -10.97)"/><path class="b" d="M269.51,92.47l.05.17C269.66,92.57,269.61,92.52,269.51,92.47Z" transform="translate(-152.31 -10.97)"/><path class="b" d="M270.46,92.43l-.12-.3.09.33Z" transform="translate(-152.31 -10.97)"/><polygon class="b" points="116.43 81.64 116.28 81.47 116.49 81.74 116.43 81.64"/><path class="b" d="M268.51,92.84c-.14-.14-.37-.14-.44-.24,0,.07.06.21.16.34C268.2,92.85,268.28,92.81,268.51,92.84Z" transform="translate(-152.31 -10.97)"/><path class="b" d="M268.36,93.14a1.08,1.08,0,0,0-.13-.2A.5.5,0,0,0,268.36,93.14Z" transform="translate(-152.31 -10.97)"/><path class="b" d="M269.36,92.76a.94.94,0,0,0-.33-.08l.29.11Z" transform="translate(-152.31 -10.97)"/><path class="b" d="M269.33,92.8h0l-.09.07Z" transform="translate(-152.31 -10.97)"/><path class="b" d="M269.37,92.76h0S269.4,92.78,269.37,92.76Z" transform="translate(-152.31 -10.97)"/><path class="b" d="M270,92.55c.07.12.12.32.41.32C270.32,92.74,270.15,92.74,270,92.55Z" transform="translate(-152.31 -10.97)"/><path class="b" d="M269.72,92.89l.15-.06c-.06,0-.17-.07-.22-.14Z" transform="translate(-152.31 -10.97)"/><polygon class="b" points="117.45 82.02 117.42 81.92 117.36 81.95 117.45 82.02"/><path class="b" d="M268.79,93.14a.17.17,0,0,1,0,.22.39.39,0,0,0,.24-.12C269,93.19,268.84,93.07,268.79,93.14Z" transform="translate(-152.31 -10.97)"/><path class="b" d="M269.08,93h0S269.12,93,269.08,93Z" transform="translate(-152.31 -10.97)"/><path class="b" d="M268.33,93.86l.07,0-.06,0Z" transform="translate(-152.31 -10.97)"/><path class="b" d="M269.11,93.27c.1,0,.05-.08,0-.15a.13.13,0,0,1-.05.12S269.11,93.29,269.11,93.27Z" transform="translate(-152.31 -10.97)"/><path class="b" d="M268.35,93.35a1.05,1.05,0,0,0,.24,0C268.47,93.35,268.28,93.3,268.35,93.35Z" transform="translate(-152.31 -10.97)"/><path class="b" d="M269,93v0C268.92,92.94,269,93,269,93Z" transform="translate(-152.31 -10.97)"/><path class="b" d="M269,93a.53.53,0,0,0,.1.14.19.19,0,0,0,0-.12Z" transform="translate(-152.31 -10.97)"/><path class="b" d="M270.23,95.19c-.29-.18-.48-.45-.11-.38a5.65,5.65,0,0,0-1.72-.92.67.67,0,0,1,.32.34c.19.06.55,0,.74.22s-.18.06-.38,0c.4.16.41.49,1,.78l-.12-.24C270,95.06,270.14,95.19,270.23,95.19Z" transform="translate(-152.31 -10.97)"/><path class="b" d="M268.59,93.72v-.06a1.26,1.26,0,0,1-.51-.09.71.71,0,0,0,.26.28l.22-.17Z" transform="translate(-152.31 -10.97)"/><path class="b" d="M268.76,93.49c.26.2.31.37.68.49.07-.13-.18-.22-.25-.37-.09.23-.11-.15-.4-.11a.21.21,0,0,1,0-.14l-.22,0h0c.05,0,.07,0,0,0h0l.11.08c-.12,0-.09,0-.11-.08l0,0h0l0,.28C268.67,93.65,268.71,93.59,268.76,93.49Z" transform="translate(-152.31 -10.97)"/><path class="b" d="M270.87,93.27l-.06,0S270.85,93.29,270.87,93.27Z" transform="translate(-152.31 -10.97)"/><path class="b" d="M270.67,93.27s-.11-.1-.05-.13.11.06.19.11-.1-.21-.28-.18l0,0A1.25,1.25,0,0,1,270,93,6,6,0,0,0,270.67,93.27Z" transform="translate(-152.31 -10.97)"/><path class="b" d="M269.83,93.45v.25l.3,0-.15-.08C270.12,93.61,269.93,93.53,269.83,93.45Z" transform="translate(-152.31 -10.97)"/><polygon class="b" points="115.85 82.82 115.54 82.61 115.92 82.97 115.85 82.82"/><polygon class="b" points="115.7 83.05 115.41 82.87 115.54 83.02 115.7 83.05"/><path class="b" d="M265.37,102.86l0-.06A.21.21,0,0,0,265.37,102.86Z" transform="translate(-152.31 -10.97)"/><path class="b" d="M265.06,103.16l0,0S265.08,103.15,265.06,103.16Z" transform="translate(-152.31 -10.97)"/><path class="b" d="M264.45,99.56c-.36-.11-.9-.3-.51-.09l.39.19C264.29,99.57,264.35,99.55,264.45,99.56Z" transform="translate(-152.31 -10.97)"/><path class="b" d="M264.43,104.75l.09,0-.21-.19Z" transform="translate(-152.31 -10.97)"/><path class="b" d="M265.45,105.41h-.24A1,1,0,0,0,265.45,105.41Z" transform="translate(-152.31 -10.97)"/><path class="b" d="M266.47,100.77l-.13-.18C266.32,100.71,266.4,100.71,266.47,100.77Z" transform="translate(-152.31 -10.97)"/><path class="b" d="M266.39,96.25c-.2,0-.3,0-.35,0C266.32,96.32,266.7,96.46,266.39,96.25Z" transform="translate(-152.31 -10.97)"/><path class="b" d="M266.35,103.9a.12.12,0,0,0,0-.09S266.32,103.89,266.35,103.9Z" transform="translate(-152.31 -10.97)"/><path class="b" d="M265.92,96.45l.12,0c0-.08-.06-.16,0-.2C265.83,96.22,265.68,96.23,265.92,96.45Z" transform="translate(-152.31 -10.97)"/><path class="b" d="M269.9,93.2H270S269.91,93.19,269.9,93.2Z" transform="translate(-152.31 -10.97)"/><path class="b" d="M272.77,91.53s0,.08,0,.12A.39.39,0,0,0,272.77,91.53Z" transform="translate(-152.31 -10.97)"/><path class="b" d="M267.13,94.75c0-.06,0,0,0,0Z" transform="translate(-152.31 -10.97)"/><path class="b" d="M268.7,95.34a.61.61,0,0,0,.16.11A1.27,1.27,0,0,1,268.7,95.34Z" transform="translate(-152.31 -10.97)"/><path class="b" d="M268.12,98.37h0C268.2,98.4,268.18,98.4,268.12,98.37Z" transform="translate(-152.31 -10.97)"/><path class="b" d="M267.34,94.78h0Z" transform="translate(-152.31 -10.97)"/><path class="b" d="M267.17,94.69l.07,0C267.18,94.63,267.14,94.61,267.17,94.69Z" transform="translate(-152.31 -10.97)"/><path class="b" d="M267.09,94.82a.16.16,0,0,1,.1,0l-.06,0Z" transform="translate(-152.31 -10.97)"/><path class="b" d="M268.52,97.46h0C268.44,97.34,268.45,97.38,268.52,97.46Z" transform="translate(-152.31 -10.97)"/><path class="b" d="M267.52,103l0,0h0Z" transform="translate(-152.31 -10.97)"/><path class="b" d="M267.66,103.35c-.38-.32-.3-.33-.17-.33l-1.05-.53Z" transform="translate(-152.31 -10.97)"/><path class="b" d="M266,102l-.17,0c-.06-.26.05-.33-.15-.32.33.28-.27.47,0,.74l-.12,0s0,0,0-.06c-.27,0,.15.3,0,.43s-.17,0-.17,0l0,.2c-.05,0-.09,0-.05-.06l-.17.22h0a1.28,1.28,0,0,1,0,.27c-.1,0,0-.06-.07-.08l0,.18a.14.14,0,0,1,0-.26c-.45-.2,0,.17-.45.18l.07-.13c-.27-.11-.29,0-.56,0,.11,0,.59.1.55.28-.06,0-.13,0-.12.15-.13-.12-.17,0-.26,0l-.18-.17c-.05.11.06.19.09.31-.13.06-.31-.06-.46-.17-.22.08.37.15.19.33-.22,0-.26.15-.3.4-.19,0-.12-.15-.22-.19l.08.24s-.07,0-.1-.08c0,.12.23.23.17.38.15.17-.12.06-.32,0l1.52,1.17c.13,0,.22-.06.11-.2.12,0,.19.13.32.19a1.39,1.39,0,0,0-.29-.65h.35c-.36-.06-.57-.37-.78-.66l-.36-.08-.11-.33a1.13,1.13,0,0,1,.35.24l-.08-.09a1.17,1.17,0,0,1,.58.35l-.29-.07a3.26,3.26,0,0,0,.65.49.21.21,0,0,1-.05-.12.6.6,0,0,0,.14.11c.05,0,0,0-.09-.14l.46.21-.16-.11.49-.06c-.31-.42-.91-1-.95-1.4a5.73,5.73,0,0,0,1,.61c-.51-.18,0,.32-.18.41.11,0,.29.08.34.14l-.19-.48c.34.21.3.1.51.12-.75-.35-.33-.45-.48-.69.25.14.49.31.33.4.66.18-.73-.68-.16-.54,0,0-.07,0,.05.11-.17-.2.13-.28.33-.11l0,0c.24-.16.46-.63-.21-1.05l.93.59-2.07-1.71A12.89,12.89,0,0,1,267.5,103c.12,0,.27,0,.13-.23a3.87,3.87,0,0,1-.95-.49,7.55,7.55,0,0,0,1.1.29c-.16,0-1.08-.63-1-.7.14.1,1,.54,1,.63l-.81-.75a4.31,4.31,0,0,0,1.1.59c-.2-.09.14-.16.08-.27l-.28,0c.31-.14-1.22-1-1-1.22a5,5,0,0,0,1.41.75,20,20,0,0,1-2.6-2.1l.32.13-.26-.36c.74.56,2.23,1.79,2.75,2.29.29,0,.36.17.42,0,.31.11.37.3.36.35l.39-.18c-.61-.34-.45-.58-1-.86l.41.68c-.61-.33-1.59-1.18-1.36-1.33A12.08,12.08,0,0,1,269,101c-.2-.15-.28-.43-.11-.37l.27.28c.31,0-.7-.66,0-.46.07,0,.89.31.53.09a34.6,34.6,0,0,1-3.48-1.94,6.63,6.63,0,0,1,1.22.27c.61.24,1.26.89,1.78,1.1a2.87,2.87,0,0,1-.41-.33c.18,0,.52.33.51.17-.62-.39.19-.2-.5-.36-.12-.22.2,0,.24-.2a5.2,5.2,0,0,1-1.44-1.14,3.09,3.09,0,0,0,.49.24c.19-.2.54-.16.67-.37a1.94,1.94,0,0,1,.64.26c-.09-.09-.28-.24-.26-.32.6.18,0,.2.7.47-.36-.21-.41-.46-.58-.68-.57-.29-.23.16-.05.38a4.73,4.73,0,0,1-1.69-1.49c-.07-.28.54.21.45.11.33-.25-1.12-1-.39-1a8,8,0,0,1,1.27.7c.09.25-.43,0-.47.16h.29c.13.13.19.3,0,.27.47.15.41-.52.93-.56a1.06,1.06,0,0,0-.44-.37l0,.12c-.41-.14-.4-.44-.64-.44-.18-.25-.48-.59-.18-.62l.51.26c-.14-.08-.36-.08-.23,0-.18-.18.81.16.22-.28l-.41-.09c-.17-.24-.57-.66-.32-.69-.51-.22,0,0-.59-.17.75.31-.3.29.53.59-.72-.29-.4,0-1.07-.22.16.1.35.14.18.2l.12.11h0s0,0,0,0a1.25,1.25,0,0,1,.29.1c.34.26.2.43.36.61-.13,0-.17-.14-.38-.21l.24.26c-.38-.21-.76-.2-.87-.47l-.12.12c-.28,0-.46,0-.35.16-.13,0,.31.41.05.18l.08.35-.1,0c-.21.18.36.82-.54.64,0,.13.13.28-.07.34l-.37-.19c.06.17-.55.08-.2.33-1-.46-.49.35-.75.42l.47.28c-.1.11,0,.3.09.56l.42.23c.27.32-.47.16-.52.39-.15-.1-.09-.13,0-.11-1-.29.41.9-.35.75.12.14,0,.15-.07.13v0a0,0,0,0,0,0,0l-.24,0a1,1,0,0,0,.24,0,.43.43,0,0,0,.07.27l-.43-.22s0,0,0,0c-.18,0,.17.17.5.32a2.09,2.09,0,0,0,.21.23c-.69-.34.15.3-.59,0,.32.24.11.48.8.92-.09,0-.14-.06-.13-.1s-.23,0-.07.23l-.51-.26.59.55a1.68,1.68,0,0,1-.88-.46c.48.57.14.31.62.84l-.31-.19c0,.07.34.42.06.32-.65-.18-.46.71-1.11.84.85.39-.43,0,.19.37-.2-.09-.32-.09-.46-.25.11.32-.39.16.06.6-.18-.08-.24-.2-.36-.23,0,0,.14.16,0,.12s-.14-.12-.21-.2c0,.26.5.58,1,.88-.27,0-.25,0,0,.31-.17-.06-.34-.08-.35-.25-.06.06-.37.36,0,.56-.09,0-.06.09,0,.13a1.17,1.17,0,0,0-.14.27l1.2.92,0-.07h-.07c-.26-.35,0-.18.07-.33l0,0c.4-.08,0-.2.41-.26l-.17-.14c-.33-.35.38,0,.36-.32l-.13,0c0-.18.6.16.68.09s0,.07,0,.12c.31-.1-.16-.2-.09-.42.11.06.21.26.3.16s-.07-.6.2-.61c-.09,0-.18,0-.17-.17s.47-.11.35-.38l.07,0c0-.13.14-.35.07-.49.45.23.24-.69.6-.39l.21-.27,0,0a.31.31,0,0,0,.08-.41c.06,0,.08,0,.1.06.3-.17.32-.19.27-.56l.17.09c-.05-.12.62-.12.65-.49a.24.24,0,0,1,.06.08c0-.2.33-.24.57-.31s.41-.14,0-.49l-.07-.33c-.28.18-.4-.3-.64-.31,0-.14.48,0,.44.09h-.06c.49.37.43-.17.81.08.37-.48,1.15-.7,1.51-1.16l-.59-.26.14-.14c.16,0,.48.18.38.29.36.11-.14-.35-.27-.42.39-.11.62.45.67.39l0-.12-.09,0c-.18-.21-.43-.35-.32-.48s.39.14.43.12.07,0,.05,0l.16-.2-.5-.15c-.18-.22.12-.2-.45-.36.89.26.68-.69,1-.67-.27-.3-.21-.43-.1-.59-.11,0-.63-.21-.5-.33,1,.53.55-.07,1.32.13-.52-.1,0-.5-.71-.61.12-.1.37.15.64.15-.28-.47.43-.6.37-1.06a1.09,1.09,0,0,1-.47-.2h.62c0-.1-.64-.32-.23-.32-.09,0-.24,0-.26-.1.33-.29.26-.74.26-1.15a2.27,2.27,0,0,1,.24-1.16c-.08.08-.1,0-.11-.08s-.13,0-.19-.05a1.64,1.64,0,0,0,.16-.29c-.14-.1-.07-.38-.16-.44l0,.12c-.09-.17-.3.11-.52,0,0,.09-.05.16-.18.24s-.29.16-.16.32c-.09,0-.07-.07-.16-.06.09.09.09.17-.06.26l0,0c-.2.34-.45.43-.86.74l.26.06a.41.41,0,0,1-.26.07c.32.23.17-.21.53,0-.59-.07-.35.58-1,.41-.09.12.35.09.27.21l-.2,0,.22.12c-.09.07-.36,0-.52,0,0,0,0-.07,0-.1-.3,0-.12.31-.22.32l.2-.07c0,.4-.56.68-.31,1.18l.18.05c.17.38-.3.11-.31.45l0,0c.15.13.2.25.14.31-.17-.16-.48,0-.65-.25.19.43.2.26.75.74l-.31-.09c.23.18.37.26.37.44-.19-.24-.49-.13-.76-.42-.8,0,.43.75-.6.4.75.55.6,0,.73.15.3.07.56.41.43.46s-1.14-.38-1.24-.14c0,0-.05,0,0-.07-.25,0,.2.31-.19.24.46.33-.09.13.52.48l0-.29c.11.21.77.71.32.73a2,2,0,0,1-.32-.33c-.21,0,.07.18-.15.14-.6-.35,0-.34-.42-.72-.29-.08.34.49-.3.06.8.56-.2.18.37.69l-.35-.21c0,.06.19.21.16.25l-.42-.34c.34.35-.42.07-.24.32.06-.28.43.18.71.21.33.59-.95-.32-.86.17,0-.08.23-.09.36.08a.58.58,0,0,1-.4,0c0,.3.32.15.48.37-.39-.13.12.22.19.4l-.29-.18c-.26.19.57.46.26.58l-.34-.35.06.2-.3-.22c.19.3.11.31,0,.41.18.08.44.31.4.45-.17,0-.21-.2-.23,0-.13-.14-.31-.31-.07-.25l-.22-.2c-.18,0-.08.23-.1.31s0,0,.07,0a4.26,4.26,0,0,1,.23.49c-.09,0-.14-.09-.2-.17s.1.18.09.27a1,1,0,0,1-.39-.42,3.57,3.57,0,0,1,.12.4c-.07,0-.22,0-.26-.07-.12.1.18.57,0,.69a.18.18,0,0,1,0,.11c-.11.15-.29.21-.24.52l-.25,0c0,.19.32,0,.26.33s-.2,0-.28,0,.12.43-.12.48C265.91,102.11,266,102.09,266,102Zm-1.34,1.6s0-.18.08-.13S264.73,103.63,264.64,103.64Zm.53,1.18c.09.08,0,.09-.14.07C265,104.84,265.07,104.81,265.17,104.82Zm1.89-9.39h0C266.85,95.42,266.94,95.43,267.06,95.43Zm.3-.05a.62.62,0,0,0-.17-.11c.1.07.08.11,0,.13C267.32,95.46,267.41,95.48,267.36,95.38Zm4,2.91-.12,0C271.18,98.14,271.27,98.21,271.37,98.29Z" transform="translate(-152.31 -10.97)"/><path class="b" d="M265.34,105.33a.61.61,0,0,1-.17-.07A.22.22,0,0,0,265.34,105.33Z" transform="translate(-152.31 -10.97)"/><polygon class="b" points="114.19 89.83 114.19 89.83 114.16 89.8 114.19 89.83"/><path class="b" d="M269.51,100.06a1,1,0,0,1-.28-.07C269.34,100.05,269.45,100.09,269.51,100.06Z" transform="translate(-152.31 -10.97)"/><path class="b" d="M267.35,94.2l0,.15s.12,0,.2,0C267.48,94.29,267.33,94.23,267.35,94.2Z" transform="translate(-152.31 -10.97)"/><path class="b" d="M270.23,94.63s0,0,0-.08l-.16-.08C270,94.54,270.13,94.66,270.23,94.63Z" transform="translate(-152.31 -10.97)"/><path class="b" d="M268.68,94.84c.33.17.26,0,.25-.06s0,0,0,0C268.5,94.52,268.59,94.68,268.68,94.84Z" transform="translate(-152.31 -10.97)"/><path class="b" d="M268.94,94.76s0-.06,0-.07C268.81,94.58,268.92,94.69,268.94,94.76Z" transform="translate(-152.31 -10.97)"/><path class="b" d="M267.28,95.05c.12,0-.41-.27-.26-.2C266.62,94.56,267.37,95.36,267.28,95.05Z" transform="translate(-152.31 -10.97)"/><polygon class="b" points="117.45 84.41 117.05 84.21 117.34 84.43 117.45 84.41"/><path class="b" d="M269.12,95.79l.18-.05a.33.33,0,0,1-.12-.11C269.13,95.69,269,95.73,269.12,95.79Z" transform="translate(-152.31 -10.97)"/><path class="b" d="M269.18,95.63a.08.08,0,0,0,0-.13A.14.14,0,0,0,269.18,95.63Z" transform="translate(-152.31 -10.97)"/><polygon class="b" points="117.47 84.64 117.37 84.63 117.3 84.69 117.47 84.64"/><path class="b" d="M268.26,97l.05.2c.15.11.27.13.23,0S268.42,97.08,268.26,97Z" transform="translate(-152.31 -10.97)"/><path class="b" d="M269.7,97.31a1.45,1.45,0,0,1-.36-.13l.54.32Z" transform="translate(-152.31 -10.97)"/><path class="b" d="M269.63,97.78c.15.1.34.45.39.26C269.88,97.94,269.82,97.73,269.63,97.78Z" transform="translate(-152.31 -10.97)"/><polygon class="b" points="115.49 88.37 115.5 88.34 114.56 87.8 115.49 88.37"/><path class="b" d="M268.91,102.29c.32,0-.53-.35-.16-.33-.19-.16-.3,0-.46-.16C268.45,102,268.29,102,268.91,102.29Z" transform="translate(-152.31 -10.97)"/><path class="b" d="M268.29,101.8a.77.77,0,0,0-.1-.12A.69.69,0,0,0,268.29,101.8Z" transform="translate(-152.31 -10.97)"/><path class="b" d="M272.81,91.1V91l0,.07Z" transform="translate(-152.31 -10.97)"/><path class="b" d="M272.65,90.83h.07l-.08-.09A.17.17,0,0,1,272.65,90.83Z" transform="translate(-152.31 -10.97)"/><path class="b" d="M264,103.5l0,0a.14.14,0,0,0,.15,0Z" transform="translate(-152.31 -10.97)"/><polygon class="b" points="113.01 91.67 112.99 91.68 113.16 91.76 113.01 91.67"/><path class="b" d="M265.86,101.45s0,.13-.05.17C265.83,101.5,266.06,101.58,265.86,101.45Z" transform="translate(-152.31 -10.97)"/><path class="c" d="M209.35,93.23a33,33,0,0,1-1.8-8.58" transform="translate(-152.31 -10.97)"/><path class="c" d="M273.49,84.65a32.47,32.47,0,0,1-1,6" transform="translate(-152.31 -10.97)"/><path class="b" d="M232.44,154.64c-.05-.1-.32.23-.38.27C232.26,155,232.52,154.56,232.44,154.64Z" transform="translate(-152.31 -10.97)"/><polygon class="b" points="82.08 144.07 81.95 144.19 82.39 143.99 82.08 144.07"/><path class="b" d="M235.7,155.88c.22-.7-.54-.18-.65-.55l0-.16-.42.42C235,155.7,235.59,155.59,235.7,155.88Z" transform="translate(-152.31 -10.97)"/><path class="b" d="M235.83,157.65c.06-.28.28-.13-.17-.17a.22.22,0,0,1,0,.08A.45.45,0,0,1,235.83,157.65Z" transform="translate(-152.31 -10.97)"/><path class="b" d="M235.67,157.56c-.18-.06,0,.26,0,0Z" transform="translate(-152.31 -10.97)"/><path class="b" d="M236.52,157.75l-.32.14c0,.17.18.28.06.37C236.56,158.22,236.56,158.05,236.52,157.75Z" transform="translate(-152.31 -10.97)"/><path class="b" d="M236.91,157.33l-.15.06C236.76,157.46,236.78,157.5,236.91,157.33Z" transform="translate(-152.31 -10.97)"/><path class="b" d="M236.44,157.51l.32-.12c0-.12.09-.34-.14,0C236.72,157.24,236.6,157.41,236.44,157.51Z" transform="translate(-152.31 -10.97)"/><path class="b" d="M236.34,157.36c-.06-.2-.17-.36.13-.49C236,156.78,235.88,157.26,236.34,157.36Z" transform="translate(-152.31 -10.97)"/><path class="b" d="M236.11,155.26l0-.26-.23.15C236,155.08,236,155.47,236.11,155.26Z" transform="translate(-152.31 -10.97)"/><path class="b" d="M237.88,158.55a5.16,5.16,0,0,0,0-.6l-.21.12C237.77,158.2,237.92,158.33,237.88,158.55Z" transform="translate(-152.31 -10.97)"/><path class="b" d="M237.92,158l.32-.19C238,157.67,238,157.78,237.92,158Z" transform="translate(-152.31 -10.97)"/><path class="b" d="M237.22,156.6l-.58.38.65-.36Z" transform="translate(-152.31 -10.97)"/><polygon class="b" points="86.59 147.82 86.38 148.14 86.74 147.66 86.59 147.82"/><path class="b" d="M239.6,158.82c-.15.28.11.52,0,.68.2,0,.39-.27.55-.49C240,159.13,239.79,159.1,239.6,158.82Z" transform="translate(-152.31 -10.97)"/><path class="b" d="M240.39,158.7a1.8,1.8,0,0,0-.27.31A.85.85,0,0,0,240.39,158.7Z" transform="translate(-152.31 -10.97)"/><path class="b" d="M238.65,157.93a.65.65,0,0,0,.13.46l0-.43Z" transform="translate(-152.31 -10.97)"/><path class="b" d="M238.75,157.94v0l.22,0Z" transform="translate(-152.31 -10.97)"/><path class="b" d="M238.63,157.92h0S238.65,157.87,238.63,157.92Z" transform="translate(-152.31 -10.97)"/><path class="b" d="M237.71,157.18c.21-.2.55-.38.38-.79C237.91,156.64,238,156.88,237.71,157.18Z" transform="translate(-152.31 -10.97)"/><path class="b" d="M238.61,157.37l-.23-.15c0,.11,0,.28-.11.38Z" transform="translate(-152.31 -10.97)"/><polygon class="b" points="86.46 146.3 86.31 146.4 86.39 146.46 86.46 146.3"/><path class="b" d="M239.93,158.27a.53.53,0,0,1,.41-.21,1,1,0,0,0-.46-.15C239.85,158,239.76,158.28,239.93,158.27Z" transform="translate(-152.31 -10.97)"/><path class="b" d="M239.36,158.08l0,0S239.36,158,239.36,158.08Z" transform="translate(-152.31 -10.97)"/><path class="b" d="M241.78,158.06l0-.07v.07Z" transform="translate(-152.31 -10.97)"/><path class="b" d="M239.87,157.83c-.11-.1-.19,0-.27.12a.66.66,0,0,1,.28,0C239.9,157.85,239.9,157.81,239.87,157.83Z" transform="translate(-152.31 -10.97)"/><path class="b" d="M240.81,158.52a1.69,1.69,0,0,0-.2-.25C240.66,158.41,240.79,158.63,240.81,158.52Z" transform="translate(-152.31 -10.97)"/><path class="b" d="M239.41,158.18l0,0C239.42,158.3,239.42,158.25,239.41,158.18Z" transform="translate(-152.31 -10.97)"/><path class="b" d="M239.41,158.18a1.11,1.11,0,0,0,.19-.23.53.53,0,0,0-.21.11A.43.43,0,0,1,239.41,158.18Z" transform="translate(-152.31 -10.97)"/><path class="b" d="M242,155.31c0,.4-.21.77-.45.36a4.28,4.28,0,0,0,.25,2.32.67.67,0,0,1,.23-.58c-.11-.21-.58-.48-.39-.85.3-.22.26.13.44.33-.17-.47.32-.76.16-1.48l-.22.29C242,155.59,242,155.4,242,155.31Z" transform="translate(-152.31 -10.97)"/><path class="b" d="M241.24,158l-.11.05c.13.07.22.22.4.52a.65.65,0,0,0,.22-.48l-.55,0Z" transform="translate(-152.31 -10.97)"/><path class="b" d="M240.63,158c.11-.42.36-.6.21-1.07-.3,0-.22.35-.41.53.51-.08-.16.23.2.49a.59.59,0,0,1-.29.1,2.47,2.47,0,0,1,.27.21v0h0c0-.05,0-.09,0-.06h0c0-.06,0-.12,0-.16s0,.11,0,.16v.06h0c.18-.08.36-.14.53-.23A.88.88,0,0,0,240.63,158Z" transform="translate(-152.31 -10.97)"/><path class="b" d="M238.56,155.55a.16.16,0,0,1,0,.1C238.59,155.6,238.61,155.57,238.56,155.55Z" transform="translate(-152.31 -10.97)"/><path class="b" d="M238.67,155.84s-.11.22-.2.15.05-.2.08-.34c-.09.09-.3.24-.15.5l0-.05a1.83,1.83,0,0,1,.22.82A7.79,7.79,0,0,0,238.67,155.84Z" transform="translate(-152.31 -10.97)"/><path class="b" d="M239.58,156.86l.42-.15-.16-.4v.22C239.62,156.42,239.63,156.7,239.58,156.86Z" transform="translate(-152.31 -10.97)"/><polygon class="b" points="89.53 147.31 89.5 147.76 89.72 147.11 89.53 147.31"/><polygon class="b" points="90.11 147.2 90.13 147.6 90.26 147.34 90.11 147.2"/><path class="b" d="M243.66,149l-.11.11A.38.38,0,0,0,243.66,149Z" transform="translate(-152.31 -10.97)"/><path class="b" d="M244.41,149l0-.2C244.39,148.93,244.38,149,244.41,149Z" transform="translate(-152.31 -10.97)"/><path class="b" d="M255.46,148.91c.79-.27,2-.66,1.21-.51l-.8.19C255.88,148.69,255.7,148.8,255.46,148.91Z" transform="translate(-152.31 -10.97)"/><path class="b" d="M250.44,146.72l-.15.13.73-.42Z" transform="translate(-152.31 -10.97)"/><path class="b" d="M247.72,148.51l.29-.28A4,4,0,0,0,247.72,148.51Z" transform="translate(-152.31 -10.97)"/><path class="b" d="M239.54,149.45l-.13.44C239.6,149.89,239.52,149.67,239.54,149.45Z" transform="translate(-152.31 -10.97)"/><path class="b" d="M247.85,156a.78.78,0,0,0,.48,0C248,155.9,247.69,155.68,247.85,156Z" transform="translate(-152.31 -10.97)"/><path class="b" d="M244,144.39a.43.43,0,0,0-.09.26A.28.28,0,0,0,244,144.39Z" transform="translate(-152.31 -10.97)"/><path class="b" d="M248.72,155.69l-.14,0a.54.54,0,0,1-.25.31C248.56,156,248.77,156,248.72,155.69Z" transform="translate(-152.31 -10.97)"/><path class="b" d="M231.86,147.14a.13.13,0,0,1,0,.06S231.88,147.15,231.86,147.14Z" transform="translate(-152.31 -10.97)"/><path class="b" d="M231.86,153.32a.48.48,0,0,1-.15-.11S231.75,153.29,231.86,153.32Z" transform="translate(-152.31 -10.97)"/><path class="b" d="M244.75,157.88c-.11.06,0,.05,0,0Z" transform="translate(-152.31 -10.97)"/><path class="b" d="M243.74,156.38a.57.57,0,0,0,0-.22A.57.57,0,0,1,243.74,156.38Z" transform="translate(-152.31 -10.97)"/><path class="b" d="M247.77,152.94h0C247.69,152.9,247.71,152.91,247.77,152.94Z" transform="translate(-152.31 -10.97)"/><path class="b" d="M244.52,157.75a.62.62,0,0,0,.19.07A.77.77,0,0,0,244.52,157.75Z" transform="translate(-152.31 -10.97)"/><path class="b" d="M244.6,157.94l-.12,0C244.49,158,244.52,158,244.6,157.94Z" transform="translate(-152.31 -10.97)"/><path class="b" d="M244.91,157.8a.35.35,0,0,1-.2,0,.07.07,0,0,1,0,.06Z" transform="translate(-152.31 -10.97)"/><path class="b" d="M232.6,147.93l0,0C232.48,148.07,232.52,148,232.6,147.93Z" transform="translate(-152.31 -10.97)"/><path class="b" d="M248.8,149.16h0l0,0Z" transform="translate(-152.31 -10.97)"/><path class="b" d="M248.2,149.29c1.15-.37,1-.27.68-.16l2.75-1Z" transform="translate(-152.31 -10.97)"/><path class="b" d="M241.85,149.12l.25.39c-.3.64-.52.42-.28,1,0-1.36,1-.14,1-1.5l.16.29c-.05,0-.05.06-.1,0,.32.65.23-1,.64-.79a.37.37,0,0,1,.15.46l.31-.33c.09,0,.07.26,0,.23l.48-.11v0a4.91,4.91,0,0,1,.3-.68c.12.2-.06.15,0,.32a1.06,1.06,0,0,0,.22-.33c0,.35,0,.69-.25.64.13.68.2.59.21.44s.12-.39.16,0l-.1.17a5.19,5.19,0,0,1-.06,1,5.63,5.63,0,0,0,.12-.74,2.66,2.66,0,0,1,.15-.81c0,.11,0,.16.18-.12-.13.49-.05.37,0,.34l-.24.64c.12-.19.25-.51.42-.8.07.06-.16.56-.37,1,0,.1.34-.8.55-.92,0,.25.18,0,.67-.4-.08.22-.33.39-.44.58.16-.17.32-.34.5-.51a1.34,1.34,0,0,1-.2.24,9.77,9.77,0,0,1,.87-.81c.35-.35.21-.09.05.15s-.33.48.21.08c-.17.18-.47.39-.74.64l1.74-1.09a4.81,4.81,0,0,1-.38.42,11.38,11.38,0,0,1,2.43-1.51l.58-.53,1-.35a6.83,6.83,0,0,1-1,.59l.31-.15a7.84,7.84,0,0,1-1.51,1l.47-.39c-.68.39-1.37.82-1.9,1.19a2.67,2.67,0,0,1,.34-.17l-.41.26c-.09.07.14-.07.43-.23l-1,.71.44-.28a4.93,4.93,0,0,1-.46.44,27.91,27.91,0,0,1,4.71-2.07c-1.18.53-1.73.86-3,1.48,1.19-.66-.82.28-.71.14a4.69,4.69,0,0,1-.8.47c.44-.2.91-.4,1.4-.6a7,7,0,0,0-1,.59,8.78,8.78,0,0,1,2.4-1,7.91,7.91,0,0,1-1.47.6c-.72.37-.06.08.68-.23s1.53-.63.9-.31c-.06,0,0,0-.37.13.78-.3.5-.06-.26.23h-.06l0,0s.1,0,.05,0,0,.08,0,.09a5.6,5.6,0,0,0,1.53-.4l-2.65.94c2.05-.7,4-1.26,5.76-1.68-.74.22-2.08.68-3.3,1.07s-2.34.74-2.72.83-.55.22-.09.13c.23-.08,2.27-.76,2.36-.75-1.81.65-1,.38-2.52.9a17.34,17.34,0,0,1,2.4-.59l-2.41.63c.68-.15,1.34-.27,2-.36-.32,0-1.79.43-2.41.6.43-.11-.15.12,0,.12l.53-.16c-.46.21,2.58-.32,2.14,0a20.75,20.75,0,0,0-2.61.37c.44,0,1.51-.11,2.46-.09s1.76.13,1.87.33l-.55.08a1.33,1.33,0,0,1,.23.3,18.8,18.8,0,0,0-2.1-.39,19.89,19.89,0,0,0-2.23-.12c-.46.1-.62.07-.65.15a2.05,2.05,0,0,1-.7,0l-.41.13a9.86,9.86,0,0,1,1.62.14,3,3,0,0,0-.78-.21,10.17,10.17,0,0,1,1.66,0c.48.07.74.21.53.33-.42,0-1.57-.14-1.89-.14.31,0,.44.19.21.19s-.26-.08-.4-.12c-.38,0,1,.3.08.28-.1,0-1.09-.15-.64,0a38.64,38.64,0,0,1,4.24,1,7.12,7.12,0,0,1-1.74.16c-.7-.15-1.32-.72-1.94-.84a1.77,1.77,0,0,1,.44.25c-.21,0-.56-.25-.57-.12.65.32-.26.17.51.31.07.2-.25,0-.34.18.44.19,1.16,1,1.1,1.3a2.1,2.1,0,0,0-.44-.28c-.39.26-.73.2-1.08.42-.13-.1-.4-.15-.51-.44,0,.13.12.35,0,.44-.52-.35.16-.24-.39-.71.22.32.09.64.06.92.38.5.41-.13.4-.43a2.55,2.55,0,0,1,.52,2.2c-.24.38-.43-.38-.43-.24-.67.23.12,1.6-.73,1.34-.44-.39-.43-1-.64-1.31.18-.31.56.12.74,0l-.34-.12c0-.21.12-.4.29-.32-.38-.34-1.07.42-1.7.14,0,.2-.12.43,0,.61l.13-.13c.29.36-.12.68.15.8-.12.38-.29.89-.69.75l-.2-.59c.05.18.3.31.35.1-.09.3-.68-.69-.66.13l.32.36c-.17.37-.4,1-.76.91.24.58.06-.08.41.59-.35-.83.87-.12.36-1,.41.75.48.24,1,.84-.06-.19-.21-.34.09-.32a.9.9,0,0,1,0-.18h0l0,0s0,0,0,0a1,1,0,0,1-.23-.26c0-.47.42-.61.48-.88.18,0,0,.24.16.42l.09-.41c.17.42.68.55.4.93l.34-.11c.3.15.62.11.7-.14.21,0,.18-.63.2-.25.13-.16.25-.34.37-.52l.06.1c.25-.12.41-.42.6-.65a.74.74,0,0,1,.92-.28c.1-.21.13-.41.48-.56l.32.23c.18-.33,1.08-.47.85-.82a1,1,0,0,0,1.2-.45c.29-.35.47-.76.78-.94l-.51-.2a1.69,1.69,0,0,0,.52-1l-.55-.09c-.19-.33,1.07-.61,1.47-1.07.2,0,0,.15-.19.22.94-.22,1-.55,1-.81s-.19-.47.63-.77c-.15-.09,0-.18.29-.29,0,0,0,0,0,0l.06-.05.56-.22a5.09,5.09,0,0,0-.54.19.27.27,0,0,0,.07-.31l.88-.2v0c.45-.2-.29,0-1,.14a.69.69,0,0,0-.34-.07c1.48-.38-.15-.22,1.5-.69-.65.07.11-.54-1.5-.14.22-.06.36-.12.31-.06.31-.18.64-.37.27-.34l1.3-.43q-.67.09-1.41.24a9,9,0,0,1,2.3-.79c-1.09.06-.2-.19-1.44,0l.87-.3c.11-.13-.91.14-.09-.22a6.5,6.5,0,0,0,1.16-.67l.21-.16c.06,0,.17-.12.07-.11l-.38,0c-.57,0-1.19,0-1.06-.38-1.06.58-.92.45-.76.29s.33-.36-.55.09a5.48,5.48,0,0,1,1.24-.67c-1.09.27-.18-.44-1.9.32.4-.28.81-.4,1-.57-.16.06-.6.24-.4.08a2.89,2.89,0,0,1,.79-.35,10.45,10.45,0,0,0-3.44,1.69c.32-.38.07-.33-.86.19a1.9,1.9,0,0,1,1-.62,1.36,1.36,0,0,0-1.53.25c.15-.16-.2,0-.33,0a2.15,2.15,0,0,0-.82,0v.11c-.94.77-.48.17-.89.26l.08-.08c-.26-.55-.5.27-.75-.36l-.31.47c-.4.52-.41.37-.46.14s-.12-.55-.44-.35v.27c-.2.18-.16-.17-.15-.58s0-.88-.12-.95.15-.14.27-.21c-.56-.61-.33.63-.9.78,0-.34.39-.86,0-.93-.07-.14-.43.14-.77.37s-.69.41-.9.08c.09.26.17.52,0,.72s-.66-1-.88-.16a.8.8,0,0,1,0-.21c-.18.21-.6.35-.72.8-.17-1.66-1.16.81-1.16-.72l-.57.08v-.16c-.36-.1-.49.27-.62.64-.09-.11,0-.25,0-.33-.54-.31-.59-.24-1,.52l-.05-.5c-.12.29-.77-.77-1.3-.2a.52.52,0,0,1,.06-.22c-.6.58-1.42-1.37-1.64.43l-.39.45c.51.14-.08.78.13,1.08-.2.1-.51-.55-.27-.64l0,.09c.09-.94-.63-.33-.62-1-1,0-2-.48-2.9-.52l.11.73-.32,0c-.09-.17-.12-.57.11-.54-.12-.41-.39.35-.39.51-.46-.3.18-.86,0-.87l-.19,0,0,.09c-.15.3-.17.61-.45.58s-.09-.45-.16-.48,0-.08-.1,0l-.41-.07.16.58c-.18.29-.39,0-.2.62-.27-1-1.53-.36-1.7-.67a.66.66,0,0,1-.81.36c.07.12.12.77-.15.69.08-1.09-.3-.79-.55-1.16l-.61-.89-.65,3.93a1.11,1.11,0,0,1-.16.38c.31-.59.65.42,1.08-.44.08.24-.35.37-.45.71.74,0,.59,1.07,1.19,1.41.13-.12.24-.38.52-.47l-.37.87c.15,0,.8-.64.54,0,.08-.12.2-.32.3-.3.31,1.52,2.37,1.37,2.16,3.43.12-.36.22-.3.33-.22,0-.12.31-.3.46-.48l-.08.85c.54-.4.45.39.94,0l-.2,0c.69-.37.94-1.41,1.64-2.06-.78.42.4-1.38-.76-.81.07-.21.28-.17.4-.36-.37.22-.52.18-.56-.12l.09,0c-.55-.41-.47-.9-.82-1.62l-.29.37c-.08-.16,0-.29,0-.43-.64.38.3.36-.38.8.53-.84-.81-.83-.14-1.71-.17-.18-.33.44-.5.26l.16-.25-.32.22c-.07-.16.13-.48.31-.66,0,.05.13,0,.17,0,.1-.4-.51-.34-.48-.47l0,.3c-.68-.29-1-1.16-1.89-1.2l-.13.2c-.49-.05-.3-.29-.41-.52l-1.16,2.81a.4.4,0,0,0,.3,0l0,.06c.11-.22.26-.34.41-.31-.14.26.26.51.08.8.55-.45.27-.35.63-1.18l.08.37c.13-.34.14-.51.42-.61-.23.32.17.56-.08,1,.58.81.86-.82,1.13.36.27-1-.5-.57-.35-.79-.13-.33.22-.76.4-.66s.32,1.31.78,1.29c0,0-.05.08-.09.07.17.26.34-.35.56.07.12-.62.27,0,.31-.75l-.43.18c.24-.21.47-1.13.87-.69a1.58,1.58,0,0,1-.23.49c.12.24.23-.15.35.09,0,.79-.52.17-.79.77.13.34.5-.57.37.29.19-1.09.46.13.78-.7l0,.48c.05-.08.16-.3.25-.29l-.17.62c.26-.53.5.45.74.17-.51,0-.11-.57-.33-.92.64-.63.37,1.24,1.08,1-.1.07-.36-.28-.21-.5a1.13,1.13,0,0,1,.39.53c.48-.1-.07-.49.13-.78.16.58.23-.24.44-.42v.48c.54.31.14-1,.63-.63l-.21.67.26-.18-.06.55c.28-.4.36-.3.63-.14-.06-.34,0-.88.28-.89.16.28-.1.45.24.38-.07.31-.16.69-.3.24,0,.16-.08.3-.09.46.17.33.43.07.56.07a.21.21,0,0,1-.14-.11l.49-.67a.54.54,0,0,1,0,.47c.1,0,.17-.28.31-.32,0,.39,0,.8-.23,1l.46-.43c0,.17.24.47.18.61.26.23.64-.76,1-.45a.38.38,0,0,1,.12-.21c.33.09.61.57,1,0l.22.71c.3-.16-.29-.89.2-1.16s.13.6.26.8c.17-.35.48-1.08.8-.5C242,149.17,242,149.06,241.85,149.12Zm3.29-.31c0,.1-.14.41-.12.12C245.11,148.38,245.12,148.65,245.14,148.81Zm4.32-1.17c-.3.16-.22.08,0-.1S249.6,147.52,249.46,147.64Zm-3.58,9.4v0C246.13,157.1,246,157.06,245.88,157Zm-.45,0a.24.24,0,0,0,0,.2c0-.12.06-.16.17-.17C245.58,156.92,245.5,156.87,245.43,157Zm-13.87-12.32.06.13C231.48,145,231.52,144.82,231.56,144.68Z" transform="translate(-152.31 -10.97)"/><path class="b" d="M248,148.3l.36-.26A2.8,2.8,0,0,0,248,148.3Z" transform="translate(-152.31 -10.97)"/><path class="b" d="M239.56,149.37h0a.19.19,0,0,0,0,.08Z" transform="translate(-152.31 -10.97)"/><path class="b" d="M246.77,151.25l.3.05A.62.62,0,0,0,246.77,151.25Z" transform="translate(-152.31 -10.97)"/><path class="b" d="M243.54,158.41l.24-.18c-.12.05-.19,0-.27-.1C243.54,158.24,243.63,158.38,243.54,158.41Z" transform="translate(-152.31 -10.97)"/><path class="b" d="M241.14,155.67c0,.06-.07,0-.1.07V156C241.19,156,241.28,155.76,241.14,155.67Z" transform="translate(-152.31 -10.97)"/><path class="b" d="M243,156.88c-.09-.4-.21-.24-.36-.14h0C242.71,157.3,242.87,157.09,243,156.88Z" transform="translate(-152.31 -10.97)"/><path class="b" d="M242.61,156.76a.27.27,0,0,1-.15,0C242.47,157,242.53,156.83,242.61,156.76Z" transform="translate(-152.31 -10.97)"/><path class="b" d="M245,157.43c-.11-.07.12.51,0,.37C245.12,158.32,245.4,157,245,157.43Z" transform="translate(-152.31 -10.97)"/><polygon class="b" points="90.35 144.61 90.48 145.1 90.5 144.69 90.35 144.61"/><path class="b" d="M243.9,155.68l-.27-.08a.25.25,0,0,1,0,.18C243.76,155.76,244,155.82,243.9,155.68Z" transform="translate(-152.31 -10.97)"/><path class="b" d="M243.61,155.78a.19.19,0,0,0-.18.13A.32.32,0,0,0,243.61,155.78Z" transform="translate(-152.31 -10.97)"/><polygon class="b" points="90.64 144.41 90.72 144.5 90.89 144.49 90.64 144.41"/><path class="b" d="M246.36,154.69l.16-.26c-.07-.16-.19-.21-.24-.1S246.24,154.57,246.36,154.69Z" transform="translate(-152.31 -10.97)"/><path class="b" d="M245,153.86a1.65,1.65,0,0,1,.27.3l-.28-.56Z" transform="translate(-152.31 -10.97)"/><path class="b" d="M245.55,153.4c-.06-.16,0-.58-.2-.41C245.42,153.15,245.3,153.39,245.55,153.4Z" transform="translate(-152.31 -10.97)"/><polygon class="b" points="96.45 140.72 96.41 140.76 97.51 141.11 96.45 140.72"/><path class="b" d="M246.84,150.14c-.48.13,1-.15.46,0,.37,0,.48-.13.81-.16A3.58,3.58,0,0,0,246.84,150.14Z" transform="translate(-152.31 -10.97)"/><path class="b" d="M248.11,150h0Z" transform="translate(-152.31 -10.97)"/><polygon class="b" points="79.68 143.24 79.67 143.53 79.82 143.2 79.68 143.24"/><path class="b" d="M232.79,153.94l-.43.5.5-.34C232.81,154.09,232.71,154.07,232.79,153.94Z" transform="translate(-152.31 -10.97)"/><path class="b" d="M245,150.11l0-.15c.06-.17.05-.18,0-.21A2.37,2.37,0,0,1,245,150.11Z" transform="translate(-152.31 -10.97)"/><polygon class="b" points="91.1 138.66 91.14 138.67 91.06 138.09 91.1 138.66"/><path class="b" d="M241.16,150.38c.1,0,.2-.11.29-.09C241.26,150.4,241.14,149.64,241.16,150.38Z" transform="translate(-152.31 -10.97)"/></svg>