<svg xmlns="http://www.w3.org/2000/svg" viewBox="0 0 176.42 176.42"><defs><style>.a{fill:#fbbf48;}.b{fill:#1d1d1b;}</style></defs><title>paper</title><circle class="a" cx="88.21" cy="88.21" r="88.21"/><path class="b" d="M207,38.15c.19-.55-.27-.46-.32-.56C206.48,38.55,207.08,38.16,207,38.15Z" transform="translate(-152.06 -11.13)"/><polygon class="b" points="53.33 36.51 53.21 36.3 53.24 37.77 53.33 36.51"/><path class="b" d="M203,56.28c.91-.63.74-3.16,1.4-4.63l.22-.21-.36-.85A42.47,42.47,0,0,1,203,56.28Z" transform="translate(-152.06 -11.13)"/><path class="b" d="M200.3,60.49c.35-.21,0,1.06.38-1.05a1.77,1.77,0,0,1-.13.17A8.71,8.71,0,0,1,200.3,60.49Z" transform="translate(-152.06 -11.13)"/><path class="b" d="M200.55,59.61c.23-.91-.38.54,0,0Z" transform="translate(-152.06 -11.13)"/><path class="b" d="M199.57,63.86l.09-1.27c-.23.21-.56,1.27-.56.84C198.9,64.7,199.12,64.49,199.57,63.86Z" transform="translate(-152.06 -11.13)"/><path class="b" d="M199.77,65.13l.06-.65C199.74,64.57,199.67,64.73,199.77,65.13Z" transform="translate(-152.06 -11.13)"/><path class="b" d="M200,63.11l-.15,1.37c.16-.14.39-.1.09-.62C200.09,64,200,63.7,200,63.11Z" transform="translate(-152.06 -11.13)"/><path class="b" d="M200.28,62.39c.33-.63.66-1.48.58-.21C201.38,59.86,200.81,60.07,200.28,62.39Z" transform="translate(-152.06 -11.13)"/><path class="b" d="M203.63,56.92l.45-.85,0-.84C204.07,55.65,203.4,56.91,203.63,56.92Z" transform="translate(-152.06 -11.13)"/><path class="b" d="M197.19,71.23c.13.11.5-.3.71-.34L198,70C197.75,70.39,197.43,71.23,197.19,71.23Z" transform="translate(-152.06 -11.13)"/><path class="b" d="M197.9,70.89l-.1,1.4C198.15,71.11,198.09,70.86,197.9,70.89Z" transform="translate(-152.06 -11.13)"/><polygon class="b" points="48.42 54.42 48.48 52.1 48.31 54.84 48.42 54.42"/><polygon class="b" points="43.75 65.15 43.61 64.31 43.76 65.78 43.75 65.15"/><path class="b" d="M195,79.66c-.13-.63-.68.63-.69,0a9.66,9.66,0,0,0-.14,2.52A6.92,6.92,0,0,1,195,79.66Z" transform="translate(-152.06 -11.13)"/><path class="b" d="M194.12,83.45c0-.39,0-.81,0-1.27A6,6,0,0,0,194.12,83.45Z" transform="translate(-152.06 -11.13)"/><path class="b" d="M197.11,74.52a1.73,1.73,0,0,0-.7.93L197,75Z" transform="translate(-152.06 -11.13)"/><path class="b" d="M197,75h0l-.33,1.12Z" transform="translate(-152.06 -11.13)"/><path class="b" d="M197.15,74.39l0,.13C197.17,74.48,197.19,74.46,197.15,74.39Z" transform="translate(-152.06 -11.13)"/><path class="b" d="M199.16,68.92c0,.84-.17,2.53.6,1.06C199.63,69.34,199.19,70.19,199.16,68.92Z" transform="translate(-152.06 -11.13)"/><path class="b" d="M197.84,73.88l.48-1.38c-.12,0-.35.21-.36-.2Z" transform="translate(-152.06 -11.13)"/><polygon class="b" points="45.73 63.48 45.78 62.75 45.61 63.26 45.73 63.48"/><path class="b" d="M195.16,81.14a8.69,8.69,0,0,1-.33,2.09,24.82,24.82,0,0,0,.78-2.4C195.51,80.68,195.38,80.27,195.16,81.14Z" transform="translate(-152.06 -11.13)"/><path class="b" d="M196.08,78.18v.14C196.12,78.25,196.15,78.18,196.08,78.18Z" transform="translate(-152.06 -11.13)"/><polygon class="b" points="40.77 79.49 40.88 79.39 40.81 79.34 40.77 79.49"/><path class="b" d="M195.73,80.72a2.53,2.53,0,0,0,.2-1.35c-.08.46-.18.95-.32,1.46C195.66,80.9,195.69,80.92,195.73,80.72Z" transform="translate(-152.06 -11.13)"/><path class="b" d="M193.75,85.56c.17-.29.34-.63.51-1C194.05,84.85,193.67,85.42,193.75,85.56Z" transform="translate(-152.06 -11.13)"/><path class="b" d="M195.9,78.5v-.1C195.76,78.57,195.81,78.56,195.9,78.5Z" transform="translate(-152.06 -11.13)"/><path class="b" d="M195.9,78.5a4.89,4.89,0,0,0,0,.87,9.26,9.26,0,0,0,.14-1.05A1.49,1.49,0,0,1,195.9,78.5Z" transform="translate(-152.06 -11.13)"/><path class="b" d="M194.87,93.58c-.36-.21-.28-1.9.5-3.16.08-1.43-1.41-.89-2.44.1.16.09.31.13.16,1.58.34-.43,1.33-2.95,1.35-1.68-.3,1.89-.54,1.47-1,2.31.68-.63,0,2.53.86,2.32l.19-1.68C194.63,93.37,194.65,94,194.87,93.58Z" transform="translate(-152.06 -11.13)"/><path class="b" d="M193.69,87.88l.11-.58a8.47,8.47,0,0,1-1.06,1.84c-.07,1,0,1.24.13,1.34l.82-2.81Z" transform="translate(-152.06 -11.13)"/><path class="b" d="M194.49,84.73c.3.56.1,2,.78,1.26.43-1.69,0-1.27.06-2.32-.63,2.73,0-.84-.78,1,.07-.55.18-1,.28-1.49q-.27.7-.57,1.35l0-.06h0c.09-.1.13-.13.06,0s0,0,0,.06a.43.43,0,0,1,.12.17c-.3.76-.14.09-.12-.17l-.06,0h0l-.5,2.78A22.11,22.11,0,0,0,194.49,84.73Z" transform="translate(-152.06 -11.13)"/><path class="b" d="M200.27,71.67c-.06.07-.09.06-.12.06C200.15,71.92,200.17,72,200.27,71.67Z" transform="translate(-152.06 -11.13)"/><path class="b" d="M199.71,72.72a2,2,0,0,1,.09-1c.28-.53.2,0,.35.06,0-.42.06-1.43-.47-.28v.21c-.44,1-1.34,2.32-1.34,2.11A3.71,3.71,0,0,0,199.71,72.72Z" transform="translate(-152.06 -11.13)"/><path class="b" d="M197.19,78.83l-.41,2.32.67-1.06h-.23C197.65,78.83,197.31,79,197.19,78.83Z" transform="translate(-152.06 -11.13)"/><polygon class="b" points="40.49 79.69 40.13 79.27 40.4 80.75 40.49 79.69"/><polygon class="b" points="39.75 82.64 39.4 82.43 39.42 83.27 39.75 82.64"/><path class="b" d="M276.86,120.39l.06-.69A4.32,4.32,0,0,0,276.86,120.39Z" transform="translate(-152.06 -11.13)"/><path class="b" d="M275.64,125.22l.16.17C275.75,125.14,275.7,125,275.64,125.22Z" transform="translate(-152.06 -11.13)"/><path class="b" d="M214.71,146.4c.85.64,1.76,1.51,1.77,1l-.17-.5A5.39,5.39,0,0,1,214.71,146.4Z" transform="translate(-152.06 -11.13)"/><path class="b" d="M264.46,158.73l-.24-.21-.77.2Z" transform="translate(-152.06 -11.13)"/><path class="b" d="M265.66,157.22a4.67,4.67,0,0,1,.84.55l-.27-.24c-.07,0-.08-.07-.19-.13Z" transform="translate(-152.06 -11.13)"/><path class="b" d="M282.93,93.86,282.7,93C282.4,94.2,282.75,93.71,282.93,93.86Z" transform="translate(-152.06 -11.13)"/><path class="b" d="M183.82,123.91a13.55,13.55,0,0,0-.82,2C183.51,125,184.09,124.27,183.82,123.91Z" transform="translate(-152.06 -11.13)"/><path class="b" d="M280.86,123.4c0-.43,0-.63-.11-.64C280.72,123.2,280.74,123.46,280.86,123.4Z" transform="translate(-152.06 -11.13)"/><path class="b" d="M182.35,128.33c.08-.13.14-.27.22-.41a12.25,12.25,0,0,1,.43-2A4.38,4.38,0,0,0,182.35,128.33Z" transform="translate(-152.06 -11.13)"/><path class="b" d="M246,45l-.22-.08C245.79,45,245.88,45,246,45Z" transform="translate(-152.06 -11.13)"/><path class="b" d="M218,37.4c.29,0,.74.06,1.18.1A5.88,5.88,0,0,0,218,37.4Z" transform="translate(-152.06 -11.13)"/><path class="b" d="M188.42,105.55c.15-.63,0-.11,0,0Z" transform="translate(-152.06 -11.13)"/><path class="b" d="M190.9,103c0,.15,0,.27.14.31A.43.43,0,0,1,190.9,103Z" transform="translate(-152.06 -11.13)"/><path class="b" d="M184.39,134.56l.05,0C184.35,134.46,184.36,134.48,184.39,134.56Z" transform="translate(-152.06 -11.13)"/><path class="b" d="M188.87,104.66a6.86,6.86,0,0,0-.34.76A7.87,7.87,0,0,0,188.87,104.66Z" transform="translate(-152.06 -11.13)"/><path class="b" d="M188.64,104.73l.18-.53C188.78,104.1,188.71,104.16,188.64,104.73Z" transform="translate(-152.06 -11.13)"/><path class="b" d="M188.21,106.42a9,9,0,0,1,.32-1c-.06.12-.1.16-.11.13Z" transform="translate(-152.06 -11.13)"/><path class="b" d="M295.17,50.62l.07-.11C295.13,50.18,295.12,50.35,295.17,50.62Z" transform="translate(-152.06 -11.13)"/><path class="b" d="M232.09,147H232l.08.05Z" transform="translate(-152.06 -11.13)"/><path class="b" d="M234.41,147.31a3.09,3.09,0,0,1-2.31-.32l.38,1.42Z" transform="translate(-152.06 -11.13)"/><path class="b" d="M279.6,108.78l-.77,1.49c-.15-2.07.4-3.39-.49-2,1.26.55-1.39,6.18-.12,6.72l-.54,1c.09-.3,0-.37.11-.66-1.13,1.87.58,1.74-.25,4.31-.33.88-.67,1.47-.68.81l-.17,2.11c-.17.58-.37.38-.2-.2l-.65,3.12,0,0a17.83,17.83,0,0,1,.19,2.09c-.38.74,0-.43-.26-.27l-.1,1.79c-.51.62-.5-.88-.15-2.06-1.72,1.28,0,1.51-1.64,4.77l.23-1.66c-1,.86-1.05,2.19-2,3.9.36-.37,2.08-3.37,1.95-1.43a5,5,0,0,0-.43,2.25c-.47-.11-.59.9-.87,2.13l-.6-.24c-.15,1.37.2,1.34.28,2.19-.42,1.46-1,1.65-1.47,1.9-.68,2.34,1.17-1.44.6,1.38a19.45,19.45,0,0,0-1,5.8c-.55,1.32-.32-.34-.62.11l.2,1.34c-.09.3-.22.17-.28.1-.06,1.07.6.24.37,1.89.29.31-.17,1.07-.66,2a10.49,10.49,0,0,0-.68,1.56,6.58,6.58,0,0,0-.19.83.77.77,0,0,0,0,.31,1.38,1.38,0,0,0,.06.26c-.23.18-.33-.29-.59-.3a8.35,8.35,0,0,1,.1,1.18l0,1c0,.1-.16.2-.51.3-.49-.3-.91-.57-1.27-.82.39.36.42.65,0,.81a2.86,2.86,0,0,1-.82.15c-.4,0-.84,0-1.26,0,.43.37.78.69,1.05.87l-2.59-.42c-.27-.19.05-.33.53-.46H263c-.82-.49-.25-.71.49-.86l.78.65c.72-.19,1.42-.42,1.4-.82a3.3,3.3,0,0,1-.86-.08c.19-.05.32-.11.26-.2s-.36,0-.81,0l-.36-.85-.22.23-3.12-1.41c-2.53,0-4.86.38-8.64-.45,1.07-.22.45-.76.68-1.33.81.93,2.94.59,4.81,1.3-1-.37-.67-.59-.39-.61l-3.58-.46c.22-.46-.62-.58-1.45-1.05.39,1.16-2.73-.13-4.21-.26,0-.34.44-.57,2.11,0-1.65-1.29-2.75.39-4.4-.77.42.11.63.23.84.12-1.05,0-3.34-1-2.7-1.06l.41.12c-2.71-1-8.35-2.54-9-1.85a3.71,3.71,0,0,1,.88-1l-5.73,1.26c.64-.57-.51-2.74,1.89-2.45a8.33,8.33,0,0,0-2.85-.82c.41.23.8,1.34.17,1.22a17.34,17.34,0,0,0-2.89-2.05c.62.35-.45,1.22-1.5.87.22-.11.24-1.11.66-1.11l-3,.28c.71,0,.39-.87-.1-1.35.21.29-2.27-.71-3-.82l1,.59c-2.92-1.06-3.39.63-6.32-.32.42-.11,1.29-1.1-.16-1.69-.85.35-3.84,1.73-6.57,1.37l-.41-.46-2.1-.25a45.55,45.55,0,0,1,7.62-1.25c-1-.58-.19-.46-1.87-.93-.49-.48,1.05-.18,1.54-.05l-3.81-1.36c0,.7-3.16-.25-3.17.33l4.4.61c0,.69-3,1.09-5.69.14-.62-.46.87-1,.88-1.22a7.82,7.82,0,0,1-2.94-.59h1.27c-1.45-.71-2.75.09-4.4-1.07-.62-.24-1.64-1.4-1.87-1.06.82,1,.33,3.38-.52,3.73a34.63,34.63,0,0,1-3.73-2.29c-.87-.89,2-.9,1.24-1.66-.09.16-.73.2-1,.2-.62-.35.44-.46-1-.82-.44.58-2.93-.94-.85.35-1.47-.25-1.46-.59-3.13-1.07.35.57-1.76,1-3.66.67.24-.11.1-.39.06-.51l-.83-.28c.38-1.21.73-2.16,1.05-3.05s.66-1.91,1-3.1c.23-.21.78-1.47.91-.84a4.58,4.58,0,0,1,.07-1.69c1-1.47-.41,1.9.61.85-.36-.21.06-2.32.14-3.58-.69.21-.86,2.73-.95,4-.81-.22-1.1-2.53-.71-5.49.41-2.31.8-.83.79-1.26,1.29-4.21-.45-4,1.1-7.38.9-1.26,1,.22,1.51,0-.31,1.9-1.1,2.74-1.42,4l.66-1.48a6.33,6.33,0,0,1-.52,2.53c.79-1,2-7.15,3.36-10.32,0-.63.07-1.68-.26-1.26l-.21,1c-.68.84,0-2.11-.6-.85a14.25,14.25,0,0,1,.81-5l.69-.21c-.19,0-.7,1.19-.67,1.79,0-.89,1.61-2.79,1.08-3.9l-.78,1.27a15.79,15.79,0,0,1,.58-5.07c-.8.64,0,.42-1.06,1.47,1.14-.84-1.24,4.44.12,3-1.14,1-.93,2.1-2.06,3.57.21,0,.54-.48,0,1a1.82,1.82,0,0,1,.09.37l0,.09,0-.07c0,.07,0,.07,0,0a1.86,1.86,0,0,1,.5-.66c.25.84-.39,3.16-.37,4-.33.84-.13-.42-.46,0l0,1.26c-.47,0-1.35,2.11-1,0l-.52,1.83a10.27,10.27,0,0,0-1.1,3.44c-.32.84-.11,2.31-.24,1.47l-.51,2.95h-.12c-.82,2.82-.86,6-2.52,9.07-.08.49-.15,1-.27,1.57-.08.41-.4,1.6-.81,2.88l-.56.57c-.17.86-.56,2.08-1,3.33a16.21,16.21,0,0,0,4,1.14,3.81,3.81,0,0,0,.95.61,6.81,6.81,0,0,0,.71.32l.65.27a17.59,17.59,0,0,0,2.19.72c1.59.43,3.32.78,4.37,1.2l.22-.46a40.07,40.07,0,0,0,4.81,1.12l0-.47c1.68.13,4,1.53,6.47,2.24-.22.12-.84-.12-1.26-.35,2.69,1.87,6.5,1.19,9,2.72a3.45,3.45,0,0,1,1.63.49l-.17,0,.27.08c.28.17.56.35.87.52a4.86,4.86,0,0,0-.72-.47,20,20,0,0,0,2.13.46l.19.56.18,0c.71.4.68,0,.38-.5a7,7,0,0,0,1.1,0c.39.93,2.1.36,2.7,1.41.64-.23,4,.88,4.63.19,0,.11.21.23-.21.11a6.69,6.69,0,0,0,2.51.71l.18.7,2.12-.22c1,.7,1.44,1.05.17,1.16,3,.13,2.3.41,4.84.43l-.23.34c.84.24,2.32.13,2.73.6,1.64,1.28,9.18,2.88,13.76,5-.59-1.39,2.07,1.18,2.52.37.2.35.82.7,0,.69,2.52.48,3.54,1.53,5.44,1.31.2.35-.63.23-.43.46.21,0,.84,0,1.05.24s-.43.11-.85.11c2.51.71,3,0,3.42-.74a3.22,3.22,0,0,0,2.86.66c.16.19.56.45.59.57s0,.1-.25.09l-.41-.07-.49-.1.84.3,1.66.55c1.22.41,2.61.85,3.56,1.07a3.65,3.65,0,0,0,.09-1.8,5.8,5.8,0,0,0,.46-2l.69-2.54c.14-.53.27-1.06.48-2.05l-.23.52c-.56-1,.23-1.66.53-3.25l.06.06c1.43-3.46.13-1.61,1.62-5l-.51.08c-.92-.58,1.36-3,1.49-5.15l-.45.67c-.07-1.21,2.14-2.81,2.54-3.9.15-.23,0,.42,0,.78,1.32-2.81-.51-.53-.11-2.77.43-.33.71.73,1.13-.74.45-.68,0-4.57,1.13-6.44-.37.39-.73.77-.67-.3.3-1.59,2-4,1.56-5.62.12-.19.2-.24.27-.24.09-1.25.62-4,.36-4.81,1.88-.71,1.06-7.65,2.54-7.26l.83-3.7.12.13A7.82,7.82,0,0,0,285,103c.24-.52.28-.09.35,0a14.39,14.39,0,0,0,1.14-6.8l.56-.18c-.09-.85,2-4.8,2.25-8.31.05,0,.12.14.13.42.37-3.94,3.58-8.77,2.17-10.6l.19-2.61c-.94,3.21-.65-.68-1.27.59.22-1.3,1.35-3.17,1.05-1.58l-.15.22c.77.8,1.32-3.95,1.92-3.71.77-3.2,1.66-6.33,2.55-9.4.45-1.53.89-3.06,1.32-4.57l.63-2.26.76-2.93c-.35.38-.68.71-1,1l.75-2.86c.38-.82.93-1.4.33.9a4.84,4.84,0,0,0,.52-2,3.14,3.14,0,0,0-.11-1.32,1.63,1.63,0,0,0-.36.08c-1.41-.27-1.49-.43-1-.51a20,20,0,0,1,2.18-.13c0,.3,0,.43.09.06l0-.14-1.89-.17.36.13a18,18,0,0,1-4.76,0,3.67,3.67,0,0,1-.81-.23.37.37,0,0,1-.18-.17c-.05-.11,0-.19-.24-.23,0,0-.15-.09-.7-.1l-2.68-.37,1,.7c-1.23.15-2.53-.32-1.36.47-1.71-1.21-10-1.5-11.08-1.94a19.81,19.81,0,0,1-5.41-.25c.5.18.73.86-1,.58.8-1.26-3.16-1-4.47-2.07,1.2.78-5-.41-3.13.72-1.46-.28,0-.51-1.12-1-3.55.11-7.67-1.22-12-1.54-.09.17.6.52-.35.67L248,40.48c-.86,0-.9.92-2.39.13.2.18.51.43-.07.42-8.38-1.81-17.4-1.27-25.82-3.85,1.13.47.35.41-.54.32.57.15-.07.43,0,.68l-3.53-1.07c-.73.59-3.86-.39-4.31.19l1.15,0c-1.6.57,1.94,1.89,1.61,2.82,1.79-.65,4.33,1.76,7.26.87.59.26-.56.25-.26.5a5,5,0,0,1,3.18.05l-.19.08c4.45.41,6.31,1,11.27,1.87L235,43a6.82,6.82,0,0,1,1.77.54c1.31-.58-3-.39-1.8-1.05,1.31,1.12,7.56.88,8.4,2.08,1.65.19-.42-.6,1.22-.41l.41.35.46-.33c1.07.18,1.58.61,1.59.87a7.15,7.15,0,0,0-1,0c1.36.51,4,.33,4.44.5l-1.57-.36c4.54.24,10,1.25,14.41,1.15L263,46c3.37,0,2.63.55,6.3.77l-.14,0a9,9,0,0,1,2.74,0c-.95.16,1.67.7.43.85,3.66,0,1.82-.14,4.3-.69l.5.43a5.44,5.44,0,0,1,2.77-.3c-1.53.15,1.1.7-.62.92,3.73,1.24,5.77-.16,7.39,1.21,1.87-.81-3.25-.94-2.24-1-.78-.43,1.54-.6,2.72-.36s1.93,1.54,5,1.87c-.3,0-.33,0-.63,0a3.54,3.54,0,0,0,.85.16,1,1,0,0,0,.27,0l.22,0c.3,0,.7,0,.86.2.65-.37.86-.14,1.23-.23,0,.05.16,0,.42-.09l0-.23-1.68,0c.53,0,1.27-.23,2.21-.33a4.34,4.34,0,0,1-.5,2.43,3.33,3.33,0,0,1-.26-1,1.32,1.32,0,0,0-.22.73,1.26,1.26,0,0,1-.22.72c-.31-.12-.32-.42-.26-.81a7.08,7.08,0,0,0,.19-1.23,2.9,2.9,0,0,0-.76.14c0,.11.19.11.43.09,0,.29.2.62-.41.67.57-.07.42.42.25.8l-.12.3,0,.08,0,.16-.08.35a4.61,4.61,0,0,0-.07,1.54l-.43-.24a6.22,6.22,0,0,1-.11,1.64L293,54.35c.1,1.77-1.23,3.06-1.34,4.7.8-3.3.74-.6,1.42-1.92-.39,4.23-1.78,2-2.69,6.67.09-.64.85-2.25.82-1.23A10.54,10.54,0,0,1,290,65c-.65,3.05.59-.35.56,1-.82.89-.14,1.54-.29,2.91l-.47-.11c-1.15,3.37.75,1.16-.38,4.17l-.32-1.47-.23,1.66-.45-.47a10.34,10.34,0,0,1-.86,4.07c.43-.32.8.43.44,2-.54,1-.3-.69-.77,1.49a1.87,1.87,0,0,1,.25-2c-.12-.14-.17-.56-.3-.7a14.34,14.34,0,0,0-.95,3.59,3.93,3.93,0,0,1,.31-.82l-.12,3.29c-.3.45-.34,0-.39-.39-.1.64,0,1.14-.18,2.08-.33-.34-.73-.38-.59-1.74L285,86.59c-.22.16-.83,1.42-.88,1-.63,1.6-.26,4.24-1.1,6.37a2,2,0,0,1,0,.85c-.59,2-1.51,3.76-1.59,6.33l-1,1.22c-.32,2,1.32-1.66.79,1.59-.34,2.31-.79.7-1.17,1.44a9.4,9.4,0,0,1-.78,5.27A15.24,15.24,0,0,1,279.6,108.78Zm-5.53,23.7c0-.48-.06-1.47.3-1.74C274.78,131.4,274.42,131.74,274.07,132.48ZM261.3,156.81a2.37,2.37,0,0,1,1.41.53A4.84,4.84,0,0,1,261.3,156.81ZM187,112.48a.11.11,0,0,1,0,0C186.51,113.5,186.68,113.16,187,112.48Zm.78-2c0-.23-.08-.24-.17-.17a2.43,2.43,0,0,1-.22,1.19C187.5,111.33,187.66,111.08,187.73,110.43ZM292.22,45.84l.4.18C291.65,46.05,291.94,46,292.22,45.84Z" transform="translate(-152.06 -11.13)"/><path class="b" d="M265.51,157.39a.42.42,0,0,1,.11.31C265.82,157.67,265.85,157.59,265.51,157.39Z" transform="translate(-152.06 -11.13)"/><path class="b" d="M283,94l0-.07a.2.2,0,0,0-.07-.1Z" transform="translate(-152.06 -11.13)"/><path class="b" d="M193.23,135.25a2.39,2.39,0,0,1,.76.49C194.05,135.63,193.88,135.47,193.23,135.25Z" transform="translate(-152.06 -11.13)"/><path class="b" d="M190,99l-.24,1.38a3.43,3.43,0,0,1,.48-1.17C190.08,99.25,189.85,99.46,190,99Z" transform="translate(-152.06 -11.13)"/><path class="b" d="M196,88.1c0-.21.11-.42.11-.63h-.23C195.67,88.31,195.69,88.94,196,88.1Z" transform="translate(-152.06 -11.13)"/><path class="b" d="M191.85,98.21c.42,0,.51-.89.7-1.85l-.05.17C192,96.1,191.94,97.16,191.85,98.21Z" transform="translate(-152.06 -11.13)"/><path class="b" d="M192.59,96.14a6.31,6.31,0,0,1,.23-.88C192.63,95.09,192.68,95.6,192.59,96.14Z" transform="translate(-152.06 -11.13)"/><path class="b" d="M188.19,107.68c.22-.42-.42-.42-.19-.63C187.63,106.42,187.79,110.21,188.19,107.68Z" transform="translate(-152.06 -11.13)"/><polygon class="b" points="41.29 86.66 40.71 86.87 40.96 87.5 41.29 86.66"/><path class="b" d="M191,105.16l.54-1.47c-.09,0-.08-.2-.06-.45C191.19,104.17,190.81,105.16,191,105.16Z" transform="translate(-152.06 -11.13)"/><path class="b" d="M191.45,103.24a4.42,4.42,0,0,0,.25-1.24C191.64,102.27,191.5,102.83,191.45,103.24Z" transform="translate(-152.06 -11.13)"/><polygon class="b" points="40.87 88.77 40.65 89.18 40.33 90.24 40.87 88.77"/><path class="b" d="M186.48,121.39l-.31,1.68c.12.22.34-.21.44-.84C186.6,121.81,186.7,121.18,186.48,121.39Z" transform="translate(-152.06 -11.13)"/><path class="b" d="M189.15,116.76a1.57,1.57,0,0,1-.56.62l.58.22Z" transform="translate(-152.06 -11.13)"/><path class="b" d="M188,121.61c.12.2-.17,2.52.36.42C188.23,121.82,188.53,120.13,188,121.61Z" transform="translate(-152.06 -11.13)"/><polygon class="b" points="43.21 126.51 42.79 126.39 42.56 127.38 43.21 126.51"/><path class="b" d="M217.7,141.88c-1.87-.82-.64.46-2.31-.36-.52.09,1.36.67.84.73C217.47,142.36,218,142.68,217.7,141.88Z" transform="translate(-152.06 -11.13)"/><path class="b" d="M216.23,142.25a6.48,6.48,0,0,0-.65,0A2.9,2.9,0,0,0,216.23,142.25Z" transform="translate(-152.06 -11.13)"/><polygon class="b" points="61.23 25.18 59.96 24.83 60.75 25.26 61.23 25.18"/><path class="b" d="M210.71,36.79l-.23-.68-.84.49A2.18,2.18,0,0,1,210.71,36.79Z" transform="translate(-152.06 -11.13)"/><path class="b" d="M271.94,135.68l.12.13c.22-.16.3-.45.47-1Z" transform="translate(-152.06 -11.13)"/><polygon class="b" points="124.58 107.51 124.5 107.81 125.2 107.39 124.58 107.51"/><path class="b" d="M279.46,104.08c-.17.58-.21,1.3-.38,1.88C279.29,104.66,280.21,104.09,279.46,104.08Z" transform="translate(-152.06 -11.13)"/><path class="b" d="M278.42,69.57c.08.05.1-.37.12-.44C278.38,69.2,278.41,69.68,278.42,69.57Z" transform="translate(-152.06 -11.13)"/><polygon class="b" points="124.82 59.22 124.87 59.05 124.61 59.44 124.82 59.22"/><path class="b" d="M275.55,70.18c0,.72.5-.06.7.23l0,.16.18-.56C276.15,70.07,275.73,70.4,275.55,70.18Z" transform="translate(-152.06 -11.13)"/><path class="b" d="M275,68.56c0,.28-.19.22.15.11a.64.64,0,0,0,0-.07A.3.3,0,0,1,275,68.56Z" transform="translate(-152.06 -11.13)"/><path class="b" d="M275.16,68.6c.14,0-.06-.25,0,0Z" transform="translate(-152.06 -11.13)"/><path class="b" d="M274.49,68.68l.22-.23c0-.17-.18-.22-.11-.33C274.4,68.23,274.42,68.4,274.49,68.68Z" transform="translate(-152.06 -11.13)"/><path class="b" d="M274.26,69.17l.11-.09C274.36,69,274.33,69,274.26,69.17Z" transform="translate(-152.06 -11.13)"/><path class="b" d="M274.59,68.88l-.22.2c0,.12,0,.35.1-.07C274.43,69.22,274.49,69,274.59,68.88Z" transform="translate(-152.06 -11.13)"/><path class="b" d="M274.7,69c.08.16.2.28,0,.5C275.05,69.45,275.06,69,274.7,69Z" transform="translate(-152.06 -11.13)"/><path class="b" d="M275.4,70.91l.11.22.15-.22C275.58,71,275.41,70.68,275.4,70.91Z" transform="translate(-152.06 -11.13)"/><path class="b" d="M273.39,68.17c0,.15,0,.41,0,.61l.16-.16A.67.67,0,0,1,273.39,68.17Z" transform="translate(-152.06 -11.13)"/><path class="b" d="M273.39,68.78l-.23.23C273.34,69.06,273.39,68.94,273.39,68.78Z" transform="translate(-152.06 -11.13)"/><polygon class="b" points="122.07 58.82 122.47 58.32 122.01 58.82 122.07 58.82"/><polygon class="b" points="120.56 56.93 120.71 56.59 120.44 57.09 120.56 56.93"/><path class="b" d="M272.09,68.06c.12-.28-.06-.51.05-.67-.14,0-.29.27-.43.48C271.84,67.76,272,67.8,272.09,68.06Z" transform="translate(-152.06 -11.13)"/><path class="b" d="M271.49,68.17a1.67,1.67,0,0,0,.22-.3A1,1,0,0,0,271.49,68.17Z" transform="translate(-152.06 -11.13)"/><path class="b" d="M272.82,68.89a.81.81,0,0,0-.11-.45l0,.44Z" transform="translate(-152.06 -11.13)"/><path class="b" d="M272.74,68.89h0l-.17,0Z" transform="translate(-152.06 -11.13)"/><path class="b" d="M272.84,68.9h0S272.83,69,272.84,68.9Z" transform="translate(-152.06 -11.13)"/><path class="b" d="M273.64,69.51c-.15.22-.43.44-.23.84C273.53,70.07,273.42,69.84,273.64,69.51Z" transform="translate(-152.06 -11.13)"/><path class="b" d="M272.88,69.44l.2.12a.89.89,0,0,1,.06-.39Z" transform="translate(-152.06 -11.13)"/><polygon class="b" points="120.7 58.43 120.82 58.31 120.74 58.26 120.7 58.43"/><path class="b" d="M271.81,68.61a.35.35,0,0,1-.33.19.69.69,0,0,0,.35.18C271.87,68.85,272,68.61,271.81,68.61Z" transform="translate(-152.06 -11.13)"/><path class="b" d="M272.26,68.79a0,0,0,0,0,0,0S272.25,68.86,272.26,68.79Z" transform="translate(-152.06 -11.13)"/><path class="b" d="M270.34,68.66a.19.19,0,0,0,0,.08.2.2,0,0,1,0-.07Z" transform="translate(-152.06 -11.13)"/><path class="b" d="M271.84,69.06c.09.09.16,0,.23-.13a.69.69,0,0,1-.24,0C271.82,69,271.81,69.08,271.84,69.06Z" transform="translate(-152.06 -11.13)"/><path class="b" d="M271.15,68.33a1.17,1.17,0,0,0,.13.25C271.25,68.44,271.18,68.22,271.15,68.33Z" transform="translate(-152.06 -11.13)"/><path class="b" d="M272.22,68.69s0,0,0,0S272.21,68.62,272.22,68.69Z" transform="translate(-152.06 -11.13)"/><path class="b" d="M272.22,68.69a.7.7,0,0,0-.15.24.88.88,0,0,0,.17-.12A.43.43,0,0,1,272.22,68.69Z" transform="translate(-152.06 -11.13)"/><path class="b" d="M269.67,71.35c.06-.39.35-.73.51-.28a5,5,0,0,0,.17-2.33.75.75,0,0,1-.29.54c.05.22.41.56.19.89-.31.17-.22-.16-.33-.39.06.51-.44.67-.47,1.4l.28-.22C269.72,71.07,269.61,71.24,269.67,71.35Z" transform="translate(-152.06 -11.13)"/><path class="b" d="M270.75,68.83l.09,0a1.5,1.5,0,0,1-.24-.57.81.81,0,0,0-.24.44l.43.11Z" transform="translate(-152.06 -11.13)"/><path class="b" d="M271.24,68.84c-.12.42-.35.58-.28,1.06.26,0,.22-.34.4-.51-.43.06.15-.22-.12-.5a.51.51,0,0,1,.24-.09,1.07,1.07,0,0,1-.2-.22v0h0s0,.09,0,0a0,0,0,0,1,0,0c0,.06,0,.11,0,.16-.11-.1,0-.11,0-.16s0,0,0-.06h0l-.45.19C270.92,68.87,271,68.87,271.24,68.84Z" transform="translate(-152.06 -11.13)"/><path class="b" d="M273.08,71.24a.17.17,0,0,1,0-.1S273,71.22,273.08,71.24Z" transform="translate(-152.06 -11.13)"/><path class="b" d="M272.94,71c0-.06.08-.22.17-.17s0,.21,0,.35c.07-.11.24-.28.08-.51l0,.05a1.57,1.57,0,0,1-.26-.78A5.41,5.41,0,0,0,272.94,71Z" transform="translate(-152.06 -11.13)"/><path class="b" d="M272.06,70l-.37.17.13.39,0-.23C272,70.46,272,70.18,272.06,70Z" transform="translate(-152.06 -11.13)"/><polygon class="b" points="118.27 57.31 118.37 56.87 118.09 57.48 118.27 57.31"/><polygon class="b" points="117.81 57.31 117.87 56.92 117.72 57.15 117.81 57.31"/><path class="b" d="M243.77,70.26l-.12.1A.4.4,0,0,0,243.77,70.26Z" transform="translate(-152.06 -11.13)"/><path class="b" d="M244.5,70.38l0-.19C244.5,70.29,244.47,70.37,244.5,70.38Z" transform="translate(-152.06 -11.13)"/><path class="b" d="M258.76,67.16c-.11-.39-.21-1-.24-.53v.44C258.62,67,258.7,67.06,258.76,67.16Z" transform="translate(-152.06 -11.13)"/><path class="b" d="M250.84,68.82l0,.14c0-.15.1-.28.15-.4A3.1,3.1,0,0,1,250.84,68.82Z" transform="translate(-152.06 -11.13)"/><path class="b" d="M250.52,70.59l-.16-.3A1.1,1.1,0,0,0,250.52,70.59Z" transform="translate(-152.06 -11.13)"/><path class="b" d="M239.67,70.23l-.17.43C239.68,70.68,239.63,70.45,239.67,70.23Z" transform="translate(-152.06 -11.13)"/><path class="b" d="M265.22,68.05a.68.68,0,0,0-.29-.3C265.05,68,265.13,68.4,265.22,68.05Z" transform="translate(-152.06 -11.13)"/><path class="b" d="M244.61,65.73a.35.35,0,0,0-.12.25A.35.35,0,0,0,244.61,65.73Z" transform="translate(-152.06 -11.13)"/><path class="b" d="M264.55,67.71a1.09,1.09,0,0,0,.06.11.37.37,0,0,1,.32-.07C264.83,67.55,264.72,67.43,264.55,67.71Z" transform="translate(-152.06 -11.13)"/><path class="b" d="M225.05,68.12a.11.11,0,0,1,0-.06C225,68.12,225,68.13,225.05,68.12Z" transform="translate(-152.06 -11.13)"/><path class="b" d="M221.3,63.26a.53.53,0,0,1,.18,0S221.4,63.21,221.3,63.26Z" transform="translate(-152.06 -11.13)"/><path class="b" d="M268.07,68c.1,0,0,0,0,0Z" transform="translate(-152.06 -11.13)"/><path class="b" d="M268.33,69.8a.48.48,0,0,0-.06.21A.79.79,0,0,1,268.33,69.8Z" transform="translate(-152.06 -11.13)"/><path class="b" d="M263.28,70.28h0C263.29,70.36,263.28,70.34,263.28,70.28Z" transform="translate(-152.06 -11.13)"/><path class="b" d="M268.19,68.25a.76.76,0,0,0-.11-.14A.54.54,0,0,0,268.19,68.25Z" transform="translate(-152.06 -11.13)"/><path class="b" d="M268.19,68.05l.08,0C268.29,68,268.29,68,268.19,68.05Z" transform="translate(-152.06 -11.13)"/><path class="b" d="M267.93,68.05a.2.2,0,0,1,.15.06s0,0,0-.07Z" transform="translate(-152.06 -11.13)"/><path class="b" d="M233.05,67.91l0,0C232.91,68,233,68,233.05,67.91Z" transform="translate(-152.06 -11.13)"/><path class="b" d="M255.72,71.33l0,0h0Z" transform="translate(-152.06 -11.13)"/><path class="b" d="M255.34,71.61c.21-.52.29-.44.38-.31l0-1.26Z" transform="translate(-152.06 -11.13)"/><path class="b" d="M242,70.17l.19.42c-.36.6-.55.36-.39.93.2-1.35,1,0,1.16-1.37l.12.3s-.06.06-.1,0c.23.69.34-.94.72-.7a.36.36,0,0,1,.09.47l.35-.29c.08,0,0,.26-.05.23l.48,0v0a5.93,5.93,0,0,1,.38-.65c.1.21-.08.14-.07.31l.31-.29c.06.36-.2.67-.37.6.08,1.38.26-.31.69.54l-.27.14c.07.78.3.53.52,1,0-.26-.42-1.27-.09-1.57.06.11.16.17.35-.08-.06.48.11.38.3.37l-.09.64c.22-.16.25-.49.4-.76.22.09.21.59.21,1,.35.14-.15-.82.29-.89.27.28.51.05.92-.29.18.24-.09.38,0,.57l.25-.48s0,.17,0,.25c.18-.18.09-.63.36-.78.15-.69.38,1.09.78.33.06.19-.08.38-.09.63a3.35,3.35,0,0,0,.84-1l.24.45c-.16-.5.19-1,.48-1.47-.05-.24-.09-.45-.12-.55l.43-.3a1.24,1.24,0,0,1-.13.59l.09-.15a1.36,1.36,0,0,1-.15,1l-.09-.4a4.54,4.54,0,0,0-.31,1.16.39.39,0,0,1,.15-.16.84.84,0,0,0-.06.26c0,.07.06-.06.14-.22v.72l0-.28.45.5c.45-.67.89-1.68,1.5-1.9a5,5,0,0,0-.22,1.46c-.08-.67-.47.22-.75,0,.14.09.07.38,0,.48l.6-.53c-.07.5.07.39.18.61,0-1,.48-.61.73-.89,0,.34-.12.67-.37.56.2.78.51-1.12.72-.45-.07,0-.1-.06-.14.11.18-.28.52,0,.4.28h-.06a1,1,0,0,0,1.46-.68c0,.11-.18,1-.23,1.18l1.1-2.75c-.15.72-.1,2.48-.5,2.84.09.12.2.26.44,0a2.46,2.46,0,0,1,.06-1.12,5.13,5.13,0,0,0,.36,1.18c-.08-.17.17-1.29.33-1.23-.05.16-.12,1.12-.2,1.23l.55-1.07a2.75,2.75,0,0,0-.08,1.27c0-.22.35.07.47,0l-.14-.28c.44.22.64-1.52,1.09-1.4-.08.22-.31,1.4-.09,1.57a11.22,11.22,0,0,1,1.26-3.09l0,.34.35-.34a29.85,29.85,0,0,1-1.44,3.26c.15.28,0,.39.27.39a.39.39,0,0,1-.28.46l.58.27c.05-.68.54-.62.58-1.18l-.73.62c0-.67.6-1.85,1-1.68a6.4,6.4,0,0,1-.24,1.4c.09-.23.46-.39.48-.23l-.22.34c.2.28.49-.84.7-.17.09.06.19.9.25.5a17.08,17.08,0,0,1,.36-3.7,5.77,5.77,0,0,1,.5,1.18c.09.62-.42,1.4-.34,1.93a1.42,1.42,0,0,1,.19-.47c.08.17-.11.56.12.51.12-.67.45.11.18-.56.24-.17.21.17.47.17a2.88,2.88,0,0,1,.66-1.63,1.73,1.73,0,0,0,0,.51c.44.11.64.45,1.06.5,0,.17.2.39.08.68.07-.12.16-.34.29-.34.18.61-.3.06-.19.78.06-.39.4-.5.61-.72,0-.62-.41-.17-.63,0a3,3,0,0,1,1-2c.38-.17.09.56.17.45.63.22.73-1.4,1.2-.73.15.56-.12,1.06-.12,1.45-.31.17-.39-.39-.59-.39l.21.28c-.11.17-.32.28-.4.11.12.51,1.09.23,1.54.73.12-.17.29-.33.24-.56l-.16.06c-.1-.45.37-.56.19-.78.25-.28.55-.73.82-.45l0,.62c0-.18-.15-.39-.26-.21.16-.26.37.87.6.09l-.16-.44c.25-.28.59-.9.84-.67-.05-.62-.07.06-.18-.67.06.9-.68-.12-.52.83-.1-.84-.3-.38-.47-1.11,0,.2.05.4-.17.27a.67.67,0,0,1-.07.17,0,0,0,0,1,0,0v0s0,0,0,0a.79.79,0,0,1,.08.32c-.17.45-.52.39-.67.61-.12-.11.08-.22,0-.44l-.22.33c0-.45-.26-.78.08-1l-.28,0c-.13-.27-.35-.4-.51-.23-.13-.11-.4.46-.24.12l-.48.22v-.11c-.43-.11-1,.63-1.39-.23-.16.09-.33.21-.56.06v-.39c-.21.11-.52-.46-.65-.07-.08-1.06-.89-.33-1.2-.56l-.07.51a1.13,1.13,0,0,0-.77.22l0,.45c-.29.34-.59-.39-1-.39,0-.17.14-.11.19,0-.34-1.06-1.06.61-1.39-.17-.13.15-.19.09-.25,0s0,0,0,0h0a2.72,2.72,0,0,0-.11-.25,1,1,0,0,0,.09.25.61.61,0,0,0-.34.14v-.48h0c-.09-.19-.12.21-.1.58a.93.93,0,0,0-.19.27c0-.79-.35.22-.38-.62-.13.39-.64.23-.8,1.07,0-.11,0-.17,0-.17-.12-.11-.24-.22-.39,0l0-.61-.39.78a1.09,1.09,0,0,1,0-1.06c-.51.66-.38.23-.83.9l.07-.4c-.13,0-.4.51-.44.17-.2-.78-1.42-.27-2.08-1.06,0,1.18-.28-.56-.42.34,0-.28-.09-.45.06-.67-.41.22-.52-.5-.87.22,0-.28.13-.39.11-.56,0,.06-.15.23-.17.06s.08-.23.16-.34c-.39,0-.53.84-.66,1.63-.15-.4-.25-.36-.46.14,0-.26-.11-.55.14-.61-.13-.06-.78-.48-.87.15,0-.16-.19-.07-.23,0a1.51,1.51,0,0,0-.62-.11l.07.12c-.21.75-.27.14-.52.2v-.08c-.48-.62-.27.24-.73-.46l0,.48c-.17,1-.41-.66-.77-.31l.08.29c-.21.33-.31-1.45-.47-1.6s.07-.13.13-.19c-.38-.66-.13.61-.48.72,0-.35.18-.85,0-.94-.08-.28-.79,1-1,.33,0,.27.07.54-.11.71s-.53-1.06-.84-.26a.4.4,0,0,1,0-.21c-.21.19-.64.28-.8.71,0-1.67-1.24.66-1.06-.86l-.57,0,0-.16c-.35-.14-.52.21-.69.56-.07-.12,0-.25,0-.33-.49-.37-.55-.31-1.09.39l0-.5c-.16.28-.67-.86-1.26-.35a.5.5,0,0,1,.08-.21c-.65.51-1.23-1.53-1.65.23l-.44.4c.48.2-.17.77,0,1.09-.21.08-.44-.6-.19-.66l0,.09c.2-.92-.58-.4-.49-1a29.06,29.06,0,0,1-2.78-.85l0,.74-.32-.08c-.06-.18,0-.58.18-.53-.07-.42-.42.3-.45.46-.41-.35.28-.83.14-.86l-.19,0,0,.09c-.18.28-.24.59-.5.52s0-.45-.1-.49,0-.08-.11,0l-.39-.11.09.59c-.21.26-.37-.08-.27.6-.15-1-1.45-.54-1.58-.88a.66.66,0,0,1-.85.27c.06.13,0,.78-.22.67.25-1.32-.42-.64-.51-1.62.11.66-.77.07-.58,1-.21-.13,0-.5-.08-.83-.59.45-1.12-.47-1.78-.38,0,.18,0,.46-.13.7l-.24-.91c-.13.07-.23,1-.4.36,0,.15,0,.37,0,.42-1.16-1-2.67.39-3.77-1.37.14.36,0,.38-.12.38.08.09,0,.43-.06.67L221,63.2c-.18.64-.58,0-.72.59l.19-.09c-.32.71.12,1.69,0,2.63.36-.81.52,1.33,1.08.17.07.21-.11.3-.09.53.15-.4.29-.47.51-.26l0,.1c.67,0,.91.42,1.62.78v-.48c.16.08.17.23.23.36.27-.69-.44-.09-.18-.86.1,1,1.13.15,1.14,1.25.25,0,0-.55.24-.51l0,.3.11-.37c.15.08.19.46.17.71,0,0-.12,0-.17.07.17.37.61-.05.67.07L225.5,68c.71-.19,1.48.29,2.2-.23l0-.22c.55-.36.37.29.94.16l0,0c.14-.2.3-.3.44-.26-.17.25.2.54,0,.81.59-.38.3-.32.76-1.1l0,.38c.16-.32.19-.49.47-.56-.26.29.11.58-.19,1,.47.88,1-.71,1.07.5.38-1-.43-.63-.26-.83-.08-.34.31-.73.48-.61s.15,1.34.61,1.38c0,0-.05.07-.1.06.14.28.38-.32.54.13.19-.6.27.07.4-.71l-.45.13c.27-.18.6-1.07.94-.58a1.62,1.62,0,0,1-.28.46c.08.24.24-.13.33.12-.13.79-.54.11-.86.68.08.35.55-.51.32.33.31-1.06.43.19.84-.6l-.07.47c0-.07.18-.28.27-.26l-.23.59c.31-.49.43.52.7.26-.51,0,0-.58-.22-1,.7-.55.21,1.28.94,1.13-.1.06-.32-.32-.15-.52a1.08,1.08,0,0,1,.33.57c.47,0,0-.49.22-.76.09.59.25-.21.48-.36l-.06.47c.49.37.26-1,.69-.55l-.28.64.27-.14-.12.54c.32-.37.39-.26.64-.07,0-.35.14-.87.37-.86.13.31-.14.45.2.42-.11.29-.24.66-.33.2,0,.15-.11.29-.15.44.14.35.43.13.55.14a.22.22,0,0,1-.12-.13l.56-.61a.55.55,0,0,1-.1.46c.1,0,.2-.25.35-.27-.09.38-.13.79-.35.95l.51-.38c0,.17.18.49.1.63.23.26.71-.68,1-.34a.39.39,0,0,1,.15-.19c.3.13.53.64,1,.15l.12.72c.32-.12-.18-.91.34-1.12.37-.18.06.61.16.82.21-.33.6-1,.84-.4C242.15,70.25,242.08,70.13,242,70.17Zm3.65.13c-.08.09-.26.38-.28.09C245.5,69.86,245.53,70.13,245.63,70.3Zm5.63-.5c-.07.16-.14.07-.21-.12S251.2,69.67,251.26,69.8ZM267,68.3v0C266.83,68.12,266.87,68.2,267,68.3Zm.3.25a.28.28,0,0,0,0-.2c0,.12-.11.12-.19.08C267.13,68.56,267.16,68.65,267.27,68.55Zm-34.86-4,.05.13C232.3,64.82,232.35,64.7,232.41,64.56Z" transform="translate(-152.06 -11.13)"/><path class="b" d="M250.56,70.38a2.25,2.25,0,0,1,0-.26A.3.3,0,0,0,250.56,70.38Z" transform="translate(-152.06 -11.13)"/><path class="b" d="M239.7,70.16h0a.31.31,0,0,0,0,.08Z" transform="translate(-152.06 -11.13)"/><path class="b" d="M261.76,72a.52.52,0,0,1-.1-.26C261.64,71.86,261.66,72,261.76,72Z" transform="translate(-152.06 -11.13)"/><path class="b" d="M269.09,67.94l-.23.1c.11,0,.13.1.17.18C269,68.11,269,67.94,269.09,67.94Z" transform="translate(-152.06 -11.13)"/><path class="b" d="M270.53,71.12c0-.05.07,0,.11-.05l0-.22C270.52,70.85,270.41,71,270.53,71.12Z" transform="translate(-152.06 -11.13)"/><path class="b" d="M269.09,69.56c0,.4.11.28.27.23h0C269.44,69.22,269.26,69.39,269.09,69.56Z" transform="translate(-152.06 -11.13)"/><path class="b" d="M269.39,69.78a.17.17,0,0,1,.14,0C269.57,69.56,269.48,69.73,269.39,69.78Z" transform="translate(-152.06 -11.13)"/><path class="b" d="M267.71,68.33c.06.12.11-.51.13-.34C268,67.49,267.3,68.56,267.71,68.33Z" transform="translate(-152.06 -11.13)"/><polygon class="b" points="116.99 59.77 117 59.26 116.87 59.66 116.99 59.77"/><path class="b" d="M267.94,70.4l.22.16a.19.19,0,0,1,.08-.16C268.1,70.37,268,70.25,267.94,70.4Z" transform="translate(-152.06 -11.13)"/><path class="b" d="M268.24,70.4a.16.16,0,0,0,.2-.06A.37.37,0,0,0,268.24,70.4Z" transform="translate(-152.06 -11.13)"/><polygon class="b" points="116.65 59.88 116.6 59.77 116.44 59.71 116.65 59.88"/><path class="b" d="M265.45,70l-.27.11c-.05.17,0,.28.11.23S265.47,70.17,265.45,70Z" transform="translate(-152.06 -11.13)"/><path class="b" d="M266.06,71.46a1.15,1.15,0,0,1-.07-.4l-.08.62Z" transform="translate(-152.06 -11.13)"/><path class="b" d="M265.3,71.51c-.05.17-.43.45-.1.45C265.24,71.79,265.52,71.68,265.3,71.51Z" transform="translate(-152.06 -11.13)"/><polygon class="b" points="109.51 59.14 109.58 59.14 109.69 58.13 109.51 59.14"/><path class="b" d="M257.91,72.29c.27.28.14-.62.38-.28.1-.23-.19-.28-.1-.47C258,71.77,257.9,71.61,257.91,72.29Z" transform="translate(-152.06 -11.13)"/><path class="b" d="M258.19,71.54a1,1,0,0,0,.11-.15A.55.55,0,0,0,258.19,71.54Z" transform="translate(-152.06 -11.13)"/><polygon class="b" points="68.6 51.5 68.44 51.27 68.52 51.62 68.6 51.5"/><path class="b" d="M220.2,63.34l0-.65-.19.57C220.09,63.23,220.18,63.19,220.2,63.34Z" transform="translate(-152.06 -11.13)"/><path class="b" d="M246,71.66l0-.15c0-.17-.06-.19-.15-.23Z" transform="translate(-152.06 -11.13)"/><polygon class="b" points="91.39 59.73 91.43 59.75 91.42 59.16 91.39 59.73"/><path class="b" d="M241.16,71.34c.08,0,.2-.08.29,0C241.24,71.38,241.22,70.61,241.16,71.34Z" transform="translate(-152.06 -11.13)"/><path class="b" d="M254.53,83.57c.06,0,.07-.38.08-.46C254.49,83.2,254.52,83.68,254.53,83.57Z" transform="translate(-152.06 -11.13)"/><polygon class="b" points="101.3 73.31 101.33 73.14 101.14 73.55 101.3 73.31"/><path class="b" d="M252.32,84.37c.05.72.39-.09.55.17l0,.17.12-.57C252.78,84.21,252.47,84.58,252.32,84.37Z" transform="translate(-152.06 -11.13)"/><path class="b" d="M251.87,82.79c0,.28-.13.23.13.1a.13.13,0,0,1,0-.08A.16.16,0,0,1,251.87,82.79Z" transform="translate(-152.06 -11.13)"/><path class="b" d="M252,82.81c.11,0-.06-.23,0,0Z" transform="translate(-152.06 -11.13)"/><path class="b" d="M251.46,82.94l.16-.24c0-.16-.14-.21-.09-.33C251.38,82.5,251.4,82.66,251.46,82.94Z" transform="translate(-152.06 -11.13)"/><path class="b" d="M251.29,83.45l.08-.1C251.36,83.28,251.35,83.26,251.29,83.45Z" transform="translate(-152.06 -11.13)"/><path class="b" d="M251.55,83.14l-.18.21c0,.12,0,.35.08-.07C251.42,83.49,251.47,83.28,251.55,83.14Z" transform="translate(-152.06 -11.13)"/><path class="b" d="M251.63,83.25c.07.16.17.27,0,.51C251.92,83.68,251.91,83.17,251.63,83.25Z" transform="translate(-152.06 -11.13)"/><path class="b" d="M252.22,85.1l.09.22.11-.24C252.37,85.2,252.23,84.88,252.22,85.1Z" transform="translate(-152.06 -11.13)"/><path class="b" d="M250.59,82.51c0,.15,0,.41,0,.6l.12-.16A.76.76,0,0,1,250.59,82.51Z" transform="translate(-152.06 -11.13)"/><path class="b" d="M250.61,83.11l-.17.25C250.58,83.4,250.61,83.28,250.61,83.11Z" transform="translate(-152.06 -11.13)"/><polygon class="b" points="99.16 73.11 99.45 72.58 99.11 73.11 99.16 73.11"/><polygon class="b" points="97.93 71.32 98.04 70.97 97.85 71.49 97.93 71.32"/><path class="b" d="M249.58,82.49c.09-.29-.06-.5,0-.67-.11,0-.22.28-.32.5C249.38,82.2,249.47,82.24,249.58,82.49Z" transform="translate(-152.06 -11.13)"/><path class="b" d="M249.12,82.64a2.35,2.35,0,0,0,.16-.32A1.33,1.33,0,0,0,249.12,82.64Z" transform="translate(-152.06 -11.13)"/><path class="b" d="M250.17,83.27a.93.93,0,0,0-.1-.44l0,.43Z" transform="translate(-152.06 -11.13)"/><path class="b" d="M250.11,83.27h0l-.14,0Z" transform="translate(-152.06 -11.13)"/><path class="b" d="M250.19,83.27h0S250.18,83.33,250.19,83.27Z" transform="translate(-152.06 -11.13)"/><path class="b" d="M250.82,83.83c-.11.23-.32.47-.15.85C250.75,84.39,250.66,84.18,250.82,83.83Z" transform="translate(-152.06 -11.13)"/><path class="b" d="M250.23,83.81l.16.11a.87.87,0,0,1,0-.39Z" transform="translate(-152.06 -11.13)"/><polygon class="b" points="98.08 72.81 98.17 72.68 98.11 72.64 98.08 72.81"/><path class="b" d="M249.38,83.06a.29.29,0,0,1-.25.21.46.46,0,0,0,.28.15C249.43,83.29,249.49,83.05,249.38,83.06Z" transform="translate(-152.06 -11.13)"/><path class="b" d="M249.73,83.2s0,0,0,0S249.73,83.27,249.73,83.2Z" transform="translate(-152.06 -11.13)"/><path class="b" d="M248.24,83.21s0,.05,0,.08a.15.15,0,0,1,0-.07Z" transform="translate(-152.06 -11.13)"/><path class="b" d="M249.42,83.5c.07.09.12,0,.17-.14a.32.32,0,0,1-.18.06C249.4,83.48,249.39,83.52,249.42,83.5Z" transform="translate(-152.06 -11.13)"/><path class="b" d="M248.86,82.82a1.89,1.89,0,0,0,.11.25C248.94,82.93,248.88,82.71,248.86,82.82Z" transform="translate(-152.06 -11.13)"/><path class="b" d="M249.7,83.1h0C249.69,83,249.69,83,249.7,83.1Z" transform="translate(-152.06 -11.13)"/><path class="b" d="M249.7,83.1a1.27,1.27,0,0,0-.11.26.6.6,0,0,0,.13-.14A.37.37,0,0,1,249.7,83.1Z" transform="translate(-152.06 -11.13)"/><path class="b" d="M247.79,85.93c0-.39.25-.75.39-.31a6.32,6.32,0,0,0,.07-2.33.89.89,0,0,1-.21.55c0,.22.34.53.17.88-.23.19-.17-.15-.26-.37.06.5-.33.7-.33,1.43l.21-.24C247.83,85.65,247.74,85.82,247.79,85.93Z" transform="translate(-152.06 -11.13)"/><path class="b" d="M248.56,83.35l.08,0a1.48,1.48,0,0,1-.21-.56,1,1,0,0,0-.17.47l.33.07Z" transform="translate(-152.06 -11.13)"/><path class="b" d="M248.94,83.33c-.08.42-.26.59-.19,1.07.21,0,.17-.35.3-.53-.33.08.11-.24-.11-.5a.5.5,0,0,1,.19-.1.83.83,0,0,1-.16-.2v0h0c0,.05,0,.09,0,.05h0l0,.16c-.08-.09,0-.11,0-.16a.13.13,0,0,1,0-.06h0l-.34.22C248.7,83.37,248.79,83.36,248.94,83.33Z" transform="translate(-152.06 -11.13)"/><path class="b" d="M250.43,85.59v-.1C250.4,85.54,250.39,85.58,250.43,85.59Z" transform="translate(-152.06 -11.13)"/><path class="b" d="M250.32,85.32c0-.06.05-.23.13-.18s0,.21,0,.35a.51.51,0,0,0,0-.52l0,.06a1.79,1.79,0,0,1-.22-.76A6.12,6.12,0,0,0,250.32,85.32Z" transform="translate(-152.06 -11.13)"/><path class="b" d="M249.61,84.43l-.28.2.11.38v-.23C249.6,84.88,249.58,84.6,249.61,84.43Z" transform="translate(-152.06 -11.13)"/><polygon class="b" points="96.17 71.86 96.23 71.41 96.03 72.04 96.17 71.86"/><polygon class="b" points="95.81 71.89 95.85 71.5 95.74 71.73 95.81 71.89"/><path class="b" d="M227.68,86.61l-.08.11A.28.28,0,0,0,227.68,86.61Z" transform="translate(-152.06 -11.13)"/><path class="b" d="M228.26,86.68l0-.19C228.25,86.59,228.23,86.67,228.26,86.68Z" transform="translate(-152.06 -11.13)"/><path class="b" d="M239.22,82.5c-.09-.38-.18-1-.2-.51v.43C239.11,82.35,239.17,82.4,239.22,82.5Z" transform="translate(-152.06 -11.13)"/><path class="b" d="M233.13,84.69a.68.68,0,0,1,0,.14c0-.15.08-.28.11-.41C233.22,84.51,233.18,84.6,233.13,84.69Z" transform="translate(-152.06 -11.13)"/><path class="b" d="M232.93,86.48l-.13-.29A.84.84,0,0,0,232.93,86.48Z" transform="translate(-152.06 -11.13)"/><path class="b" d="M224.51,86.87l-.13.43C224.53,87.31,224.48,87.08,224.51,86.87Z" transform="translate(-152.06 -11.13)"/><path class="b" d="M244.25,83c-.09-.18-.16-.25-.23-.28C244.12,82.93,244.2,83.31,244.25,83Z" transform="translate(-152.06 -11.13)"/><path class="b" d="M228.21,82a.44.44,0,0,0-.08.25A.36.36,0,0,0,228.21,82Z" transform="translate(-152.06 -11.13)"/><path class="b" d="M243.73,82.65l.05.11a.24.24,0,0,1,.24-.09C243.94,82.48,243.85,82.36,243.73,82.65Z" transform="translate(-152.06 -11.13)"/><path class="b" d="M213.12,85.75l0,0C213.09,85.76,213.1,85.76,213.12,85.75Z" transform="translate(-152.06 -11.13)"/><path class="b" d="M210.08,81.17a.22.22,0,0,1,.14,0S210.16,81.11,210.08,81.17Z" transform="translate(-152.06 -11.13)"/><path class="b" d="M246.46,82.74c.08,0,0,0,0,0Z" transform="translate(-152.06 -11.13)"/><path class="b" d="M246.71,84.48a.78.78,0,0,0,0,.21A1.1,1.1,0,0,1,246.71,84.48Z" transform="translate(-152.06 -11.13)"/><path class="b" d="M242.81,85.3h0C242.82,85.38,242.82,85.37,242.81,85.3Z" transform="translate(-152.06 -11.13)"/><path class="b" d="M246.56,83a.47.47,0,0,0-.08-.14A.53.53,0,0,0,246.56,83Z" transform="translate(-152.06 -11.13)"/><path class="b" d="M246.56,82.74l.06.05C246.64,82.72,246.63,82.67,246.56,82.74Z" transform="translate(-152.06 -11.13)"/><path class="b" d="M246.36,82.76a.21.21,0,0,1,.12,0,.11.11,0,0,1,0-.07A.22.22,0,0,1,246.36,82.76Z" transform="translate(-152.06 -11.13)"/><path class="b" d="M219.31,85l0,0C219.21,85.13,219.24,85.11,219.31,85Z" transform="translate(-152.06 -11.13)"/><path class="b" d="M237,86.87a0,0,0,0,1,0,0v0Z" transform="translate(-152.06 -11.13)"/><path class="b" d="M236.69,87.17c.15-.53.21-.46.29-.34V85.58Z" transform="translate(-152.06 -11.13)"/><path class="b" d="M226.29,86.65l.17.4c-.27.62-.42.39-.28,1,.11-1.35.74-.09.85-1.44l.11.29s0,.07-.08.05c.2.67.24-1,.54-.75a.41.41,0,0,1,.08.46l.27-.31c.06,0,0,.26,0,.23l.38-.08v0a6.49,6.49,0,0,1,.28-.67c.08.2-.06.14-.05.31l.23-.31c.06.35-.13.68-.27.62.1,1.37.19-.33.55.49l-.2.16c.07.78.24.51.43,1,0-.25-.36-1.23-.12-1.56.06.11.14.16.28-.1,0,.48.09.37.24.35l-.06.64c.17-.17.18-.5.3-.78.17.07.17.57.19,1,.27.12-.15-.81.19-.9.22.25.4,0,.71-.36.15.23-.06.39,0,.58l.18-.5s0,.17,0,.25c.14-.19,0-.64.26-.8.1-.7.33,1,.62.27a4.11,4.11,0,0,1-.06.64,3.6,3.6,0,0,0,.62-1l.21.43a2.26,2.26,0,0,1,.33-1.5c0-.23-.08-.44-.11-.54l.32-.32a1.45,1.45,0,0,1-.08.59l.07-.15a1.75,1.75,0,0,1-.09,1l-.09-.4A6.2,6.2,0,0,0,233,86a.34.34,0,0,1,.11-.17.73.73,0,0,0,0,.27c0,.06,0-.08.1-.24l0,.72,0-.28.36.47c.33-.7.65-1.74,1.11-2a7.31,7.31,0,0,0-.13,1.47c-.07-.66-.36.25-.58.11.11.07.07.37,0,.47l.45-.57c0,.5.06.38.16.6,0-1,.35-.65.54-.94,0,.33-.08.67-.28.58.18.77.37-1.15.55-.5,0,0-.07,0-.1.12.13-.29.4,0,.32.25h-.05a.82.82,0,0,0,1.11-.78c0,.11-.11,1-.14,1.2l.78-2.82c-.1.72,0,2.47-.32,2.87.07.11.16.23.35,0a3.28,3.28,0,0,1,0-1.13,5.75,5.75,0,0,0,.31,1.15c-.07-.16.1-1.29.22-1.25,0,.17-.06,1.13-.11,1.25l.39-1.11a3.58,3.58,0,0,0,0,1.28c0-.23.27,0,.37-.07l-.12-.27c.34.19.46-1.55.81-1.47-.06.23-.2,1.42,0,1.57a14.27,14.27,0,0,1,.89-3.16l0,.33.27-.36a34.8,34.8,0,0,1-1,3.34c.12.27,0,.39.21.38a.39.39,0,0,1-.2.47l.46.23c0-.67.4-.65.42-1.21l-.55.66c0-.67.42-1.88.74-1.74a7.91,7.91,0,0,1-.15,1.41c.06-.23.34-.42.36-.25l-.16.35c.17.26.36-.87.54-.22.07,0,.17.88.21.49a22,22,0,0,1,.18-3.72,6.68,6.68,0,0,1,.41,1.14c.09.61-.28,1.42-.21,1.95a1.55,1.55,0,0,1,.14-.48c.07.16-.07.57.11.49.07-.67.35.09.12-.56.18-.19.17.15.37.13a3.62,3.62,0,0,1,.47-1.67,2.08,2.08,0,0,0,0,.51c.35.08.51.4.84.43a1.34,1.34,0,0,1,.08.67c.05-.12.11-.35.21-.36.16.6-.23.08-.13.79,0-.39.3-.52.46-.76,0-.61-.33-.14-.49.1a3.7,3.7,0,0,1,.73-2.08c.29-.19.09.55.14.44.5.18.53-1.44.92-.81a5.62,5.62,0,0,1-.06,1.46c-.23.19-.31-.36-.46-.35l.16.26c-.08.18-.23.3-.3.14.1.49.85.15,1.21.62a.88.88,0,0,0,.18-.57l-.13.07c-.09-.44.27-.59.13-.8.18-.29.4-.76.62-.5v.62c0-.18-.13-.38-.2-.2.11-.26.3.86.46.06L247,84.1c.19-.3.44-.93.64-.73-.06-.61-.06.07-.16-.65.07.89-.53-.07-.38.87-.1-.83-.24-.37-.39-1.08,0,.2,0,.39-.13.28a.69.69,0,0,1-.05.17h0v0s0,0,0,0a.78.78,0,0,1,.07.31c-.11.46-.39.43-.5.66-.1-.1.06-.23,0-.45l-.16.35c0-.45-.23-.76,0-1l-.22,0c-.12-.26-.29-.37-.41-.19-.1-.1-.29.48-.18.13l-.36.26V82.9c-.34-.08-.75.69-1.08-.14-.13.1-.25.23-.44.09v-.39c-.15.13-.41-.41-.5,0-.09-1.06-.7-.28-1-.48l0,.51c-.18,0-.36.09-.59.28l0,.44c-.21.36-.47-.35-.77-.32,0-.17.1-.12.15,0-.29-1-.81.68-1.08-.08-.1.16-.15.1-.2,0s0,0,0,0h0a1.86,1.86,0,0,0-.1-.25,1.23,1.23,0,0,0,.08.25.42.42,0,0,0-.26.16v-.49l0,0c-.08-.19-.09.22-.07.58a1.46,1.46,0,0,0-.14.28c0-.78-.26.25-.31-.58-.09.4-.49.27-.59,1.11,0-.11,0-.16,0-.16-.1-.11-.2-.21-.31,0v-.61l-.28.8a1.35,1.35,0,0,1,0-1.06c-.38.7-.29.26-.61,1l0-.39c-.1,0-.29.53-.33.2-.18-.77-1.11-.18-1.64-.92,0,1.17-.23-.54-.31.36,0-.27-.09-.43,0-.67-.31.25-.41-.46-.67.28,0-.27.09-.39.07-.56,0,.06-.11.23-.13.07s.06-.23.12-.35c-.31,0-.39.87-.47,1.67-.13-.39-.21-.34-.35.17,0-.26-.11-.54.09-.62-.11,0-.62-.42-.67.21,0-.16-.15,0-.18,0-.23,0-.25-.11-.49-.07l.06.11c-.14.76-.2.16-.4.24v-.08c-.39-.58-.2.25-.58-.41v.48c-.11,1-.33-.63-.6-.25l.07.28c-.16.34-.29-1.43-.41-1.56s.05-.14.1-.21c-.31-.63-.09.63-.36.75,0-.34.12-.85-.05-.93-.07-.28-.59,1.07-.79.4a1,1,0,0,1-.06.72c-.19.08-.44-1-.66-.21a.5.5,0,0,1,0-.21c-.16.21-.49.33-.61.77,0-1.67-.94.74-.83-.78l-.45,0,0-.16c-.27-.12-.39.24-.52.6-.06-.11,0-.24,0-.32-.39-.34-.43-.28-.83.46v-.5c-.11.28-.54-.81-1-.26a.49.49,0,0,1,.06-.22c-.5.55-1-1.44-1.28.35l-.33.42c.38.17-.11.78,0,1.09-.16.09-.36-.57-.16-.65l0,.09c.13-.93-.46-.36-.41-1-.76,0-1.47-.57-2.18-.66l0,.73-.25,0c0-.18,0-.58.12-.54-.06-.42-.32.33-.33.49-.33-.32.19-.85.09-.87l-.15,0,0,.09c-.13.29-.16.61-.37.56s0-.46-.1-.49,0-.08-.08,0l-.3-.08.08.59c-.15.27-.29-.05-.19.61-.14-1-1.14-.44-1.25-.76-.22.41-.42.39-.65.32,0,.12,0,.77-.16.68.17-1.33-.33-.6-.44-1.58.11.65-.59.12-.42,1-.16-.12,0-.5-.08-.82-.44.49-.88-.4-1.39-.26a1.88,1.88,0,0,1-.08.71l-.21-.9c-.1.08-.16,1-.3.39,0,.15,0,.37,0,.42-.93-.92-2.06.57-3-1.1.12.35,0,.38-.08.38.06.09,0,.44,0,.67l-.38-.68c-.12.65-.45,0-.54.64l.14-.11c-.22.74.14,1.68.05,2.63.26-.83.44,1.29.85.1.05.2-.09.3-.06.53.11-.41.21-.49.38-.29l0,.1c.52-.07.71.35,1.28.66v-.48c.12.07.13.22.18.35.19-.71-.34-.07-.16-.85.1,1,.88.07.92,1.17.19,0,0-.55.17-.53l0,.3.07-.38c.13.08.16.45.15.7,0,0-.09.06-.12.08.14.36.47-.08.51,0l-.17-.19c.54-.24,1.16.19,1.7-.38l0-.23c.41-.38.29.27.73.11l0,0c.1-.22.22-.32.34-.29-.13.25.16.52,0,.8.45-.42.24-.33.57-1.14l0,.37c.11-.33.13-.51.35-.59-.19.31.1.58-.12,1,.39.84.71-.77.84.43.27-1-.35-.6-.22-.81-.08-.34.22-.75.35-.64s.15,1.32.51,1.33c0,0,0,.07-.07.06.11.27.28-.33.42.1.13-.61.21.05.29-.74l-.34.16c.2-.19.43-1.1.71-.64a1.93,1.93,0,0,1-.21.48c.07.24.18-.14.26.1-.08.79-.41.15-.65.74.07.34.41-.55.26.3.21-1.08.34.16.64-.66l0,.48c0-.08.14-.29.21-.28l-.17.61c.23-.51.35.48.55.21-.39,0-.05-.58-.19-.93.53-.61.2,1.25.75,1.06-.07.06-.25-.3-.12-.51a1.18,1.18,0,0,1,.27.54c.36-.07,0-.49.14-.77.09.59.2-.22.37-.39l0,.48c.39.33.17-1,.52-.6l-.2.66.2-.16-.08.54c.24-.39.3-.28.49-.11,0-.35.09-.88.27-.88.11.29-.1.45.16.4-.07.3-.16.67-.25.22,0,.16-.07.3-.1.45.12.34.34.1.43.1a.15.15,0,0,1-.09-.12l.41-.64a.73.73,0,0,1-.06.47c.08,0,.14-.27.26-.3a2.1,2.1,0,0,1-.25,1l.39-.41c0,.17.15.47.09.62.19.24.54-.73.78-.41a.36.36,0,0,1,.11-.2c.24.11.43.6.75.08l.12.72c.24-.15-.16-.9.23-1.14s.06.6.15.8c.15-.34.43-1,.64-.46C226.43,86.71,226.37,86.6,226.29,86.65Zm2.84-.13c-.06.1-.19.41-.21.12C229,86.09,229.05,86.36,229.13,86.52Zm4.35-.87c0,.15-.11.07-.16-.12C233.37,85.5,233.43,85.52,233.48,85.65Zm12.14-2.57v0C245.5,82.91,245.54,83,245.62,83.08Zm.24.23a.35.35,0,0,0,0-.2c0,.12-.08.12-.14.08C245.75,83.32,245.78,83.41,245.86,83.31Zm-27.14-1.6.05.13C218.65,82,218.68,81.84,218.72,81.71Z" transform="translate(-152.06 -11.13)"/><path class="b" d="M233,86.27a2.25,2.25,0,0,1,0-.26A.33.33,0,0,0,233,86.27Z" transform="translate(-152.06 -11.13)"/><path class="b" d="M224.53,86.79h0a.28.28,0,0,0,0,.09Z" transform="translate(-152.06 -11.13)"/><path class="b" d="M241.68,87.13a.68.68,0,0,1-.09-.25C241.58,87,241.6,87.09,241.68,87.13Z" transform="translate(-152.06 -11.13)"/><path class="b" d="M247.25,82.58l-.17.11c.08,0,.1.09.14.17C247.22,82.75,247.2,82.58,247.25,82.58Z" transform="translate(-152.06 -11.13)"/><path class="b" d="M248.46,85.65c0-.06,0,0,.08-.06v-.23A.18.18,0,0,0,248.46,85.65Z" transform="translate(-152.06 -11.13)"/><path class="b" d="M247.29,84.19c0,.4.1.27.22.2s0,0,0,0C247.56,83.83,247.43,84,247.29,84.19Z" transform="translate(-152.06 -11.13)"/><path class="b" d="M247.54,84.38a.12.12,0,0,1,.1,0C247.67,84.15,247.6,84.33,247.54,84.38Z" transform="translate(-152.06 -11.13)"/><path class="b" d="M246.2,83.06c0,.11.06-.52.08-.35C246.38,82.2,245.88,83.31,246.2,83.06Z" transform="translate(-152.06 -11.13)"/><polygon class="b" points="95.24 74.39 95.23 73.89 95.14 74.29 95.24 74.39"/><path class="b" d="M246.43,85.1l.17.15a.26.26,0,0,1,.06-.17C246.55,85.06,246.43,85,246.43,85.1Z" transform="translate(-152.06 -11.13)"/><path class="b" d="M246.66,85.08a.11.11,0,0,0,.15-.07A.25.25,0,0,0,246.66,85.08Z" transform="translate(-152.06 -11.13)"/><polygon class="b" points="94.98 74.53 94.94 74.42 94.81 74.38 94.98 74.53"/><path class="b" d="M244.49,84.88l-.21.13c0,.17,0,.27.09.21S244.51,85,244.49,84.88Z" transform="translate(-152.06 -11.13)"/><path class="b" d="M245,86.28a1.59,1.59,0,0,1-.06-.38l0,.62Z" transform="translate(-152.06 -11.13)"/><path class="b" d="M244.41,86.39c0,.17-.32.48-.07.45C244.37,86.67,244.58,86.54,244.41,86.39Z" transform="translate(-152.06 -11.13)"/><polygon class="b" points="89.43 74.28 89.48 74.27 89.54 73.26 89.43 74.28"/><path class="b" d="M238.7,87.67c.22.26.1-.62.29-.31.07-.23-.16-.26-.09-.46C238.74,87.14,238.68,87,238.7,87.67Z" transform="translate(-152.06 -11.13)"/><path class="b" d="M238.9,86.9a1,1,0,0,0,.08-.15A1.15,1.15,0,0,0,238.9,86.9Z" transform="translate(-152.06 -11.13)"/><polygon class="b" points="57.51 69.45 57.37 69.23 57.45 69.58 57.51 69.45"/><path class="b" d="M209.23,81.32v-.65l-.13.58S209.21,81.17,209.23,81.32Z" transform="translate(-152.06 -11.13)"/><path class="b" d="M229.46,87.86l0-.16c0-.17,0-.18-.11-.22Z" transform="translate(-152.06 -11.13)"/><polygon class="b" points="75.39 76.1 75.43 76.12 75.4 75.53 75.39 76.1"/><path class="b" d="M225.69,87.87c.07,0,.16-.1.23-.07C225.76,87.9,225.72,87.14,225.69,87.87Z" transform="translate(-152.06 -11.13)"/><path class="b" d="M270.11,107.57c.08,0,.08-.38.1-.45C270.07,107.2,270.11,107.68,270.11,107.57Z" transform="translate(-152.06 -11.13)"/><polygon class="b" points="116.65 97.28 116.68 97.12 116.45 97.52 116.65 97.28"/><path class="b" d="M267.45,108.32c.07.72.46-.08.67.19l0,.16.14-.56C268,108.18,267.63,108.53,267.45,108.32Z" transform="translate(-152.06 -11.13)"/><path class="b" d="M266.89,106.73c0,.28-.16.23.15.1a.64.64,0,0,0,0-.07A.28.28,0,0,1,266.89,106.73Z" transform="translate(-152.06 -11.13)"/><path class="b" d="M267,106.76c.13,0-.07-.24,0,0Z" transform="translate(-152.06 -11.13)"/><path class="b" d="M266.4,106.87l.19-.23c0-.17-.18-.22-.11-.33C266.29,106.43,266.32,106.59,266.4,106.87Z" transform="translate(-152.06 -11.13)"/><path class="b" d="M266.2,107.38l.09-.1C266.28,107.21,266.26,107.19,266.2,107.38Z" transform="translate(-152.06 -11.13)"/><path class="b" d="M266.5,107.07l-.21.21c0,.12,0,.35.1-.07C266.36,107.42,266.41,107.22,266.5,107.07Z" transform="translate(-152.06 -11.13)"/><path class="b" d="M266.6,107.19c.09.16.21.27,0,.5C267,107.62,266.94,107.11,266.6,107.19Z" transform="translate(-152.06 -11.13)"/><path class="b" d="M267.33,109.05l.12.22.13-.23C267.51,109.15,267.34,108.83,267.33,109.05Z" transform="translate(-152.06 -11.13)"/><path class="b" d="M265.34,106.42c0,.15,0,.41,0,.61l.14-.17A.69.69,0,0,1,265.34,106.42Z" transform="translate(-152.06 -11.13)"/><path class="b" d="M265.37,107l-.21.24C265.33,107.32,265.37,107.19,265.37,107Z" transform="translate(-152.06 -11.13)"/><polygon class="b" points="114.05 97.03 114.41 96.51 113.99 97.04 114.05 97.03"/><polygon class="b" points="112.55 95.22 112.69 94.88 112.45 95.39 112.55 95.22"/><path class="b" d="M264.12,106.38c.1-.29-.08-.5,0-.67-.13,0-.26.28-.38.5C263.87,106.09,264,106.13,264.12,106.38Z" transform="translate(-152.06 -11.13)"/><path class="b" d="M263.56,106.52a2.41,2.41,0,0,0,.2-.31A.82.82,0,0,0,263.56,106.52Z" transform="translate(-152.06 -11.13)"/><path class="b" d="M264.84,107.17a.86.86,0,0,0-.12-.44l0,.43Z" transform="translate(-152.06 -11.13)"/><path class="b" d="M264.76,107.18v0l-.16,0Z" transform="translate(-152.06 -11.13)"/><path class="b" d="M264.86,107.18h0S264.85,107.23,264.86,107.18Z" transform="translate(-152.06 -11.13)"/><path class="b" d="M265.63,107.74c-.13.23-.38.47-.18.85C265.55,108.31,265.44,108.09,265.63,107.74Z" transform="translate(-152.06 -11.13)"/><path class="b" d="M264.91,107.72l.2.11a.87.87,0,0,1,0-.39Z" transform="translate(-152.06 -11.13)"/><polygon class="b" points="112.75 96.71 112.86 96.58 112.78 96.54 112.75 96.71"/><path class="b" d="M263.88,106.94a.36.36,0,0,1-.31.21.59.59,0,0,0,.35.16C263.94,107.17,264,106.94,263.88,106.94Z" transform="translate(-152.06 -11.13)"/><path class="b" d="M264.31,107.09s0,0,0,0S264.31,107.17,264.31,107.09Z" transform="translate(-152.06 -11.13)"/><path class="b" d="M262.5,107.07s0,.06,0,.08a.17.17,0,0,0,0-.07Z" transform="translate(-152.06 -11.13)"/><path class="b" d="M263.93,107.39c.08.09.14,0,.2-.14a.42.42,0,0,1-.21.06C263.9,107.37,263.9,107.41,263.93,107.39Z" transform="translate(-152.06 -11.13)"/><path class="b" d="M263.25,106.7a1.36,1.36,0,0,0,.13.24C263.35,106.8,263.27,106.59,263.25,106.7Z" transform="translate(-152.06 -11.13)"/><path class="b" d="M264.27,107a0,0,0,0,1,0,0C264.26,106.89,264.26,106.93,264.27,107Z" transform="translate(-152.06 -11.13)"/><path class="b" d="M264.27,107a1.17,1.17,0,0,0-.14.25.48.48,0,0,0,.16-.13A.43.43,0,0,1,264.27,107Z" transform="translate(-152.06 -11.13)"/><path class="b" d="M262,109.79c0-.4.3-.75.47-.31a5.25,5.25,0,0,0,.06-2.33.77.77,0,0,1-.25.55c.06.22.41.54.22.88-.28.19-.21-.15-.33-.37.08.5-.39.69-.38,1.42l.25-.24C262,109.5,261.92,109.68,262,109.79Z" transform="translate(-152.06 -11.13)"/><path class="b" d="M262.89,107.22l.09,0a1.33,1.33,0,0,1-.25-.56.87.87,0,0,0-.21.46l.41.08Z" transform="translate(-152.06 -11.13)"/><path class="b" d="M263.35,107.2c-.09.43-.31.6-.22,1.07.25,0,.2-.35.36-.52-.4.08.13-.23-.14-.5a.52.52,0,0,1,.22-.1,1,1,0,0,1-.19-.21v0h0s0,.08,0,0a0,0,0,0,1,0,0,.76.76,0,0,1,0,.16c-.1-.1,0-.11,0-.16a.13.13,0,0,0,0-.06h0l-.41.21C263.06,107.24,263.16,107.24,263.35,107.2Z" transform="translate(-152.06 -11.13)"/><path class="b" d="M265.17,109.5a.33.33,0,0,1,0-.1S265.13,109.49,265.17,109.5Z" transform="translate(-152.06 -11.13)"/><path class="b" d="M265,109.23c0-.06.07-.23.16-.18s0,.21,0,.35c.06-.11.22-.29.05-.51l0,0a1.65,1.65,0,0,1-.28-.77A6.37,6.37,0,0,0,265,109.23Z" transform="translate(-152.06 -11.13)"/><path class="b" d="M264.17,108.33l-.34.18.14.39v-.23C264.16,108.77,264.14,108.5,264.17,108.33Z" transform="translate(-152.06 -11.13)"/><polygon class="b" points="110.42 95.72 110.5 95.27 110.26 95.9 110.42 95.72"/><polygon class="b" points="109.99 95.75 110.04 95.35 109.91 95.58 109.99 95.75"/><path class="b" d="M237.65,110l-.11.1A.36.36,0,0,0,237.65,110Z" transform="translate(-152.06 -11.13)"/><path class="b" d="M238.34,110.11l0-.2C238.33,110,238.32,110.1,238.34,110.11Z" transform="translate(-152.06 -11.13)"/><path class="b" d="M251.58,106.16c-.11-.38-.23-1-.24-.51v.43C251.45,106,251.52,106.07,251.58,106.16Z" transform="translate(-152.06 -11.13)"/><path class="b" d="M244.23,108.23l0,.13c0-.15.08-.28.12-.41C244.34,108,244.28,108.13,244.23,108.23Z" transform="translate(-152.06 -11.13)"/><path class="b" d="M244,110l-.17-.29A1.1,1.1,0,0,0,244,110Z" transform="translate(-152.06 -11.13)"/><path class="b" d="M233.81,110.21l-.15.43C233.84,110.65,233.78,110.43,233.81,110.21Z" transform="translate(-152.06 -11.13)"/><path class="b" d="M257.67,106.72a.6.6,0,0,0-.28-.28C257.52,106.7,257.61,107.08,257.67,106.72Z" transform="translate(-152.06 -11.13)"/><path class="b" d="M238.26,105.46a.41.41,0,0,0-.11.25A.34.34,0,0,0,238.26,105.46Z" transform="translate(-152.06 -11.13)"/><path class="b" d="M257,106.41a1.09,1.09,0,0,0,.06.11.32.32,0,0,1,.29-.08C257.3,106.25,257.18,106.12,257,106.41Z" transform="translate(-152.06 -11.13)"/><path class="b" d="M220,108.85a.33.33,0,0,1,0-.06C220,108.85,220,108.86,220,108.85Z" transform="translate(-152.06 -11.13)"/><path class="b" d="M216.31,104.19s.1,0,.17,0S216.4,104.13,216.31,104.19Z" transform="translate(-152.06 -11.13)"/><path class="b" d="M260.35,106.57c.09,0,0,0,0,0Z" transform="translate(-152.06 -11.13)"/><path class="b" d="M260.66,108.31a.71.71,0,0,0-.05.21A.91.91,0,0,1,260.66,108.31Z" transform="translate(-152.06 -11.13)"/><path class="b" d="M255.94,109h0C256,109.13,256,109.11,255.94,109Z" transform="translate(-152.06 -11.13)"/><path class="b" d="M260.47,106.77a.47.47,0,0,0-.11-.13A.53.53,0,0,0,260.47,106.77Z" transform="translate(-152.06 -11.13)"/><path class="b" d="M260.47,106.57l.07,0C260.56,106.54,260.55,106.5,260.47,106.57Z" transform="translate(-152.06 -11.13)"/><path class="b" d="M260.22,106.58a.2.2,0,0,1,.14.06s0-.06,0-.07Z" transform="translate(-152.06 -11.13)"/><path class="b" d="M227.5,108.23s0,0,0,0C227.38,108.36,227.42,108.33,227.5,108.23Z" transform="translate(-152.06 -11.13)"/><path class="b" d="M248.9,110.49a0,0,0,0,0,0,0v0Z" transform="translate(-152.06 -11.13)"/><path class="b" d="M248.55,110.78c.18-.52.26-.45.35-.33l0-1.26Z" transform="translate(-152.06 -11.13)"/><path class="b" d="M236,110l.2.41c-.32.62-.51.38-.33.94.13-1.35.89-.07,1-1.42l.13.29s-.05.07-.09,0c.24.67.29-1,.65-.74a.38.38,0,0,1,.1.47l.31-.32c.09,0,0,.27,0,.24l.45-.08v0a5.78,5.78,0,0,1,.33-.66c.1.2-.06.14,0,.31l.27-.31c.08.36-.15.69-.32.62.13,1.37.23-.32.67.5l-.24.16c.09.78.29.51.52,1,0-.25-.44-1.24-.15-1.56.07.11.17.16.33-.1,0,.48.12.37.3.36l-.06.64c.2-.17.21-.5.34-.78.21.08.22.58.24,1,.33.12-.18-.81.24-.9.26.26.48,0,.85-.34.18.23-.07.38,0,.57l.21-.49s0,.17,0,.25c.16-.19.06-.64.3-.8.12-.7.41,1.06.75.29.06.18-.06.39-.06.63a3.39,3.39,0,0,0,.75-1l.24.44a1.88,1.88,0,0,1,.4-1.49c-.06-.24-.11-.45-.14-.55l.39-.31a1.37,1.37,0,0,1-.1.58,1.09,1.09,0,0,0,.08-.15,1.45,1.45,0,0,1-.1,1c0-.13-.07-.26-.1-.4a4.13,4.13,0,0,0-.24,1.18.3.3,0,0,1,.13-.16.69.69,0,0,0-.05.26c0,.06.06-.07.13-.23l0,.71,0-.28.44.48c.39-.69.77-1.72,1.33-2a6,6,0,0,0-.15,1.46c-.1-.66-.43.25-.7.1.14.08.08.37,0,.47l.54-.56c-.05.5.08.39.19.6,0-1,.42-.63.65-.93,0,.34-.09.68-.33.58.22.77.44-1.15.66-.49-.06,0-.09,0-.12.12.16-.29.49,0,.38.26h-.06a1,1,0,0,0,1.35-.74c0,.1-.13,1-.17,1.18l.93-2.8c-.12.73,0,2.48-.37,2.87.09.11.2.24.42,0a2.8,2.8,0,0,1,0-1.12,4.93,4.93,0,0,0,.39,1.16c-.09-.17.1-1.3.26-1.25,0,.17-.07,1.13-.14,1.24l.47-1.09a3.12,3.12,0,0,0,0,1.27c0-.22.33,0,.45-.06l-.15-.27c.42.2.54-1.55,1-1.46-.07.23-.23,1.42,0,1.58a11.81,11.81,0,0,1,1.06-3.15l0,.34.32-.36a29.16,29.16,0,0,1-1.21,3.32c.14.27,0,.39.26.38a.38.38,0,0,1-.24.47l.55.24c0-.67.48-.64.5-1.2l-.66.65c0-.67.49-1.88.88-1.73a6.4,6.4,0,0,1-.17,1.41c.07-.22.41-.41.44-.24l-.2.34c.21.27.43-.86.65-.2.09,0,.22.88.26.49a19.25,19.25,0,0,1,.19-3.72,5.39,5.39,0,0,1,.51,1.16c.11.61-.33,1.41-.24,1.93a1.49,1.49,0,0,1,.16-.47c.09.17-.08.57.14.5.08-.68.43.09.14-.57.22-.18.21.16.46.15a3,3,0,0,1,.54-1.66,2.53,2.53,0,0,0,0,.5c.42.09.63.42,1,.45,0,.17.2.38.1.67.07-.11.14-.34.26-.35.19.61-.28.07-.15.79,0-.39.35-.52.55-.75,0-.62-.4-.15-.59.08a3.18,3.18,0,0,1,.87-2.06c.34-.18.1.56.17.44.6.19.63-1.43,1.1-.78a4.82,4.82,0,0,1,0,1.45c-.29.19-.39-.37-.57-.36l.2.27c-.1.17-.28.3-.37.13.14.5,1,.17,1.48.65.1-.17.26-.35.2-.57l-.15.06c-.11-.44.32-.57.15-.79.22-.29.48-.75.75-.48v.61c0-.18-.16-.38-.25-.2.13-.26.37.86.56.07l-.17-.44c.23-.29.52-.92.76-.71-.07-.61-.06.07-.19-.65.09.89-.64-.09-.46.86-.12-.84-.29-.38-.48-1.09,0,.2.06.39-.15.27a.76.76,0,0,1-.06.18s0,0,0,0v0s0,0,0,0a.8.8,0,0,1,.09.31c-.14.46-.48.42-.61.65-.11-.11.07-.23,0-.45l-.2.35c0-.45-.28-.77,0-1l-.27,0c-.13-.26-.34-.38-.49-.2-.12-.11-.35.47-.22.13l-.43.25v-.12c-.41-.08-.9.68-1.31-.16-.15.1-.3.23-.53.09v-.39c-.19.12-.51-.43-.62,0-.11-1.06-.84-.29-1.14-.5l-.05.51c-.21,0-.43.08-.71.26l0,.45c-.26.35-.57-.36-.94-.34,0-.17.13-.12.19,0-.37-1-1,.67-1.32-.1-.11.16-.18.1-.24,0l0,0h0l-.12-.25a.9.9,0,0,0,.1.25.53.53,0,0,0-.32.16v-.49h0c-.1-.18-.1.22-.07.59a1.48,1.48,0,0,0-.17.28c0-.78-.32.24-.38-.6-.11.4-.59.27-.71,1.11,0-.11,0-.17,0-.17-.11-.11-.23-.21-.36,0v-.61l-.34.8a1.19,1.19,0,0,1,0-1.07c-.45.7-.34.25-.74.94l0-.39c-.12,0-.36.52-.41.19-.22-.77-1.34-.2-2-1,.06,1.17-.28-.55-.38.35,0-.27-.1-.44,0-.67-.38.25-.51-.47-.81.27,0-.28.11-.4.08-.56,0,0-.13.23-.15.06s.07-.23.13-.34c-.37,0-.46.86-.55,1.66-.16-.39-.25-.35-.42.16,0-.26-.14-.54.1-.62-.13-.05-.75-.44-.81.2,0-.16-.18-.06-.22,0-.28-.06-.3-.12-.58-.08l.07.11c-.17.76-.25.16-.48.23v-.07c-.48-.6-.24.24-.71-.43V107c-.12,1-.41-.64-.73-.26l.09.28c-.19.34-.36-1.43-.51-1.57s.07-.14.12-.21c-.38-.63-.1.63-.43.75,0-.34.14-.86-.07-.93-.09-.29-.7,1-.94.38,0,.26.09.53-.08.71s-.54-1-.8-.22a.76.76,0,0,1,0-.21c-.18.2-.58.31-.72.75,0-1.66-1.13.73-1-.8l-.54,0,0-.16c-.33-.12-.48.23-.63.59-.07-.11,0-.25,0-.33-.47-.34-.53-.28-1,.45v-.5c-.13.28-.66-.82-1.19-.28a.7.7,0,0,1,.07-.22c-.59.54-1.21-1.47-1.54.32l-.4.41c.46.18-.12.78,0,1.09-.19.1-.44-.57-.21-.65l0,.09c.16-.93-.55-.37-.49-1a26.31,26.31,0,0,1-2.65-.71l.05.74-.3-.07c-.07-.17-.06-.57.15-.53-.09-.42-.39.32-.41.48-.39-.33.23-.84.1-.87l-.18,0,0,.08c-.17.29-.2.61-.46.55s-.05-.45-.11-.49,0-.07-.1,0l-.37-.09.11.58c-.19.27-.36,0-.23.61-.18-1-1.39-.46-1.52-.79a.6.6,0,0,1-.78.31c.06.13,0,.78-.19.68.19-1.33-.41-.61-.54-1.59.13.65-.72.11-.5,1-.2-.12,0-.5-.11-.82-.53.48-1.07-.42-1.69-.29a1.41,1.41,0,0,1-.09.7l-.26-.9c-.12.08-.18,1-.36.38,0,.15.06.38,0,.43-1.13-.94-2.49.52-3.59-1.17.14.35,0,.37-.09.38.07.08,0,.43,0,.67l-.46-.7c-.14.65-.55,0-.64.63l.16-.1c-.26.73.18,1.68.08,2.63.3-.83.54,1.3,1,.12.08.2-.09.3-.06.53.13-.41.25-.48.46-.28l0,.1c.63-.06.87.36,1.56.68l0-.47c.14.07.17.22.23.35.22-.71-.42-.07-.21-.85.13,1,1.07.09,1.12,1.19.23,0,0-.55.21-.53l0,.3.08-.37c.15.07.2.45.19.7,0,0-.11.06-.15.08.17.36.56-.08.62,0l-.21-.2c.66-.23,1.4.21,2.06-.34l0-.23c.5-.38.35.27.88.12l0,.05c.12-.21.26-.32.4-.28-.15.25.21.52,0,.8.54-.41.28-.33.67-1.13l.05.37c.14-.32.16-.5.43-.58-.24.31.12.58-.15,1,.48.85.86-.76,1,.44.32-1-.42-.6-.27-.81-.09-.34.26-.75.42-.63s.2,1.33.63,1.34c0,0,0,.07-.09.06.14.27.34-.33.51.11.16-.61.26.05.35-.73l-.41.15c.24-.19.51-1.1.85-.62a1.51,1.51,0,0,1-.25.47c.09.24.22-.14.32.11-.09.78-.5.13-.78.72.09.34.5-.54.31.3.26-1.07.42.17.77-.64l-.05.48c.05-.08.16-.29.25-.27l-.2.6c.27-.51.42.49.67.22-.48,0-.07-.58-.24-.94.63-.59.25,1.27.92,1.09-.09.06-.31-.31-.16-.52a1.12,1.12,0,0,1,.33.55c.44-.06,0-.49.18-.77.1.59.23-.22.43-.39l0,.49c.47.34.2-1,.62-.59l-.23.65.24-.15-.09.54c.29-.39.36-.28.59-.11,0-.34.1-.87.32-.87.13.3-.12.46.2.41-.09.3-.2.67-.3.21,0,.16-.09.3-.12.46.14.34.4.1.52.1a.23.23,0,0,1-.12-.12l.5-.63a.55.55,0,0,1-.07.46c.09,0,.17-.26.31-.29-.06.39-.08.79-.29,1l.47-.4c0,.17.18.48.12.62.22.25.64-.71.93-.39a.35.35,0,0,1,.13-.19c.29.11.52.61.92.1l.14.71c.29-.14-.2-.9.28-1.13s.07.61.17.81c.19-.34.53-1,.78-.45C236.14,110.1,236.07,110,236,110Zm3.43-.06c-.08.09-.23.4-.26.11C239.26,109.53,239.3,109.8,239.4,110Zm5.26-.78c-.06.15-.13.07-.2-.12C244.52,109,244.59,109.06,244.66,109.19Zm14.67-2.3v0C259.19,106.71,259.23,106.79,259.33,106.89Zm.29.23a.35.35,0,0,0,0-.2c0,.12-.1.12-.18.08C259.49,107.13,259.52,107.22,259.62,107.12Zm-32.85-2.2,0,.13C226.68,105.18,226.73,105.06,226.77,104.92Z" transform="translate(-152.06 -11.13)"/><path class="b" d="M244,109.8a.75.75,0,0,1,0-.26A.27.27,0,0,0,244,109.8Z" transform="translate(-152.06 -11.13)"/><path class="b" d="M233.83,110.13h0a.28.28,0,0,0,0,.09Z" transform="translate(-152.06 -11.13)"/><path class="b" d="M254.59,110.85a.56.56,0,0,1-.11-.26C254.47,110.71,254.49,110.81,254.59,110.85Z" transform="translate(-152.06 -11.13)"/><path class="b" d="M261.3,106.42l-.21.11c.1,0,.13.09.17.17C261.26,106.59,261.24,106.42,261.3,106.42Z" transform="translate(-152.06 -11.13)"/><path class="b" d="M262.78,109.52c0-.06.06,0,.1-.06v-.23A.17.17,0,0,0,262.78,109.52Z" transform="translate(-152.06 -11.13)"/><path class="b" d="M261.36,108c0,.4.12.28.27.21,0,0,0,0,0,0C261.68,107.68,261.52,107.85,261.36,108Z" transform="translate(-152.06 -11.13)"/><path class="b" d="M261.66,108.23a.15.15,0,0,1,.13,0C261.82,108,261.74,108.18,261.66,108.23Z" transform="translate(-152.06 -11.13)"/><path class="b" d="M260,106.88c.05.11.08-.52.1-.35C260.24,106,259.65,107.12,260,106.88Z" transform="translate(-152.06 -11.13)"/><polygon class="b" points="109.32 98.24 109.31 97.73 109.2 98.13 109.32 98.24"/><path class="b" d="M260.32,108.93l.21.15a.22.22,0,0,1,.07-.17C260.47,108.89,260.33,108.78,260.32,108.93Z" transform="translate(-152.06 -11.13)"/><path class="b" d="M260.6,108.91a.14.14,0,0,0,.18-.07A.46.46,0,0,0,260.6,108.91Z" transform="translate(-152.06 -11.13)"/><polygon class="b" points="109.01 98.37 108.95 98.26 108.8 98.21 109.01 98.37"/><path class="b" d="M258,108.66l-.25.12c0,.17,0,.28.12.22S258,108.83,258,108.66Z" transform="translate(-152.06 -11.13)"/><path class="b" d="M258.6,110.08a1,1,0,0,1-.08-.39l0,.62Z" transform="translate(-152.06 -11.13)"/><path class="b" d="M257.89,110.17c0,.17-.39.47-.08.45C257.85,110.45,258.1,110.33,257.89,110.17Z" transform="translate(-152.06 -11.13)"/><polygon class="b" points="102.28 97.99 102.34 97.99 102.41 96.97 102.28 97.99"/><path class="b" d="M251,111.33c.26.26.11-.63.34-.3.09-.24-.19-.27-.1-.47C251,110.8,251,110.65,251,111.33Z" transform="translate(-152.06 -11.13)"/><path class="b" d="M251.23,110.56a.66.66,0,0,0,.09-.15A.42.42,0,0,0,251.23,110.56Z" transform="translate(-152.06 -11.13)"/><polygon class="b" points="63.62 92.46 63.46 92.24 63.55 92.59 63.62 92.46"/><path class="b" d="M215.28,104.32v-.65l-.15.58S215.25,104.17,215.28,104.32Z" transform="translate(-152.06 -11.13)"/><path class="b" d="M239.81,111.31l0-.16c0-.17-.05-.18-.14-.21Z" transform="translate(-152.06 -11.13)"/><polygon class="b" points="85.31 99.51 85.36 99.53 85.32 98.94 85.31 99.51"/><path class="b" d="M235.24,111.24c.09,0,.19-.09.28-.06C235.33,111.27,235.27,110.51,235.24,111.24Z" transform="translate(-152.06 -11.13)"/><path class="b" d="M187.43,120.78c-.07,0-.08.38-.1.45C187.46,121.15,187.44,120.67,187.43,120.78Z" transform="translate(-152.06 -11.13)"/><polygon class="b" points="36.67 108.81 36.64 108.98 36.85 108.58 36.67 108.81"/><path class="b" d="M189.86,120.06c0-.72-.42.08-.6-.2l0-.16-.14.56C189.35,120.2,189.71,119.85,189.86,120.06Z" transform="translate(-152.06 -11.13)"/><path class="b" d="M190.32,121.65c0-.28.15-.22-.13-.1,0,0,0,0,0,.08A.17.17,0,0,1,190.32,121.65Z" transform="translate(-152.06 -11.13)"/><path class="b" d="M190.21,121.63c-.12,0,0,.24,0,0Z" transform="translate(-152.06 -11.13)"/><path class="b" d="M190.77,121.52l-.18.23c0,.17.16.22.09.33C190.86,122,190.84,121.8,190.77,121.52Z" transform="translate(-152.06 -11.13)"/><path class="b" d="M191,121l-.09.1C190.89,121.18,190.91,121.21,191,121Z" transform="translate(-152.06 -11.13)"/><path class="b" d="M190.69,121.32l.19-.21c0-.12,0-.35-.09.07C190.83,121,190.77,121.17,190.69,121.32Z" transform="translate(-152.06 -11.13)"/><path class="b" d="M190.6,121.2c-.08-.16-.18-.27,0-.5C190.29,120.77,190.29,121.27,190.6,121.2Z" transform="translate(-152.06 -11.13)"/><path class="b" d="M190,119.33l-.1-.22-.12.23C189.83,119.23,190,119.55,190,119.33Z" transform="translate(-152.06 -11.13)"/><path class="b" d="M191.72,122c0-.15,0-.41,0-.6l-.13.16A.76.76,0,0,1,191.72,122Z" transform="translate(-152.06 -11.13)"/><path class="b" d="M191.71,121.38l.2-.25C191.75,121.09,191.71,121.21,191.71,121.38Z" transform="translate(-152.06 -11.13)"/><polygon class="b" points="39.02 109.09 38.68 109.61 39.07 109.09 39.02 109.09"/><polygon class="b" points="40.32 110.93 40.19 111.27 40.41 110.75 40.32 110.93"/><path class="b" d="M192.82,122c-.1.28.06.5,0,.67.13,0,.25-.28.37-.49C193,122.33,192.93,122.29,192.82,122Z" transform="translate(-152.06 -11.13)"/><path class="b" d="M193.33,121.9a1.52,1.52,0,0,0-.18.32A1.63,1.63,0,0,0,193.33,121.9Z" transform="translate(-152.06 -11.13)"/><path class="b" d="M192.19,121.24a.93.93,0,0,0,.1.44l0-.43Z" transform="translate(-152.06 -11.13)"/><path class="b" d="M192.26,121.23v0a.48.48,0,0,1,.15,0Z" transform="translate(-152.06 -11.13)"/><path class="b" d="M192.18,121.23h0S192.19,121.18,192.18,121.23Z" transform="translate(-152.06 -11.13)"/><path class="b" d="M191.49,120.66c.13-.23.36-.47.19-.85C191.58,120.09,191.68,120.31,191.49,120.66Z" transform="translate(-152.06 -11.13)"/><path class="b" d="M192.14,120.69l-.17-.11a1,1,0,0,1-.05.39Z" transform="translate(-152.06 -11.13)"/><polygon class="b" points="40.19 109.43 40.09 109.56 40.15 109.6 40.19 109.43"/><path class="b" d="M193.05,121.48a.34.34,0,0,1,.29-.21.55.55,0,0,0-.31-.16C193,121.25,192.94,121.48,193.05,121.48Z" transform="translate(-152.06 -11.13)"/><path class="b" d="M192.67,121.32l0,0S192.68,121.25,192.67,121.32Z" transform="translate(-152.06 -11.13)"/><path class="b" d="M194.31,121.36a.17.17,0,0,1,0-.07.15.15,0,0,0,0,.07Z" transform="translate(-152.06 -11.13)"/><path class="b" d="M193,121c-.07-.09-.13,0-.18.14a.33.33,0,0,1,.19-.06C193,121.05,193.05,121,193,121Z" transform="translate(-152.06 -11.13)"/><path class="b" d="M193.62,121.73a1.15,1.15,0,0,0-.12-.25C193.53,121.62,193.59,121.84,193.62,121.73Z" transform="translate(-152.06 -11.13)"/><path class="b" d="M192.71,121.42l0,0C192.71,121.53,192.71,121.49,192.71,121.42Z" transform="translate(-152.06 -11.13)"/><path class="b" d="M192.71,121.42c0-.06.08-.16.13-.25a.45.45,0,0,0-.15.13S192.7,121.38,192.71,121.42Z" transform="translate(-152.06 -11.13)"/><path class="b" d="M194.86,118.66c-.06.39-.3.74-.44.3a5.73,5.73,0,0,0-.12,2.33.76.76,0,0,1,.24-.55c0-.22-.36-.54-.17-.88.26-.19.18.15.28.37-.05-.5.37-.68.39-1.41l-.24.23C194.81,118.94,194.9,118.77,194.86,118.66Z" transform="translate(-152.06 -11.13)"/><path class="b" d="M194,121.21l-.07,0a1.53,1.53,0,0,1,.2.56.85.85,0,0,0,.21-.45l-.37-.09Z" transform="translate(-152.06 -11.13)"/><path class="b" d="M193.54,121.22c.1-.42.29-.58.23-1.06-.23,0-.19.34-.34.52.37-.07-.12.23.11.5a.43.43,0,0,1-.2.09,1.16,1.16,0,0,1,.16.21v0h0s0-.09,0,0a0,0,0,0,1,0,0l0-.16c.09.1,0,.11,0,.16a.13.13,0,0,0,0,.06h0l.38-.21C193.81,121.19,193.71,121.19,193.54,121.22Z" transform="translate(-152.06 -11.13)"/><path class="b" d="M192,118.91v.1C192,119,192,118.92,192,118.91Z" transform="translate(-152.06 -11.13)"/><path class="b" d="M192.08,119.18c0,.06-.07.23-.15.17s0-.2,0-.34a.45.45,0,0,0-.07.51l0-.06a1.79,1.79,0,0,1,.23.77A6.18,6.18,0,0,0,192.08,119.18Z" transform="translate(-152.06 -11.13)"/><path class="b" d="M192.83,120.09l.31-.18-.11-.39v.23C192.86,119.65,192.87,119.92,192.83,120.09Z" transform="translate(-152.06 -11.13)"/><polygon class="b" points="42.26 110.45 42.18 110.9 42.41 110.27 42.26 110.45"/><polygon class="b" points="42.65 110.43 42.6 110.82 42.73 110.59 42.65 110.43"/><path class="b" d="M216.88,118.71l.1-.11A.26.26,0,0,0,216.88,118.71Z" transform="translate(-152.06 -11.13)"/><path class="b" d="M216.25,118.62l0,.19C216.26,118.71,216.28,118.63,216.25,118.62Z" transform="translate(-152.06 -11.13)"/><path class="b" d="M204.16,122.4c.1.38.18,1,.21.52v-.43C204.28,122.56,204.21,122.5,204.16,122.4Z" transform="translate(-152.06 -11.13)"/><path class="b" d="M210.88,120.43l0-.14c0,.15-.09.28-.12.41A1.82,1.82,0,0,1,210.88,120.43Z" transform="translate(-152.06 -11.13)"/><path class="b" d="M211.13,118.65l.14.29A1,1,0,0,0,211.13,118.65Z" transform="translate(-152.06 -11.13)"/><path class="b" d="M220.36,118.57l.14-.43C220.34,118.13,220.39,118.36,220.36,118.57Z" transform="translate(-152.06 -11.13)"/><path class="b" d="M198.67,121.77a.57.57,0,0,0,.24.29C198.81,121.8,198.73,121.42,198.67,121.77Z" transform="translate(-152.06 -11.13)"/><path class="b" d="M216.2,123.27a.49.49,0,0,0,.1-.26A.38.38,0,0,0,216.2,123.27Z" transform="translate(-152.06 -11.13)"/><path class="b" d="M199.23,122.09l0-.11c-.09.06-.17.12-.27.08C199,122.25,199.09,122.38,199.23,122.09Z" transform="translate(-152.06 -11.13)"/><path class="b" d="M232.8,120.1l0,.05C232.83,120.09,232.82,120.09,232.8,120.1Z" transform="translate(-152.06 -11.13)"/><path class="b" d="M236,124.8a.37.37,0,0,1-.15,0S235.94,124.85,236,124.8Z" transform="translate(-152.06 -11.13)"/><path class="b" d="M196.24,121.9c-.08,0,0,0,0,0Z" transform="translate(-152.06 -11.13)"/><path class="b" d="M196,120.15a.67.67,0,0,0,.06-.21A.79.79,0,0,1,196,120.15Z" transform="translate(-152.06 -11.13)"/><path class="b" d="M200.29,119.47h0C200.28,119.39,200.29,119.41,200.29,119.47Z" transform="translate(-152.06 -11.13)"/><path class="b" d="M196.14,121.69a.42.42,0,0,0,.09.14A.63.63,0,0,0,196.14,121.69Z" transform="translate(-152.06 -11.13)"/><path class="b" d="M196.13,121.89l-.06,0C196.05,121.92,196.05,122,196.13,121.89Z" transform="translate(-152.06 -11.13)"/><path class="b" d="M196.36,121.88a.17.17,0,0,1-.13,0s0,0,0,.07Z" transform="translate(-152.06 -11.13)"/><path class="b" d="M226,120.63s0,0,0,0C226.12,120.5,226.08,120.52,226,120.63Z" transform="translate(-152.06 -11.13)"/><path class="b" d="M206.71,118.12s0,0,0,0h0Z" transform="translate(-152.06 -11.13)"/><path class="b" d="M207,117.82c-.18.53-.24.45-.32.33l0,1.26Z" transform="translate(-152.06 -11.13)"/><path class="b" d="M218.4,118.72l-.17-.4c.31-.62.47-.38.32-.95-.15,1.35-.81.07-1,1.42l-.11-.3s.05-.06.08,0c-.2-.67-.28,1-.6.74a.4.4,0,0,1-.08-.47l-.3.31c-.07,0,0-.27,0-.24l-.41.07v0a5.12,5.12,0,0,1-.32.66c-.08-.2.07-.14.06-.31l-.26.31c0-.36.16-.69.31-.62-.08-1.37-.22.32-.59-.51l.23-.15c-.07-.78-.26-.52-.45-1,0,.26.36,1.25.09,1.57-.06-.11-.15-.17-.3.09,0-.48-.1-.37-.26-.36l.07-.64c-.19.17-.2.5-.33.77-.19-.08-.18-.58-.19-1-.3-.13.14.82-.24.9-.23-.27-.43,0-.78.33-.15-.24.07-.39,0-.58l-.21.5s0-.17,0-.25c-.15.18-.07.63-.3.79-.12.69-.33-1.07-.67-.3,0-.18.07-.38.07-.63a3.7,3.7,0,0,0-.7,1l-.21-.45a2.15,2.15,0,0,1-.39,1.49c0,.24.08.44.1.54l-.36.31a1.42,1.42,0,0,1,.11-.58,1.09,1.09,0,0,0-.08.15,1.61,1.61,0,0,1,.12-1c0,.13,0,.27.08.4a4.9,4.9,0,0,0,.25-1.17.34.34,0,0,1-.12.16A1,1,0,0,0,211,119c0-.07-.05.07-.12.23v-.72l-.05.28-.38-.48c-.38.68-.74,1.71-1.26,2a6,6,0,0,0,.17-1.47c.07.67.41-.24.65-.08-.13-.08-.07-.37,0-.47l-.51.55c.06-.51-.06-.39-.15-.61,0,1-.4.63-.61.92,0-.33.09-.67.31-.57-.18-.77-.43,1.14-.61.48,0,0,.08,0,.12-.12-.16.29-.45,0-.35-.26h.06a.88.88,0,0,0-1.24.73c0-.11.14-1,.18-1.19l-.91,2.79c.12-.72.07-2.47.41-2.85-.08-.12-.18-.25-.38,0a3,3,0,0,1,0,1.13,5.64,5.64,0,0,0-.32-1.17c.07.17-.13,1.3-.27,1.25,0-.17.1-1.13.16-1.24l-.45,1.09a3.54,3.54,0,0,0,0-1.28c0,.23-.3,0-.4.06l.12.27c-.37-.2-.53,1.54-.91,1.45.06-.23.25-1.42.06-1.58a13.08,13.08,0,0,1-1,3.13l0-.33-.3.35a33.17,33.17,0,0,1,1.2-3.3c-.13-.28,0-.4-.23-.39a.38.38,0,0,1,.23-.46l-.49-.25c0,.67-.46.64-.49,1.19l.62-.64c0,.67-.5,1.87-.85,1.72a8,8,0,0,1,.19-1.41c-.06.23-.38.41-.4.24l.19-.34c-.18-.27-.41.86-.6.19-.08,0-.17-.88-.22-.49a20.47,20.47,0,0,1-.27,3.71,5.46,5.46,0,0,1-.43-1.16c-.08-.61.34-1.4.27-1.93a1.49,1.49,0,0,1-.16.47c-.07-.16.09-.56-.11-.5-.09.68-.38-.09-.14.57-.21.17-.19-.16-.41-.15a3.39,3.39,0,0,1-.54,1.65,2.1,2.1,0,0,0,0-.51c-.37-.09-.55-.42-.91-.46,0-.17-.17-.38-.07-.67-.06.12-.13.34-.24.35-.16-.61.25-.07.16-.79,0,.39-.34.52-.52.75,0,.61.35.15.53-.08a3.35,3.35,0,0,1-.84,2.05c-.31.18-.08-.56-.14-.44-.54-.2-.61,1.42-1,.77a5.49,5.49,0,0,1,.09-1.46c.26-.18.34.38.51.37l-.18-.27c.09-.17.26-.29.34-.13-.11-.49-.93-.18-1.32-.66a.83.83,0,0,0-.2.57l.14-.07c.09.45-.31.58-.16.79-.21.29-.46.75-.69.48V120c0,.17.13.37.22.2-.13.26-.32-.87-.51-.08l.14.44c-.21.29-.5.92-.71.7.05.62.06-.06.16.66-.06-.89.58.09.44-.85.09.83.25.37.4,1.09,0-.2,0-.39.15-.27,0-.06,0-.14.05-.18l0,0v0s0,0,0,0a1,1,0,0,1-.06-.31c.13-.45.44-.41.56-.64.11.11-.07.23,0,.45l.19-.35c0,.45.23.77-.06,1l.24,0c.12.27.3.39.44.21.1.11.33-.47.2-.13l.4-.24v.11c.36.09.83-.67,1.18.18.14-.1.28-.23.48-.08v.39c.17-.12.45.43.55,0,.08,1,.76.3,1,.51l.06-.51c.19,0,.39-.08.65-.26l0-.44c.24-.35.5.36.84.35,0,.17-.12.11-.17,0,.3,1,.9-.66,1.18.11.11-.16.17-.09.22,0a0,0,0,0,0,0,0s0,0,0,0l.1.25a.81.81,0,0,0-.08-.25.45.45,0,0,0,.29-.15v.49h0c.08.18.1-.22.08-.59a1,1,0,0,0,.16-.28c0,.78.29-.23.33.6.1-.39.54-.25.67-1.09,0,.11,0,.16,0,.16.11.11.21.22.34,0v.61l.32-.79a1.27,1.27,0,0,1,0,1.06c.43-.69.32-.24.69-.93l0,.39c.11,0,.33-.51.37-.18.18.77,1.21.21,1.77,1,0-1.17.25.55.36-.35,0,.28.08.44,0,.67.34-.24.44.48.73-.26,0,.28-.1.4-.09.57,0-.06.13-.23.15-.07s-.07.23-.13.34c.33,0,.44-.85.54-1.65.13.4.22.35.39-.16,0,.27.1.55-.11.62.11,0,.67.45.74-.19,0,.17.15.06.19,0,.26.07.27.13.53.09l-.06-.11c.17-.76.23-.15.44-.23v.08c.41.6.23-.24.63.43l0-.48c.14-1,.35.65.66.28l-.08-.28c.18-.34.28,1.43.42,1.57s-.07.14-.12.2c.33.65.11-.62.41-.74,0,.35-.15.86,0,.94.07.28.66-1,.87-.37a.91.91,0,0,1,.08-.72c.21-.07.46,1,.72.23a.53.53,0,0,1,0,.21c.18-.2.54-.3.68-.74,0,1.66,1-.71.9.81l.48,0,0,.16c.29.13.44-.23.58-.58.06.11,0,.25,0,.33.42.34.47.28.92-.44v.5c.13-.28.58.83,1.07.3a.55.55,0,0,1-.07.22c.55-.54,1.06,1.48,1.41-.31l.37-.41c-.41-.18.13-.77,0-1.09.17-.09.38.59.16.66l0-.09c-.16.93.5.38.42,1,.84,0,1.6.63,2.38.74l0-.73.26.06c.06.18.05.58-.14.53.06.43.35-.31.37-.47.36.33-.22.84-.11.87l.16,0,0-.09c.15-.29.19-.6.42-.54s0,.45.09.48,0,.08.09,0l.33.1-.08-.59c.18-.27.32.06.22-.61.14,1,1.25.48,1.36.81.25-.4.46-.37.72-.3-.06-.12,0-.77.18-.67-.21,1.32.36.61.45,1.59-.1-.65.65-.1.48-1,.18.12,0,.5.08.82.49-.47.95.43,1.51.31a1.56,1.56,0,0,1,.11-.7l.2.9c.12-.07.2-1,.34-.37,0-.15,0-.38,0-.43,1,1,2.27-.49,3.22,1.21-.12-.35,0-.37.1-.38-.07-.08,0-.43.05-.67l.39.71c.15-.66.5,0,.6-.63l-.15.1c.26-.72-.12-1.68,0-2.63-.29.83-.45-1.3-.92-.13-.06-.2.1-.3.07-.52-.12.4-.24.47-.42.27l0-.1c-.58.05-.78-.38-1.39-.7V121c-.13-.07-.14-.22-.2-.35-.22.7.38.08.17.85-.09-1-1-.1-1-1.2-.21,0,0,.55-.2.52l0-.3-.09.38c-.13-.08-.17-.45-.15-.7,0,0,.1-.07.14-.08-.14-.37-.51.07-.56,0l.18.2c-.6.22-1.26-.23-1.87.32l0,.22c-.46.38-.31-.27-.8-.13l0,0c-.12.22-.25.32-.38.28.14-.25-.17-.53,0-.8-.5.4-.26.32-.64,1.12l0-.37c-.14.32-.16.5-.4.57.22-.3-.1-.58.15-1-.41-.86-.8.74-.91-.46-.32,1,.37.61.22.81.08.35-.25.75-.39.63s-.15-1.33-.54-1.34c0,0,.05-.07.09-.07-.12-.27-.32.33-.46-.11-.16.61-.23-.06-.33.73l.37-.15c-.22.19-.5,1.09-.79.61a1.67,1.67,0,0,1,.24-.46c-.08-.25-.2.13-.28-.12.1-.78.45-.13.72-.71-.07-.34-.46.54-.27-.31-.26,1.07-.37-.17-.72.63l.06-.47c0,.07-.15.29-.23.27l.2-.6c-.26.5-.37-.5-.6-.23.43,0,0,.58.19.94-.59.58-.19-1.27-.81-1.1.09-.05.28.32.13.52a1.13,1.13,0,0,1-.28-.55c-.4.06,0,.49-.18.76-.08-.59-.21.22-.4.39l0-.48c-.42-.35-.21,1-.58.58l.23-.65-.22.15.09-.54c-.27.38-.33.27-.54.09,0,.35-.11.87-.31.87-.11-.3.12-.45-.17-.41.09-.29.2-.66.28-.21,0-.15.09-.29.12-.45-.12-.34-.36-.11-.46-.11a.17.17,0,0,1,.09.12l-.47.63a.67.67,0,0,1,.09-.47c-.09,0-.17.26-.3.29.07-.38.1-.79.29-1l-.43.4c0-.17-.15-.48-.09-.62-.19-.25-.6.71-.86.38a.39.39,0,0,1-.12.19c-.26-.11-.46-.61-.82-.11l-.12-.72c-.26.14.16.91-.28,1.13s-.05-.6-.14-.81c-.17.34-.5,1-.71.44C218.25,118.66,218.31,118.77,218.4,118.72Zm-3.11,0c.07-.1.22-.4.24-.11C215.41,119.18,215.38,118.91,215.29,118.75Zm-4.78.71c.06-.15.12-.07.18.12S210.57,119.59,210.51,119.46Zm-13.34,2.13v0C197.3,121.77,197.25,121.69,197.17,121.59Zm-.26-.24a.49.49,0,0,0,0,.2c0-.12.1-.12.16-.08C197,121.34,197,121.25,196.91,121.35Zm29.67,2.59,0-.13C226.67,123.68,226.62,123.8,226.58,123.94Z" transform="translate(-152.06 -11.13)"/><path class="b" d="M211.1,118.86a1.13,1.13,0,0,1,0,.26A.33.33,0,0,0,211.1,118.86Z" transform="translate(-152.06 -11.13)"/><path class="b" d="M220.33,118.65h0a.29.29,0,0,0,0-.09Z" transform="translate(-152.06 -11.13)"/><path class="b" d="M201.57,117.68a.62.62,0,0,1,.09.26C201.67,117.82,201.66,117.72,201.57,117.68Z" transform="translate(-152.06 -11.13)"/><path class="b" d="M195.38,122l.18-.1c-.08,0-.1-.1-.14-.18C195.41,121.87,195.43,122,195.38,122Z" transform="translate(-152.06 -11.13)"/><path class="b" d="M194.12,118.92s-.06,0-.09.06v.22A.17.17,0,0,0,194.12,118.92Z" transform="translate(-152.06 -11.13)"/><path class="b" d="M195.36,120.42c0-.4-.1-.28-.23-.21h0C195.06,120.77,195.21,120.6,195.36,120.42Z" transform="translate(-152.06 -11.13)"/><path class="b" d="M195.1,120.22a.17.17,0,0,1-.12,0C195,120.44,195,120.27,195.1,120.22Z" transform="translate(-152.06 -11.13)"/><path class="b" d="M196.54,121.59c0-.11-.09.51-.1.34C196.32,122.44,196.89,121.35,196.54,121.59Z" transform="translate(-152.06 -11.13)"/><polygon class="b" points="43.33 107.95 43.33 108.45 43.43 108.06 43.33 107.95"/><path class="b" d="M196.33,119.54l-.19-.16a.24.24,0,0,1-.06.17C196.2,119.58,196.32,119.69,196.33,119.54Z" transform="translate(-152.06 -11.13)"/><path class="b" d="M196.08,119.55a.13.13,0,0,0-.17.07A.43.43,0,0,0,196.08,119.55Z" transform="translate(-152.06 -11.13)"/><polygon class="b" points="43.61 107.82 43.66 107.93 43.8 107.98 43.61 107.82"/><path class="b" d="M198.45,119.83l.23-.12c0-.17,0-.28-.1-.22S198.43,119.67,198.45,119.83Z" transform="translate(-152.06 -11.13)"/><path class="b" d="M197.92,118.41a1.33,1.33,0,0,1,.06.39l.07-.62Z" transform="translate(-152.06 -11.13)"/><path class="b" d="M198.57,118.32c0-.17.36-.46.08-.45C198.61,118,198.38,118.16,198.57,118.32Z" transform="translate(-152.06 -11.13)"/><polygon class="b" points="49.69 108.28 49.63 108.28 49.55 109.29 49.69 108.28"/><path class="b" d="M204.84,117.25c-.23-.27-.12.62-.32.3-.08.23.17.26.09.46C204.78,117.77,204.85,117.93,204.84,117.25Z" transform="translate(-152.06 -11.13)"/><path class="b" d="M204.61,118l-.1.15A.77.77,0,0,0,204.61,118Z" transform="translate(-152.06 -11.13)"/><polygon class="b" points="84.52 114.26 84.67 114.49 84.59 114.14 84.52 114.26"/><path class="b" d="M237,124.67l0,.65.16-.57S237,124.82,237,124.67Z" transform="translate(-152.06 -11.13)"/><path class="b" d="M215,117.4l0,.15c0,.18,0,.19.12.23Z" transform="translate(-152.06 -11.13)"/><polygon class="b" points="65.09 106.96 65.05 106.94 65.07 107.53 65.09 106.96"/><path class="b" d="M219.09,117.52c-.08,0-.18.09-.25.06C219,117.49,219,118.25,219.09,117.52Z" transform="translate(-152.06 -11.13)"/></svg>