<svg xmlns="http://www.w3.org/2000/svg" xmlns:xlink="http://www.w3.org/1999/xlink" viewBox="0 0 176.42 176.42"><defs><style>.a{fill:none;}.b{fill:#1d1d1b;}.c{fill:#fbbf48;}.d{fill:url(#a);}</style><pattern id="a" width="24.93" height="17.24" patternTransform="translate(-159.45 -22.63)" patternUnits="userSpaceOnUse" viewBox="0 0 24.93 17.24"><rect class="a" width="24.93" height="17.24"/><path class="b" d="M3.72,10.81a5.27,5.27,0,0,1,2.19-.55,6,6,0,0,1,2,.26,5.85,5.85,0,0,1,1.78.86,5.12,5.12,0,0,1,1.54,1.67A5.12,5.12,0,0,1,9,13.6,6,6,0,0,1,7,13.35a6.25,6.25,0,0,1-1.78-.87A5.23,5.23,0,0,1,3.72,10.81Z"/><path class="b" d="M4,11.28l-.29-.47C4.42,12,4,11.2,4,11.28Z"/><polygon class="b" points="5.36 13.38 5.52 13.63 5.17 13.05 5.36 13.38"/><path class="b" d="M5.69,13.64c-.75-1.05,0,.08-.31-.33l-.17-.25.53.82C5.73,13.8,5.44,13.32,5.69,13.64Z"/><path class="b" d="M7.46,16c-.3-.4-.2-.32-.14-.15l.08.11S7.42,15.93,7.46,16Z"/><path class="b" d="M7.4,15.93s.27.34,0,0Z"/><path class="b" d="M7.4,15.73l.22.35c.18.23.25.28.36.45A5.56,5.56,0,0,0,7.4,15.73Z"/><path class="b" d="M6.9,15l.08.14C7.06,15.25,7.09,15.28,6.9,15Z"/><path class="b" d="M7.17,15.46,7,15.16c-.12-.16-.36-.49.07.11C6.83,15,7,15.25,7.17,15.46Z"/><path class="b" d="M7,15.31a6.53,6.53,0,0,1-.53-.71C6.51,14.69,7.05,15.43,7,15.31Z"/><path class="b" d="M5,12.59l-.24-.33.22.32C4.83,12.42,5.19,12.92,5,12.59Z"/><path class="b" d="M8.16,16.36l-.67-.82.14.22C7.76,15.91,7.91,16.05,8.16,16.36Z"/><path class="b" d="M7.49,15.54l-.22-.33C7.18,15.15,7.3,15.31,7.49,15.54Z"/><polygon class="b" points="6.08 13.93 6.58 14.66 6.09 13.93 6.08 13.93"/><polygon class="b" points="8.42 16.43 8.78 16.89 8.25 16.2 8.42 16.43"/><path class="b" d="M8.51,16.37c.3.37.59.64.76.87a4.79,4.79,0,0,0-.47-.65C8.91,16.74,8.83,16.69,8.51,16.37Z"/><path class="b" d="M8.48,16.17l.32.42A5.23,5.23,0,0,0,8.48,16.17Z"/><path class="b" d="M7.45,15.35c.11.12.38.44.52.58l-.49-.57Z"/><path class="b" d="M7.47,15.34v0l.08.05Z"/><path class="b" d="M7.44,15.34h0C7.4,15.29,7.39,15.27,7.44,15.34Z"/><path class="b" d="M6.64,14.55a12.44,12.44,0,0,0-.89-1.15C6,13.78,6.31,14.08,6.64,14.55Z"/><path class="b" d="M6.83,14.62l-.17-.16c.13.15.32.38.43.53Z"/><polygon class="b" points="6.71 14.45 6.83 14.62 6.89 14.68 6.71 14.45"/><path class="b" d="M7.92,15.63c-.18-.23-.16-.23-.17-.27a1.42,1.42,0,0,0-.25-.2A4.14,4.14,0,0,0,7.92,15.63Z"/><path class="b" d="M7.65,15.44l0,0C7.59,15.36,7.57,15.35,7.65,15.44Z"/><path class="b" d="M8.08,15.45l-.1-.1.09.09Z"/><path class="b" d="M7.4,15.06c-.12-.12,0,0,.12.18,0-.05,0-.08,0-.08S7.39,15,7.4,15.06Z"/><path class="b" d="M8.33,15.91,8,15.62C8.19,15.79,8.45,16.05,8.33,15.91Z"/><path class="b" d="M7.77,15.57l0,0C7.9,15.71,7.85,15.66,7.77,15.57Z"/><path class="b" d="M7.77,15.57l-.25-.33.11.17Z"/><path class="b" d="M5.26,12.42c.08.08.56.62,0,.08.25.28,1.8,1.95,2.69,2.85-.2-.21-.37-.41-.59-.68S6.67,14,6.31,13.58c-.16-.21.23.21.5.47L5.37,12.52l.08.1Z"/><path class="b" d="M7.81,15.26l0,.05.71.7a6.19,6.19,0,0,0-.48-.57l-.2-.11Z"/><path class="b" d="M7.73,15.29c-.47-.55-.62-.76-1.18-1.35,0,0,.36.43.54.66,0-.11.24.3.59.62.06.09.07.12.07.14l.28.26,0,0H8l-.07-.07h0l-.17-.2a.76.76,0,0,1,.17.2l.08.08H8l-.15-.27C7.75,15.23,7.72,15.22,7.73,15.29Z"/><path class="b" d="M4.81,12.18l.11.14Z"/><path class="b" d="M5.13,12.56c.06.08.24.31.17.23l-.38-.47c.11.14.29.38.56.7l-.06-.08L6.32,14Z"/><path class="b" d="M6.29,13.83l-.14-.23-.47-.5.26.29C5.79,13.24,6.11,13.61,6.29,13.83Z"/><polygon class="b" points="8.34 15.71 8.85 16.27 8.17 15.49 8.34 15.71"/><polygon class="b" points="8.39 15.65 8.85 16.13 8.6 15.84 8.39 15.65"/><path class="b" d="M6.24,11.24l-.19,0Z"/><path class="b" d="M6.26,11.29l.34.06Z"/><path class="b" d="M11.55,15.37c.5.25,1.25.63.7.32l-.55-.3C11.77,15.46,11.69,15.43,11.55,15.37Z"/><path class="b" d="M10.51,13.2l-.25-.08.63.25Z"/><path class="b" d="M7.28,12.06l.54.16Z"/><path class="b" d="M5.21,10.91l-.64,0Z"/><path class="b" d="M9.57,15.59a2,2,0,0,0,.41.26C9.63,15.61,9.14,15.23,9.57,15.59Z"/><path class="b" d="M13.38,12.5c-.12,0-.25-.06-.38-.09A2.11,2.11,0,0,0,13.38,12.5Z"/><path class="b" d="M10.07,15.83l-.14-.1c.07.08.11.14.05.12C10.23,16,10.41,16.13,10.07,15.83Z"/><path class="b" d="M4.27,10.64h0Z"/><path class="b" d="M7.08,9.26l.1,0Z"/><path class="b" d="M9.17,16s.05.05,0,0Z"/><path class="b" d="M7,14l-.24-.24Z"/><path class="b" d="M7.06,13.33h0C7,13.27,7,13.28,7.06,13.33Z"/><path class="b" d="M8.89,15.72l.19.15Z"/><path class="b" d="M9.14,16l-.08,0C9.14,16,9.2,16,9.14,16Z"/><path class="b" d="M9.17,15.92s0,0-.09-.05l.09.08S9.16,15.93,9.17,15.92Z"/><path class="b" d="M6.23,10.56h0C6.07,10.57,6.11,10.57,6.23,10.56Z"/><path class="b" d="M6.36,12.14h0l0,0Z"/><path class="b" d="M5.93,11.9c.77.39.66.35.48.27l1.81.89Z"/><path class="b" d="M5.89,11.08,5.28,11l-1.56-.21c2.18.28.24,0,2.48.37l-.47-.06-.09,0c-1.07-.15,1.65.26,1.38.25s-.49-.06-.78-.11l.61.12-.41-.07.23.07H6.6l1.22.26c-.33,0-.26-.06-.55-.11l.61.15c-.61-.12-1.24-.26-1.17-.26-2.37-.45.63.14-.74-.1l-.32-.08-1.73-.35,2.79.6c-.18,0-.26-.05.25.08-.88-.2-.66-.14-.59-.11L5.2,11.16l1.48.37c-.1,0-1-.23-1.79-.42-.18,0,1.46.35,1.71.44-.44-.09.06,0,.82.29-.41-.09-.75-.21-1.09-.3l1,.3-.47-.14c.39.13,1.22.35,1.58.49s.39.13.18.07c-.45-.1-1.69-.46-.68-.12l-1.21-.39,1.93.71-.82-.24c.91.29,1.91.66,2.69,1l.81.25.34.2c-.15,0-.43-.15-.77-.28l.19.08c-.2-.06-.34-.1-.65-.22l-.91-.35.74.24-2.12-.77.29.12L8,12.3c-.13,0,.12,0,.4.16L7.07,12l.5.18-.86-.26A29,29,0,0,1,10,13.38c-.83-.36-1.42-.58-2.44-1,1.12.43-.4-.21-.13-.13-.14,0-.64-.24-.82-.31l.94.42c-.85-.34-.65-.25-1-.39a6.47,6.47,0,0,1,1.5.69,5.19,5.19,0,0,1-.92-.42c-1.26-.52,1.84.82.75.39,0,0,.08,0-.18-.09.44.21,0,.06-.44-.15h0c-.26-.07-.22,0,1,.64L6.5,12.16c1.34.67,2.77,1.42,3.78,2-.77-.4-3.39-1.71-3.9-2-.16-.07-.34-.16,0,0,.15.08,1.51.76,1.58.81L6.3,12.18c.23.11,1.78.94,1.68.92L6.3,12.19,7.73,13c-.24-.15-1.26-.69-1.69-.92.3.16-.07,0,.06.06l.36.19c-.28-.12,1.93,1.14,1.72,1.09L6.24,12.3c.69.41,3.23,2,3.67,2.35l-.43-.25.37.3-2-1.33L6,12.2a4.08,4.08,0,0,0-.46-.26c-.38-.22-.54-.34-.56-.35l-.28-.15c.78.48.73.48,1.35.88l-.71-.49a15.13,15.13,0,0,1,1.9,1.26l-1.57-1c.26.17.43.31.24.19L5.58,12c-.3-.18.9.62.17.16-.06,0-.92-.61-.52-.33l4.09,2.77c-.07,0-1-.62-1.54-1L5.83,12.29l.45.32-.5-.34c.64.47-.14,0,.53.39.14.13-.18-.1-.2-.1.43.31,1.28,1,1.56,1.22l-.61-.45c-.18-.08-.5-.3-.6-.34s-.35-.25-.56-.43l.24.21c-.51-.38,0,0-.61-.49a4.66,4.66,0,0,1,.51.46c.47.38.19.11,0,0,.51.41,1.68,1.39,2,1.75.16.2-.71-.57-.58-.45-.35-.21,1.62,1.5.73.84-.7-.59-1.28-1.16-1.76-1.58-.17-.18.52.42.55.41l-.37-.29c-.19-.18-.3-.3-.09-.13l-.2-.16L6.26,13l-.15-.09a1.77,1.77,0,0,1-.38-.25l.12.13.28.27,0-.07c.55.5.63.64.93.89s.79.84.43.55l-.74-.72c.22.21.48.44.28.23.29.31-1.09-1-.18-.08l.56.52c.3.33,1,1.08.67.83.74.73-.06-.08.83.78C7.78,15,9.13,16.1,8,15c1,1,.49.41,1.41,1.22-.25-.23-.49-.44-.3-.32l-.2-.2,0,0,0,0h0l-.4-.35c-.51-.52-.4-.48-.66-.75.15.12.26.26.54.5l-.38-.39c.54.5,1,.84,1.22,1.11l.12,0c.35.27.52.36.34.16.16.11-.49-.51-.11-.15l-.19-.28.13.12c.19,0-.64-.73.48,0-.1-.11-.23-.25,0-.13l.49.37c-.1-.13.63.32.16-.05,1.35,1,.54.14.87.29l-.62-.43c.1,0,0-.13-.18-.31l-.56-.37c-.38-.31.57.23.63.17.2.13.12.11,0,0,1.37.75-.63-.62.4-.09-.17-.13-.08-.09.08,0l0,0h0l.33.16-.33-.16s0-.06-.12-.15l.6.33h0c.25.11-.26-.17-.72-.41l-.31-.22c1,.53-.22-.19.83.36a8.42,8.42,0,0,0-1.22-.81c.14.07.22.11.2.11.16.06.32.11.06-.05l.77.39-.92-.54a10.25,10.25,0,0,1,1.33.66c-.77-.49-.23-.21-1-.67l.48.24s-.57-.35-.14-.16c1,.41.56-.06,1.69.22-1.54-.58.78.23-.37-.24a6.34,6.34,0,0,1,.87.34c-.22-.19.77.13-.14-.28.38.12.5.21.73.28-.07,0-.27-.14,0-.06a1.88,1.88,0,0,1,.42.19,8.71,8.71,0,0,0-2.07-.89c.56.16.52.12-.13-.15a3.75,3.75,0,0,1,.82.3c.09,0,.8,0-.07-.24.23.07.12,0,0,0,.15,0,.25,0,.26-.09l-.18,0c-.59-.2-.56-.2-.47-.2s.17,0,.1,0l.11,0c.68.06-.42-.17.37-.09l-.66-.17c-1.45-.4.76.09.14-.15l-.35-.06c-.52-.17,1.84.33,2,.31a1.42,1.42,0,0,1,.31.11c.74,0-.87-.23-1.14-.38a7.13,7.13,0,0,0,1.23.24c.35,0-1.64-.53-.82-.43a7.07,7.07,0,0,1-1-.2c-.18-.08,1.21.07,0-.19l.27,0a8.06,8.06,0,0,0-1.23-.35c2.22.28-1.35-.42.75-.14l-.24-.15.22,0c.07-.07-.47-.15-1-.23a3.27,3.27,0,0,1,.45,0c.31-.08.22-.11-.95-.27l.69,0c-.44-.05.94-.11,0-.26l.33,0c-1-.13,1.72-.27-1-.33l-.75-.06c-.09.08-1.17,0-1.57,0a3.13,3.13,0,0,1,.88,0H9.49c1.42,0,.34-.1,1.31-.12-.31-.15.25-.35.1-.51l-1.11.12,0,0a4.07,4.07,0,0,1,.88-.07c.61-.09-.64,0-.89,0a4.18,4.18,0,0,1,.82-.11,3.89,3.89,0,0,0,.55,0L11,10l-.13,0a6.67,6.67,0,0,1-1,.05c.19-.05.69-.1.72-.12s.11,0,0,0V9.85L9.71,10a4.4,4.4,0,0,0-1.05.12c1.52-.26.18-.24.63-.34-.76.11-.79.09-.8.05-.17.05-1.21.26-1.16.23a20,20,0,0,0,2.3-.6c-1,.25-.44,0-1.85.37.11-.06.82-.2,1.28-.34-1,.19.27-.24-.26-.2-.29.09-.7.22-1.17.34L9,9.17c-.17,0-1.68.52-.75.19-.24.08-.59.2-.7.22.5-.24,0-.17-.33-.11s-.23,0-.2,0A5.87,5.87,0,0,1,7.83,9a2.44,2.44,0,0,1-.65.28l-1.06.49L7,9.26a2.88,2.88,0,0,1-.66.27l-1.65.81L5.48,10l-1.63.79L4,10.67,4,10.7l.12,0h0c.12-.05.1,0,.11,0l.12,0,0,0c.24-.08-.06,0,.19-.07-.24.09.21-.05-.16.08l.23-.07-.11,0,.16-.05-.24.09H4.27c-.12,0,.11,0,.07,0l0,0c.22,0,.11,0,.55-.09l.12,0c.34-.06-.08,0,.13,0h0l.28,0-.54.11,1-.15-.26.05a5.1,5.1,0,0,1,.55-.08l-.78.14c-.57.11.82-.09-.13.06.92-.12.4-.08.61-.11a4.22,4.22,0,0,1,.64-.07s-1.07.17-1,.18H5.4c-.22,0,.37,0,0,0l.78-.07H5.93c.22,0,1.18-.1.83,0l-.53,0c-.21,0,.2,0,0,0-.8.08-.26,0-.88.05-.31,0,.62,0-.24,0,1.11-.1-.09,0,.8,0l-.49,0h.33l-.67,0c.59,0-.44.05-.12,0-.06,0,.61-.05,1-.08.79,0-1.3.1-1,.1a4.58,4.58,0,0,1,.56,0l-.57,0,.92,0c-.66,0,.3,0,.56,0l-.58,0c-.32,0,1.24,0,.86,0H5.34c.53,0,.42,0,.24,0,.43,0,1.13,0,1.19,0-.35,0-.61,0-.48,0-.4,0-.9,0-.34,0h-.6c-.42,0-.07,0,0,0h.14l.94.05-.64,0,.47,0-1.36-.05.63,0-.84,0c-.33,0,1.11.08.7.07l.31,0c-.1,0-.81,0,0,.05l-1.06-.1c.26,0,1.34.12,1.79.19S5.49,11,5.19,11c.56.06,1.75.23.86.14C5.83,11.08,6,11.1,5.89,11.08Zm.83.38c-.19-.05-.75-.18-.25-.07C7.46,11.6,7,11.51,6.72,11.46Zm2,1.19c-.27-.1-.12-.06.22,0C9,12.73,9,12.73,8.73,12.65ZM9,15.53l0,0C9.23,15.7,9.13,15.62,9,15.53Zm-.34-.24a1.7,1.7,0,0,0,.24.22c-.14-.13-.13-.13-.06-.09C8.67,15.28,8.55,15.18,8.65,15.29ZM10.28,10l-.18,0C9.84,10,10.05,10,10.28,10Z"/><path class="b" d="M7.66,12.19l.48.16Z"/><polygon class="b" points="5.34 10.92 5.34 10.92 5.21 10.91 5.34 10.92"/><path class="b" d="M5.57,12.11l.26.18Z"/><path class="b" d="M9.13,16.18,9.05,16s-.14-.09-.24-.19C8.94,16,9.15,16.18,9.13,16.18Z"/><path class="b" d="M5.2,12.43l0,0,.25.28A2.56,2.56,0,0,0,5.2,12.43Z"/><path class="b" d="M7.19,14.29c-.48-.48-.36-.34-.31-.26h0C7.54,14.7,7.36,14.49,7.19,14.29Z"/><path class="b" d="M6.88,14s0,0,0,0C7.12,14.3,6.93,14.1,6.88,14Z"/><path class="b" d="M8.85,15.57c-.14-.11.61.58.4.4C9.84,16.53,8.63,15.28,8.85,15.57Z"/><polygon class="b" points="5.59 12.7 6.19 13.29 5.74 12.83 5.59 12.7"/><path class="b" d="M6.32,13.28l-.23-.19.19.19S6.49,13.45,6.32,13.28Z"/><path class="b" d="M6.28,13.28s0,0,0,.07Z"/><polygon class="b" points="5.59 12.67 5.66 12.73 5.72 12.77 5.59 12.67"/><path class="b" d="M7.1,13.65,7,13.52c-.2-.17-.35-.28-.29-.22Z"/><path class="b" d="M5.72,12.55l.28.24-.42-.37Z"/><path class="b" d="M5.76,12.53a2.54,2.54,0,0,0-.32-.28C5.56,12.36,5.62,12.42,5.76,12.53Z"/><polygon class="b" points="7.33 13.3 7.32 13.31 8.52 14.13 7.33 13.3"/><path class="b" d="M5.18,11.65c-.33-.18.77.45.37.23l.58.33C5.84,12,6,12.13,5.18,11.65Z"/><path class="b" d="M6.13,12.21l.18.11Z"/><polygon class="b" points="7.53 8.96 6.35 9.54 6.87 9.28 7.53 8.96"/><path class="b" d="M4.53,10.42s0,0,0,0l-.8.38Z"/><path class="b" d="M4.38,11l.29.06.37.08Z"/><polygon class="b" points="5.15 11.04 5.13 11.04 6.12 11.2 5.15 11.04"/><path class="b" d="M3.88,10.83l.13,0C3.84,10.83,5,11,3.88,10.83Z"/><path class="b" d="M2.84.23A5.33,5.33,0,0,1,4.67,1.55a6.11,6.11,0,0,1,1,1.66A5.83,5.83,0,0,1,6.2,5.13a5.12,5.12,0,0,1-.29,2.25A5.24,5.24,0,0,1,4.08,6.06,6.11,6.11,0,0,1,3,4.4a6.16,6.16,0,0,1-.48-1.92A5.27,5.27,0,0,1,2.84.23Z"/><path class="b" d="M2.59.16s0,0,0,0S2.6.16,2.59.16Z"/><polygon class="b" points="2.34 0.54 2.3 0.52 2.37 0.61 2.34 0.54"/><path class="b" d="M2.07.92c.28,0,.05-.15.18-.2h.06L2.16.65C2.11.73,2.18.87,2.07.92Z"/><path class="b" d="M1.25,1c.14,0,.06.06.09-.05h0S1.28,1,1.25,1Z"/><path class="b" d="M1.3,1c0-.05-.13,0,0,0Z"/><path class="b" d="M1.19,1.21l-.07-.08c-.09,0-.16.06-.19,0S1,1.23,1.19,1.21Z"/><path class="b" d="M1.4,1.3l0,0S1.32,1.27,1.4,1.3Z"/><path class="b" d="M1.31,1.18l.06.08c.06,0,.18,0,0,0C1.45,1.24,1.36,1.22,1.31,1.18Z"/><path class="b" d="M1.39,1.15c.09,0,.17-.06.24,0C1.67,1,1.44,1,1.39,1.15Z"/><path class="b" d="M2.33,1l.1,0-.07,0S2.25,1,2.33,1Z"/><path class="b" d="M.7,1.61c.09,0,.25,0,.36,0L1,1.55A.7.7,0,0,1,.7,1.61Z"/><path class="b" d="M1.06,1.6l.11.08C1.22,1.62,1.16,1.6,1.06,1.6Z"/><path class="b" d="M1.79,1.35l-.21-.14a1.16,1.16,0,0,0,.21.16Z"/><polygon class="b" points="0.51 1.91 0.31 1.86 0.6 1.95 0.51 1.91"/><path class="b" d="M.45,2.11c-.18,0-.35.06-.45,0s.14.1.28.14C.21,2.23.26,2.18.45,2.11Z"/><path class="b" d="M.47,2.33.28,2.27A.41.41,0,0,0,.47,2.33Z"/><path class="b" d="M1.06,1.81a.89.89,0,0,0-.3.05l.28,0Z"/><path class="b" d="M1.05,1.84H1L1,1.9Z"/><path class="b" d="M1.06,1.8h0S1.09,1.8,1.06,1.8Z"/><path class="b" d="M1.51,1.51A.54.54,0,0,0,2,1.59C1.81,1.55,1.67,1.59,1.51,1.51Z"/><path class="b" d="M1.4,1.77l.09-.07a.87.87,0,0,1-.23,0Z"/><polygon class="b" points="1.47 1.81 1.4 1.77 1.37 1.8 1.47 1.81"/><path class="b" d="M.8,2.19c.11,0,.11.06.11.11a.36.36,0,0,0,.14-.14C1,2.15.81,2.14.8,2.19Z"/><path class="b" d="M.94,2H1S1,2,.94,2Z"/><path class="b" d="M.78,2.74h0Z"/><path class="b" d="M1.1,2.15c.07,0,0,0-.07-.07a.19.19,0,0,1,0,.08S1.11,2.16,1.1,2.15Z"/><path class="b" d="M.56,2.45l.19-.07C.65,2.4.48,2.45.56,2.45Z"/><path class="b" d="M.88,2h0C.8,2,.83,2,.88,2Z"/><path class="b" d="M.88,2,1,2.08,1,2Z"/><path class="b" d="M2.85,2.64c-.31,0-.58,0-.27-.11a7.7,7.7,0,0,0-1.74.2.87.87,0,0,1,.41,0,1.43,1.43,0,0,1,.66-.17c.15.08-.11.09-.27.15.37-.08.55.06,1.11,0l-.2,0A1.45,1.45,0,0,0,2.85,2.64Z"/><path class="b" d="M.91,2.56l0,0a2.51,2.51,0,0,1-.43.15.85.85,0,0,0,.33,0l.09-.18Z"/><path class="b" d="M.93,2.38a2.6,2.6,0,0,0,.74,0c0-.08-.24-.05-.35-.09,0,.14-.15,0-.36.07,0,0,0-.05,0-.07l-.16.08H.93c-.08,0-.08,0-.11,0h0l.11.15C.94,2.49.94,2.45.93,2.38Z"/><path class="b" d="M2.46,1.69H2.4S2.45,1.7,2.46,1.69Z"/><path class="b" d="M2.31,1.73s-.14,0-.1-.05.11,0,.19,0a.34.34,0,0,0-.29,0h0a1.93,1.93,0,0,1-.46.09C1.91,1.76,2.08,1.76,2.31,1.73Z"/><path class="b" d="M1.73,2l.12.11.25-.06H2C2,2,1.84,2,1.73,2Z"/><polygon class="b" points="0.61 2.77 0.28 2.79 0.74 2.82 0.61 2.77"/><polygon class="b" points="0.62 2.95 0.31 2.98 0.49 3 0.62 2.95"/><path class="b" d="M4.53,5.86l-.08,0Z"/><path class="b" d="M4.46,6,4.6,6C4.52,6,4.47,6,4.46,6Z"/><path class="b" d="M1.66,7.29c-.28.29-.71.73-.34.43l.35-.3C1.58,7.44,1.6,7.38,1.66,7.29Z"/><path class="b" d="M5.47,7.07l0-.11-.21.31Z"/><path class="b" d="M6.28,5.66l-.1.25Z"/><path class="b" d="M4.4,5l-.26,0S4.27,5.05,4.4,5Z"/><path class="b" d="M.72,4.79C.58,4.9.52,5,.51,5,.73,4.86,1.06,4.69.72,4.79Z"/><path class="b" d="M7.79,6.18a.53.53,0,0,0-.18,0A.35.35,0,0,0,7.79,6.18Z"/><path class="b" d="M.54,5.16.63,5.1c-.08,0-.14,0-.12-.09C.35,5.12.26,5.22.54,5.16Z"/><path class="b" d="M3.76,1.58v0S3.76,1.57,3.76,1.58Z"/><path class="b" d="M3.29.15h0S3.32.15,3.29.15Z"/><path class="b" d="M.37,3.71s0,0,0,0Z"/><path class="b" d="M1.8,3.26l.18,0Z"/><path class="b" d="M3.12,4.45Z"/><path class="b" d="M.54,3.62l-.12.07A.4.4,0,0,0,.54,3.62Z"/><path class="b" d="M.36,3.66l0,0C.34,3.63.31,3.64.36,3.66Z"/><path class="b" d="M.38,3.77s0,0,0-.08a.06.06,0,0,1,0,0A.35.35,0,0,1,.38,3.77Z"/><path class="b" d="M5,3.17H5C5,3.17,5,3.18,5,3.17Z"/><path class="b" d="M5.77,4.75h0v0Z"/><path class="b" d="M6.05,4.56c-.42.38-.38.32-.31.22l-.92.94Z"/><path class="b" d="M4.53,5.49l-.27.06c-.42,0-.26-.09-.64,0,.92,0,0,.16,1,.18l-.21,0s0,0,0,0c-.47,0,.67.06.52.15a.73.73,0,0,1-.33,0l.22.08s-.2,0-.17,0l0,.1h0a3.3,3.3,0,0,1,.47.11c-.15,0-.1,0-.22,0l.22.09c-.26,0-.5-.1-.45-.12-1-.09.24.07-.38.08l-.11-.06c-.57-.06-.39,0-.76,0a8.47,8.47,0,0,1,1.16.16c-.08,0-.13,0,.06.08-.35-.07-.28,0-.27,0l-.47-.1c.11.06.36.11.56.18a2.75,2.75,0,0,1-.75-.13c-.11,0,.61.12.66.21-.21,0,0,.08.22.24a2.19,2.19,0,0,1-.43-.13l.37.16a.67.67,0,0,1-.19-.06,4.42,4.42,0,0,1,.58.26c.22.08.12.07,0,0h0L6.37,6.3c.06-.23.15-.54,0-.23a5,5,0,0,1,.23-.48,7.3,7.3,0,0,0-.51.7l.12-.38a4.57,4.57,0,0,1-.71,1.16l-.18.44L5,7.74a4.4,4.4,0,0,1,.29-.47l-.09.11a3.82,3.82,0,0,1,.45-.76L5.52,7c.2-.3.4-.63.56-.93a.44.44,0,0,1-.1.12L6.1,6c0-.06,0,0-.12.16l.31-.58-.13.22a3.66,3.66,0,0,1,.15-.43A6.68,6.68,0,0,1,5,6.77c.33-.39.49-.68.85-1.17-.35.55.22-.15.18,0a2,2,0,0,1,.23-.39c-.12.14-.25.27-.38.4a3,3,0,0,0,.31-.51c-.57.81-.44.47-.66.68.2-.27.42-.54.4-.43.44-.64-.77.87-.42.32,0,0,0,0,.1-.08-.21.21-.12,0,.09-.25h0c0-.15-.15-.2-.79.42l.89-.89c-.73.68-1.49,1.34-2.27,2C4.1,6.33,5.39,5,5.75,4.76c.06-.09.14-.2-.08,0s-.79.8-.85.83l.81-.9a8.83,8.83,0,0,1-1,.87l1-.87-.95.71c.18-.12.77-.65,1-.88-.17.16,0-.07-.13,0l-.19.2c.08-.18-1.39,1-1.42.83a12.81,12.81,0,0,0,1.33-1A20,20,0,0,1,2.33,6.25L2.6,6l-.39.12C3,5.74,4.72,4.77,5.36,4.36c.2-.19.33-.25.27-.27a1.42,1.42,0,0,1,.45-.27l.11-.19C5.6,4,5.55,4,5.05,4.3c.24-.1.47-.21.69-.32C5.16,4.4,4,5.06,4.06,4.89c.22-.17,1.08-.66,1.28-.79-.22.12-.45.18-.31.08L5.38,4c.2-.16-.85.42-.3,0,0,0,.75-.49.38-.29-.68.41-2.83,1.65-3.37,1.91A7.8,7.8,0,0,1,3,4.93C3.54,4.61,4.36,4.3,4.82,4c-.17.09-.39.18-.46.21.13-.1.52-.27.42-.26-.63.31,0-.11-.54.24-.21,0,.1-.11,0-.14a8.11,8.11,0,0,1-1.62.6c.17-.07.37-.17.46-.22s.26-.33.22-.43a3.32,3.32,0,0,1,.58-.26c-.11,0-.33.09-.36.06.51-.25.12,0,.74-.24a2.63,2.63,0,0,1-.78.14c-.55.2-.06.15.19.1a5.83,5.83,0,0,1-2,.46c-.21-.06.48-.21.37-.19.08-.25-1.35.19-.83-.16a9.29,9.29,0,0,1,1.27-.35c.2,0-.26.21-.23.26l.2-.13c.17,0,.3,0,.17.07.42-.18,0-.34.35-.57a1.75,1.75,0,0,0-.5.06l.07,0c-.36.13-.52,0-.68.12s-.66,0-.46-.18l.5-.1c-.15,0-.3.12-.14.12-.22,0,.66-.27,0-.21l-.34.13C1.22,3.15.71,3.12.88,3c-.48.11.06,0-.52.16.71-.16-.06.28.69.06-.67.19-.29.18-.88.39.17,0,.33-.1.23,0H.56l.26-.1c.39,0,.38.1.58.1-.08.07-.2,0-.38.09h.31C1,3.79.68,4,.46,3.92L.44,4c-.22.13-.31.25-.14.27-.08.08.45,0,.14.05l.26.11-.1,0c0,.21.73.12,0,.6.12,0,.26,0,.16.17l-.35.17c.14,0-.3.38.08.25-.94.53-.09.5-.2.72l.47-.24c0,.1.18.12.41.12l.41-.24c.37-.11-.18.39-.06.51-.16.08-.14,0-.06-.06-.8.76.85-.1.3.48.17-.07.14,0,.06.09h0s0,0,0,0l-.17.2a1.15,1.15,0,0,0,.17-.19.36.36,0,0,0,.23,0l-.39.33h0c-.12.16.21-.12.5-.38l.28-.14c-.62.54.29-.09-.35.51.34-.25.41,0,1.1-.61-.09.08-.12.13-.14.12S3,7.13,3.21,7l-.46.45.71-.52a3.27,3.27,0,0,1-.79.79,7.64,7.64,0,0,0,.93-.56l-.29.29s.48-.33.27-.07c-.44.65.34.41.18,1.1.62-1-.16.48.36-.24a2.12,2.12,0,0,1-.36.54c.29-.15,0,.44.49-.13C4.14,8.87,4,9,4,9.09c0,0,.16-.17.1,0a.86.86,0,0,1-.22.27c.2,0,.61-.66,1-1.29-.1.32,0,.29.24-.11-.1.22-.17.45-.3.49,0,.05.16.38.41-.11,0,.13,0,0,.09,0s.09.1.21.07V8.28A.93.93,0,0,1,5.65,8l.89-.39h0s.16,0,.13-.07l.06,0c.47,0-.18-.14.34-.18l-.36-.09c-.77-.24.49,0,.22-.22l-.22,0c-.25-.11,1.08.09,1.18,0s.1,0,.15.08c.47-.09-.46-.12-.56-.27.26,0,.64.16.69.07.21,0-.79-.4-.31-.44a1.08,1.08,0,0,1-.52-.08c-.06-.09.71-.17.12-.3h.15A1.42,1.42,0,0,0,7,5.85c1.15,0-.57-.39.47-.39l-.08-.19h.1c.05-.12-.2-.16-.45-.18a.56.56,0,0,1,.21,0c.17-.2.11-.22-.39-.3l.3-.06c-.18,0,.41-.33,0-.44a.33.33,0,0,1,.14,0c-.38-.11.59-.66-.43-.47l-.29,0c0,.17-.43.1-.57.21s.24-.23.32-.18l-.05,0c.52-.13.11-.24.44-.34-.15-.3-.06-.67-.23-.94l-.3.18,0-.1c.06,0,.22-.15.25-.08.15-.12-.22,0-.28,0,0-.18.38-.13.36-.17l-.06,0,0,0c-.16,0-.28.08-.32,0s.16-.12.15-.14,0,0,0,0L6.19,2,6,2.2c-.14,0-.06-.1-.27.09.32-.3-.17-.46-.1-.57-.19,0-.23,0-.29-.1s-.2.2-.23.12c.41-.28.07-.24.28-.5-.13.18-.23-.13-.39.14,0-.07.12-.12.16-.22-.26,0-.22-.3-.44-.38,0,0-.06.11-.15.14L4.65.68c-.06,0-.21.18-.17,0,0,0,0,.09-.08.08-.22-.37-.76-.32-1-.66,0,.06,0,.05-.05,0s0,.06,0,.09A.69.69,0,0,0,3.19.12C3.12.18,3,.08,3,.14H3c-.1,0,0,.2-.06.31.12-.06.08.27.25.19,0,0,0,0,0,.06s.09,0,.12,0h0c.15.11.17.23.27.43l.05-.09a.14.14,0,0,1,0,.11c.13-.09-.08-.1.06-.21-.09.22.22.23.07.47,0,.05.07-.12.11-.07l0,.07.08-.06c0,.05,0,.14-.08.19s0,0,0,0,.11.1.1.14V1.63C4,1.72,4,2,4.27,2L4.32,2c.18,0,0,.15.11.23h0c.07,0,.13,0,.14,0s-.12.17-.22.19c.19,0,.13,0,.43-.12l-.1.11c.12,0,.18-.09.25,0-.14,0-.17.17-.34.2-.21.32.38,0,0,.35.4-.17.16-.25.25-.26s.3-.12.29,0-.45.36-.41.47h0c-.09.1.16,0,0,.15.26-.1,0,.07.33-.08l-.11-.07c.1,0,.51-.12.36.07a.64.64,0,0,1-.22,0c-.09.08.08,0,0,.11-.34.15-.11-.1-.38,0s.27,0-.1.15c.47-.19,0,.13.34,0l-.21.09s.14,0,.14,0l-.28.08c.25,0-.19.21,0,.22,0-.12.26-.14.41-.27.33,0-.56.34-.44.45,0,0,.13-.13.24-.14a1,1,0,0,1-.25.19c.06.09.24-.11.39-.11-.28.14.13,0,.23,0l-.25.08c-.14.18.53-.13.35.05l-.36.06.1,0-.29.07c.22,0,.17,0,.08.12.19-.06.48-.12.5-.06-.16.08-.26,0-.21.11-.17,0-.38.06-.14,0l-.25,0c-.18.08,0,.11,0,.13a.1.1,0,0,1,.06,0l.38,0a.71.71,0,0,1-.27.05s.16,0,.18,0a2.79,2.79,0,0,1-.56.06l.24,0a1.92,1.92,0,0,1-.37.11c-.15.07.44,0,.25.16h.12c-.06.08-.38.17,0,.2l-.47.08c.09,0,.59-.1.75,0s-.4.05-.54.08c.23,0,.71.09.3.16C4.49,5.53,4.56,5.51,4.53,5.49Zm0,.73c-.07,0-.29-.09-.08-.06C4.86,6.24,4.66,6.22,4.54,6.22Zm1.25,0c.08-.12.06,0,0,.11S5.74,6.36,5.79,6.25ZM.69,4.07h0C.55,4.17.61,4.13.69,4.07Zm.18-.18a.58.58,0,0,0-.18,0c.11,0,.11,0,.09,0S1,3.91.87,3.89ZM6.19,2.22l0,0C6.07,2.25,6.12,2.24,6.19,2.22Z"/><path class="b" d="M6.19,5.82,6.08,6A1,1,0,0,0,6.19,5.82Z"/><polygon class="b" points="4.46 5.03 4.46 5.03 4.41 5.03 4.46 5.03"/><path class="b" d="M5,3.88,4.82,4A1,1,0,0,0,5,3.88Z"/><path class="b" d="M.24,3.33l.09.07s.07-.07.14-.1C.38,3.32.24,3.36.24,3.33Z"/><path class="b" d="M2.58,2.43s0,0-.05,0H2.37S2.51,2.47,2.58,2.43Z"/><path class="b" d="M1.53,3.06c.33-.06.21-.08.16-.13h0C1.24,3,1.38,3,1.53,3.06Z"/><path class="b" d="M1.68,2.92s0,0,0,0C1.49,2.9,1.63,2.9,1.68,2.92Z"/><path class="b" d="M.64,3.78c.09,0-.44.08-.3,0C-.1,3.88.86,3.89.64,3.78Z"/><polygon class="b" points="2.59 2.86 2.2 2.94 2.52 2.91 2.59 2.86"/><path class="b" d="M2.34,3.25l.11-.09a.41.41,0,0,1-.15,0C2.3,3.22,2.22,3.28,2.34,3.25Z"/><path class="b" d="M2.3,3.17s0,0-.07,0S2.25,3.16,2.3,3.17Z"/><polygon class="b" points="2.73 2.93 2.65 2.97 2.63 3.02 2.73 2.93"/><path class="b" d="M2.42,4l.15,0c.16-.05.25-.1.18-.1A.85.85,0,0,0,2.42,4Z"/><path class="b" d="M3.58,3.45l-.33.13.55-.16Z"/><path class="b" d="M3.78,3.58c.16,0,.49-.07.42-.13S3.88,3.49,3.78,3.58Z"/><polygon class="b" points="3.52 4.79 3.5 4.77 2.57 5.28 3.52 4.79"/><path class="b" d="M6.09,4c.18-.2-.54.4-.31.17-.21.14-.19.19-.37.31A2.85,2.85,0,0,0,6.09,4Z"/><path class="b" d="M5.41,4.45l-.14.09Z"/><polygon class="b" points="3.1 0.03 3.05 0 3.08 0.04 3.1 0.03"/><path class="b" d="M3,.08V0L2.91.07Z"/><path class="b" d="M3.53,6.12l.11,0c.13,0,.14,0,.17,0Z"/><polygon class="b" points="4.09 5.79 4.08 5.79 4.5 5.8 4.09 5.79"/><path class="b" d="M3.73,5.39s.06,0,0,.05S4.21,5.36,3.73,5.39Z"/><path class="b" d="M17.66,15.61a5.43,5.43,0,0,1,.64-2.34,6.34,6.34,0,0,1,1.28-1.64,6.09,6.09,0,0,1,1.76-1.1,5.34,5.34,0,0,1,2.4-.38,5.29,5.29,0,0,1-.64,2.34,5.75,5.75,0,0,1-1.28,1.63,5.88,5.88,0,0,1-1.76,1.1A5.48,5.48,0,0,1,17.66,15.61Z"/><path class="b" d="M17.68,15.61h0Z"/><polygon class="b" points="18.12 15.66 18.11 15.66 18.18 15.65 18.12 15.66"/><path class="b" d="M18.54,15.67s-.15,0-.23,0h0l0,0Z"/><path class="b" d="M18.78,15.75s0,0-.06,0h.06Z"/><path class="b" d="M18.74,15.75s0,0,0,0Z"/><path class="b" d="M18.94,15.74l-.05,0s.07,0,.05,0S19,15.76,18.94,15.74Z"/><path class="b" d="M19,15.7h0S19,15.72,19,15.7Z"/><path class="b" d="M18.9,15.73l.07,0s0,0,0,0S18.93,15.72,18.9,15.73Z"/><path class="b" d="M18.86,15.72s-.08,0,0,0C18.73,15.7,18.75,15.73,18.86,15.72Z"/><path class="b" d="M18.56,15.63h0l0,0Z"/><path class="b" d="M19.33,15.75l0-.05,0,0S19.32,15.73,19.33,15.75Z"/><path class="b" d="M19.29,15.7l.06,0C19.29,15.68,19.28,15.69,19.29,15.7Z"/><polygon class="b" points="19 15.64 18.89 15.69 19.02 15.64 19 15.64"/><polygon class="b" points="19.59 15.73 19.56 15.77 19.61 15.71 19.59 15.73"/><path class="b" d="M19.76,15.7s0,.05,0,.07a.23.23,0,0,0,.1-.07A.14.14,0,0,1,19.76,15.7Z"/><path class="b" d="M19.94,15.65l-.05,0Z"/><path class="b" d="M19.47,15.66s0,0,.06,0l0,0Z"/><path class="b" d="M19.49,15.66Z"/><path class="b" d="M19.46,15.66h0Z"/><path class="b" d="M19.17,15.65s.11-.05,0-.07S19.22,15.62,19.17,15.65Z"/><path class="b" d="M19.41,15.62h-.07s0,0,0,0Z"/><polygon class="b" points="19.45 15.6 19.41 15.62 19.44 15.62 19.45 15.6"/><path class="b" d="M19.8,15.63a.2.2,0,0,1,.09-.05h-.12S19.76,15.64,19.8,15.63Z"/><path class="b" d="M19.65,15.64h0Z"/><polygon class="b" points="20.26 15.49 20.25 15.48 20.25 15.49 20.26 15.49"/><path class="b" d="M19.76,15.58a.09.09,0,0,0-.06,0l.07,0Z"/><path class="b" d="M20,15.61l-.06,0Z"/><path class="b" d="M19.67,15.65Z"/><path class="b" d="M19.67,15.65l0,0,0,0Z"/><path class="b" d="M20.21,15.1a.09.09,0,0,1-.12.1c0,.06.06.21.16.29s0-.05,0-.1-.18,0-.14-.08.08,0,.13,0,.07-.13,0-.22l-.05.06S20.23,15.1,20.21,15.1Z"/><path class="b" d="M20.12,15.52h0a.27.27,0,0,1,.13,0s0-.06,0-.07l-.14,0Z"/><path class="b" d="M20,15.56c0-.06.07-.1,0-.14s0,.06-.08.09c.13,0,0,0,.08,0s0,0-.07,0H20s0,0,0,0h0v0c.05,0,0,0,0,0h0l.12-.06Z"/><path class="b" d="M19.25,15.49h0S19.26,15.49,19.25,15.49Z"/><path class="b" d="M19.3,15.5s0,0,0,0,0,0,0,0-.06,0,0,0h0c.06,0,.14,0,.13,0A.18.18,0,0,0,19.3,15.5Z"/><path class="b" d="M19.63,15.51l.1,0-.07,0v0C19.61,15.47,19.63,15.49,19.63,15.51Z"/><polygon class="b" points="20.28 15.52 20.29 15.58 20.32 15.48 20.28 15.52"/><polygon class="b" points="20.43 15.47 20.44 15.52 20.47 15.48 20.43 15.47"/><path class="b" d="M22.52,11.62v.07A.17.17,0,0,0,22.52,11.62Z"/><path class="b" d="M22.68,11.57l0-.11C22.67,11.52,22.67,11.57,22.68,11.57Z"/><path class="b" d="M23.56,13.36c.14,0,.35.09.22,0l-.14-.06S23.61,13.36,23.56,13.36Z"/><path class="b" d="M23.64,10.71h-.06l.19.06Z"/><path class="b" d="M22.81,10.56l.13,0A.31.31,0,0,0,22.81,10.56Z"/><path class="b" d="M21.82,12.35l.1.28S21.87,12.48,21.82,12.35Z"/><path class="b" d="M21.84,14.81a.25.25,0,0,0,.13,0C21.88,14.79,21.8,14.74,21.84,14.81Z"/><path class="b" d="M22,9a.38.38,0,0,0,0,.15A.19.19,0,0,0,22,9Z"/><path class="b" d="M22.08,14.73h0s0,.06-.07.07S22.09,14.81,22.08,14.73Z"/><path class="b" d="M20.1,14.74h0Z"/><path class="b" d="M15.84,15a.08.08,0,0,1,0-.07S15.79,15,15.84,15Z"/><path class="b" d="M21,15.3s0,0,0,0Z"/><path class="b" d="M20.73,15.09v0Z"/><path class="b" d="M21.88,14h0S21.87,14,21.88,14Z"/><path class="b" d="M21,15.28h0Z"/><path class="b" d="M21,15.31h0S21,15.34,21,15.31Z"/><path class="b" d="M21.06,15.28h0Z"/><path class="b" d="M20,12.6h0C20.09,12.7,20.08,12.68,20,12.6Z"/><polygon class="b" points="22.54 11.9 22.54 11.91 22.55 11.91 22.54 11.9"/><path class="b" d="M22.45,11.76c.18.13.15.14.1.15l.44.17Z"/><path class="b" d="M22.16,11.87l.13.2c.06.41,0,.31.13.6-.25-.8.13-.19-.08-1l.08.15s0,0,0,0c.17.34-.1-.59,0-.51a.41.41,0,0,1,.09.25l0-.22s0,.14,0,.14l.09-.1v0c0-.13,0-.32,0-.41,0,.11,0,.09,0,.18l0-.2c.05.19,0,.39,0,.38.18.74,0-.21.2.2l0,.11c.09.41.11.24.19.48a3.16,3.16,0,0,1-.15-.82s.05.07.08-.09c0,.26.05.19.09.16l0,.35a2.78,2.78,0,0,0,0-.45c.06,0,.08.28.1.5.08,0-.07-.41,0-.49.08.11.12,0,.22-.24.05.11,0,.2,0,.29l.06-.26s0,.08,0,.12,0-.32.09-.41,0-.08.07,0L23,10.12c-.14,0-.3.08-.08.14-.09,0-.19,0-.31,0a4.86,4.86,0,0,0,.53.23l-.21.06a1.24,1.24,0,0,1,.7.18l.26,0,.14.14a.73.73,0,0,1-.27-.06l.07,0a1.16,1.16,0,0,1-.45-.08l.19,0a3.37,3.37,0,0,0-.55-.12l.08,0-.12,0s0,0,.11.05l-.33,0,.13,0-.21.09c.32.15.76.34.84.55a3.16,3.16,0,0,0-.61-.17c.28,0-.1-.15,0-.22s-.16,0-.21,0a1.59,1.59,0,0,1,.24.2c-.21-.06-.16,0-.25,0,.42.08.26.18.37.28-.14,0-.27-.1-.23-.16-.32,0,.46.25.18.25,0,0,0,0,0-.05.11.08,0,.15-.12.08v0c-.07.1-.09.34.2.5l-.42-.21c.32.21.62.44.91.66a4.59,4.59,0,0,1-1-.51s-.09,0,0,.12a1.25,1.25,0,0,1,.39.17,1.84,1.84,0,0,0-.43-.06c.06,0,.43.22.39.26s-.36-.19-.39-.22a2.83,2.83,0,0,1,.3.3,1.08,1.08,0,0,0-.4-.21c.07,0,0,.09,0,.13h.1c-.11.08.41.4.31.51-.05-.06-.38-.3-.45-.27.15.13.69.64.71.82l-.1,0,0,.15-.7-.9c-.09,0-.11-.06-.13,0a.15.15,0,0,1-.11-.14l-.12.11c.18.12.11.24.25.34a2.45,2.45,0,0,0-.08-.29c.18.12.44.45.33.53S22.1,13,22,13s.05.18,0,.16L22,13c-.09,0,.15.26,0,.21,0,0-.23-.1-.15,0a5.23,5.23,0,0,1,.82.69,1.4,1.4,0,0,1-.38-.07c-.15-.08-.24-.33-.37-.39a.52.52,0,0,1,.07.12c-.05,0-.11-.12-.13,0s-.1.09.09.13c0,.09-.07,0-.11.09a.62.62,0,0,1,.2.42.28.28,0,0,0-.1-.09c-.11.09-.22.08-.31.16s-.11,0-.14-.09,0,.09,0,.12.05-.07-.09-.16c.05.07,0,.16,0,.24s.12-.06.13-.14a.53.53,0,0,1,.1.52c-.07.1-.11-.07-.11,0-.19.09,0,.35-.21.33s-.11-.17-.17-.23.15,0,.2-.05h-.09s0-.1.08-.09-.3.18-.47.18c0,.05,0,.1,0,.12l0,0c.08.05,0,.14,0,.14s-.06.19-.17.19l-.06-.08s.08,0,.09,0-.2-.06-.18.07l.1,0c0,.08-.08.2-.18.2.08.07,0,0,.12.06-.11-.1.22-.07.07-.17.12.1.13,0,.27.09,0,0-.06-.05,0-.06v0h0l-.07,0c0-.09.11-.13.12-.19s0,0,.05.07l0-.08c0,.07.18.07.11.15l.09,0c.07,0,.16,0,.18-.05s.05-.14.05-.06l.1-.12,0,0c.14-.06.16-.29.42-.23a.23.23,0,0,1,.14-.13l.07.07c0-.07.23,0,.19-.14.25.16.31-.14.43-.19l-.1-.1A.34.34,0,0,0,22.9,14l-.11-.08c0-.13.23-.09.32-.19s0,0,0,0c.37.07,0-.39.32-.36,0-.06,0-.07.06-.07h0a.18.18,0,0,0,0-.12l.15.08h0c.08,0,0-.07-.16-.12a.37.37,0,0,0-.06-.1c.26.12,0-.13.27,0-.11-.09,0-.23-.24-.39,0,0,.06,0,.05,0s.11,0,.05-.12l.22.09-.23-.22a.47.47,0,0,1,.37.15c-.17-.24,0-.15-.23-.37l.14.07s-.14-.19,0-.16c.32,0,.24-.43.61-.6-.5-.08.27-.06-.11-.16.12,0,.2,0,.29.06-.07-.16.26-.17-.05-.33.13,0,.17.07.25.07s-.09-.07,0-.07.1,0,.15.07c0-.15-.36-.22-.72-.29.18,0,.17-.08-.07-.16.13,0,.27,0,.29.06s.24-.27-.07-.3c.08,0,0-.07,0-.08a.34.34,0,0,0,.05-.22l-.06,0c-.13,0-.18,0-.19-.06l-.26-.5-.13.07s-.06-.1-.11-.08v0c-.18-.3-.08.13-.26-.21v.25c0,.54-.17-.32-.28-.12l.05.15c-.05.19-.21-.76-.28-.83s0-.08,0-.11c-.2-.34,0,.34-.12.41,0-.18,0-.47-.1-.5s-.19.61-.36.25a.69.69,0,0,1,.06.41c-.07.06-.35-.54-.34-.06a.56.56,0,0,1,0-.12c0,.13-.17.24-.15.5-.32-1-.25.55-.52-.33l-.18.1,0-.1c-.15,0-.12.21-.08.44a.64.64,0,0,1-.08-.2c-.26-.12-.28-.07-.22.43l-.15-.28c.05.18-.49-.37-.5.06a.78.78,0,0,1-.05-.14c0,.42-1-.58-.4.52l.06.33c.2,0,.29.47.46.61,0,.09-.35-.23-.32-.33l0,0c-.35-.57-.31-.08-.58-.45-.29.22-.82.14-1.13.35l.42.37-.11.06c-.12-.07-.35-.28-.26-.32-.27-.2.08.28.17.37-.3-.05-.43-.5-.48-.48l0,.08.06,0c.13.2.31.38.21.43s-.29-.21-.33-.21-.05,0,0,0l-.15.08.39.25c.13.19-.11.09.33.37-.69-.44-.6.23-.83.13.22.28.17.34.07.41.1,0,.56.31.46.35-.94-.63-.52-.12-1.27-.47.51.21,0,.32.7.6-.13,0-.39-.2-.66-.27.29.39-.5.25-.49.56a2.5,2.5,0,0,1,.57.26l-.79-.18c.05.08.84.38.28.27a.91.91,0,0,1,.36.13c-.46.09-.42.4-.42.66s-.07.5-.91.67c.35,0,.37,0,.37.08a4,4,0,0,1,.65.07l-.68.14c.64.1,0,.24.63.3l-.1-.07c.73.13,1.65,0,2.59.11-.83-.16,1.22,0,.05-.26.18,0,.29.06.51.08-.4-.08-.48-.12-.3-.15l.1,0c-.09-.17.3-.16.55-.23l-.43-.11a.84.84,0,0,1,.3,0c-.63-.23,0,.08-.75-.15.86.2.07-.26,1,0,0,0-.47-.15-.46-.2l.26.08-.32-.13a1.84,1.84,0,0,1,.58.17l.08.06c.3.07-.09-.16,0-.13l-.16,0c-.2-.23.17-.28-.26-.64l-.17-.08c-.27-.28.22,0,.13-.18l0,0c-.15-.12-.22-.2-.18-.22.17.14.39.17.57.34a5.17,5.17,0,0,0-.75-.68l.27.16c-.22-.19-.33-.27-.36-.38.18.2.4.23.65.49.59.28-.42-.59.36-.05-.6-.57-.42-.18-.54-.32s-.45-.43-.36-.42.86.6.9.5,0,0,0,0c.17.11-.16-.25.11-.06-.34-.36.06,0-.38-.47l0,.19c-.09-.16-.57-.71-.24-.55.08.1.17.24.22.31s0-.12.11,0c.42.44,0,.2.31.57.2.16-.25-.4.21.09-.58-.63.12,0-.28-.52l.25.26c0-.05-.14-.19-.11-.2l.29.37c-.23-.34.3.16.18,0-.06.1-.3-.3-.5-.45-.21-.47.67.63.64.38,0,.06-.18-.1-.26-.25a1.46,1.46,0,0,1,.29.24c0-.13-.23-.27-.33-.47.28.31-.07-.17-.11-.31l.2.28c.22.09-.4-.61-.15-.47l.24.42,0-.14.21.33c-.12-.28-.06-.24,0-.19-.14-.19-.33-.52-.29-.56.14.14.16.28.19.19.1.19.23.42,0,.19l.15.28c.15.16.1,0,.12,0a.13.13,0,0,1-.07,0L21.23,12a1.34,1.34,0,0,1,.15.29c0-.05-.07-.19-.05-.24a3.92,3.92,0,0,1,.29.62l-.07-.33a2.77,2.77,0,0,1,.22.34c.11.1-.13-.54,0-.4a.89.89,0,0,1,0-.14c.09,0,.25.26.18-.1l.2.39c0-.13-.25-.49-.22-.71s.16.34.22.44c0-.23-.11-.68.07-.39C22.21,11.88,22.17,11.83,22.16,11.87Zm.75-.5c0,.06,0,.24-.05.09C22.84,11.15,22.87,11.29,22.91,11.37Zm.29-.57c-.07,0,0-.05.05-.06S23.26,10.78,23.2,10.8Zm-1.9,4.29Zm-.12,0a.05.05,0,0,0,0,0s0,0,0,0S21.2,15.07,21.18,15.1Zm-3.23-4,.09.05C18.08,11.28,18,11.2,18,11.12Z"/><path class="b" d="M22.91,10.58H23A.25.25,0,0,0,22.91,10.58Z"/><polygon class="b" points="21.8 12.3 21.79 12.3 21.82 12.35 21.8 12.3"/><path class="b" d="M21.78,13.4a.12.12,0,0,1,.08,0S21.81,13.38,21.78,13.4Z"/><path class="b" d="M20.72,15.44l.06,0s-.05,0-.08,0S20.74,15.44,20.72,15.44Z"/><path class="b" d="M20,15.24l0,0v0S20,15.24,20,15.24Z"/><path class="b" d="M20.54,15.23c0-.05-.06,0-.1,0h0C20.48,15.32,20.51,15.28,20.54,15.23Z"/><path class="b" d="M20.43,15.25h0S20.41,15.27,20.43,15.25Z"/><path class="b" d="M21.09,15.2s0,.09,0,.07S21.18,15.11,21.09,15.2Z"/><polygon class="b" points="20.42 15.06 20.47 15.12 20.46 15.05 20.42 15.06"/><path class="b" d="M20.77,15l-.08,0s0,0,0,0S20.78,15,20.77,15Z"/><path class="b" d="M20.69,15a.1.1,0,0,0-.05,0S20.68,15,20.69,15Z"/><polygon class="b" points="20.5 14.99 20.52 15 20.57 14.98 20.5 14.99"/><path class="b" d="M21.45,14.56l.05-.08s-.05,0-.07,0S21.42,14.53,21.45,14.56Z"/><path class="b" d="M21.09,14.46s0,0,.07,0l-.07-.1Z"/><path class="b" d="M21.25,14.29s0-.15-.05-.08S21.17,14.31,21.25,14.29Z"/><polygon class="b" points="22.21 13.63 22.2 13.65 22.41 13.84 22.21 13.63"/><path class="b" d="M22.11,12.36c-.1,0,.17.13.06.14.06.06.09,0,.14.05C22.26,12.46,22.31,12.46,22.11,12.36Z"/><path class="b" d="M22.31,12.55l0,0Z"/><polygon class="b" points="15.25 15.26 15.02 15.34 15.37 15.3 15.25 15.26"/><path class="b" d="M16,15.47l-.65,0,.58.08S15.83,15.47,16,15.47Z"/><path class="b" d="M23.09,12.05V12c0-.09,0-.09,0-.1Z"/><polygon class="b" points="22.55 12.01 22.57 12.01 22.47 11.68 22.55 12.01"/><path class="b" d="M22.29,12.69s0-.08,0-.08S22.13,12.27,22.29,12.69Z"/><path class="b" d="M12.56,7.3a4.9,4.9,0,0,1-.4-2.25,2.85,2.85,0,0,1,.52-1.49,2.46,2.46,0,0,1,1.21-.91A4.11,4.11,0,0,1,16,2.51a4.85,4.85,0,0,1,.41,2.26,2.89,2.89,0,0,1-.52,1.49,2.6,2.6,0,0,1-1.22.91A4.11,4.11,0,0,1,12.56,7.3Z"/><path class="b" d="M12.54,7.57s0,0,0,0S12.54,7.56,12.54,7.57Z"/><polygon class="b" points="12.91 7.78 12.9 7.82 12.96 7.74 12.91 7.78"/><path class="b" d="M13.28,8c0-.32-.14,0-.2-.18V7.78L13,8C13.11,8,13.22,7.91,13.28,8Z"/><path class="b" d="M13.5,8.9c0-.15.05-.08-.06-.09v0Z"/><path class="b" d="M13.45,8.86s0,.14,0,0Z"/><path class="b" d="M13.68,8.94,13.62,9c0,.09.08.16.06.21S13.73,9.11,13.68,8.94Z"/><path class="b" d="M13.73,8.69l0,0S13.72,8.79,13.73,8.69Z"/><path class="b" d="M13.63,8.81l.07-.08c0-.07,0-.2,0,0C13.67,8.64,13.66,8.75,13.63,8.81Z"/><path class="b" d="M13.59,8.72c0-.1-.08-.17,0-.27C13.45,8.44,13.47,8.69,13.59,8.72Z"/><path class="b" d="M13.31,7.71l0-.1,0,.09S13.31,7.81,13.31,7.71Z"/><path class="b" d="M14.17,9.41c0-.1-.06-.27-.08-.39l0,.08A1.05,1.05,0,0,1,14.17,9.41Z"/><path class="b" d="M14.09,9l.06-.14C14.08,8.84,14.07,8.91,14.09,9Z"/><path class="b" d="M13.72,8.25a1.86,1.86,0,0,1-.1.25l.12-.25Z"/><polygon class="b" points="14.52 9.56 14.51 9.78 14.54 9.45 14.52 9.56"/><path class="b" d="M14.75,9.59c0,.2.14.38.12.49S15,9.9,15,9.74C14.93,9.82,14.87,9.79,14.75,9.59Z"/><path class="b" d="M15,9.51a1.17,1.17,0,0,0,0,.23A.56.56,0,0,0,15,9.51Z"/><path class="b" d="M14.3,9a.89.89,0,0,0,.11.31L14.33,9Z"/><path class="b" d="M14.33,9h0l.07,0Z"/><path class="b" d="M14.29,9h0S14.28,8.93,14.29,9Z"/><path class="b" d="M13.92,8.54a.71.71,0,0,0,0-.52A3,3,0,0,1,13.92,8.54Z"/><path class="b" d="M14.19,8.6l-.08-.08a.71.71,0,0,1,0,.25Z"/><polygon class="b" points="14.22 8.52 14.2 8.6 14.23 8.63 14.22 8.52"/><path class="b" d="M14.75,9.19c0-.13,0-.14.09-.15a.3.3,0,0,0-.18-.11C14.68,9,14.69,9.19,14.75,9.19Z"/><path class="b" d="M14.53,9.06h0S14.52,9,14.53,9.06Z"/><path class="b" d="M15.32,9.06l0-.06,0,.06Z"/><path class="b" d="M14.64,8.87c-.05-.07-.06,0-.06.09a.08.08,0,0,1,.08,0S14.65,8.85,14.64,8.87Z"/><path class="b" d="M15.09,9.38,15,9.19C15,9.3,15.1,9.46,15.09,9.38Z"/><path class="b" d="M14.57,9.13v0C14.59,9.21,14.58,9.18,14.57,9.13Z"/><path class="b" d="M14.57,9.13a.81.81,0,0,0,0-.17.19.19,0,0,0,0,.09Z"/><path class="b" d="M14.64,6.86c.12.32.16.63,0,.31A8.7,8.7,0,0,0,15.29,9a.84.84,0,0,1-.06-.46,1.53,1.53,0,0,1-.36-.67c0-.18.12.1.23.26-.18-.39-.1-.61-.37-1.19l0,.23C14.72,7.08,14.68,6.93,14.64,6.86Z"/><path class="b" d="M15.1,9l0,0a2.56,2.56,0,0,1,.26.43.73.73,0,0,0,0-.37L15.1,9Z"/><path class="b" d="M14.92,9a2.83,2.83,0,0,0-.18-.81c-.08,0,0,.27,0,.41.13-.08,0,.18.17.37a.14.14,0,0,1-.07.08l.13.15v0h0s0-.07,0,0h0l0-.12c.07.07,0,.08,0,.12l0,.05h0L15.08,9C15,9,15,9,14.92,9Z"/><path class="b" d="M13.91,7.45v.06S13.93,7.45,13.91,7.45Z"/><path class="b" d="M14,7.61s0,.15,0,.12a1.46,1.46,0,0,1,0-.22.59.59,0,0,0,0,.33v0a2.58,2.58,0,0,1,.18.5Z"/><path class="b" d="M14.38,8.19,14.46,8l-.12-.26,0,.16C14.31,7.87,14.36,8.07,14.38,8.19Z"/><polygon class="b" points="15.4 9.23 15.5 9.59 15.42 9.08 15.4 9.23"/><polygon class="b" points="15.61 9.17 15.73 9.49 15.72 9.29 15.61 9.17"/><path class="b" d="M14.82,3.17v0S14.82,3.19,14.82,3.17Z"/><path class="b" d="M15,3.2v0Z"/><path class="b" d="M19,5.72c.38,0,1,.13.51,0L19,5.62C19.1,5.7,19,5.72,19,5.72Z"/><path class="b" d="M16.14,3l-.08,0L16.34,3Z"/><path class="b" d="M15,3.34l.19-.11Z"/><path class="b" d="M14.19,3.76l.07.19C14.27,3.9,14.23,3.84,14.19,3.76Z"/><path class="b" d="M17.44,8.26c.17.09.26.12.31.1C17.51,8.22,17.2,8,17.44,8.26Z"/><path class="b" d="M14.77,1.76a.11.11,0,0,0,0,.08A.08.08,0,0,0,14.77,1.76Z"/><path class="b" d="M17.88,8.24l-.1-.05c0,.09,0,.16,0,.17C17.92,8.47,18.08,8.52,17.88,8.24Z"/><path class="b" d="M13.84,5.7h0Z"/><path class="b" d="M12,7.17s0,0-.06,0S11.92,7.16,12,7.17Z"/><path class="b" d="M16.51,9.14s0,0,0,0Z"/><path class="b" d="M15.55,7.8a1.46,1.46,0,0,0-.09-.18Z"/><path class="b" d="M16,6.07Z"/><path class="b" d="M16.35,9l.12.09Z"/><path class="b" d="M16.45,9.16l-.05,0C16.42,9.19,16.45,9.23,16.45,9.16Z"/><path class="b" d="M16.56,9.1a.11.11,0,0,1-.09,0l0,.06Z"/><path class="b" d="M13.4,4.41l0,0C13.49,4.48,13.47,4.46,13.4,4.41Z"/><polygon class="b" points="14.91 4.12 14.93 4.12 14.94 4.12 14.91 4.12"/><path class="b" d="M14.66,4.06c.41.05.36.06.28.06l1,.07Z"/><path class="b" d="M14.47,3.28l.07.09c0,.22,0,.18,0,.32-.09-.42.15-.11.09-.51l0,.08s0,0,0,0c.09.19,0-.3.1-.25a.15.15,0,0,1,0,.14l.06-.1s0,.09,0,.08l.1,0h0A1.29,1.29,0,0,1,15,2.93c0,.07,0,0,0,.11l.05-.1c0,.12,0,.22-.06.2.07.46.05-.11.16.21l0,0a2.56,2.56,0,0,0,.12.43c0-.11-.1-.51,0-.6s0,.08.07,0c0,.18,0,.16.07.18l0,.24s.05-.17.08-.26,0,.27,0,.46,0-.38.07-.36.1.08.2,0c0,.14,0,.18,0,.28l.07-.21s0,.09,0,.12,0-.32.12-.37,0-.06.05.07l-.62-.5c-.13.1-.34.23-.1.18a3.32,3.32,0,0,1-.35.13,2.47,2.47,0,0,0,.6-.05l-.27.16a3.09,3.09,0,0,1,1-.25l.33-.16.27,0a2.47,2.47,0,0,1-.4.11h.11a2.58,2.58,0,0,1-.64.19L16.06,3a6.23,6.23,0,0,0-.77.22.19.19,0,0,1,.1,0l-.17,0s0,0,.16,0l-.48.17.19-.06a2.5,2.5,0,0,1-.35.21l.86-.13a1.59,1.59,0,0,1,.68,0c-.39,0-.63.11-1.09.19.46-.11-.2,0-.14-.08a1.45,1.45,0,0,1-.33.1,3.58,3.58,0,0,1,.45,0,2.48,2.48,0,0,0-.42.12c.74-.15.5,0,.74,0-.25,0-.51.06-.46,0-.55.11.9,0,.42.06,0,0,0,0-.1,0,.24,0,.07.08-.16.08h0c-.08.07,0,.18.67.24l-.92-.06c.77.07,1.36.17,2.39.36-.84-.1-2.06-.2-2.4-.29-.08,0-.18,0,0,.06s.81.08.87.11l-.48,0-.39,0a5.24,5.24,0,0,1,1,.2l-1-.18c.29.07.58.15.86.24-.15-.06-.73-.16-1-.21.16,0,0,0,.06.08l.2,0c-.13,0,1.21.42,1.15.52-.17-.07-1.09-.38-1.2-.39.22.09.74.29,1.25.52a9.62,9.62,0,0,1,1.48.78l-.33-.11L17.8,6,17,5.56l-.86-.45c-.48-.26-1-.48-1.22-.59s-.29-.11-.28-.07a1.66,1.66,0,0,1-.36-.16l-.16,0a9.54,9.54,0,0,1,.91.46,5.19,5.19,0,0,0-.5-.31c.51.19,1.42.66,1.31.73-.21-.08-.89-.45-1-.53.17.09.31.22.18.16l-.25-.16c-.19-.08.63.4.15.18,0,0-.63-.34-.35-.17l1.4.82.9.54.66.42A6.24,6.24,0,0,1,16.4,6c-.52-.32-1-.74-1.4-1l.33.25C15.21,5.17,14.93,5,15,5c.47.34-.08,0,.39.3.11.13-.12,0-.12,0a7,7,0,0,1,1.15,1L16,6.07c-.1.07-.33-.07-.4,0a4.17,4.17,0,0,1-.42-.39c.07.09.2.24.19.27-.38-.33,0-.1-.47-.52A2.44,2.44,0,0,1,15.3,6c.36.39.13,0,0-.18A5.66,5.66,0,0,1,16.53,7.5c0,.24-.4-.39-.34-.29-.24,0,.77,1.32.21.92A13,13,0,0,1,15.56,7c-.06-.21.3.2.34.15L15.69,7c-.09-.16-.13-.3,0-.2-.31-.33-.28.12-.6-.15a2.24,2.24,0,0,0,.23.47V7c.25.33.21.53.36.66s.21.7,0,.53l-.28-.49c.08.14.22.27.17.11.06.24-.48-.62-.2,0l.23.31c.05.27.21.87,0,.71.27.48,0-.06.35.5-.4-.68.29-.08-.18-.78.41.64.28.25.7.79-.09-.16-.21-.31-.06-.25L16.34,9h0l0,0h0a1.55,1.55,0,0,1-.19-.24c-.17-.39,0-.42-.11-.63.1.05.1.19.24.36l-.12-.32c.23.36.54.55.54.81l.14,0c.21.18.38.22.33,0,.12,0-.16-.47,0-.17,0-.11,0-.25,0-.36l.08.09c.23-.06-.19-.78.57-.33,0-.13-.12-.3.07-.28l.32.26c-.05-.16.51.06.2-.24.95.62.5-.23.73-.26l-.45-.31c.08-.08,0-.26-.14-.49l-.42-.24c-.31-.28.4-.08.41-.28.17.09.11.12,0,.1.52.14.38-.08.19-.27s-.43-.39,0-.35c-.16-.11-.1-.12,0-.12l0,0s0,0,0,0a1,1,0,0,0,.25,0l-.25,0a.53.53,0,0,0-.16-.2l.48.12v0c.18,0-.23-.11-.59-.18l-.29-.15c.79.17-.28-.2.54-.06-.42-.14-.3-.34-1.15-.51.11,0,.16,0,.17,0s.14-.06,0-.11l-.1,0,.61.06c-.28-.08-.55-.15-.83-.21a2.77,2.77,0,0,1,1,.08,5.5,5.5,0,0,0-1-.35l.38,0c0-.05-.55-.14-.25-.16s.34-.19.33-.35A.37.37,0,0,1,18,3.15c-.92.24.37-.21-.36-.07A1.25,1.25,0,0,1,18.17,3c-.4-.07.14-.32-.49-.22.19-.07.31-.06.42-.1-.05,0-.2,0-.1,0a.68.68,0,0,1,.28,0c-.15-.1-.73.07-1.27.23.22-.13.15-.14-.21-.07.16-.07.31-.16.42-.12s0-.28-.33-.15c.09,0,0-.05-.06-.05s0-.09-.1-.15l0,0c-.14,0-.2.06-.22,0l-.35-.28S16.08,2,16,2V2c-.12-.26-.09.13-.21-.15l0,.23c-.07.47-.1-.27-.22-.07l0,.11c-.06.14-.1-.56-.16-.58s0-.06,0-.09,0,.25-.14.34c0-.12,0-.33,0-.33s-.21.45-.3.25a.33.33,0,0,1,0,.24c-.07,0-.22-.27-.26,0a.14.14,0,0,1,0-.06c-.05.08-.17.14-.18.28-.13-.48-.28.29-.37-.16L14,2V2c-.13,0-.13.1-.13.22s0-.08,0-.11c-.19-.08-.23-.07-.26.22l-.09-.17c0,.12-.41-.3-.49,0A.24.24,0,0,1,13,2c0,.13-.26,0-.46-.06s-.33-.07,0,.38a1.26,1.26,0,0,0,0,.27c.21,0,.31.39.49.51,0,.08-.35-.18-.34-.27l.05,0c-.38-.48-.33-.06-.65-.38a2.27,2.27,0,0,1-.64.22l-.2,0a.54.54,0,0,0-.12.09,1,1,0,0,0-.28.17l.58.28-.1.07c-.15,0-.47-.19-.39-.26-.35-.13.17.27.31.33-.33,0-.65-.39-.69-.36v.09l.08,0c.21.17.46.3.38.38a3,3,0,0,1-.42-.12s-.07,0,0,0l-.12.14L11,3.7c.22.16-.07.12.5.27-.89-.23-.44.43-.7.42.35.17.34.25.29.35s.66.07.58.14c-1-.18-.6,0-1.12.1h-.17c.53,0,.16.31.9.22-.08.08-.44,0-.65,0,.46.2-.16.42.1.64a1.85,1.85,0,0,1,.5,0L10.64,6c.09,0,.71,0,.34.08a.78.78,0,0,1,.28,0c-.2.24.07.41.23.56a.63.63,0,0,1,.28.52.08.08,0,0,1,.13,0s.12,0,.18-.07a.35.35,0,0,0,0,.17c.16,0,.21.09.32.06l-.07,0c.15,0,.21-.17.43-.24-.07,0,0-.07.07-.15s.19-.17,0-.16c.07-.05.09,0,.17-.05-.12,0-.15,0-.06-.1h0c0-.18.23-.3.47-.51l-.26.07A.64.64,0,0,1,13.4,6c-.39,0-.08.11-.49.16.55-.17.09-.27.78-.41,0,0-.36.07-.33,0l.2,0-.25,0a1.89,1.89,0,0,1,.49-.11s0,0,0,0c.27-.06,0-.09.09-.11l-.16,0c-.06,0,0-.12,0-.18s0-.06,0-.09-.12,0-.23-.07h-.18c-.21-.06-.06-.07,0-.08s.07,0,0-.06h.05c-.18,0-.26-.08-.24-.1.2,0,.4,0,.63.09-.34-.13-.27-.08-.91-.27l.29.05c-.26-.08-.39-.11-.46-.19.24.11.45.09.76.21.64.1-.59-.32.32-.06-.76-.31-.45-.07-.61-.15s-.58-.23-.49-.24,1,.3,1,.25l.05,0c.2.07-.24-.16.08,0-.45-.23,0,0-.53-.31l.1.13c-.14-.1-.78-.48-.42-.39l.33.23c.17.07-.1-.1.08,0,.56.31.08.14.51.38.24.11-.39-.26.22.07-.77-.43.11,0-.45-.35l.33.2c-.05,0-.2-.14-.18-.15l.41.28c-.35-.25.33.16.15,0,0,0-.39-.26-.63-.39-.39-.37.88.55.63.35a2,2,0,0,1-.29-.21,1.25,1.25,0,0,1,.28.2c-.12-.12-.28-.23-.46-.41.31.26-.14-.15-.24-.28l.25.24c.12.05-.5-.53-.32-.44l.31.37-.09-.13.25.28c-.2-.26-.15-.22-.1-.21a1.7,1.7,0,0,1-.33-.48c.11.11.16.24.15.14.09.15.23.35.08.17l.17.24c.1.12,0-.07,0-.1s0,0,0,0-.14-.28-.19-.41A1.16,1.16,0,0,1,14,4S14,3.82,14,3.77a4.24,4.24,0,0,1,.27.49A2,2,0,0,1,14.1,4c0,.07.11.14.15.22s-.16-.48-.07-.45a.36.36,0,0,1,0-.1c.05,0,.12.07.11-.17l.11.2c0-.1-.14-.24-.08-.4s.08.17.11.21c0-.13,0-.38.11-.23S14.48,3.25,14.47,3.28Zm.75-.07s-.05.13-.06,0S15.19,3.14,15.22,3.21Zm.32.1c-.11,0,0,0,.07-.08S15.63,3.26,15.54,3.31Zm1.22,5.35v0C16.92,8.76,16.86,8.71,16.76,8.66Zm-.25-.12a.82.82,0,0,0,.11.17c-.06-.11,0-.12,0-.11S16.49,8.44,16.51,8.54ZM10.75,3.48l.12,0C11,3.6,10.86,3.54,10.75,3.48Z"/><path class="b" d="M15.12,3.3l.17-.06Z"/><polygon class="b" points="14.18 3.72 14.18 3.72 14.19 3.76 14.18 3.72"/><path class="b" d="M14.82,4.88,15,5A.69.69,0,0,0,14.82,4.88Z"/><path class="b" d="M16.14,9.41c0-.05,0-.08,0-.12s-.1-.06-.15-.11S16.16,9.39,16.14,9.41Z"/><path class="b" d="M14.54,7.19s0,0,0,0l.05.18S14.59,7.25,14.54,7.19Z"/><path class="b" d="M15.45,8.15c-.16-.33-.15-.19-.17-.12h0C15.48,8.49,15.47,8.33,15.45,8.15Z"/><path class="b" d="M15.27,8s0,0,0,0C15.3,8.25,15.27,8.1,15.27,8Z"/><path class="b" d="M16.49,8.82c-.09-.07.24.43.14.3C16.86,9.56,16.51,8.55,16.49,8.82Z"/><polygon class="b" points="14.91 7.08 15.11 7.48 14.98 7.15 14.91 7.08"/><path class="b" d="M15.35,7.24l-.12-.08a1.14,1.14,0,0,1,.06.15S15.42,7.36,15.35,7.24Z"/><path class="b" d="M15.29,7.31s0,0,0,.09A.1.1,0,0,0,15.29,7.31Z"/><polygon class="b" points="14.93 6.93 14.98 7 15.04 7.01 14.93 6.93"/><path class="b" d="M16,6.9l0-.16c-.11-.14-.2-.2-.17-.13A1.48,1.48,0,0,0,16,6.9Z"/><path class="b" d="M15.06,6.05a3.22,3.22,0,0,1,.23.25L15,5.86Z"/><path class="b" d="M15.09,5.85c-.09-.12-.24-.37-.25-.31A1.13,1.13,0,0,0,15.09,5.85Z"/><polygon class="b" points="16.05 5.6 16.05 5.62 16.93 6.17 16.05 5.6"/><path class="b" d="M14.38,4.25c-.19,0,.48.15.24.1.18.07.19,0,.35.1A2.41,2.41,0,0,0,14.38,4.25Z"/><path class="b" d="M15,4.45l.12,0Z"/><path class="b" d="M12.1,7.33l.05,0v0Z"/><path class="b" d="M12.35,7.34l0,0h.1Z"/><path class="b" d="M15.31,3.77V3.71a.2.2,0,0,0,0-.11Z"/><polygon class="b" points="14.8 3.36 14.8 3.37 14.77 3.19 14.8 3.36"/><path class="b" d="M14.46,3.75s0-.06,0-.07S14.39,3.52,14.46,3.75Z"/></pattern></defs><title>yeast</title><circle class="c" cx="88.21" cy="88.21" r="88.21"/><circle class="d" cx="88.21" cy="88.21" r="57.19"/></svg>